<?xml version="1.0" encoding="UTF-8" standalone="no"?>
<!-- Created with Inkscape (http://www.inkscape.org/) -->

<svg
   width="387.43805mm"
   height="336.10944mm"
   viewBox="0 0 387.43805 336.10944"
   version="1.1"
   id="svg747"
   inkscape:version="1.2.1 (9c6d41e410, 2022-07-14)"
   sodipodi:docname="logo.svg"
   xmlns:inkscape="http://www.inkscape.org/namespaces/inkscape"
   xmlns:sodipodi="http://sodipodi.sourceforge.net/DTD/sodipodi-0.dtd"
   xmlns:xlink="http://www.w3.org/1999/xlink"
   xmlns="http://www.w3.org/2000/svg"
   xmlns:svg="http://www.w3.org/2000/svg">
  <sodipodi:namedview
     id="namedview749"
     pagecolor="#ffffff"
     bordercolor="#666666"
     borderopacity="1.0"
     inkscape:showpageshadow="2"
     inkscape:pageopacity="0.0"
     inkscape:pagecheckerboard="0"
     inkscape:deskcolor="#d1d1d1"
     inkscape:document-units="mm"
     showgrid="false"
     inkscape:zoom="0.24398877"
     inkscape:cx="229.51876"
     inkscape:cy="1082.017"
     inkscape:window-width="1918"
     inkscape:window-height="1042"
     inkscape:window-x="0"
     inkscape:window-y="0"
     inkscape:window-maximized="1"
     inkscape:current-layer="layer1" />
  <defs
     id="defs744">
    <clipPath
       clipPathUnits="userSpaceOnUse"
       id="clipPath1138">
      <path
         d="M 0,1080 H 1920 V 0 H 0 Z"
         id="path1136" />
    </clipPath>
  </defs>
  <g
     inkscape:label="Layer 1"
     inkscape:groupmode="layer"
     id="layer1"
     transform="translate(88.719024,52.584741)">
    <g
       id="g660"
       style="display:inline"
       transform="translate(-95.000002,-84.53002)">
      <g
         id="g1116"
         transform="matrix(0.17168101,0,0,-0.17168101,83.555343,247.31329)"
         style="display:inline;fill:#636363;fill-opacity:1">
        <path
           d="m 0,0 532.394,468.507 112.564,-80.62 234.253,161.239 219.042,-261.633 174.93,-86.705 171.887,120.17 c 47.1553,-50.19803 1.5213,-93.54982 -4.564,-62.367 l -68.3791,-90.92529 -10.7179,46.08029 -217.522,-143.774 112.564,117.127 -86.704,40.309 42.59,-43.352 -82.14,43.352 -57.803,37.268 -196.225,255.549 -56.282,-65.409 41.071,13.691 -66.93,-73.014 13.69,-161.24 -45.634,146.028 -95.831,-83.662 -74.535,-69.211 -28.901,-88.986 -1.522,101.915 120.169,123.212 -123.211,-66.93 56.282,63.888 -83.662,86.704 -115.605,-155.155 97.352,57.803 -161.24,-203.832 21.296,67.719 -153.634,-140.732 59.324,92.789 z"
           style="fill:#636363;fill-opacity:1;fill-rule:nonzero;stroke:none"
           id="path1118"
           sodipodi:nodetypes="ccccccccccccccccccccccccccccccccccccc" />
      </g>
      <g
         id="g1120"
         transform="matrix(0.17168101,0,0,-0.17168101,210.73468,191.42761)"
         style="display:inline;fill:#636363;fill-opacity:1">
        <path
           d="m 0,0 -106.479,-89.746 -19.774,-66.93 z"
           style="fill:#636363;fill-opacity:1;fill-rule:nonzero;stroke:none"
           id="path1122" />
      </g>
      <g
         id="g1124"
         transform="matrix(0.17168101,0,0,-0.17168101,236.45297,173.14719)"
         style="display:inline;fill:#636363;fill-opacity:1">
        <path
           d="m 0,0 85.972,-167.324 -48.676,-50.929 h 76.057 l -63.888,-104.226 124.732,89.747 z"
           style="fill:#636363;fill-opacity:1;fill-rule:nonzero;stroke:none"
           id="path1126" />
      </g>
      <g
         id="g1132"
         transform="matrix(0.17168101,0,0,-0.17168101,71.639189,303.32489)"
         style="display:inline;fill:#636363;fill-opacity:1">
        <g
           id="g1134"
           clip-path="url(#clipPath1138)"
           style="fill:#636363;fill-opacity:1">
          <g
             id="g1140"
             transform="translate(148.5068,330.8174)"
             style="fill:#636363;fill-opacity:1">
            <path
               id="path1142"
               style="fill:#636363;fill-opacity:1;fill-rule:nonzero;stroke:none"
               d="m 642.42182,76.564052 0.5087,-13.689599 c 0,0 -7.09806,-8.113123 -1.52007,-17.747113 l -8.11503,-0.508695 6.59196,-19.772861 -15.21267,-1.523073 10.64947,-19.267177 -15.71836,-1.5200632 c 0,0 -5.07072,-6.08519 6.08327,-19.2671768 v -2.537452 l -14.70398,1.523073 c 0,0 -4.56239,-16.73329 -12.42238,-14.198293 v 11.155157 l -10.39362,0.508694 5.57758,15.7183564 -8.11202,4.37657785 4.05451,10.83308375 -4.5632,3.548821 -9.1264,24.844755 -5.06889,-26.364818 c 0,0 -11.15668,3.686142 -0.50869,-12.86184175 l -11.15516,-3.87089355 8.62072,-15.7183557 -14.70398,-1.520064 9.1264,-17.241429 -11.15516,1.520063 -8.11202,-11.660841 -56.28147,-12.169535 c 0,0 20.78629,31.943332 -0.50869,30.422333 h -14.19528 c 0,0 28.39397,30.05472244 0,30.23872225 h -9.1264 c 0,0 19.26736,32.63619375 1.01438,28.58019775 l -5.0719,-1.014379 c 0,0 7.60562,16.22518 -1.01438,19.267177 l -5.06888,24.339071 -4.05751,0.505684 -4.5632,-22.310313 c 0,0 -13.68999,-5.577746 0,-16.732735 l -0.5087,-8.11202 -11.15516,4.563199 -2.02574,-10.646462 10.64646,-18.43941975 H 420.84477 V -17.746085 l 12.16954,-14.198293 -11.66084,-3.040126 c 0,0 -7.09837,-21.296658 -1.01438,-29.916649 l -5.07189,0.505684 c 0,0 3.55094,34.478914 -16.22404,35.999912 l 6.08326,14.706987 -6.08326,5.0688842 -6.59196,28.8992598 -3.54882,0.508695 -5.0719,-30.4223336 c 0,0 -15.21098,0.5080075 0,-14.7039774 l 1.52308,-5.577578 c 0,0 -26.36618,7.603101 -4.5632,-19.775871 0,0 -26.36826,-7.096319 -6.08628,-22.307304 0,0 -78.59121,-10.647953 -95.8302,-6.591957 0,0 18.7604,26.870854 -5.57757,19.772862 0,0 11.15347,24.846005 -4.05752,22.819007 0,0 3.55017,20.787796 -3.54882,18.252798 l -7.60634,30.928018 -6.08326,-30.928018 -5.57758,0.505685 c 0,0 0.50721,-16.7328 4.5632,-18.252798 0,0 -25.35218,7.605796 -4.5632,-19.267177 0,0 -27.37986,5.575519 -5.06888,-25.35345 l -1.52307,-2.534442 -11.15516,9.632084 -13.6896,1.523073 c 0,0 21.29616,25.857439 -3.54882,25.350439 l -4.05751,-1.520063 c 0,0 23.32553,31.944128 -2.53445,25.859134 l -5.57757,-0.508694 c 0,0 17.74636,22.44970093 1.01437,22.12670125 0,0 4.56418,14.88928375 -3.54882,15.39628375 l -3.04313,18.252798 -6.59196,-18.252798 c 0,0 -6.59199,-6.4532927 0,-15.39628375 0,0 -20.78836,-2.85764615 -1.01438,-20.60362825 0,0 -35.99923,0.508155 -6.08326,-26.364818 0,0 -39.04269,8.111517 -8.62072,-25.35345 -53.98776,80.7976519 48.45007,-37.628411 141.9739,-33.971151 0,0 208.39401,3.04127 406.13981,73.014199 0,0 217.82786,53.670679 393.64516,57.148355 l 11.2244,20.80229 c -29.0481,2.050263 -55.6801,2.715725 -72.7583,0.132441 0,0 -192.16802,-6.591181 -278.87293,-33.971154 l -97.35327,-22.815998 -2.02575,15.7183566 -14.70398,-0.5086944 9.63209,15.2126718 -6.59196,6.591957 -8.11202,0.505684 8.11202,12.67522 -7.60634,8.620715 0.5087,8.620714 -6.08326,7.606336 0.50568,13.180904 z"
               sodipodi:nodetypes="cccccccccccccccccccccccccccccccccccccccccccccccccccccccccccccccccccccccccccccccccccccccccccccccccccccc" />
          </g>
          <g
             id="g1144"
             transform="translate(854.3101,203.5488)"
             style="fill:#636363;fill-opacity:1" />
        </g>
      </g>
      <g
         id="nix_logo"
         transform="matrix(0.77266535,0,0,0.77266535,4.9406822,32.523115)">
        <g
           transform="translate(-154.74908,536.81351)"
           style="display:inline;opacity:1;fill:#5277c3;fill-opacity:1"
           inkscape:label="gradient-logo"
           id="layer3">
          <g
             style="display:inline;fill:#5277c3;fill-opacity:1;stroke-width:11.0512"
             transform="matrix(0.09048806,0,0,0.09048806,142.32381,-453.10644)"
             id="g955">
            <g
               transform="matrix(11.047619,0,0,11.047619,-1572.2888,9377.7107)"
               id="g869"
               style="fill:#5277c3;fill-opacity:1">
              <g
                 transform="rotate(-60,226.35754,-449.37199)"
                 id="g932"
                 style="fill:#5277c3;fill-opacity:1;stroke-width:11.0512">
                <path
                   sodipodi:nodetypes="cccccccccc"
                   inkscape:connector-curvature="0"
                   id="path3336-6"
                   d="m 449.71876,-420.51322 122.19683,211.67512 -56.15706,0.5268 -32.6236,-56.8692 -32.85645,56.5653 -27.90237,-0.011 -14.29086,-24.6896 46.81047,-80.4901 -33.22946,-57.8257 z"
                   style="display:inline;opacity:1;fill:#5277c3;fill-opacity:1;fill-rule:evenodd;stroke:none;stroke-width:33.1535;stroke-linecap:butt;stroke-linejoin:round;stroke-miterlimit:4;stroke-dasharray:none;stroke-opacity:1" />
              </g>
              <path
                 sodipodi:nodetypes="cccccccccc"
                 inkscape:connector-curvature="0"
                 id="path4260-0"
                 d="m 309.54892,-710.38827 122.19683,211.67512 -56.15706,0.5268 -32.6236,-56.8692 -32.85645,56.5653 -27.90237,-0.011 -14.29086,-24.6896 46.81047,-80.4901 -33.22946,-57.8256 z"
                 style="color:#000000;clip-rule:nonzero;display:inline;overflow:visible;visibility:visible;opacity:1;isolation:auto;mix-blend-mode:normal;color-interpolation:sRGB;color-interpolation-filters:linearRGB;solid-color:#000000;solid-opacity:1;fill:#5277c3;fill-opacity:1;fill-rule:evenodd;stroke:none;stroke-width:33.1535;stroke-linecap:butt;stroke-linejoin:round;stroke-miterlimit:4;stroke-dasharray:none;stroke-dashoffset:0;stroke-opacity:1;color-rendering:auto;image-rendering:auto;shape-rendering:auto;text-rendering:auto;enable-background:accumulate" />
              <use
                 x="0"
                 y="0"
                 xlink:href="#path3336-6"
                 inkscape:transform-center-x="124.43045"
                 inkscape:transform-center-y="151.59082"
                 id="use3439-6"
                 transform="rotate(60,728.23563,-692.24036)"
                 width="100%"
                 height="100%"
                 style="fill:#5277c3;fill-opacity:1;stroke-width:11.0512" />
              <use
                 x="0"
                 y="0"
                 xlink:href="#path3336-6"
                 inkscape:transform-center-x="59.669705"
                 inkscape:transform-center-y="-139.94592"
                 id="use3449-5"
                 transform="rotate(180,477.5036,-570.81898)"
                 width="100%"
                 height="100%"
                 style="fill:#5277c3;fill-opacity:1;stroke-width:11.0512" />
              <use
                 style="display:inline;fill:#5277c3;fill-opacity:1;stroke-width:11.0512"
                 x="0"
                 y="0"
                 xlink:href="#path4260-0"
                 id="use4354-5"
                 transform="rotate(120,407.33916,-716.08356)"
                 width="100%"
                 height="100%" />
              <use
                 style="display:inline;fill:#5277c3;fill-opacity:1;stroke-width:11.0512"
                 x="0"
                 y="0"
                 xlink:href="#path4260-0"
                 id="use4362-2"
                 transform="rotate(-120,407.28823,-715.86995)"
                 width="100%"
                 height="100%" />
            </g>
          </g>
        </g>
      </g>
    </g>
  </g>
</svg>
