<?xml version="1.0" encoding="UTF-8" standalone="no"?>
<!-- Created with Inkscape (http://www.inkscape.org/) -->

<svg
   version="1.1"
   id="svg2138"
   width="155.39679"
   height="138.57162"
   viewBox="0 0 155.39679 138.57163"
   xml:space="preserve"
   sodipodi:docname="livnug.svg"
   inkscape:version="1.2.1 (9c6d41e410, 2022-07-14)"
   xmlns:inkscape="http://www.inkscape.org/namespaces/inkscape"
   xmlns:sodipodi="http://sodipodi.sourceforge.net/DTD/sodipodi-0.dtd"
   xmlns:xlink="http://www.w3.org/1999/xlink"
   xmlns="http://www.w3.org/2000/svg"
   xmlns:svg="http://www.w3.org/2000/svg"><sodipodi:namedview
     id="namedview13984"
     pagecolor="#ffffff"
     bordercolor="#666666"
     borderopacity="1.0"
     inkscape:showpageshadow="2"
     inkscape:pageopacity="0.0"
     inkscape:pagecheckerboard="0"
     inkscape:deskcolor="#d1d1d1"
     showgrid="false"
     inkscape:zoom="1.7421704"
     inkscape:cx="-69.740595"
     inkscape:cy="47.641723"
     inkscape:window-width="1918"
     inkscape:window-height="1042"
     inkscape:window-x="0"
     inkscape:window-y="0"
     inkscape:window-maximized="1"
     inkscape:current-layer="g5130" /><defs
     id="defs2142"><linearGradient
       id="linearGradient5562"><stop
         style="stop-color:#699ad7;stop-opacity:1"
         offset="0"
         id="stop5564" /><stop
         id="stop5566"
         offset="0.24345198"
         style="stop-color:#7eb1dd;stop-opacity:1" /><stop
         style="stop-color:#7ebae4;stop-opacity:1"
         offset="1"
         id="stop5568" /></linearGradient><linearGradient
       id="linearGradient5053"><stop
         style="stop-color:#415e9a;stop-opacity:1"
         offset="0"
         id="stop5055" /><stop
         id="stop5057"
         offset="0.23168644"
         style="stop-color:#4a6baf;stop-opacity:1" /><stop
         style="stop-color:#5277c3;stop-opacity:1"
         offset="1"
         id="stop5059" /></linearGradient><linearGradient
       id="linearGradient5960"><stop
         id="stop5962"
         offset="0"
         style="stop-color:#637ddf;stop-opacity:1" /><stop
         style="stop-color:#649afa;stop-opacity:1"
         offset="0.23168644"
         id="stop5964" /><stop
         id="stop5966"
         offset="1"
         style="stop-color:#719efa;stop-opacity:1" /></linearGradient><linearGradient
       id="linearGradient5867"><stop
         style="stop-color:#7363df;stop-opacity:1"
         offset="0"
         id="stop5869" /><stop
         id="stop5871"
         offset="0.23168644"
         style="stop-color:#6478fa;stop-opacity:1" /><stop
         style="stop-color:#719efa;stop-opacity:1"
         offset="1"
         id="stop5873" /></linearGradient><linearGradient
       y2="515.97058"
       x2="282.26105"
       y1="338.62445"
       x1="213.95642"
       gradientTransform="translate(-197.75174,-337.1451)"
       gradientUnits="userSpaceOnUse"
       id="linearGradient5855-8"
       xlink:href="#linearGradient5867" /><linearGradient
       y2="247.58188"
       x2="-702.75317"
       y1="102.74675"
       x1="-775.20807"
       gradientTransform="translate(983.36076,601.38885)"
       gradientUnits="userSpaceOnUse"
       id="linearGradient4544"
       xlink:href="#linearGradient5960" /><clipPath
       id="clipPath4501"
       clipPathUnits="userSpaceOnUse"><circle
         r="241.06563"
         cy="686.09473"
         cx="335.13995"
         id="circle4503"
         style="color:#000000;clip-rule:nonzero;display:inline;overflow:visible;visibility:visible;opacity:1;isolation:auto;mix-blend-mode:normal;color-interpolation:sRGB;color-interpolation-filters:linearRGB;solid-color:#000000;solid-opacity:1;fill:#adadad;fill-opacity:1;fill-rule:evenodd;stroke:none;stroke-width:3;stroke-linecap:butt;stroke-linejoin:round;stroke-miterlimit:4;stroke-dasharray:none;stroke-dashoffset:0;stroke-opacity:1;marker:none;color-rendering:auto;image-rendering:auto;shape-rendering:auto;text-rendering:auto;enable-background:accumulate" /></clipPath><clipPath
       id="clipPath5410"
       clipPathUnits="userSpaceOnUse"><circle
         r="241.13741"
         cy="340.98975"
         cx="335.98114"
         id="circle5412"
         style="color:#000000;clip-rule:nonzero;display:inline;overflow:visible;visibility:visible;opacity:1;isolation:auto;mix-blend-mode:normal;color-interpolation:sRGB;color-interpolation-filters:linearRGB;solid-color:#000000;solid-opacity:1;fill:#ffffff;fill-opacity:1;fill-rule:evenodd;stroke:none;stroke-width:3;stroke-linecap:butt;stroke-linejoin:round;stroke-miterlimit:4;stroke-dasharray:none;stroke-dashoffset:0;stroke-opacity:1;marker:none;color-rendering:auto;image-rendering:auto;shape-rendering:auto;text-rendering:auto;enable-background:accumulate" /></clipPath><linearGradient
       xlink:href="#linearGradient5053"
       id="linearGradient5137"
       gradientUnits="userSpaceOnUse"
       gradientTransform="translate(864.55062,-2197.497)"
       x1="-584.19934"
       y1="782.33563"
       x2="-496.29703"
       y2="937.71399" /><linearGradient
       xlink:href="#linearGradient5562"
       id="linearGradient5162"
       gradientUnits="userSpaceOnUse"
       gradientTransform="translate(70.505061,-1761.3076)"
       x1="200.59668"
       y1="351.41116"
       x2="290.08701"
       y2="506.18814" /><clipPath
       id="a"
       transform="translate(-455.77 -425.88)"><path
         d="m 483.57,558.22 a 38.48,38.48 0 0 1 -1.73,4.63 c 2.88,0 5.24,-1.95 7.26,-3.61 a 58.56,58.56 0 0 1 -3.4,9.27 98.09,98.09 0 0 1 -7.14,13.6 l -2.56,4.14 a 6.17,6.17 0 0 1 -2.5,2.77 7.63,7.63 0 0 1 -4.93,-0.66 9,9 0 0 0 -4.05,-0.83 3.81,3.81 0 0 0 -2.56,1.1 1.67,1.67 0 0 0 -0.07,1.5 c -1.82,-0.17 -3.8,-0.17 -5.24,0.91 a 2.3,2.3 0 0 0 -0.65,2.34 2,2 0 0 0 1.21,1.27 5.73,5.73 0 0 1 4,-2.57 4.11,4.11 0 0 1 2,0 c 0.16,0.09 0,0.3 -0.1,0.39 a 6,6 0 0 0 -1.88,1.3 2.76,2.76 0 0 0 -0.72,2.4 2.51,2.51 0 0 0 2.73,1.43 c 0.1,-0.13 0,-0.26 0,-0.39 -0.14,-1.23 1.11,-1.89 2,-2.4 3.12,-1.07 6.66,-1.07 10.07,-1.17 a 66.51,66.51 0 0 1 8.53,0.23 8.53,8.53 0 0 1 4.59,1.52 1,1 0 0 1 0.15,1.17 1.62,1.62 0 0 0 1.18,-0.32 c 0.06,-0.07 0.1,-0.09 0.25,-0.23 a 3.63,3.63 0 0 0 1.31,-3 2.7,2.7 0 0 0 -2,-2.18 3.6,3.6 0 0 0 -0.45,-0.17 c -2.14,-0.64 -4.51,-0.39 -6.83,-0.35 -0.65,-0.1 -1.49,0 -1.78,-0.69 a 1.73,1.73 0 0 1 0.25,-1.27 c 1.45,-2.09 2.95,-4.16 4.46,-6.21 v 0 c 2.53,-3.47 5.22,-7.12 7.58,-10.66 a 18.41,18.41 0 0 0 3.15,-9.42 14,14 0 0 0 4.55,3.06 2.75,2.75 0 0 0 1.33,0.09 22.74,22.74 0 0 1 -3,-6.93 v 0 a 37.42,37.42 0 0 1 -0.94,-6.79 c -0.88,-0.26 -1.87,-0.29 -2.73,-0.52 a 46,46 0 0 1 -9.6,-3.58 46.69,46.69 0 0 1 -1.88,10.79"
         style="fill:none"
         id="path26608" /></clipPath><linearGradient
       id="b"
       x1="54.200001"
       y1="826.06"
       x2="61.09"
       y2="826.06"
       gradientTransform="matrix(9.64,0,0,-9.64,-523.49,8107.17)"
       gradientUnits="userSpaceOnUse"><stop
         offset="0"
         stop-color="#5e0000"
         id="stop26611" /><stop
         offset="0.07"
         stop-color="#800709"
         id="stop26613" /><stop
         offset="0.14"
         stop-color="#9f0d11"
         id="stop26615" /><stop
         offset="0.22"
         stop-color="#b71318"
         id="stop26617" /><stop
         offset="0.3"
         stop-color="#c8161c"
         id="stop26619" /><stop
         offset="0.39"
         stop-color="#d3181f"
         id="stop26621" /><stop
         offset="0.5"
         stop-color="#d61920"
         id="stop26623" /><stop
         offset="0.61"
         stop-color="#d3181f"
         id="stop26625" /><stop
         offset="0.7"
         stop-color="#c9161d"
         id="stop26627" /><stop
         offset="0.78"
         stop-color="#b81318"
         id="stop26629" /><stop
         offset="0.86"
         stop-color="#a10e12"
         id="stop26631" /><stop
         offset="0.93"
         stop-color="#83080a"
         id="stop26633" /><stop
         offset="1"
         stop-color="#5f0000"
         id="stop26635" /><stop
         offset="1"
         stop-color="#5e0000"
         id="stop26637" /></linearGradient><clipPath
       id="c"
       transform="translate(-455.77 -425.88)"><path
         d="m 512.93,526.92 c 2.6,2.37 5.69,4.64 8.37,6.7 a 47,47 0 0 1 11.37,11.57 c 2.27,3.43 3.61,5.41 5,9.29 0.38,1.07 0.76,2.34 1,3.37 a 28.78,28.78 0 0 1 -0.06,16.44 c 0,0.48 -0.43,0.81 -0.16,1.3 0.68,0.16 0.93,-0.65 1.29,-1 a 41.72,41.72 0 0 0 4.52,-9.4 27.44,27.44 0 0 0 1.34,-7.46 v 0 c 0.2,-6.33 -1.76,-12.94 -6.1,-17.61 a 27,27 0 0 0 -8.9,-6.68 h -0.06 c -4.68,-2.26 -10,-3.82 -14.78,-5.77 a 18.16,18.16 0 0 0 -2.76,-1.17 0.32,0.32 0 0 0 -0.1,0.42"
         style="fill:none"
         id="path26640" /></clipPath><linearGradient
       id="d"
       x1="46.23"
       y1="835.53003"
       x2="53.119999"
       y2="835.53003"
       gradientTransform="matrix(6.89,0,0,-6.89,-262.27,5880.23)"
       xlink:href="#b" /><clipPath
       id="e"
       transform="translate(-455.77 -425.88)"><path
         d="m 524.27,518.86 c 0,0.1 -0.1,0.23 0,0.32 a 26.21,26.21 0 0 0 3.18,0.49 35.5,35.5 0 0 0 8.17,-0.21 35,35 0 0 0 3.4,-4.22 c 0.2,-0.56 0.85,-1 0.72,-1.67 0,-0.12 -0.19,-0.12 -0.3,-0.15 a 41.11,41.11 0 0 1 -15.18,5.43"
         style="fill:none"
         id="path26644" /></clipPath><linearGradient
       id="f"
       x1="-8.6499996"
       y1="879.01001"
       x2="-1.76"
       y2="879.01001"
       gradientTransform="matrix(3.03,0,0,-3.03,94.3,2754.96)"
       xlink:href="#b" /><clipPath
       id="g"
       transform="translate(-455.77 -425.88)"><path
         d="m 546.94,501.21 a 19.53,19.53 0 0 0 -2.64,1.83 54.42,54.42 0 0 1 -13.18,6.16 v 0 a 45.14,45.14 0 0 1 -5.79,1.37 v 0.37 c 0.32,3 -2.37,5.26 -4.75,6.5 v 0.2 l 0.41,0.06 a 38.38,38.38 0 0 0 5.67,-1.07 41.42,41.42 0 0 0 13.81,-7.15 l 0.26,-0.19 h 0.06 a 0.94,0.94 0 0 0 0.14,-0.11 v 0 a 31.51,31.51 0 0 0 5.77,-5.92 c 0.16,-0.56 0.78,-1 0.69,-1.66 -0.1,-0.12 -0.22,-0.33 -0.39,-0.33 v 0"
         style="fill:none"
         id="path26648" /></clipPath><linearGradient
       id="h"
       x1="13.89"
       y1="864.28003"
       x2="20.780001"
       y2="864.28003"
       gradientTransform="matrix(3.95,0,0,-3.95,9.06,3498.17)"
       xlink:href="#b" /><clipPath
       id="i"
       transform="translate(-455.77 -425.88)"><path
         d="m 481.12,463.2 a 14.22,14.22 0 0 1 -0.55,2 c 2.64,-0.37 5.63,-1.12 5.63,-2.52 0,-1 -1.6,-1.15 -4.86,-1.15 a 8.25,8.25 0 0 1 -0.21,1.64"
         style="fill:none"
         id="path26652" /></clipPath><linearGradient
       id="j"
       x1="-320.34"
       y1="1119.5601"
       x2="-313.45001"
       y2="1119.5601"
       gradientTransform="matrix(0.83,0,0,-0.83,290.48,966.69)"
       xlink:href="#b" /><clipPath
       id="k"
       transform="translate(-455.77 -425.88)"><path
         d="M 520.57,582 Z"
         style="fill:none"
         id="path26656" /></clipPath><linearGradient
       id="l"
       x1="520.57001"
       y1="582"
       x2="520.59003"
       y2="582"
       gradientTransform="matrix(0,0,0,0,828.2,740.43)"
       xlink:href="#b" /><clipPath
       id="m"
       transform="translate(-455.77 -425.88)"><path
         d="m 552.15,488.06 c -1.54,1 -2.48,2.31 -4,3.29 a 70.53,70.53 0 0 1 -5.88,4.06 76.44,76.44 0 0 1 -13.79,6.38 7.43,7.43 0 0 1 -2.6,6.34 c 0,0.19 -0.29,0.12 -0.29,0.3 a 0.33,0.33 0 0 0 0.06,0.22 42.07,42.07 0 0 0 11.61,-4.32 c 5,-3 10,-6.56 13.43,-11.52 a 11.1,11.1 0 0 0 2,-4.28 c 0,-0.33 -0.19,-0.46 -0.44,-0.46 h -0.07"
         style="fill:none"
         id="path26660" /></clipPath><linearGradient
       id="n"
       x1="15.84"
       y1="866.01001"
       x2="22.73"
       y2="866.01001"
       gradientTransform="matrix(4,0,0,-4,5.58,3533.53)"
       xlink:href="#b" /><clipPath
       id="o"
       transform="translate(-455.77 -425.88)"><path
         d="m 494.74,536.34 a 31.17,31.17 0 0 1 -6.18,-2.76 29.13,29.13 0 0 1 -8.42,-7.52 23.11,23.11 0 0 1 -2.7,-4.8 24.85,24.85 0 0 1 -1.8,-9.22 21.2,21.2 0 0 1 1.64,-8.25 33.3,33.3 0 0 1 3.82,-6.57 23.55,23.55 0 0 1 4.62,-4.51 c 0.15,0 0.33,0 0.38,0.16 v 0.33 a 31.89,31.89 0 0 0 -2.73,4.93 30.11,30.11 0 0 0 -2.73,11 20.76,20.76 0 0 0 0,2.36 30.45,30.45 0 0 0 2.41,10.05 v 0 a 29.7,29.7 0 0 0 2.65,4.94 10.39,10.39 0 0 0 1.1,1.41 30.4,30.4 0 0 0 5.37,5.4 c 1.13,0.89 2.47,1.84 3.63,2.62 0.26,0.23 0.79,0.43 0.72,0.77 a 0.71,0.71 0 0 1 -0.43,0.14 6.6,6.6 0 0 1 -1.39,-0.46 m 65.94,-109.89 a 25.69,25.69 0 0 1 -0.49,4.92 56.11,56.11 0 0 1 -1.59,6.16 73.41,73.41 0 0 1 -12.72,24.23 c -7.08,9.54 -16.75,16.38 -26.47,23 -1.51,1 -3,2.05 -4.51,3.1 -2.67,2.07 -5.47,4.12 -7.13,7.16 a 52.08,52.08 0 0 0 -2.8,6.55 22.54,22.54 0 0 1 -3.75,7.49 11.5,11.5 0 0 1 -5.78,4 3.57,3.57 0 0 0 -0.5,0.06 c -0.4,0.08 -0.83,0.15 -1,-0.23 a 0.75,0.75 0 0 1 0.28,-0.81 9,9 0 0 0 3.77,-3 13.14,13.14 0 0 0 2,-3.78 c 1.6,-4.76 2.7,-9.72 5.18,-14.11 a 33.3,33.3 0 0 1 4.4,-6.34 66,66 0 0 1 6.54,-6.39 c 2.31,-2 4.71,-4 7,-6 1.2,-0.87 2.34,-2 3.51,-2.93 5.53,-4.94 10.77,-10.56 14.5,-16.9 a 23,23 0 0 0 3,-8.34 c 0.63,-3.46 0.08,-7.46 -2.86,-9.35 -1,-0.64 -2,-1.65 -3.28,-1.49 a 0.4,0.4 0 0 0 -0.29,0.54 10.09,10.09 0 0 1 1.21,8.3 c -1.9,6.76 -5.86,12.72 -10.48,18.17 -6,7.46 -13.88,13 -20.87,19.56 a 21.62,21.62 0 0 0 -2.78,3 c -0.52,0.55 -1,1.19 -1.51,1.78 v 0 a 32.38,32.38 0 0 0 -4.33,8.27 c -1.28,3.93 -2.14,8 -3.2,12 a 14,14 0 0 1 -1.05,2.63 3.57,3.57 0 0 1 -1.34,1.38 1.32,1.32 0 0 1 -0.77,0.09 l -0.19,-0.09 a 3.33,3.33 0 0 1 -1.54,-2.29 c -1.76,-7.83 2,-14.83 6.81,-20.54 0.4,-0.48 0.81,-1 1.23,-1.47 1.43,-1.65 3,-3.29 4.39,-5 a 42.35,42.35 0 0 0 3.93,-5.24 c 1.67,-2.75 2.25,-6.71 0.4,-9.49 a 5.87,5.87 0 0 0 -2.92,-2.73 0.32,0.32 0 0 1 0,-0.42 c 1,-0.25 2,0.23 2.95,0.27 a 14.66,14.66 0 0 0 7,-0.91 c 1.36,-0.68 2.89,-1.7 3.28,-3.25 0.1,-0.55 0.4,-1.37 -0.21,-1.8 -0.49,-0.19 -0.39,0.45 -0.6,0.65 a 5.89,5.89 0 0 1 -4.32,1.6 51.57,51.57 0 0 1 -10.93,-2.76 68.83,68.83 0 0 0 -7.68,-2.16 c -2.8,-0.27 -6.6,-1 -8.45,1.67 a 2,2 0 0 0 0.09,2 c -1.56,0.16 -3.18,0.08 -4.81,0.25 a 33.32,33.32 0 0 0 -1.27,-3.4 7.88,7.88 0 0 1 -2.79,0.42 7.4,7.4 0 0 1 1.59,3.35 c -2.25,0.68 -4.75,1.45 -6.08,3.5 -0.28,0.69 -0.85,1.33 -0.7,2.09 a 19.86,19.86 0 0 1 7,-1.83 l 0.14,0.1 a 11.7,11.7 0 0 1 -0.73,3.71 16.05,16.05 0 0 1 -3.09,0.22 c 0.08,0.16 -0.16,0.34 -0.09,0.53 0.17,1.18 1.6,1.06 2.2,1.59 a 14.06,14.06 0 0 1 -2.38,3.54 5,5 0 0 0 -3.51,-1.54 c -2.51,-0.23 -4.39,1.68 -6.63,2.29 -0.52,0.21 -1.1,-0.17 -1.56,-0.25 a 1.62,1.62 0 0 0 0.74,1.66 c 0.43,0.16 0.78,0.57 1.25,0.49 a 4.54,4.54 0 0 0 2.27,0.24 c 1.74,-0.16 3,-1.38 4.59,-1.93 0.68,-0.11 1.39,-0.56 2.08,-0.14 -0.11,0.46 -0.69,0.71 -1,1.06 -2.2,1.6 -4.89,2.36 -6.32,4.87 a 4.21,4.21 0 0 0 0,3.11 3.29,3.29 0 0 0 3.33,1.64 1,1 0 0 0 -0.16,-0.43 c -0.55,-1.78 1.37,-3 2.48,-4 A 3.06,3.06 0 0 0 473,475 c 0.75,-0.63 1.47,-1.19 2.28,-1.8 a 8.25,8.25 0 0 0 2.09,3.23 4.28,4.28 0 0 0 4.41,0.77 c 1.76,-0.8 3.51,-2.63 3.39,-4.68 a 5.66,5.66 0 0 1 -3.19,1.73 14.67,14.67 0 0 0 -1.6,-1.53 4.84,4.84 0 0 0 -3.86,-0.81 28.13,28.13 0 0 0 2.92,-4.35 45,45 0 0 0 6.14,-1.1 c 2.56,-0.51 5.66,-0.41 7.32,1.81 a 5.51,5.51 0 0 1 0.83,1.45 c 1.12,3.13 -0.83,6 -2.95,8.29 a 90.69,90.69 0 0 1 -7.94,6.9 l 0.15,-0.1 c -5.72,4.57 -11.66,9 -15.8,15.17 a 20.68,20.68 0 0 0 -2.65,4.68 25.29,25.29 0 0 0 -1.83,4.44 28.89,28.89 0 0 0 -1.21,8.34 29.28,29.28 0 0 0 0.25,3.82 v 0 a 23.62,23.62 0 0 0 2.58,8.07 27,27 0 0 0 2.78,4.44 l -0.25,-0.38 c 4.09,5.28 10.4,9.12 16.28,11.45 a 79.45,79.45 0 0 0 20.86,5.48 l 0.13,0.14 a 25.33,25.33 0 0 1 1.64,7.23 c 0,0.42 0,0.84 0,1.27 a 18,18 0 0 1 -0.88,5.66 c -0.1,0.27 -0.32,0.58 -0.24,0.9 a 8.87,8.87 0 0 0 3,-2 10.75,10.75 0 0 0 1.41,-1.6 0.26,0.26 0 0 1 0.27,0.14 87.6,87.6 0 0 0 4.92,19.65 v 0 a 1.75,1.75 0 0 1 0.1,0.24 c 0.56,1.39 1.25,3 1.88,4.36 0.34,1.14 1.47,2 1.16,3.24 -0.23,0.3 -0.58,0.69 -1,0.68 A 6.61,6.61 0 0 1 515,590 c -1.33,-0.34 -2.62,-1 -3.93,-1.32 -1.94,-0.32 -4.75,-1.44 -6.39,0.34 a 2,2 0 0 0 0,1.63 3.86,3.86 0 0 1 -1,0 5.39,5.39 0 0 0 -0.88,0 3.58,3.58 0 0 0 -3.22,2 2.41,2.41 0 0 0 0.17,2 1.36,1.36 0 0 0 1.07,0.67 0.63,0.63 0 0 0 0.2,-0.45 c 0.85,-1.63 2.77,-1.9 4.49,-1.94 0.12,0 0.29,0.17 0.23,0.34 a 9.23,9.23 0 0 0 -1.5,1.18 2.16,2.16 0 0 0 -0.32,2.34 2.19,2.19 0 0 0 1.89,1.21 c 0.31,0 0.3,0.12 0.43,0 a 2.09,2.09 0 0 1 0.76,-1.76 c 2.08,-1.63 4.73,-2 7.38,-2.23 a 56.47,56.47 0 0 1 15.44,0.47 4.51,4.51 0 0 1 1.61,0.57 3.08,3.08 0 0 1 1.67,1.68 1.53,1.53 0 0 0 1.05,-0.34 c 1.06,-0.85 2.07,-2 1.78,-3.38 a 2.24,2.24 0 0 0 -0.68,-1 c -1.67,-1.3 -4,-1.28 -6.05,-1.1 h -0.3 a 7.65,7.65 0 0 1 -4.68,-0.89 c -1.76,-1.36 -2,-3.64 -2.92,-5.46 -0.26,-0.87 -0.57,-2.06 -0.79,-2.93 l 0.06,0.32 a 101.24,101.24 0 0 1 -3.24,-18.79 c 0,-0.12 0,-0.33 0.16,-0.27 a 11.56,11.56 0 0 0 5.21,2.18 2.88,2.88 0 0 0 2.7,-0.57 c -0.87,-0.81 -2,-1.52 -2.86,-2.38 a 19.87,19.87 0 0 1 -3.07,-4.31 v 0 a 22.68,22.68 0 0 1 -2,-14.36 c -2,-1.63 -3.78,-3.18 -5.62,-4.88 -1.84,-1.7 -3.48,-3.46 -5.06,-5.29 v 0 c -3.08,-3.55 -5.66,-7.47 -6.59,-12 -0.1,-0.41 -0.18,-0.94 -0.24,-1.27 0,-0.7 -0.28,-1.61 0.26,-2.19 0.1,0 0.3,-0.07 0.36,0 0.38,1.05 1.34,3.42 1.34,3.42 a 41.87,41.87 0 0 0 1.95,3.89 35.7,35.7 0 0 0 6.56,8.25 v 0 c 4.05,4 8.66,7.58 12,12 a 24.37,24.37 0 0 1 3,5.47 27.29,27.29 0 0 1 1.25,6.94 c 0,0.24 0,0.49 0,0.74 a 17.75,17.75 0 0 1 -0.15,2.42 c 0.12,0.17 0.25,0.33 0.49,0.26 0.54,-0.35 0.61,-1 0.83,-1.52 0.22,-0.52 0.32,-1.26 0.44,-1.9 v 0 a 24.67,24.67 0 0 0 -4.48,-18.36 45.53,45.53 0 0 0 -5.93,-6.09 v 0 c -4.39,-3.84 -9.24,-7.39 -12.56,-12.12 -0.45,-0.65 -1,-1.52 -1.37,-2.18 -0.2,-0.48 -0.69,-1.14 -0.12,-1.62 a 0.53,0.53 0 0 1 0.45,0 l 1.68,1.83 c 0.71,0.66 2.42,2.14 2.42,2.14 4.75,3.89 10.3,6.57 16.79,6.39 a 18,18 0 0 0 10.15,-5.29 l 0.12,-0.39 a 0.51,0.51 0 0 0 -0.34,-0.29 44.43,44.43 0 0 1 -8.9,-0.58 h 0.09 a 60.42,60.42 0 0 1 -7.28,-1.79 28.2,28.2 0 0 1 -5.76,-2.67 0.93,0.93 0 0 1 0.06,-0.53 c 3.79,-0.12 7.89,-1.41 10,-4.9 0,-0.23 0.15,-0.59 -0.17,-0.7 a 33.16,33.16 0 0 1 -9.13,-0.33 c -0.23,0 -0.29,-0.22 -0.29,-0.39 0,-0.17 0.19,-0.21 0.29,-0.3 a 24,24 0 0 0 4.28,-0.61 15.73,15.73 0 0 0 6.41,-3.11 c 0.59,-0.45 0.75,-1.17 1.3,-1.58 0.3,-0.58 0.79,-1.16 0.46,-1.88 a 85,85 0 0 1 -9.85,1.55 14.08,14.08 0 0 1 -2.64,-0.07 c -0.17,-0.18 0,-0.43 0.13,-0.55 a 50.44,50.44 0 0 0 5.59,-1.56 c 2.53,-0.94 5.08,-1.92 6.92,-4.12 0.43,-0.91 1.31,-1.8 0.92,-2.87 a 0.6,0.6 0 0 0 -0.6,-0.23 51.38,51.38 0 0 1 -11.46,3.38 2.72,2.72 0 0 0 -0.52,0.07 c -0.36,0.08 -0.69,0.16 -0.94,-0.16 -0.25,-0.32 0.21,-0.19 0.15,-0.43 4.21,-1.43 8.39,-2.79 11.81,-5.87 1.21,-1.32 2.25,-3 1.92,-4.83 a 0.68,0.68 0 0 0 -0.65,-0.49 66.76,66.76 0 0 1 -9,3.75 c -0.37,0 -0.75,0.41 -1.12,0.1 a 0.33,0.33 0 0 1 0,-0.45 c 2.44,-1.71 4.93,-3.31 7.42,-5 2.49,-1.69 4.7,-3.07 7,-4.7 1.59,-1.2 3.24,-2.54 4.88,-3.75 a 95.92,95.92 0 0 0 19.41,-21 c 0.71,-1 1.33,-2.14 2.09,-3.13 2.82,-5.21 5.91,-10.45 7,-16.37 a 12.06,12.06 0 0 0 -2.89,-9.3 1.78,1.78 0 0 0 -1,-0.63 c -0.23,0.08 -0.25,0.32 -0.32,0.54"
         style="fill:none"
         id="path26664" /></clipPath><linearGradient
       id="p"
       x1="68.309998"
       y1="823.17999"
       x2="75.199997"
       y2="823.17999"
       gradientTransform="matrix(15.25,0,0,-15.25,-1038.94,12635.58)"
       xlink:href="#b" /><clipPath
       id="q"
       transform="translate(-455.77 -425.88)"><path
         d="m 557.34,473.41 a 86.94,86.94 0 0 1 -13,11.41 98.33,98.33 0 0 1 -14.86,8.8 6.47,6.47 0 0 1 -0.72,5.3 c -0.23,0.39 -0.65,0.69 -0.75,1.1 0.1,0.2 0.3,0 0.45,0 8.32,-3.62 16.59,-8.38 23.1,-15.24 1,-1 1.9,-2.1 2.79,-3.22 1.72,-2.43 3.51,-4.94 3.73,-7.93 a 0.4,0.4 0 0 0 -0.44,-0.34 0.78,0.78 0 0 0 -0.34,0.08"
         style="fill:none"
         id="path26668" /></clipPath><linearGradient
       id="r"
       x1="23.809999"
       y1="862.63"
       x2="30.690001"
       y2="862.63"
       gradientTransform="matrix(4.43,0,0,-4.43,-34.24,3885.02)"
       xlink:href="#b" /><clipPath
       id="s"
       transform="translate(-455.77 -425.88)"><path
         d="m 564.88,455 c -9.32,12.28 -22,22.19 -34.82,29.85 l -0.54,0.32 a 5.34,5.34 0 0 0 0.42,1.07 5.6,5.6 0 0 1 -0.78,5.07 0.25,0.25 0 0 0 0.07,0.32 c 3.73,-2.09 7.43,-4.34 11,-6.79 v 0 a 94.76,94.76 0 0 0 18.15,-15.84 44.6,44.6 0 0 0 6.83,-11 8.19,8.19 0 0 0 0.64,-2.83 0.48,0.48 0 0 0 -0.5,-0.4 0.6,0.6 0 0 0 -0.48,0.24"
         style="fill:none"
         id="path26672" /></clipPath><linearGradient
       id="t"
       x1="36.32"
       y1="855.04999"
       x2="43.200001"
       y2="855.04999"
       gradientTransform="matrix(5.42,0,0,-5.42,-124.53,4678.17)"
       xlink:href="#b" /><clipPath
       id="u"
       transform="translate(-455.77 -425.88)"><path
         d="m 566.74,438.91 c -0.58,1.43 -1.07,2.89 -1.66,4.29 a 81.76,81.76 0 0 1 -9.75,16.19 c -2.93,4.09 -6.73,7.51 -10,11.25 0,0.13 -0.1,0.36 0,0.49 0.1,0.13 0.46,0.12 0.62,0.12 l 1.6,-1.27 c 6.85,-5.85 13.42,-12 18.52,-19.57 a 13.13,13.13 0 0 0 1.87,-8.68 9,9 0 0 0 -0.66,-2.8 0.29,0.29 0 0 0 -0.28,-0.15 0.35,0.35 0 0 0 -0.28,0.12"
         style="fill:none"
         id="path26676" /></clipPath><linearGradient
       id="v"
       x1="6.3099999"
       y1="887.97998"
       x2="13.2"
       y2="887.97998"
       gradientTransform="matrix(3.35,0,0,-3.35,67.63,3007.01)"
       xlink:href="#b" /><clipPath
       id="w"
       transform="translate(-455.77 -425.88)"><path
         d="m 546.79,441.08 c 0,0.75 0.09,1.45 0.09,2.2 -0.74,5.86 -3.51,11.19 -6.94,15.87 -7.42,10.53 -18.57,17.21 -27.55,26.14 -0.52,0.69 -1.36,1.17 -1.43,2.09 a 1.78,1.78 0 0 0 0.32,0.32 1.34,1.34 0 0 0 0.71,-0.07 96.17,96.17 0 0 1 8.18,-6.24 c 2.23,-1.63 4.48,-3.19 6.75,-4.75 7.94,-5.92 15.35,-12.87 20.16,-21.73 2.22,-3.6 3.65,-8.87 1.24,-12.8 a 6.17,6.17 0 0 0 -0.91,-1.27 0.43,0.43 0 0 0 -0.18,0 0.44,0.44 0 0 0 -0.43,0.26"
         style="fill:none"
         id="path26680" /></clipPath><linearGradient
       id="x"
       x1="68.730003"
       y1="825.59998"
       x2="75.620003"
       y2="825.59998"
       gradientTransform="matrix(15.48,0,0,-15.48,-1060.35,12818.49)"
       xlink:href="#b" /><clipPath
       id="y"
       transform="translate(-455.77 -425.88)"><path
         d="m 546.88,441.08 c 0,0.75 0.1,1.45 0.1,2.2 -0.75,5.86 -3.51,11.19 -7,15.87 -7.41,10.53 -18.56,17.21 -27.54,26.14 -0.52,0.69 -1.36,1.17 -1.43,2.09 a 1.48,1.48 0 0 0 0.33,0.32 1.39,1.39 0 0 0 0.72,-0.07 97,97 0 0 1 8.16,-6.24 c 2.24,-1.63 4.49,-3.19 6.76,-4.75 7.94,-5.92 15.35,-12.87 20.16,-21.73 2.21,-3.6 3.64,-8.87 1.23,-12.8 a 5.89,5.89 0 0 0 -0.9,-1.27 0.41,0.41 0 0 0 -0.18,0 0.45,0.45 0 0 0 -0.44,0.26"
         style="fill:none"
         id="path26684" /></clipPath><linearGradient
       id="z"
       x1="68.739998"
       y1="825.59998"
       x2="75.629997"
       y2="825.59998"
       gradientTransform="matrix(15.48,0,0,-15.48,-1060.41,12819.16)"
       xlink:href="#b" /><clipPath
       id="aa"
       transform="translate(-455.77 -425.88)"><path
         d="m 547.45,441.08 c 0,0.75 0.09,1.45 0.09,2.2 -0.74,5.86 -3.51,11.19 -7,15.87 -7.37,10.54 -18.54,17.21 -27.54,26.14 -0.52,0.69 -1.36,1.17 -1.43,2.09 a 2.38,2.38 0 0 0 0.32,0.32 1.41,1.41 0 0 0 0.72,-0.07 95.74,95.74 0 0 1 8.15,-6.24 c 2.25,-1.63 4.49,-3.19 6.76,-4.75 7.94,-5.92 15.34,-12.87 20.16,-21.73 2.21,-3.6 3.64,-8.87 1.23,-12.8 a 5.93,5.93 0 0 0 -0.91,-1.27 0.55,0.55 0 0 0 -0.18,0 0.46,0.46 0 0 0 -0.43,0.26"
         style="fill:none"
         id="path26688" /></clipPath><linearGradient
       id="ab"
       x1="68.769997"
       y1="825.59998"
       x2="75.650002"
       y2="825.59998"
       gradientTransform="matrix(15.48,0,0,-15.48,-1060.02,12816.47)"
       xlink:href="#b" /><clipPath
       id="ac"
       transform="translate(-455.77 -425.88)"><path
         d="m 481.86,562.83 c 2.87,0 5.24,-1.95 7.25,-3.6 a 58.19,58.19 0 0 1 -3.38,9.27 c -3.07,7.27 -6.18,12 -9.69,17.74 a 6.15,6.15 0 0 1 -2.5,2.78 c -1.84,0.5 -3.38,-0.08 -4.93,-0.67 a 9,9 0 0 0 -4.05,-0.83 3.85,3.85 0 0 0 -2.56,1.11 1.63,1.63 0 0 0 -0.07,1.49 c -1.83,-0.16 -3.8,-0.16 -5.24,0.91 a 2.31,2.31 0 0 0 -0.65,2.35 2,2 0 0 0 1.21,1.27 5.7,5.7 0 0 1 4,-2.58 4.08,4.08 0 0 1 2,0 c 0.18,0.1 0,0.29 -0.09,0.39 a 6,6 0 0 0 -1.89,1.3 2.8,2.8 0 0 0 -0.72,2.41 2.53,2.53 0 0 0 2.73,1.43 c 0.09,-0.14 0,-0.27 0,-0.39 -0.12,-1.24 1.12,-1.88 2.05,-2.4 3.13,-1.07 6.67,-1.07 10.08,-1.18 a 69,69 0 0 1 8.52,0.23 8.61,8.61 0 0 1 4.59,1.52 1,1 0 0 1 0.17,1.18 1.56,1.56 0 0 0 1.16,-0.32 l 0.27,-0.24 a 3.64,3.64 0 0 0 1.29,-3 2.71,2.71 0 0 0 -2,-2.18 2.22,2.22 0 0 0 -0.45,-0.17 c -2.14,-0.65 -4.52,-0.39 -6.83,-0.36 -0.65,-0.1 -1.48,0 -1.78,-0.69 a 1.74,1.74 0 0 1 0.27,-1.26 c 3.93,-5.69 8.25,-11.19 12.06,-16.88 a 18.41,18.41 0 0 0 3.15,-9.43 13.78,13.78 0 0 0 4.55,3.06 2.66,2.66 0 0 0 1.34,0.1 26.07,26.07 0 0 1 -4,-13.73 c -0.87,-0.26 -1.85,-0.29 -2.72,-0.52 a 46.72,46.72 0 0 1 -9.58,-3.57 42.3,42.3 0 0 1 -3.62,15.4 m 31.09,-35.93 c 6.63,6 13.94,9.52 19.74,18.28 a 36.43,36.43 0 0 1 5,9.3 c 2.58,7.29 2.91,13.34 1,19.8 0,0.5 -0.43,0.81 -0.17,1.3 0.68,0.17 0.94,-0.65 1.3,-1 a 41.77,41.77 0 0 0 4.52,-9.4 c 2.8,-8.46 1.36,-18.48 -4.79,-25.07 -6.2,-7.32 -15.5,-9.07 -23.73,-12.46 a 18.06,18.06 0 0 0 -2.73,-1.14 0.34,0.34 0 0 0 -0.09,0.43 m 11.35,-8.07 a 0.28,0.28 0 0 0 0,0.32 25.4,25.4 0 0 0 3.18,0.49 35.9,35.9 0 0 0 8.17,-0.2 36,36 0 0 0 3.41,-4.23 c 0.19,-0.54 0.84,-1 0.71,-1.65 0,-0.14 -0.2,-0.14 -0.29,-0.17 a 41,41 0 0 1 -15.18,5.44 M 547,501.17 a 20.55,20.55 0 0 0 -2.63,1.82 50.5,50.5 0 0 1 -19,7.55 v 0.36 c 0.33,3 -2.37,5.27 -4.73,6.5 v 0.2 l 0.41,0.06 a 39.54,39.54 0 0 0 5.66,-1.07 41.78,41.78 0 0 0 13.81,-7.16 29.46,29.46 0 0 0 6.21,-6.27 c 0.17,-0.55 0.78,-1 0.68,-1.66 -0.08,-0.12 -0.2,-0.33 -0.38,-0.33 v 0 M 552.16,488 c -1.52,1 -2.47,2.3 -4,3.29 -1.92,1.48 -3.86,2.79 -5.89,4.06 a 75.66,75.66 0 0 1 -13.78,6.36 7.44,7.44 0 0 1 -2.59,6.35 c 0,0.2 -0.3,0.12 -0.3,0.28 a 0.31,0.31 0 0 0 0.06,0.23 42.44,42.44 0 0 0 11.61,-4.33 c 5,-3 10,-6.57 13.43,-11.51 a 10.94,10.94 0 0 0 2,-4.29 c 0,-0.33 -0.19,-0.46 -0.43,-0.46 h -0.09 m 5.21,-14.67 a 92.77,92.77 0 0 1 -27.84,20.22 6.55,6.55 0 0 1 -0.71,5.3 c -0.23,0.4 -0.66,0.69 -0.76,1.11 0.1,0.19 0.28,0 0.47,0 9.55,-4.17 19,-9.82 25.88,-18.47 1.71,-2.45 3.51,-4.95 3.73,-7.94 a 0.4,0.4 0 0 0 -0.43,-0.34 0.79,0.79 0 0 0 -0.34,0.08 m 7.55,-18.44 c -9.47,12.45 -22.35,22.47 -35.39,30.18 a 4.91,4.91 0 0 0 0.43,1.07 5.64,5.64 0 0 1 -0.79,5.08 0.25,0.25 0 0 0 0.07,0.32 c 10.67,-6 21,-13.21 29.18,-22.61 a 44.24,44.24 0 0 0 6.83,-11.06 8.49,8.49 0 0 0 0.65,-2.82 0.48,0.48 0 0 0 -0.49,-0.4 0.59,0.59 0 0 0 -0.48,0.24 m 1.85,-16.06 c -0.59,1.43 -1.07,2.89 -1.65,4.28 a 81.45,81.45 0 0 1 -9.76,16.19 c -2.93,4.11 -6.74,7.52 -10,11.26 0,0.13 -0.1,0.35 0,0.48 0.1,0.13 0.46,0.12 0.62,0.12 l 1.59,-1.27 c 6.86,-5.85 13.43,-12 18.53,-19.58 a 13,13 0 0 0 1.86,-8.68 8.88,8.88 0 0 0 -0.65,-2.8 0.32,0.32 0 0 0 -0.28,-0.14 0.34,0.34 0 0 0 -0.27,0.12 m -72,97.47 A 28.93,28.93 0 0 1 480.17,526 c -4.55,-6.14 -5.94,-15.09 -2.86,-22.27 a 32.26,32.26 0 0 1 3.81,-6.57 24.13,24.13 0 0 1 4.61,-4.53 c 0.17,0 0.34,0 0.39,0.16 v 0.33 a 32,32 0 0 0 -2.73,4.94 28.43,28.43 0 0 0 -2.7,13.34 29.57,29.57 0 0 0 5.08,15 9,9 0 0 0 1.11,1.4 35.21,35.21 0 0 0 9,8 c 0.27,0.23 0.79,0.42 0.72,0.79 a 0.76,0.76 0 0 1 -0.43,0.13 c -0.46,0 -0.94,-0.36 -1.38,-0.45 m -13.65,-73.18 a 8.7,8.7 0 0 0 0.23,-1.64 c 3.25,0 4.86,0.12 4.86,1.14 0,1.42 -3,2.16 -5.63,2.54 a 15.76,15.76 0 0 0 0.54,-2 m 8.6,-3 a 1.87,1.87 0 0 1 -0.36,-1.92 c 0.19,-0.36 0.72,-0.1 1.07,-0.1 a 48.07,48.07 0 0 1 5.4,1.14 c 0.1,0.06 0,0.2 0,0.3 -1.65,0.19 -3.12,0.81 -4.78,0.94 a 2.11,2.11 0 0 1 -1.33,-0.36 m 71,-33.75 a 26,26 0 0 1 -0.48,4.9 61.19,61.19 0 0 1 -1.58,6.19 73.85,73.85 0 0 1 -12.72,24.22 c -8.2,11 -19.8,18.44 -31,26.15 -2.65,2.09 -5.46,4.14 -7.12,7.15 a 55.24,55.24 0 0 0 -2.8,6.57 c -1.46,4.78 -4.25,10 -9.52,11.48 a 2.3,2.3 0 0 0 -0.51,0.06 c -0.41,0.06 -0.83,0.13 -1,-0.25 a 0.71,0.71 0 0 1 0.29,-0.79 10.91,10.91 0 0 0 5.75,-6.8 c 1.59,-4.75 2.69,-9.72 5.17,-14.11 4.13,-7.83 11.41,-13 18,-18.7 1.21,-0.85 2.34,-2 3.51,-2.93 a 73.46,73.46 0 0 0 14.5,-16.91 23,23 0 0 0 3,-8.32 c 0.62,-3.49 0.08,-7.47 -2.86,-9.37 -1,-0.65 -2,-1.66 -3.29,-1.49 a 0.38,0.38 0 0 0 -0.3,0.54 10,10 0 0 1 1.21,8.29 c -1.99,6.8 -5.99,12.74 -10.56,18.22 -6,7.45 -13.89,13 -20.88,19.54 a 23.3,23.3 0 0 0 -2.76,3 28.69,28.69 0 0 0 -5.86,10 c -1.3,3.94 -2.15,8 -3.22,12 a 14.61,14.61 0 0 1 -1,2.63 c -0.49,0.72 -1.14,1.65 -2.12,1.47 a 3.21,3.21 0 0 1 -1.72,-2.38 c -1.76,-7.85 2,-14.83 6.79,-20.56 3.22,-3.9 7,-7.44 9.57,-11.66 1.65,-2.78 2.24,-6.74 0.38,-9.5 a 5.8,5.8 0 0 0 -2.91,-2.73 0.31,0.31 0 0 1 0,-0.42 c 1,-0.26 2,0.23 2.94,0.26 a 14.52,14.52 0 0 0 7,-0.92 c 1.36,-0.68 2.89,-1.69 3.28,-3.24 0.1,-0.55 0.39,-1.37 -0.22,-1.79 -0.49,-0.2 -0.36,0.45 -0.59,0.64 a 5.88,5.88 0 0 1 -4.33,1.6 51,51 0 0 1 -10.92,-2.76 69.82,69.82 0 0 0 -7.68,-2.14 c -2.8,-0.3 -6.59,-1 -8.45,1.65 a 2.11,2.11 0 0 0 0.1,2 c -1.56,0.17 -3.18,0.1 -4.81,0.25 a 29.55,29.55 0 0 0 -1.26,-3.38 7.75,7.75 0 0 1 -2.8,0.39 7.48,7.48 0 0 1 1.59,3.36 c -2.24,0.68 -4.75,1.47 -6.08,3.51 -0.26,0.69 -0.85,1.33 -0.69,2.08 a 20,20 0 0 1 7,-1.83 l 0.13,0.1 a 11.85,11.85 0 0 1 -0.73,3.71 18,18 0 0 1 -3.09,0.23 c 0.07,0.17 -0.15,0.32 -0.09,0.52 0.16,1.17 1.58,1.07 2.21,1.59 a 14.74,14.74 0 0 1 -2.37,3.54 5.16,5.16 0 0 0 -3.51,-1.56 c -2.51,-0.22 -4.39,1.69 -6.63,2.31 -0.52,0.2 -1.12,-0.17 -1.57,-0.27 a 1.63,1.63 0 0 0 0.75,1.67 c 0.42,0.17 0.78,0.58 1.24,0.48 a 4.61,4.61 0 0 0 2.27,0.26 c 1.73,-0.17 3,-1.4 4.59,-1.94 0.69,-0.1 1.4,-0.56 2.09,-0.14 -0.13,0.46 -0.69,0.72 -1,1.07 -2.18,1.59 -4.88,2.34 -6.32,4.85 a 4.3,4.3 0 0 0 0,3.11 3.3,3.3 0 0 0 3.29,1.6 1.22,1.22 0 0 0 -0.16,-0.43 c -0.56,-1.78 1.36,-3 2.46,-4 A 3.06,3.06 0 0 0 473,475 c 0.75,-0.61 1.47,-1.21 2.27,-1.78 a 8.72,8.72 0 0 0 2.09,3.22 4.25,4.25 0 0 0 4.43,0.74 c 1.75,-0.79 3.51,-2.6 3.38,-4.64 a 5.87,5.87 0 0 1 -3.19,1.72 13.81,13.81 0 0 0 -1.58,-1.52 4.89,4.89 0 0 0 -3.88,-0.82 28.08,28.08 0 0 0 2.94,-4.35 46.3,46.3 0 0 0 6.14,-1.12 c 2.56,-0.52 5.66,-0.39 7.31,1.83 a 5.78,5.78 0 0 1 0.84,1.43 c 1.12,3.15 -0.84,6 -2.95,8.29 -7.52,7.65 -17.5,12.81 -23.58,22 a 20.33,20.33 0 0 0 -2.67,4.68 c -3.83,7.21 -4.2,17.33 -0.2,24.67 3.54,7.41 11.51,12.63 18.81,15.51 a 78.87,78.87 0 0 0 20.84,5.45 l 0.13,0.13 a 21.18,21.18 0 0 1 0.82,14.18 c -0.11,0.26 -0.32,0.55 -0.23,0.87 a 8.64,8.64 0 0 0 3,-2 10.83,10.83 0 0 0 1.42,-1.6 c 0.14,0 0.2,0 0.27,0.14 a 84.25,84.25 0 0 0 6.89,24.3 c 0.36,1.14 1.46,2 1.17,3.25 -0.22,0.29 -0.59,0.68 -1,0.65 a 6.39,6.39 0 0 1 -1.45,-0.19 c -1.35,-0.36 -2.65,-1 -3.94,-1.34 -2,-0.32 -4.76,-1.43 -6.38,0.36 a 1.82,1.82 0 0 0 0,1.63 4.06,4.06 0 0 1 -1,0 5.8,5.8 0 0 0 -0.85,0 3.55,3.55 0 0 0 -3.22,2 2.47,2.47 0 0 0 0.17,2 1.37,1.37 0 0 0 1.07,0.65 0.7,0.7 0 0 0 0.19,-0.46 c 0.85,-1.62 2.76,-1.88 4.48,-1.92 0.13,0 0.3,0.17 0.23,0.33 a 9.15,9.15 0 0 0 -1.49,1.16 2.2,2.2 0 0 0 -0.32,2.34 2.15,2.15 0 0 0 1.89,1.21 c 0.31,0 0.29,0.13 0.43,0 a 2.19,2.19 0 0 1 0.77,-1.76 c 2.09,-1.62 4.72,-1.94 7.38,-2.2 a 55.41,55.41 0 0 1 15.44,0.49 4.26,4.26 0 0 1 1.59,0.55 3.1,3.1 0 0 1 1.69,1.69 1.5,1.5 0 0 0 1,-0.36 c 1.07,-0.85 2.09,-2 1.79,-3.38 a 2.17,2.17 0 0 0 -0.68,-1 c -1.67,-1.3 -4,-1.27 -6.05,-1.1 H 529 a 7.72,7.72 0 0 1 -4.69,-0.88 c -1.75,-1.36 -2,-3.64 -2.92,-5.47 a 102.68,102.68 0 0 1 -4,-21.4 c 0,-0.14 0,-0.32 0.17,-0.26 a 11.27,11.27 0 0 0 5.21,2.18 2.87,2.87 0 0 0 2.7,-0.59 c -0.87,-0.81 -2,-1.53 -2.87,-2.38 a 21.33,21.33 0 0 1 -5.08,-18.65 c -2,-1.63 -3.77,-3.19 -5.63,-4.88 C 506.52,533.34 501,527.51 500,520 c 0,-0.69 -0.3,-1.59 0.26,-2.18 0.1,0 0.29,-0.06 0.36,0 a 45.18,45.18 0 0 0 3.29,7.32 c 4.33,8 13.14,13 18.5,20.29 a 24.53,24.53 0 0 1 3,5.47 23.88,23.88 0 0 1 1.07,10.1 c 0.12,0.17 0.25,0.33 0.49,0.25 0.54,-0.34 0.61,-1 0.83,-1.52 a 24,24 0 0 0 -4,-20.26 c -6.1,-7.78 -15.11,-11.9 -19.9,-20.39 -0.19,-0.5 -0.68,-1.14 -0.13,-1.63 a 0.57,0.57 0 0 1 0.46,0 l 1.69,1.83 c 5.27,5 11.57,8.74 19.21,8.51 a 18,18 0 0 0 10.15,-5.27 l 0.1,-0.39 a 0.5,0.5 0 0 0 -0.33,-0.3 45,45 0 0 1 -16.11,-2.37 29.8,29.8 0 0 1 -5.74,-2.67 0.72,0.72 0 0 1 0.06,-0.52 c 3.78,-0.13 7.91,-1.43 10,-4.91 0,-0.23 0.16,-0.58 -0.16,-0.68 a 32.76,32.76 0 0 1 -9.15,-0.37 c -0.23,0 -0.3,-0.19 -0.3,-0.39 0,-0.2 0.21,-0.19 0.3,-0.29 a 18,18 0 0 0 10.7,-3.71 c 0.59,-0.46 0.75,-1.16 1.3,-1.6 0.3,-0.59 0.78,-1.16 0.47,-1.89 a 88.5,88.5 0 0 1 -9.86,1.57 14.69,14.69 0 0 1 -2.64,-0.08 c -0.17,-0.19 0,-0.41 0.13,-0.55 a 51.06,51.06 0 0 0 5.59,-1.56 c 2.53,-0.94 5.07,-1.92 6.92,-4.13 0.43,-0.92 1.31,-1.79 0.92,-2.87 a 0.59,0.59 0 0 0 -0.59,-0.23 52.26,52.26 0 0 1 -11.47,3.42 2,2 0 0 0 -0.53,0.06 c -0.34,0.07 -0.68,0.14 -0.94,-0.16 -0.26,-0.3 0.23,-0.19 0.16,-0.43 4.2,-1.42 8.4,-2.79 11.81,-5.88 1.21,-1.3 2.24,-3 1.92,-4.81 a 0.65,0.65 0 0 0 -0.65,-0.49 67.91,67.91 0 0 1 -9,3.74 c -0.39,0 -0.74,0.42 -1.14,0.1 a 0.35,0.35 0 0 1 0,-0.45 c 4.76,-3.32 9.7,-6.28 14.41,-9.66 1.6,-1.21 3.26,-2.53 4.88,-3.74 a 95.14,95.14 0 0 0 19.42,-21 c 0.71,-1 1.33,-2.15 2.07,-3.15 2.83,-5.19 5.92,-10.44 7,-16.35 a 12.07,12.07 0 0 0 -2.9,-9.31 c -0.3,-0.25 -0.56,-0.58 -1,-0.61 -0.23,0.06 -0.27,0.33 -0.33,0.52"
         style="fill:none"
         id="path26692" /></clipPath><linearGradient
       id="ad"
       x1="69.690002"
       y1="822.28003"
       x2="76.580002"
       y2="822.28003"
       gradientTransform="matrix(16.28,0,0,-16.28,-1134.22,13470.58)"
       xlink:href="#b" /></defs><g
     id="g2144"
     transform="translate(-374.72099,-297.05605)"><g
       id="g6862"
       transform="translate(-493.6078,-55.000095)"><g
         id="g6896"><g
           id="g5130"
           transform="matrix(0.57256684,0,0,0.57256684,247.2157,179.14553)"><g
             id="g30785"><g
               id="g6263"
               transform="matrix(0.52891037,0,0,0.52891037,1087.8108,311.226)"
               style="font-variation-settings:normal;opacity:1;fill:#00a398;fill-opacity:1;stroke:#ffffff;stroke-width:9.90633;stroke-linecap:butt;stroke-linejoin:miter;stroke-miterlimit:4;stroke-dasharray:none;stroke-dashoffset:0;stroke-opacity:1;paint-order:stroke fill markers;stop-color:#000000;stop-opacity:1"><g
                 id="layer7"
                 style="font-variation-settings:normal;display:none;fill:#00a398;fill-opacity:1;stroke:#ffffff;stroke-width:9.90633;stroke-linecap:butt;stroke-linejoin:miter;stroke-miterlimit:4;stroke-dasharray:none;stroke-dashoffset:0;stroke-opacity:1;paint-order:stroke fill markers;stop-color:#000000;stop-opacity:1"
                 transform="translate(-23.75651,-24.84972)"><rect
                   transform="translate(-132.5822,958.04022)"
                   style="color:#000000;font-variation-settings:normal;clip-rule:nonzero;display:inline;overflow:visible;visibility:visible;opacity:1;isolation:auto;mix-blend-mode:normal;color-interpolation:sRGB;color-interpolation-filters:linearRGB;solid-color:#000000;solid-opacity:1;fill:#00a398;fill-opacity:1;fill-rule:evenodd;stroke:#ffffff;stroke-width:9.90633;stroke-linecap:butt;stroke-linejoin:miter;stroke-miterlimit:4;stroke-dasharray:none;stroke-dashoffset:0;stroke-opacity:1;marker:none;paint-order:stroke fill markers;color-rendering:auto;image-rendering:auto;shape-rendering:auto;text-rendering:auto;enable-background:accumulate;stop-color:#000000;stop-opacity:1"
                   id="rect5389"
                   width="1543.4283"
                   height="483.7439"
                   x="132.5822"
                   y="-957.77832" /></g><g
                 id="layer6"
                 style="font-variation-settings:normal;display:none;fill:#00a398;fill-opacity:1;stroke:#ffffff;stroke-width:9.90633;stroke-linecap:butt;stroke-linejoin:miter;stroke-miterlimit:4;stroke-dasharray:none;stroke-dashoffset:0;stroke-opacity:1;paint-order:stroke fill markers;stop-color:#000000;stop-opacity:1"
                 transform="translate(-156.33871,933.1905)"><rect
                   y="-958.02759"
                   x="132.65129"
                   height="484.30399"
                   width="550.41602"
                   id="rect5379"
                   style="color:#000000;font-variation-settings:normal;clip-rule:nonzero;display:inline;overflow:visible;visibility:visible;opacity:1;isolation:auto;mix-blend-mode:normal;color-interpolation:sRGB;color-interpolation-filters:linearRGB;solid-color:#000000;solid-opacity:1;fill:#00a398;fill-opacity:1;fill-rule:evenodd;stroke:#ffffff;stroke-width:9.90633;stroke-linecap:butt;stroke-linejoin:miter;stroke-miterlimit:4;stroke-dasharray:none;stroke-dashoffset:0;stroke-opacity:1;marker:none;paint-order:stroke fill markers;color-rendering:auto;image-rendering:auto;shape-rendering:auto;text-rendering:auto;enable-background:accumulate;stop-color:#000000;stop-opacity:1" /><rect
                   style="color:#000000;font-variation-settings:normal;clip-rule:nonzero;display:inline;overflow:visible;visibility:visible;opacity:1;isolation:auto;mix-blend-mode:normal;color-interpolation:sRGB;color-interpolation-filters:linearRGB;solid-color:#000000;solid-opacity:1;fill:#00a398;fill-opacity:1;fill-rule:evenodd;stroke:#ffffff;stroke-width:9.90633;stroke-linecap:butt;stroke-linejoin:miter;stroke-miterlimit:4;stroke-dasharray:none;stroke-dashoffset:0;stroke-opacity:1;marker:none;paint-order:stroke fill markers;color-rendering:auto;image-rendering:auto;shape-rendering:auto;text-rendering:auto;enable-background:accumulate;stop-color:#000000;stop-opacity:1"
                   id="rect5372"
                   width="501.94415"
                   height="434.30405"
                   x="156.12303"
                   y="-933.02759" /><rect
                   style="color:#000000;font-variation-settings:normal;clip-rule:nonzero;display:inline;overflow:visible;visibility:visible;opacity:1;isolation:auto;mix-blend-mode:normal;color-interpolation:sRGB;color-interpolation-filters:linearRGB;solid-color:#000000;solid-opacity:1;fill:#00a398;fill-opacity:1;fill-rule:evenodd;stroke:#ffffff;stroke-width:9.90633;stroke-linecap:butt;stroke-linejoin:miter;stroke-miterlimit:4;stroke-dasharray:none;stroke-dashoffset:0;stroke-opacity:1;marker:none;paint-order:stroke fill markers;color-rendering:auto;image-rendering:auto;shape-rendering:auto;text-rendering:auto;enable-background:accumulate;stop-color:#000000;stop-opacity:1"
                   id="rect5381"
                   width="24.939611"
                   height="24.939611"
                   x="658.02826"
                   y="-958.04022" /></g><g
                 id="layer1"
                 style="font-variation-settings:normal;display:inline;fill:#00a398;fill-opacity:1;stroke:#ffffff;stroke-width:9.90633;stroke-linecap:butt;stroke-linejoin:miter;stroke-miterlimit:4;stroke-dasharray:none;stroke-dashoffset:0;stroke-opacity:1;paint-order:stroke fill markers;stop-color:#000000;stop-opacity:1"
                 transform="translate(-156.33871,933.1905)"><g
                   id="g14852"
                   style="font-variation-settings:normal;fill:#00a398;fill-opacity:1;stroke:#ffffff;stroke-width:9.90633;stroke-linecap:butt;stroke-linejoin:miter;stroke-miterlimit:4;stroke-dasharray:none;stroke-dashoffset:0;stroke-opacity:1;paint-order:stroke fill markers;stop-color:#000000;stop-opacity:1"><path
                     style="color:#000000;font-variation-settings:normal;clip-rule:nonzero;display:inline;overflow:visible;visibility:visible;opacity:1;isolation:auto;mix-blend-mode:normal;color-interpolation:sRGB;color-interpolation-filters:linearRGB;solid-color:#000000;solid-opacity:1;fill:#00a398;fill-opacity:1;fill-rule:evenodd;stroke:#ffffff;stroke-width:9.90633;stroke-linecap:butt;stroke-linejoin:miter;stroke-miterlimit:4;stroke-dasharray:none;stroke-dashoffset:0;stroke-opacity:1;paint-order:stroke fill markers;color-rendering:auto;image-rendering:auto;shape-rendering:auto;text-rendering:auto;enable-background:accumulate;stop-color:#000000;stop-opacity:1"
                     d="m 309.40365,-710.2521 122.19683,211.6751 -56.15706,0.5268 -32.6236,-56.8692 -32.85645,56.5653 -27.90237,-0.011 -14.29086,-24.6896 46.81047,-80.4902 -33.22946,-57.8256 z"
                     id="path4861" /><path
                     style="color:#000000;font-variation-settings:normal;clip-rule:nonzero;display:inline;overflow:visible;visibility:visible;opacity:1;isolation:auto;mix-blend-mode:normal;color-interpolation:sRGB;color-interpolation-filters:linearRGB;solid-color:#000000;solid-opacity:1;fill:#00a398;fill-opacity:1;fill-rule:evenodd;stroke:#ffffff;stroke-width:9.90633;stroke-linecap:butt;stroke-linejoin:miter;stroke-miterlimit:4;stroke-dasharray:none;stroke-dashoffset:0;stroke-opacity:1;paint-order:stroke fill markers;color-rendering:auto;image-rendering:auto;shape-rendering:auto;text-rendering:auto;enable-background:accumulate;stop-color:#000000;stop-opacity:1"
                     d="m 353.50926,-797.4433 -122.21756,211.6631 -28.53477,-48.37 32.93839,-56.6875 -65.41521,-0.1719 -13.9414,-24.1698 14.23637,-24.721 93.11177,0.2939 33.46371,-57.6903 z"
                     id="use4863" /><path
                     style="color:#000000;font-variation-settings:normal;clip-rule:nonzero;display:inline;overflow:visible;visibility:visible;opacity:1;isolation:auto;mix-blend-mode:normal;color-interpolation:sRGB;color-interpolation-filters:linearRGB;solid-color:#000000;solid-opacity:1;fill:#00a398;fill-opacity:1;fill-rule:evenodd;stroke:#ffffff;stroke-width:9.90633;stroke-linecap:butt;stroke-linejoin:miter;stroke-miterlimit:4;stroke-dasharray:none;stroke-dashoffset:0;stroke-opacity:1;paint-order:stroke fill markers;color-rendering:auto;image-rendering:auto;shape-rendering:auto;text-rendering:auto;enable-background:accumulate;stop-color:#000000;stop-opacity:1"
                     d="m 362.88537,-628.243 244.41439,0.012 -27.62229,48.8968 -65.56199,-0.1817 32.55876,56.7371 -13.96098,24.1585 -28.52722,0.032 -46.3013,-80.7841 -66.69317,-0.1353 z"
                     id="use4865" /><path
                     style="color:#000000;font-variation-settings:normal;clip-rule:nonzero;display:inline;overflow:visible;visibility:visible;opacity:1;isolation:auto;mix-blend-mode:normal;color-interpolation:sRGB;color-interpolation-filters:linearRGB;solid-color:#000000;solid-opacity:1;fill:#00a398;fill-opacity:1;fill-rule:evenodd;stroke:#ffffff;stroke-width:9.90633;stroke-linecap:butt;stroke-linejoin:miter;stroke-miterlimit:4;stroke-dasharray:none;stroke-dashoffset:0;stroke-opacity:1;paint-order:stroke fill markers;color-rendering:auto;image-rendering:auto;shape-rendering:auto;text-rendering:auto;enable-background:accumulate;stop-color:#000000;stop-opacity:1"
                     d="m 505.14318,-720.9886 -122.19683,-211.6751 56.15706,-0.5268 32.6236,56.8692 32.85645,-56.5653 27.90237,0.011 14.29086,24.6896 -46.81047,80.4902 33.22946,57.8256 z"
                     id="use4867" /><path
                     id="path4873"
                     d="m 309.40365,-710.2521 122.19683,211.6751 -56.15706,0.5268 -32.6236,-56.8692 -32.85645,56.5653 -27.90237,-0.011 -14.29086,-24.6896 46.81047,-80.4902 -33.22946,-57.8256 z"
                     style="color:#000000;font-variation-settings:normal;clip-rule:nonzero;display:inline;overflow:visible;visibility:visible;opacity:1;isolation:auto;mix-blend-mode:normal;color-interpolation:sRGB;color-interpolation-filters:linearRGB;solid-color:#000000;solid-opacity:1;fill:#00a398;fill-opacity:1;fill-rule:evenodd;stroke:#ffffff;stroke-width:9.90633;stroke-linecap:butt;stroke-linejoin:miter;stroke-miterlimit:4;stroke-dasharray:none;stroke-dashoffset:0;stroke-opacity:1;paint-order:stroke fill markers;color-rendering:auto;image-rendering:auto;shape-rendering:auto;text-rendering:auto;enable-background:accumulate;stop-color:#000000;stop-opacity:1" /><path
                     id="use4875"
                     d="m 451.3364,-803.53264 -244.4144,-0.012 27.62229,-48.89685 65.56199,0.18175 -32.55875,-56.73717 13.96097,-24.15851 28.52722,-0.0315 46.3013,80.78414 66.69317,0.13524 z"
                     style="color:#000000;font-variation-settings:normal;clip-rule:nonzero;display:inline;overflow:visible;visibility:visible;opacity:1;isolation:auto;mix-blend-mode:normal;color-interpolation:sRGB;color-interpolation-filters:linearRGB;solid-color:#000000;solid-opacity:1;fill:#00a398;fill-opacity:1;fill-rule:evenodd;stroke:#ffffff;stroke-width:9.90633;stroke-linecap:butt;stroke-linejoin:miter;stroke-miterlimit:4;stroke-dasharray:none;stroke-dashoffset:0;stroke-opacity:1;paint-order:stroke fill markers;color-rendering:auto;image-rendering:auto;shape-rendering:auto;text-rendering:auto;enable-background:accumulate;stop-color:#000000;stop-opacity:1" /><path
                     id="use4877"
                     d="m 460.87178,-633.8425 122.21757,-211.66304 28.53477,48.37003 -32.93839,56.68751 65.4152,0.1718 13.9414,24.1698 -14.23636,24.7211 -93.11177,-0.294 -33.46371,57.6904 z"
                     style="color:#000000;font-variation-settings:normal;clip-rule:nonzero;display:inline;overflow:visible;visibility:visible;opacity:1;isolation:auto;mix-blend-mode:normal;color-interpolation:sRGB;color-interpolation-filters:linearRGB;solid-color:#000000;solid-opacity:1;fill:#00a398;fill-opacity:1;fill-rule:evenodd;stroke:#ffffff;stroke-width:9.90633;stroke-linecap:butt;stroke-linejoin:miter;stroke-miterlimit:4;stroke-dasharray:none;stroke-dashoffset:0;stroke-opacity:1;paint-order:stroke fill markers;color-rendering:auto;image-rendering:auto;shape-rendering:auto;text-rendering:auto;enable-background:accumulate;stop-color:#000000;stop-opacity:1" /></g><g
                   id="layer2"
                   style="font-variation-settings:normal;display:none;fill:#00a398;fill-opacity:1;stroke:#ffffff;stroke-width:9.90633;stroke-linecap:butt;stroke-linejoin:miter;stroke-miterlimit:4;stroke-dasharray:none;stroke-dashoffset:0;stroke-opacity:1;paint-order:stroke fill markers;stop-color:#000000;stop-opacity:1"
                   transform="translate(72.039038,-1799.4476)"><path
                     d="M 460.60629,594.72881 209.74183,594.7288 84.309616,377.4738 209.74185,160.21882 l 250.86446,1e-5 125.43222,217.255 z"
                     id="path6032"
                     style="color:#000000;font-variation-settings:normal;display:inline;overflow:visible;visibility:visible;opacity:0.236;fill:#00a398;fill-opacity:1;fill-rule:nonzero;stroke:#ffffff;stroke-width:9.90633;stroke-linecap:butt;stroke-linejoin:miter;stroke-miterlimit:4;stroke-dasharray:none;stroke-dashoffset:0;stroke-opacity:1;marker:none;paint-order:stroke fill markers;enable-background:accumulate;stop-color:#000000;stop-opacity:1" /><path
                     transform="translate(0,-308.26772)"
                     style="color:#000000;font-variation-settings:normal;display:inline;overflow:visible;visibility:visible;opacity:1;fill:#00a398;fill-opacity:1;fill-rule:nonzero;stroke:#ffffff;stroke-width:9.90633;stroke-linecap:butt;stroke-linejoin:miter;stroke-miterlimit:4;stroke-dasharray:none;stroke-dashoffset:0;stroke-opacity:1;marker:none;paint-order:stroke fill markers;enable-background:accumulate;stop-color:#000000;stop-opacity:1"
                     id="path5875"
                     d="M 385.59154,773.06721 H 284.75659 l -50.41747,-87.32564 50.41748,-87.32563 100.83495,10e-6 50.41748,87.32563 z" /><path
                     transform="translate(0,-308.26772)"
                     id="path5851"
                     d="m 1216.5591,938.53395 123.0545,228.14035 -42.6807,-1.2616 -43.4823,-79.7725 -39.6506,80.3267 -32.6875,-19.7984 53.4737,-100.2848 -37.1157,-73.88955 z"
                     style="font-variation-settings:normal;fill:#00a398;fill-opacity:1;fill-rule:evenodd;stroke:#ffffff;stroke-width:9.90633;stroke-linecap:butt;stroke-linejoin:miter;stroke-miterlimit:4;stroke-dasharray:none;stroke-dashoffset:0;stroke-opacity:1;paint-order:stroke fill markers;stop-color:#000000;stop-opacity:1" /><rect
                     style="color:#000000;font-variation-settings:normal;clip-rule:nonzero;display:inline;overflow:visible;visibility:visible;opacity:0.415;isolation:auto;mix-blend-mode:normal;color-interpolation:sRGB;color-interpolation-filters:linearRGB;solid-color:#000000;solid-opacity:1;fill:#00a398;fill-opacity:1;fill-rule:nonzero;stroke:#ffffff;stroke-width:9.90633;stroke-linecap:butt;stroke-linejoin:miter;stroke-miterlimit:4;stroke-dasharray:none;stroke-dashoffset:0;stroke-opacity:1;marker:none;paint-order:stroke fill markers;color-rendering:auto;image-rendering:auto;shape-rendering:auto;text-rendering:auto;enable-background:accumulate;stop-color:#000000;stop-opacity:1"
                     id="rect5884"
                     width="48.834862"
                     height="226.22897"
                     x="-34.74221"
                     y="446.17056"
                     transform="rotate(-30)" /><path
                     transform="translate(0,-308.26772)"
                     style="color:#000000;font-variation-settings:normal;clip-rule:nonzero;display:inline;overflow:visible;visibility:visible;opacity:0.509;isolation:auto;mix-blend-mode:normal;color-interpolation:sRGB;color-interpolation-filters:linearRGB;solid-color:#000000;solid-opacity:1;fill:#00a398;fill-opacity:1;fill-rule:evenodd;stroke:#ffffff;stroke-width:9.90633;stroke-linecap:butt;stroke-linejoin:miter;stroke-miterlimit:4;stroke-dasharray:none;stroke-dashoffset:0;stroke-opacity:1;marker:none;paint-order:stroke fill markers;color-rendering:auto;image-rendering:auto;shape-rendering:auto;text-rendering:auto;enable-background:accumulate;stop-color:#000000;stop-opacity:1"
                     id="path3428"
                     d="m 251.98568,878.63831 -14.02447,24.29109 h -28.04894 l -14.02447,-24.29109 14.02447,-24.2911 h 28.04894 z" /><use
                     x="0"
                     y="0"
                     xlink:href="#rect5884"
                     id="use4252"
                     transform="rotate(60,268.29786,489.4515)"
                     width="100%"
                     height="100%"
                     style="font-variation-settings:normal;fill:#00a398;fill-opacity:1;stroke:#ffffff;stroke-width:9.90633;stroke-linecap:butt;stroke-linejoin:miter;stroke-miterlimit:4;stroke-dasharray:none;stroke-dashoffset:0;stroke-opacity:1;paint-order:stroke fill markers;stop-color:#000000;stop-opacity:1" /><rect
                     style="color:#000000;font-variation-settings:normal;clip-rule:nonzero;display:inline;overflow:visible;visibility:visible;opacity:1;isolation:auto;mix-blend-mode:normal;color-interpolation:sRGB;color-interpolation-filters:linearRGB;solid-color:#000000;solid-opacity:1;fill:#00a398;fill-opacity:1;fill-rule:evenodd;stroke:#ffffff;stroke-width:9.90633;stroke-linecap:butt;stroke-linejoin:miter;stroke-miterlimit:4;stroke-dasharray:none;stroke-dashoffset:0;stroke-opacity:1;marker:none;paint-order:stroke fill markers;color-rendering:auto;image-rendering:auto;shape-rendering:auto;text-rendering:auto;enable-background:accumulate;stop-color:#000000;stop-opacity:1"
                     id="rect4254"
                     width="5.3947482"
                     height="115.12564"
                     x="545.71014"
                     y="467.07007"
                     transform="rotate(30,575.23539,-154.13386)" /></g></g></g><g
               id="g28186"
               transform="matrix(0.77913906,0,0,0.77913906,1400.2484,175.03481)"
               style="stroke:#ffffff;stroke-width:6.72481;stroke-linecap:butt;stroke-linejoin:round;stroke-dasharray:none;stroke-opacity:1;paint-order:stroke fill markers"><path
                 id="path257_1_"
                 d="m -129.29452,166.3079 c -0.297,0.082 -0.334,0.425 -0.414,0.688 0.164,2.316 -0.42,4.251 -0.629,6.244 -0.369,2.694 -1.361,5.26 -2.029,7.877 -3.399,11.151 -8.75,21.384 -16.209,30.883 -9.053,12.165 -21.375,20.881 -33.776,29.386 -1.92,1.309 -3.852,2.621 -5.752,3.938 -3.4,2.651 -6.957,5.267 -9.081,9.119 -1.397,2.613 -2.53,5.599 -3.563,8.371 -1.015,3.311 -2.528,6.779 -4.787,9.552 -1.889,2.337 -4.297,4.192 -7.367,5.082 -0.616,-0.043 -1.57,0.453 -1.988,-0.256 -0.121,-0.409 0.072,-0.739 0.374,-0.986 1.977,-0.841 3.574,-2.199 4.825,-3.84 1.102,-1.442 1.933,-3.116 2.521,-4.826 2.028,-6.048 3.446,-12.391 6.597,-17.98 1.573,-3.002 3.506,-5.687 5.673,-8.174 5.065,-5.825 11.355,-10.564 17.193,-15.677 1.535,-1.074 2.998,-2.562 4.49,-3.724 7.051,-6.31 13.721,-13.459 18.494,-21.546 1.822,-3.323 3.395,-6.81 3.84,-10.616 0.797,-4.438 0.127,-9.519 -3.623,-11.937 -1.293,-0.835 -2.572,-2.119 -4.195,-1.909 -0.325,0.078 -0.488,0.373 -0.373,0.709 2.029,2.893 2.57,7.167 1.535,10.557 -2.407,8.624 -7.461,16.221 -13.353,23.18 -7.63,9.5 -17.717,16.582 -26.63,24.916 -1.165,1.244 -2.621,2.348 -3.525,3.762 -0.7,0.732 -1.353,1.497 -1.95,2.285 -2.444,3.209 -4.155,6.86 -5.515,10.519 -1.661,5.015 -2.723,10.242 -4.097,15.342 -0.198,1.242 -0.901,2.241 -1.319,3.368 -0.442,0.645 -1.005,1.446 -1.733,1.752 -0.297,0.131 -0.611,0.176 -0.965,0.098 -0.083,-0.034 -0.173,-0.06 -0.256,-0.098 -1.092,-0.559 -1.712,-1.793 -1.95,-2.915 -2.239,-9.995 2.529,-18.906 8.667,-26.195 0.514,-0.633 1.052,-1.254 1.576,-1.872 3.71,-4.269 7.72,-8.317 10.614,-13.019 2.118,-3.521 2.858,-8.572 0.493,-12.093 -0.704,-1.618 -2.23,-2.777 -3.722,-3.485 -0.121,-0.166 -0.121,-0.373 0,-0.534 1.323,-0.339 2.518,0.271 3.762,0.316 2.996,0.373 6.265,-0.079 8.921,-1.162 1.743,-0.866 3.7,-2.145 4.194,-4.137 0.134,-0.698 0.492,-1.745 -0.295,-2.284 -0.627,-0.249 -0.456,0.579 -0.749,0.828 -1.367,1.441 -3.483,2.027 -5.515,2.027 -4.933,-0.5 -9.402,-2.014 -13.925,-3.505 -3.273,-0.997 -6.442,-2.126 -9.808,-2.757 -3.56,-0.365 -8.403,-1.239 -10.774,2.128 -0.494,0.825 -0.279,1.732 0.139,2.56 -1.991,0.208 -4.078,0.125 -6.146,0.335 -0.494,-1.491 -0.95,-2.945 -1.615,-4.313 -1.165,0.245 -2.282,0.662 -3.564,0.491 0.996,1.283 1.782,2.69 2.029,4.275 -2.866,0.863 -6.06,1.876 -7.761,4.489 -0.33,0.87 -1.07,1.688 -0.866,2.639 2.778,-1.199 5.688,-2.153 8.921,-2.324 l 0.158,0.139 c 0,1.569 -0.41,3.231 -0.906,4.728 -1.321,0.363 -2.656,0.144 -3.938,0.275 0.078,0.208 -0.215,0.422 -0.139,0.669 0.209,1.482 2.051,1.364 2.836,2.029 -0.785,1.575 -1.789,3.247 -3.033,4.53 -1.199,-1.116 -2.809,-2.065 -4.471,-1.99 -3.196,-0.286 -5.603,2.147 -8.469,2.935 -0.666,0.253 -1.411,-0.218 -1.99,-0.333 -0.248,0.781 0.301,1.607 0.965,2.108 0.535,0.208 0.984,0.746 1.557,0.629 0.787,0.408 1.924,0.373 2.915,0.335 2.2,-0.214 3.809,-1.777 5.85,-2.482 0.864,-0.131 1.784,-0.716 2.659,-0.177 -0.165,0.588 -0.882,0.921 -1.339,1.38 -2.774,2.027 -6.225,2.972 -8.055,6.165 -0.456,1.243 -0.496,2.735 0.039,3.978 0.917,1.452 2.515,2.277 4.215,2.029 0,-0.21 -0.139,-0.377 -0.216,-0.532 -0.709,-2.276 1.737,-3.771 3.15,-5.102 0.995,-1.112 1.704,-2.777 0.946,-4.273 0.957,-0.787 1.866,-1.518 2.895,-2.265 0.588,1.49 1.378,2.901 2.659,4.096 1.491,1.282 3.798,1.819 5.653,0.944 2.238,-0.995 4.483,-3.31 4.313,-5.928 -1.082,1.121 -2.497,1.914 -4.076,2.207 -0.671,-0.787 -1.243,-1.241 -2.029,-1.95 -1.376,-1.036 -3.186,-1.371 -4.924,-1.044 1.49,-1.739 2.601,-3.593 3.723,-5.535 2.617,-0.257 5.22,-0.802 7.838,-1.418 3.273,-0.671 7.218,-0.494 9.336,2.324 0.418,0.456 0.737,1.123 1.064,1.832 1.413,4.016 -1.067,7.701 -3.763,10.557 -3.074,3.122 -6.473,5.917 -9.926,8.666 -7.309,5.816 -14.878,11.414 -20.149,19.361 -1.325,1.739 -2.518,3.808 -3.387,5.969 -0.942,1.757 -1.716,3.661 -2.325,5.651 -1.482,4.903 -1.934,10.308 -1.222,15.481 0.512,3.656 1.591,7.188 3.289,10.321 0.877,1.829 1.958,3.546 3.212,5.16 5.202,6.74 13.271,11.641 20.758,14.614 8.504,3.521 17.381,5.854 26.59,6.973 l 0.158,0.158 c 1.146,2.875 1.908,6.047 2.108,9.235 0.189,2.981 -0.126,5.998 -1.064,8.843 -0.131,0.326 -0.417,0.706 -0.295,1.123 1.408,-0.505 2.825,-1.506 3.859,-2.541 0.788,-0.539 1.167,-1.363 1.832,-2.027 0.161,-0.041 0.233,0.046 0.314,0.178 1.211,8.751 3.255,17.273 6.422,25.387 0.724,1.885 1.528,3.743 2.384,5.574 0.455,1.452 1.854,2.559 1.477,4.138 -0.286,0.368 -0.74,0.869 -1.28,0.827 -0.625,-0.039 -1.332,-0.066 -1.871,-0.236 -1.699,-0.457 -3.352,-1.258 -5.004,-1.713 -2.485,-0.408 -6.055,-1.826 -8.133,0.452 -0.331,0.626 -0.327,1.411 -0.041,2.067 -0.743,0.17 -1.576,-0.029 -2.402,0.061 -1.793,-0.05 -3.311,1.023 -4.098,2.559 -0.247,0.746 -0.258,1.886 0.198,2.541 0.287,0.496 0.82,0.789 1.359,0.828 0.166,-0.133 0.216,-0.342 0.256,-0.59 1.084,-2.07 3.536,-2.395 5.731,-2.443 0.161,0.05 0.355,0.203 0.276,0.414 -0.626,0.537 -1.395,0.826 -1.89,1.496 -0.616,0.873 -0.972,1.901 -0.434,2.975 0.457,0.875 1.33,1.537 2.403,1.537 0.399,0.011 0.392,0.17 0.551,0 -0.12,-0.783 0.369,-1.615 0.985,-2.246 2.651,-2.068 6.015,-2.473 9.415,-2.797 6.31,-0.54 13.582,-0.682 19.694,0.609 1.396,0.289 1.354,0.375 2.049,0.711 0.904,0.418 1.822,1.15 2.146,2.146 0.502,0.078 0.959,-0.205 1.34,-0.452 1.359,-1.078 2.645,-2.515 2.266,-4.295 -0.131,-0.5 -0.361,-0.811 -0.867,-1.338 -2.12,-1.65 -5.15,-1.613 -7.723,-1.398 0,0 -0.08,0 -0.373,0 -2.106,0.076 -4.266,0.043 -5.967,-1.123 -2.24,-1.738 -2.572,-4.649 -3.724,-6.973 -0.329,-1.104 -0.644,-2.221 -0.944,-3.329 -2.098,-7.804 -3.5,-15.756 -4.116,-23.948 0,-0.172 -0.013,-0.412 0.197,-0.336 1.99,1.491 4.188,2.408 6.637,2.777 1.205,0.169 2.66,0.209 3.445,-0.75 -1.125,-1.034 -2.56,-1.926 -3.644,-3.013 -1.606,-1.698 -2.953,-3.634 -4.019,-5.691 -2.806,-5.458 -3.665,-11.937 -2.461,-18.101 -2.572,-2.067 -4.809,-4.067 -7.169,-6.223 -2.166,-2.133 -4.355,-4.332 -6.362,-6.658 -3.992,-4.575 -7.309,-9.615 -8.527,-15.48 -0.112,-0.53 -0.204,-1.076 -0.277,-1.616 0.04,-0.875 -0.393,-2.035 0.315,-2.778 0.117,-0.039 0.395,-0.091 0.473,0.041 0.515,1.462 1.069,2.92 1.695,4.353 0.738,1.699 1.559,3.37 2.482,4.982 2.125,3.948 5.112,7.313 8.351,10.497 5.187,5.08 11.047,9.679 15.245,15.363 1.62,2.116 2.776,4.508 3.819,6.952 0.871,2.726 1.479,5.693 1.597,8.667 0.059,1.413 0.001,2.828 -0.179,4.234 0.162,0.203 0.326,0.418 0.61,0.334 0.709,-0.458 0.782,-1.245 1.084,-1.949 0.239,-0.875 0.427,-1.747 0.57,-2.619 1.424,-8.266 -0.946,-16.529 -5.711,-23.202 -2.278,-2.905 -4.89,-5.425 -7.583,-7.78 -5.678,-4.992 -11.773,-9.347 -16.091,-15.48 -0.601,-0.875 -1.173,-1.787 -1.714,-2.738 -0.248,-0.617 -0.86,-1.443 -0.158,-2.067 0.172,-0.045 0.402,-0.083 0.572,0.04 l 2.166,2.324 c 0.875,0.854 1.792,1.656 2.719,2.443 6.144,5.141 13.329,8.671 21.784,8.409 4.944,-0.656 9.379,-3.195 12.938,-6.716 l 0.118,-0.493 c -0.077,-0.208 -0.243,-0.335 -0.413,-0.373 -4.128,0.159 -8.112,-0.144 -11.955,-0.827 -2.942,-0.531 -5.795,-1.271 -8.567,-2.188 -2.525,-0.991 -5.06,-1.878 -7.347,-3.408 -0.04,-0.208 -0.032,-0.486 0.098,-0.649 4.804,-0.172 10.063,-1.825 12.763,-6.263 -0.042,-0.288 0.2,-0.757 -0.216,-0.887 -3.818,0.292 -7.949,0.343 -11.641,-0.452 -0.286,0 -0.375,-0.248 -0.375,-0.493 0.044,-0.162 0.258,-0.258 0.375,-0.375 1.872,-0.112 3.698,-0.343 5.456,-0.768 2.979,-0.729 5.765,-1.983 8.19,-3.958 0.75,-0.59 0.953,-1.491 1.656,-2.029 0.379,-0.752 0.987,-1.489 0.569,-2.403 -4.229,0.705 -8.379,1.78 -12.564,1.99 -1.036,0.038 -2.314,0.092 -3.35,-0.079 -0.209,-0.248 -0.013,-0.548 0.157,-0.708 2.404,-0.667 4.854,-1.085 7.13,-1.99 3.235,-1.206 6.483,-2.452 8.843,-5.279 0.535,-1.153 1.658,-2.265 1.163,-3.624 -0.214,-0.209 -0.42,-0.393 -0.749,-0.314 -4.642,1.953 -9.529,3.458 -14.634,4.332 -0.666,-0.038 -1.37,0.445 -1.871,-0.138 -0.325,-0.33 0.29,-0.245 0.197,-0.532 5.353,-1.821 10.711,-3.564 15.067,-7.504 1.528,-1.66 2.849,-3.848 2.441,-6.124 -0.131,-0.327 -0.411,-0.68 -0.829,-0.632 -3.729,1.782 -7.461,3.522 -11.442,4.768 -0.494,0 -0.956,0.535 -1.458,0.119 -0.125,-0.161 -0.131,-0.441 0.04,-0.572 3.113,-2.18 6.283,-4.232 9.455,-6.301 2.996,-1.954 5.996,-3.911 8.922,-6.007 2.029,-1.535 4.137,-3.233 6.203,-4.767 9.422,-7.417 17.896,-16.709 24.777,-26.786 0.912,-1.321 1.682,-2.726 2.639,-4.019 3.609,-6.633 7.549,-13.315 8.963,-20.857 0.535,-4.226 -0.865,-8.584 -3.684,-11.856 -0.369,-0.335 -0.691,-0.753 -1.23,-0.791 z m 7.662,16.405 c -0.142,-0.004 -0.289,0.034 -0.375,0.139 -0.742,1.821 -1.357,3.698 -2.106,5.476 -3.491,7.172 -7.304,14.345 -12.448,20.64 -3.729,5.23 -8.574,9.573 -12.723,14.338 -0.043,0.169 -0.133,0.465 0,0.63 0.209,0.251 0.578,0.158 0.787,0.158 l 2.029,-1.616 c 8.741,-7.458 17.121,-15.293 23.633,-24.954 2.07,-3.153 2.813,-7.134 2.364,-11.07 -0.252,-1.203 -0.2,-2.531 -0.827,-3.564 -0.06,-0.123 -0.194,-0.172 -0.334,-0.177 z m -25.33,2.167 c -0.248,0.007 -0.479,0.146 -0.551,0.335 0,0.951 0.141,1.858 0.141,2.816 -0.957,7.46 -4.5,14.26 -8.883,20.229 -9.463,13.436 -23.668,21.921 -35.119,33.324 -0.655,0.874 -1.754,1.499 -1.832,2.659 0.117,0.13 0.216,0.287 0.414,0.414 0.336,0.082 0.527,0.008 0.907,-0.079 3.361,-2.857 6.729,-5.433 10.417,-7.956 2.857,-2.07 5.725,-4.056 8.627,-6.048 10.117,-7.547 19.564,-16.425 25.703,-27.692 2.817,-4.608 4.645,-11.314 1.575,-16.327 -0.33,-0.589 -0.694,-1.18 -1.142,-1.634 -0.086,-0.031 -0.171,-0.043 -0.257,-0.041 z m 23.104,18.159 c -0.192,0.027 -0.39,0.123 -0.513,0.296 -11.907,15.652 -28.037,28.285 -44.434,38.052 -0.228,0.135 -0.439,0.275 -0.67,0.413 0.077,0.46 0.324,0.921 0.532,1.378 0.744,2.153 0.317,4.685 -1.005,6.462 -0.086,0.168 -0.047,0.324 0.078,0.412 4.766,-2.671 9.498,-5.554 14.063,-8.665 8.446,-5.771 16.357,-12.369 23.144,-20.149 3.609,-4.434 6.599,-8.999 8.705,-14.102 0.379,-1.161 0.867,-2.313 0.828,-3.604 -0.082,-0.387 -0.405,-0.539 -0.728,-0.493 z m -96.41,4.273 c 0.296,-0.014 0.656,0.12 0.945,0.12 2.327,0.416 4.675,0.786 6.874,1.456 0.126,0.079 0.04,0.253 0,0.376 -2.108,0.255 -3.982,1.04 -6.105,1.2 -0.618,0 -1.195,-0.084 -1.694,-0.452 -0.656,-0.628 -0.692,-1.656 -0.454,-2.443 0.098,-0.172 0.258,-0.247 0.434,-0.257 z m -10.674,4.413 c 4.167,-0.013 6.224,0.155 6.224,1.458 0,1.8 -3.819,2.764 -7.188,3.25 0.199,-0.568 0.51,-1.571 0.709,-2.601 0.15,-0.807 0.201,-0.975 0.255,-2.107 z m 97.235,15.027 c -0.103,0.015 -0.211,0.038 -0.295,0.079 -5.041,5.436 -10.599,10.278 -16.523,14.556 -6.008,4.312 -12.383,8.054 -18.948,11.227 0.71,2.239 0.318,4.729 -0.925,6.756 -0.292,0.499 -0.825,0.881 -0.945,1.418 0.12,0.248 0.362,0.039 0.57,0.039 10.611,-4.613 21.15,-10.688 29.443,-19.439 1.246,-1.317 2.435,-2.664 3.565,-4.096 2.2,-3.114 4.472,-6.316 4.767,-10.125 -0.065,-0.372 -0.398,-0.462 -0.709,-0.415 z m -6.912,18.77 c -1.948,1.287 -3.145,2.951 -5.141,4.195 -2.449,1.907 -4.935,3.566 -7.505,5.18 -5.638,3.229 -11.452,6.105 -17.588,8.134 0.204,3.065 -0.88,6.035 -3.328,8.076 0.056,0.248 -0.354,0.164 -0.354,0.374 0,0.087 0,0.198 0.08,0.276 5.182,-0.943 10.031,-3.054 14.81,-5.495 6.425,-3.862 12.712,-8.379 17.117,-14.674 1.155,-1.701 2.2,-3.373 2.58,-5.476 -0.025,-0.457 -0.292,-0.631 -0.671,-0.59 z m -84.71,5.929 c 0.199,0 0.404,0.007 0.491,0.217 v 0.414 c -1.373,2.03 -2.489,4.063 -3.485,6.302 -1.947,4.387 -3.326,9.189 -3.505,13.983 -0.03,1.005 -0.014,2.009 0.059,3.013 0.238,4.453 1.239,8.587 2.875,12.469 0.987,2.297 2.201,4.504 3.605,6.635 0.496,0.577 0.821,1.327 1.398,1.773 2.007,2.704 4.464,5.021 7.071,7.07 1.442,1.132 2.93,2.186 4.412,3.171 0.339,0.288 0.988,0.547 0.906,1.005 -0.743,0.494 -1.557,-0.248 -2.304,-0.413 -2.866,-0.907 -5.675,-2.185 -8.313,-3.763 -3.969,-2.389 -7.55,-5.512 -10.32,-9.336 -1.388,-1.87 -2.543,-3.951 -3.447,-6.143 -1.991,-4.834 -2.746,-10.281 -2.048,-15.482 0.314,-2.327 0.914,-4.615 1.851,-6.774 1.282,-2.943 2.948,-5.847 4.846,-8.371 1.792,-2.039 3.538,-4.187 5.908,-5.77 z m 78.074,10.832 c -1.244,0.539 -2.231,1.605 -3.35,2.305 -5.161,3.33 -10.646,5.986 -16.466,7.779 -2.515,0.768 -5.082,1.405 -7.722,1.851 l -0.039,0.455 c 0.406,3.812 -3.039,6.712 -6.066,8.291 v 0.237 l 0.553,0.098 c 2.486,-0.209 4.883,-0.83 7.209,-1.378 6.262,-2.07 12.362,-4.773 17.627,-9.12 0.194,-0.145 0.383,-0.283 0.571,-0.433 2.704,-2.098 5.298,-4.741 7.347,-7.564 0.209,-0.709 1.008,-1.32 0.887,-2.106 -0.13,-0.166 -0.299,-0.453 -0.551,-0.415 z m -9.554,15.58 c -6.006,3.399 -12.31,6.04 -19.36,6.914 -0.039,0.13 -0.119,0.302 0,0.433 1.33,0.248 2.664,0.534 4.078,0.611 3.516,0.208 6.995,0.322 10.397,-0.255 1.622,-1.661 3.026,-3.507 4.354,-5.377 0.248,-0.699 1.096,-1.28 0.926,-2.106 -0.039,-0.174 -0.263,-0.182 -0.395,-0.22 z m -33.699,16.662 c -0.17,0.13 -0.195,0.332 -0.118,0.532 3.362,3.069 6.859,5.615 10.32,8.272 5.25,4.025 10.402,8.308 14.852,15.026 2.896,4.376 4.604,6.904 6.342,11.858 0.486,1.394 0.918,2.766 1.281,4.098 2.049,7.526 2.037,14.142 -0.041,21.152 0,0.616 -0.543,1.036 -0.217,1.653 0.875,0.209 1.219,-0.824 1.674,-1.317 2.277,-3.774 4.471,-7.709 5.752,-11.976 1.016,-3.064 1.588,-6.279 1.713,-9.514 0.332,-8.165 -2.18,-16.426 -7.799,-22.454 -3.233,-3.822 -7.147,-6.449 -11.344,-8.528 -6.057,-2.986 -12.73,-4.802 -18.929,-7.347 -1.198,-0.406 -2.241,-1.248 -3.486,-1.455 z m -35.176,26.687 c -0.16,4.363 -0.879,8.81 -2.167,13.098 -0.665,2.238 -1.47,4.426 -2.422,6.559 3.666,0 6.674,-2.486 9.236,-4.608 -0.989,4.108 -2.399,7.3 -4.313,11.817 -2.914,6.91 -5.849,11.991 -9.021,17.192 -1.072,1.772 -2.187,3.576 -3.328,5.455 -0.748,1.282 -1.661,2.798 -3.191,3.508 -4.268,1.149 -7.315,-2.276 -11.463,-1.911 -1.957,0.34 -2.6,0.715 -3.271,1.418 -0.374,0.577 -0.327,1.299 -0.079,1.911 -2.326,-0.196 -4.845,-0.198 -6.677,1.162 -0.785,0.747 -1.156,1.86 -0.827,2.974 0.249,0.709 0.71,1.309 1.537,1.615 0.995,-1.91 3.032,-2.779 5.061,-3.271 0.875,-0.127 1.786,-0.302 2.62,0.04 0.199,0.115 0.027,0.381 -0.137,0.513 -0.826,0.418 -1.738,0.892 -2.404,1.635 -0.654,0.874 -1.245,1.966 -0.906,3.091 0.597,1.435 2.078,1.983 3.485,1.813 0.121,-0.172 -0.04,-0.322 -0.04,-0.492 -0.17,-1.569 1.396,-2.407 2.6,-3.073 3.979,-1.375 8.506,-1.375 12.862,-1.496 3.599,-0.209 7.243,0.043 10.852,0.295 2.122,0.248 4.248,0.619 5.87,1.951 0.365,0.368 0.445,1.039 0.198,1.495 0.535,0.161 1.04,-0.182 1.497,-0.433 0.078,-0.078 0.125,-0.096 0.315,-0.276 1.243,-0.995 1.673,-2.375 1.673,-3.821 -0.039,-1.405 -1.384,-2.357 -2.501,-2.775 -0.248,-0.098 -0.304,-0.129 -0.57,-0.219 -2.739,-0.826 -5.764,-0.473 -8.706,-0.432 -0.84,-0.134 -1.922,0.026 -2.285,-0.887 -0.17,-0.541 0.087,-1.148 0.334,-1.596 1.9,-2.754 3.874,-5.482 5.85,-8.194 3.244,-4.433 6.522,-8.836 9.533,-13.332 2.358,-3.532 3.897,-7.868 4.018,-12.015 1.66,1.66 3.648,3.023 5.81,3.898 0.535,0.121 1.199,0.283 1.694,0.118 -1.928,-2.903 -3.23,-6.179 -4.038,-9.63 -0.583,-2.557 -0.916,-5.212 -0.983,-7.88 -1.118,-0.326 -2.345,-0.362 -3.468,-0.647 -4.265,-0.995 -8.387,-2.703 -12.248,-4.57 z"
                 inkscape:connector-curvature="0"
                 style="fill:#d1202a;stroke:#ffffff;stroke-width:6.72481;stroke-linecap:butt;stroke-linejoin:round;stroke-dasharray:none;stroke-opacity:1;paint-order:stroke fill markers" /></g></g></g><g
           transform="matrix(0.01299187,0,0,-0.01299187,617.98451,454.69908)"
           id="g12128" /></g></g></g></svg>
