<svg xmlns="http://www.w3.org/2000/svg" xmlns:xlink="http://www.w3.org/1999/xlink" width="1342.05" height="1282.34"><defs><path id="reuse-0" d="M669.4 1303.05c-41.28-1.38-89.45-10.2-130.37-23.86-145.28-48.52-257.56-167.37-298.22-315.64-10.28-37.52-14.98-69.99-15.97-110.5-1.14-46.26 3.18-83.62 14.82-128.27C271.16 604 352 499.92 461.82 438.77c53.66-29.88 114.43-48.95 177.6-55.72 20.52-2.2 65.57-2.51 86.55-.6 40.03 3.67 82.8 13.4 120.82 27.5 108.31 40.2 199.26 121.77 250.9 225.05 25.1 50.19 40.28 102.72 47.16 163.27 1.9 16.61 1.9 70.8.02 88.05-11.66 106.83-55.57 201.41-128.51 276.82-73.5 75.98-169.73 123.51-277.56 137.1-10.27 1.3-52.02 3.74-57.15 3.34-1.6-.12-7.11-.36-12.24-.53z" style="display:inline;fill:#272625;fill-opacity:1;stroke-width:1.16622"/><path id="reuse-1" d="M999.8 21.8c-26.9 1.91-47.52 13.6-59.2 33.54-12.5 21.31-14.48 46.37-5.45 68.73 6.23 15.41 11.84 22.91 32.86 43.93 29.87 29.86 36.6 41.25 36.64 62 .02 11.14-.3 12.6-4.53 20.37-6.07 11.22-18.18 22.31-32.2 29.53-15.7 8.07-31.84 18.94-39.25 26.42-12.02 12.16-16.18 24.5-18.1 53.68-1.89 28.62-3.5 33.95-13.63 44.94-6.58 7.13-17.2 12.9-22.14 12.01-1.9-.34-9.77-3.05-17.47-6.02a453.57 453.57 0 0 0-60.66-18.24c-8.8-1.97-16.3-3.88-16.67-4.25-.9-.9-.85-58.7.05-59.6.4-.4 3.87.85 7.73 2.76 8.49 4.2 17.5 5.17 25.55 2.75 8.15-2.44 8.35-5.2.86-11.8-7.3-6.42-12.76-17.04-13.75-26.73-.4-3.93.24-13.62 1.42-21.53 1.17-7.9 2.14-16.75 2.14-19.66s.31-5.3.69-5.3c.38 0 4.2.98 8.5 2.18 9.3 2.58 20.15 1.68 26.56-2.22 4.93-3 5.87-7.96 1.52-7.96-6.85 0-14.17-6.46-18.87-16.68-2.8-6.07-3.07-8.61-3.16-29.32-.11-24.6-1.34-30.13-9.88-44.61l-3.57-6.05h11.48c9.68 0 12.5-.53 18.09-3.41 6.62-3.4 16-13.73 14.57-16.04-.41-.67-2.9-1.22-5.52-1.22-3.74 0-39.8-10.94-41.42-12.57-.21-.21 3.18-1.68 7.54-3.27 9.5-3.47 20.84-13.16 24.31-20.8 3-6.61 3.34-17.79.56-18.85-1.07-.41-3.95.79-6.4 2.66-14.58 11.12-29.04 9.8-65.4-5.98-42.97-18.64-71.65-25.11-111.64-25.16-38.12-.06-61.46 5.47-77.03 18.23-5.91 4.85-10.85 13.23-10.9 18.54-.03 2.62-.95 2.85-14.36 3.58-33.14 1.82-61.94 12.05-77.7 27.6-13.75 13.58-20.78 37.18-15.45 51.93 2.58 7.14 5.23 8.02 9.7 3.23 5.4-5.78 16.06-9.02 26.46-8.05 11.8 1.1 54.57 15.44 52.43 17.57-1.14 1.15-37.54 7.34-43.13 7.34-9.56 0-19.17 2.58-20.77 5.57-1.99 3.7.52 9.27 6.67 14.83 6.17 5.57 14.35 9.55 25.45 12.37 4.77 1.2 9.19 3.1 9.82 4.2 1.64 2.85 19.06 10.64 29.07 13 12.05 2.84 15.62 2.59 36.74-2.64 25.35-6.26 36.51-6.38 48.28-.5 10.37 5.18 13.42 9.7 13.42 19.93 0 9.54-2.89 19.24-9.72 32.57-10.71 20.92-34.9 40.4-53.17 42.83-4.13.54-6.96 1.66-7.45 2.92-1.1 2.9 6.73 9.07 14.94 11.74 3.7 1.22 6.94 2.37 7.18 2.57.24.2-4.68 7.68-10.94 16.6-6.26 8.93-13.96 21.3-17.1 27.48l-5.73 11.25-9.34 2.33c-19.99 5.86-39.39 12.8-56 19.23L486 423l-9.17-1.4c-16.71-2.55-33.12-13.3-39.66-25.98-4.24-8.22-5.08-16.22-3.54-34 3.55-41.18-8.64-60.29-53.38-83.69-24.11-12.6-36.2-27.91-37.3-47.23-1-17.58 6.64-34.3 24.27-53.17 28.75-30.76 36.92-53.08 30.71-83.92-4-19.87-13.92-33.61-30.65-42.5-12.91-6.84-22.1-8.98-38.61-9-18.44 0-27 2.23-48 12.52-23.6 11.56-47.02 27.94-75.34 52.7-29.07 25.42-59.52 42.94-82.37 47.4-25.35 4.94-45.07-6.87-54.38-32.58-3.5-9.67-5.69-11.48-10.25-8.5-7.78 5.1-11.06 22.73-7.15 38.37 3.5 13.95 12.04 29.87 20.63 38.44 13.91 13.88 30 20.2 51.36 20.2h13.35l-4.6 4.85c-10.46 11.03-33.66 23.36-53.92 28.67-17.38 4.55-30.95 2.52-45.19-6.75-4.58-2.99-9.92-5.43-11.87-5.43-8.98 0-9.94 14.21-2.04 30.3 15.69 31.93 56.9 45.47 100.33 32.93 3.6-1.04 6.85-1.6 7.22-1.23 1.31 1.32-31.46 32.2-41.51 39.1-20.8 14.3-51.2 25.57-68.93 25.57-11.46 0-12.22 9.71-1.9 24.3 8.74 12.35 25.83 19.7 45.82 19.7 20.52 0 40.56-6.96 62.4-21.66 6.05-4.07 11-7.07 11-6.67 0 2.63-19.43 37.23-28.9 51.48-23.15 34.8-52.88 57.84-75.98 58.87-5.71.26-9.5 1.12-10.84 2.46-5.95 5.95 9.15 25.52 24.4 31.6 11.85 4.74 31.8 4.49 46.66-.6 16.15-5.53 35.1-16.5 50.33-29.14 3.48-2.9 6.33-5.01 6.33-4.71 0 .3-3.94 12.5-8.77 27.12C117.6 568.86 95.22 618.12 72.7 652c-7.75 11.66-22.86 27.68-31.81 33.73-5.06 3.41-4.62 7.86 1.25 12.7 14.26 11.75 44.04 11.2 68.94-1.27 31.46-15.77 59.55-50.78 79.54-99.16 8.13-19.7 8.2-19.78 7.3-10.67-1.96 19.88-15.86 77.1-26.57 109.34-21.92 66.03-55.24 118.42-84.88 133.43-5.58 2.83-6.46 3.83-6.46 7.32 0 5.01 4.49 9.72 13.03 13.67 5.38 2.48 8.65 2.9 22.3 2.9 13.32-.02 17.57-.55 25.34-3.19 30.15-10.25 51.1-28.18 74.3-63.62 4.5-6.86 8.35-12.3 8.56-12.1.22.22-1.04 13.56-2.8 29.66-2.93 27-3.6 30.4-8.66 43.93-17.8 47.6-44.96 88.01-68.67 102.2-8.63 5.15-10.06 8.04-6.42 12.96 4.55 6.15 9.04 7.51 24.35 7.41 11.14-.07 15.55-.7 21.53-3.04 10.74-4.21 22.65-12.27 32.87-22.24 4.5-4.4 7.73-7.46 8.36-7.98 2.88-2.63 6.02-5.03 9.04-7.5-4.85-29.2-7.18-44.09-8.16-74.66-3.9-122.43 48.66-239.97 135.28-326.59a461.61 461.61 0 0 1 326.47-135.31c232.38.07 428.52 172.78 458 403.28 1.84 1.32 5.23 4.41 10.91 9.93 15.4 14.95 28.93 23.43 46.96 29.44 22.28 7.43 48.97-6.93 66.39-15.17 8.6-4.07 13.69-9.34 13.69-14.19 0-3.27-1.08-4.21-14.43-12.62-10.52-6.64-31.01-26.34-42.9-41.26-27-33.89-49.58-78.3-66.42-130.66-5.6-17.43-11.73-43.64-10.48-44.88.4-.4 2.82 3.45 5.4 8.55 7.56 15.03 23.37 37.6 33.45 47.77a151.52 151.52 0 0 0 57.67 36.15c9.06 3.15 12.48 3.61 27.04 3.67 18.84.08 25.82-1.73 36.47-9.46 6.4-4.64 8.94-9.91 6.6-13.68-.72-1.17-6.1-4.52-11.95-7.46-22.62-11.34-44.6-32.49-71.4-68.66-24.7-33.33-50.86-75.78-55.07-89.34-.82-2.63.8-1.6 7.8 4.94 20.32 19 42.6 29.82 70.88 34.43 21.55 3.51 36.9 1.76 54.15-6.2 14.38-6.62 25.47-20.18 21.58-26.37-.92-1.46-4.27-2.4-10.66-2.98-36.52-3.3-66.82-26.94-99.57-77.64-4.2-6.5-7.45-11.98-7.23-12.19.22-.2 4.6 2.02 9.73 4.94 20.65 11.76 38.52 17.09 57.22 17.05 35.03-.07 63.45-16.5 67.98-39.31 1.3-6.57-.05-7.24-15.93-7.87-18.57-.74-32.19-4.25-49.42-12.74-15.53-7.66-26.25-15.33-40.88-29.26-11.37-10.83-29.7-31.84-28.68-32.86.35-.35 3.88.83 7.84 2.62 29.76 13.47 70.63 7.6 91.24-13.12 9.6-9.64 15.4-22.9 13.43-30.72-.7-2.76-1.64-3.37-5.16-3.34-2.36.03-5.8.9-7.64 1.96-4.56 2.6-21.7 2.53-30.75-.14-18-5.3-38.92-18.85-59.78-38.72l-12.8-12.19 6.67-.8c28.4-3.43 37.65-7.1 49.07-19.44 10.14-10.95 13.5-19.74 13.5-35.38 0-10.33-.52-13.14-3.74-20.2-4.42-9.68-10.98-16.8-12.78-13.89-.63 1.03-1.56 4.6-2.06 7.93-1.45 9.7-4.55 15.84-10.73 21.28-6.81 6-13.35 8.22-24.08 8.2-13.83-.03-28.8-5.4-44.74-16.05-4.86-3.24-22.03-19.33-40.44-37.9-35.6-35.88-51.8-49.06-75.13-61.09-24.96-12.88-45.16-17.94-65.75-16.48zM554.53 90.98c8.66-.34 13.18.95 17.19 4.33 4.73 3.98 6.42 9.6 8.2 27.16 1.61 15.9 4.29 22.93 11.83 31.11 5.11 5.55 8.93 7.69 32.4 18.18 15.68 7 25.17 18.57 25.17 30.66 0 6.57-3.52 10.91-8.84 10.91-1.94 0-7.35-.7-12.03-1.57-10.33-1.9-25.94-.12-43.06 4.92-6.38 1.88-14.47 3.29-18.67 3.25-7.32-.08-24.07-4.47-24.05-6.31.02-1.7 28.34-9.6 39.94-11.13 10.49-1.39 16.84-1.24 42.43 1.02 8.95.79 9.98.61 13-2.23 4.02-3.77 4.18-7.79.5-12.47-5.76-7.31-16.78-10.87-47.88-15.45-25.56-3.77-31.55-5.41-48.07-13.18-20.7-9.72-38.4-15.12-51.93-15.81-10.07-.52-12.05-.22-17.67 2.68l-6.33 3.25v-5.65c0-27.21 29.39-47.19 77.7-52.8 3.94-.46 7.28-.75 10.17-.87zm-12.63 7.96c-1.9-.27-3.26.69-4.34 3.06-3.69 8.1-.74 17.5 7.99 25.38 4.37 3.95 6.13 4.7 10.2 4.36 3.92-.32 5-1 5.33-3.4.24-1.66-.27-3-1.13-3-3.1 0-10.03-4.07-11.94-7-1.08-1.66-2.27-6.6-2.65-11-.6-6.8-1.12-8.07-3.46-8.4zm19.6 6.4c-4.36 0-6.84 2.17-6.84 6 0 1.53.72 3.51 1.6 4.4 2.6 2.6 10.1 1.97 11.68-.99.76-1.41 1.38-3.17 1.38-3.9 0-2.54-4.22-5.52-7.83-5.52zm86.8 7.28c1.84.1 3.97.38 6.51.83 10.39 1.86 12.51 4.33 12.51 14.52 0 7.5-5.18 15.27-12.13 18.17-7.74 3.24-13.53 2-19.2-4.1-2.83-3.04-3.33-4.87-3.33-12.04 0-7.17.5-9 3.33-12.03 3.82-4.1 6.78-5.62 12.3-5.35zm-17.85.56-2.56 5.02c-5.37 10.53-2.29 24.81 6.64 30.78 11.69 7.8 21.94 6.67 32.19-3.58 9.44-9.45 11.1-17.7 5.98-29.73-.77-1.81-.35-2.34 1.88-2.34 5.95 0 8.97 17.02 4.8 27.01-2.78 6.64-8.23 12.69-14.17 15.72-6.03 3.07-17.99 3.4-25.56.7-11-3.92-20.55-15.17-21.87-25.76-.89-7.1 4.21-16.85 9.1-17.41zm19.97 6.84c-7.54-.04-11.94 11.8-6.43 17.31 3.89 3.9 8.52 3.36 12.55-1.43 3.82-4.54 4.2-6.67 1.92-10.99-2.02-3.83-3.72-4.87-8.04-4.89zm-95.62 59.28c7.08-.39 14.49.86 31.47 3.24 35.21 4.92 47.44 8.19 43.9 11.72-.4.4-15.01.64-32.46.51-33.5-.24-40.86.57-53.72 5.93-9.96 4.15-15.45 4.8-23.33 2.78-11.38-2.93-25.97-10.3-26-13.15 0-.55 4.05-1 9-1.01 5.39 0 14.08-1.37 21.66-3.4 15.66-4.19 22.4-6.22 29.48-6.62zm591.45 658.38c-3.12 46.34-4.66 72.43-10.16 102.22 2.08.98 4.42 2.55 7.33 4.77 17.45 13.32 40.23 19.87 57.95 16.66 15.68-2.85 28.59-12.1 27.7-19.85-.35-2.91-2.33-4.44-12.16-9.37-20.39-10.21-43.01-33.9-56.02-58.65a138.71 138.71 0 0 1-14.64-35.78z" style="display:inline;fill:#272625"/><path id="reuse-2" d="M1002.71 21.82c-12.36.34-23.99 3.08-34.34 8.2-34.03 16.82-48.48 61.04-31.83 97.41 6.07 13.27 13.3 22.43 34.12 43.24 12.2 12.2 22.45 23.71 25.02 28.09 9.98 17.03 12.24 32.85 6.78 47.52-3.99 10.74-18.97 25.5-34.46 33.95-23.21 12.67-27.26 15.3-35.9 23.3-15.42 14.26-19.35 24.92-21.47 58.3-1.85 29.28-5.54 38.17-20.41 49.28-10.26 7.65-12.58 7.6-35.19-.85a502.98 502.98 0 0 0-64.66-18.97c-10.01-2.15-10.32-2.33-11.13-6.63-1.03-5.5-.22-54.8.92-55.94.46-.45 3.64.67 7.07 2.49 3.42 1.82 8.76 3.7 11.85 4.16 7.2 1.07 20.1-2.05 20.66-5.02.23-1.2-2.77-5.27-6.83-9.25-12.4-12.17-14.88-23.32-10.91-49.1 1.07-6.97 1.96-15.19 1.98-18.27l.02-5.6 5 2.16c9.88 4.25 30.65 2 33.68-3.64 1.86-3.49 1.95-3.38-4.67-5.9-7.8-3-14.84-11.26-17.58-20.7-1.68-5.76-1.96-10.68-1.32-22.7 1.01-19.09-1.05-29.95-8.18-43.17l-5.15-9.55 10.78.02c9.1.01 11.94-.56 18.3-3.68 7.48-3.67 14.47-10.86 14.47-14.88 0-1.53-1.34-2.09-5-2.09-2.75 0-13.54-2.82-23.99-6.27l-19-6.28 7-2.72c11.01-4.3 14.96-6.86 20.82-13.52 5.79-6.57 8.15-12.63 8.17-20.92 0-6.2-2.9-7.78-7.08-3.86-1.62 1.53-5.9 4.08-9.52 5.68-5.48 2.42-8.12 2.78-15.98 2.15-10.99-.89-20.87-4.12-47.4-15.53-21.24-9.14-42.87-15.81-63.35-19.55-20.26-3.7-68.59-3.4-85.7.54-13.96 3.2-26.5 8.76-34.14 15.12-5.35 4.45-10.08 12.93-10.13 18.16-.03 2.8-.61 3-8.57 3-12 0-37.9 4.67-51.05 9.2-20.18 6.95-35.51 18.52-42.3 31.9-7.33 14.49-9.08 31.95-4.15 41.5 2.46 4.75 4.71 5.16 7.12 1.3 2.8-4.47 14.56-9.2 22.92-9.22 8.32 0 26.2 4.48 42.13 10.6 18.36 7.03 18.32 7.17-2.91 11.12-10.2 1.9-23.31 3.84-29.12 4.33-5.82.48-11.95 1.5-13.64 2.27-12.5 5.7 5.64 24.14 29.12 29.62 5.01 1.17 9.15 3 10.38 4.6 2.74 3.57 14.6 8.83 27.5 12.2 12.7 3.32 18.61 2.88 40.4-3 21.77-5.86 32.9-5.76 45.1.4 11.86 6 14.43 9.67 14.17 20.28-.23 9.3-2.59 17.06-9.6 31.57-9.84 20.39-35.49 41.07-54.27 43.75-5.32.76-6.6 1.45-6.6 3.54 0 3.07 6.31 7.61 15.08 10.86a93.88 93.88 0 0 1 6.73 2.67c.26.19-4.24 7.13-10 15.43-5.75 8.3-13.46 20.74-17.13 27.65l-6.67 12.57-13.17 3.71a518.67 518.67 0 0 0-53.5 18.14c-13.13 5.3-15.45 5.84-22.19 5.17-22.24-2.23-40.42-16.09-45.92-35.01-1.8-6.22-1.88-9.58-.55-24.57 1.17-13.15 1.17-19.59 0-26.51-4.1-24.4-19.23-40.66-54.67-58.81-13.35-6.84-27.1-19.67-32.07-29.93-4.3-8.87-5.16-24.21-1.92-34.24 3.62-11.22 10.89-23.24 19.87-32.87 21.3-22.83 29.76-36.65 33.58-54.89 3.41-16.25.76-35.73-6.92-50.9-6.69-13.22-23.2-25.36-40.7-29.96-11.47-3.02-32.54-3.02-43.84 0-27.6 7.35-59.37 27.04-100.23 62.12C169.55 138.27 135.6 156 111.82 156c-12.91 0-20.63-3.22-29.83-12.46-6.44-6.47-9.1-10.47-12.55-18.87-2.4-5.87-4.9-11.22-5.54-11.9-1.45-1.53-7.9 1.22-7.9 3.36 0 1.03.76.93 2.33-.3 2.12-1.66 2.16-1.61.52.49-1 1.27-2.32 2-2.94 1.62-1.95-1.2-5.24 7-6.1 15.19-1.73 16.59 7.73 42.28 20.46 55.54 14.45 15.05 27.62 20.79 49.73 21.65l15.33.6L148 198c16.81-17.16 20.47-20.65 21.67-20.66 2.3-.01.55 3.31-6.89 13.03-8.12 10.6-11.97 14.51-23.45 23.76-9.55 7.7-11.46 8.43-5.4 2.07 7.88-8.26 4.4-6.67-5.72 2.6-15.72 14.42-47.97 27.88-66.76 27.86-10.32-.01-16.46-1.93-28.4-8.87-6.05-3.52-11.53-5.81-13.3-5.56-12.08 1.74-4.94 30.28 11.73 46.96 12.61 12.61 34.03 20.82 54.3 20.8 8.06 0 28.95-3.22 35.29-5.43 2.42-.84 4.78-1.15 5.25-.68 1.5 1.5-31.94 33.2-42.21 40.02-22.98 15.27-39.36 21.11-71.7 25.6-5.16.72-6.41 3.73-4.5 10.85 3.23 11.96 15.06 23.7 29.42 29.2 8.66 3.32 36.35 3.28 47.34-.07 10.39-3.16 26-10.92 38.24-19.02 5.37-3.55 10.2-6.66 10.76-6.9 2.97-1.33-20.88 41.17-32.06 57.1-22.12 31.54-50.8 52.73-73.54 54.36-11.12.8-13.22 2.78-10.78 10.19 4.73 14.31 26.29 27.46 45.05 27.46 20.75 0 46.42-10.78 71.83-30.17 6.14-4.69 11.16-8.33 11.16-8.1 0 2.23-19.82 60.08-24.98 72.93-26.79 66.66-53.36 110.4-76.9 126.6-6.74 4.62-7.49 7.3-3.5 12.37 4.36 5.54 15.23 9.42 28.27 10.09 49 2.52 95.27-39.85 124.74-114.2 2.72-6.87 5.19-11.75 5.48-10.86 2.31 6.93-15.78 82.82-28.93 121.34-19.74 57.83-52.4 109.91-78.18 124.64-13.36 7.64-14.44 10.9-6.07 18.46 7.15 6.46 13.98 8.24 31.4 8.18 12.9-.05 16.08-.56 26.31-4.17 28-9.89 47.45-26.68 70.44-60.84 5.83-8.65 10.59-15.25 10.59-14.67-.01 2.2-4.2 42.68-5.27 51.03-1.83 14.13-14.18 45.3-27.54 69.52-13.6 24.64-31.2 45.26-46.16 55.13-4.23 2.8-6.15 3.46-8.94 6.7-2.24 2.62-1.29 4.6 2.19 8.7 6.87 8.12 32.6 9.86 52.1-.63 21.17-11.38 25.4-21.78 43.9-34.78-5.57-28.16-10.31-59.21-10.57-87.91.24-232.37 173.08-428.38 403.59-457.7l2.77-4.2c4.74-7.16 7.8-8.3 6.56-2.46-.5 2.38-1.3 4.7-1.77 5.16-.33.31-1.85.76-3.17 1.18a461.87 461.87 0 0 1 48.93-3.5A2.2 2.2 0 0 1 680 379c.01-4.18 5.95-21.88 7.32-21.81 2.33.1 2.32 7.12-.03 15.77-1.22 4.52-2.19 6.33-3.27 7.3l1.55-.1c12.68.04 25.34.6 37.97 1.68-.18-.1-.3-.12-.5-.24-1.24-.8-.98-3.22 1.14-10.32 3.04-10.2 5.02-13.64 6.48-11.27 1.3 2.1.03 13.2-2.08 18.32-.86 2.1-1.52 3.17-2.27 3.71a461.87 461.87 0 0 1 345.36 206.65c-1.57-3.86-2.72-8.22-3.54-15.36-3.2-28.15-3.95-38.95-2.88-41.74 1.11-2.9 1.13-2.9 1.93.41 3.95 16.22 6.12 29.95 9.45 59.67.33 2.93.33 4.3.31 5.34a461.87 461.87 0 0 1 66.47 185.05l5.91 6.33c22.63 24.23 49.12 37.42 78.75 39.2 20.94 1.26 40.82-3.58 49.93-12.18 7.77-7.33 6.3-10.81-8.16-19.41-9.62-5.72-39.91-35.56-50.16-49.41-20.45-27.64-38.41-61.66-52.07-98.59-16.2-43.78-25.72-85.08-14.61-63.33 12.28 24.03 29.27 46.35 44.86 58.93 36.2 29.24 76.86 38.78 104.5 24.52 6.27-3.23 11-7.65 10.47-9.8-.22-.9-.15-1.2.16-.64 1.03 1.85 3-.47 3-3.55 0-3.92-2.43-5.87-14.68-11.79-27.98-13.52-65.3-55.62-102.8-115.97-8.77-14.14-23.85-42.38-23.85-44.7 0-.34 3.75 2.85 8.33 7.1 23.82 22.07 46.7 32.64 79.45 36.73 11.56 1.45 15.08 1.38 25.52-.47 14.14-2.5 26.76-8.01 34.61-15.11 12.77-11.54 12.3-20.59-1.06-20.59-25.83 0-59.17-20.96-82.96-52.15-9.96-13.06-25.64-37.21-24.74-38.11.38-.38 2.52.6 4.74 2.19 7.72 5.5 28.94 14.66 40.16 17.35 34.14 8.18 73.48-3.84 85.53-26.13 3.29-6.07 4.25-9.9 3.9-15.48-.13-2.03-1.63-2.33-11.37-2.33-26.73 0-55.09-10.2-78.27-28.13-9.91-7.67-27.7-25.2-37.95-37.4-4.7-5.6-8.56-10.53-8.56-10.93 0-.4 3.15.71 7 2.47 24.33 11.1 53.23 11.06 76.6-.12 16.86-8.07 29.76-24.12 30.2-37.6.28-8.23-2.17-9.64-11.14-6.42-24.35 8.76-57.59-5.41-92.96-39.63-11.5-11.13-16.21-14.28-9.46-6.33 6.05 7.13-28.29-28.45-54.62-56.58a4566.37 4566.37 0 0 0-39.87-42.15c-10.93-11.27-14.83-17.18-11.33-17.18 4.48 0 87.1 86.73 101.05 106.09 2.66 3.69 3.24 3.87 11.33 3.49 27.61-1.29 49.46-14.47 57.35-34.59 6.08-15.51 3.1-38-6.57-49.59-4.1-4.9-8.25-5-8.25-.18 0 1.46-.66 5.76-1.48 9.56-1.9 8.82-12.28 20.17-20.52 22.41-13.3 3.63-29.55 1.09-46-7.2-14.04-7.06-24.01-15.5-48.35-40.88-42.8-44.64-70.05-64.6-103.5-75.8-13.3-4.46-26.4-6.5-38.77-6.16zm12.69 36.85c4.85 0 16.75 11.77 20.7 20.48 3.17 6.98 3.36 19.43.38 25.25-3.67 7.16-12.8 17.2-17.38 19.12-7.52 3.14-17.17 1.35-21.62-4.01-2.67-3.21-.78-4.27 4.31-2.43 2.42.87 6.7 1.59 9.52 1.59 4.4 0 5.93-.9 10.89-6.3 8-8.7 10.23-13.91 9.52-22.22-.76-8.95-4.12-15.7-11.22-22.56-5.06-4.89-7.37-8.92-5.1-8.92zM664.54 68c1.98 0 .48 3.83-2.65 6.77-3.25 3.06-4.54 3.27-24.11 3.92l-20.67.7-6.05 6.4c-5.36 5.67-5.96 6.91-5.3 10.97.4 2.51.55 4.57.32 4.57-.68 0-2.94-3.1-4.6-6.3-3.11-6 4.55-16.67 15.15-21.1 4.45-1.86 8.05-2.06 22.67-1.29 16.36.87 17.6.76 20.92-1.86 1.94-1.53 3.89-2.78 4.32-2.78Zm31.42 3.12c.97-.68 1.37.33 1.37 2.92 0 9.87-8.13 19.86-22 27.03-8.83 4.57-10.04 4.83-22.66 4.92-25.75.18-36.6-2.1-38.92-8.16-1.46-3.82 1.54-4.51 7.26-1.68 5.1 2.52 7.34 2.71 25.3 2.17 10.83-.33 21.93-1.3 24.66-2.18 7.9-2.52 15.78-9.44 20.26-17.79 2.24-4.17 3.77-6.55 4.73-7.23zm-100.05 3.7c.38.47-.33 2.7-2.16 6.53-2.39 4.99-2.98 7.85-2.33 11.33 1.27 6.73-.17 5.72-1.96-1.38-1.58-6.3-.86-9.2 3.58-14.3a12.18 12.18 0 0 1 2.12-2.05c.37-.24.62-.28.75-.13zm466.38 2.35c3.27-3.26 38.98 30.74 52.56 50.04 7.73 10.98 8.58 17.02 3.13 22.14-3.8 3.57-14.87 4.8-23.63 2.61-7.94-1.98-25.16-11.19-33.24-17.77-7.72-6.29-16.91-18.48-14.53-19.27.75-.25 6.04 3.67 11.76 8.71 16.84 14.84 35.33 23.61 48.01 22.77 8.04-.53 9.87-3.3 6.42-9.71-3.78-7.02-22.95-29.36-34.9-40.66-13.97-13.22-17.25-17.19-15.58-18.86zm-732.51 1.05c.43.43-3.85 5.36-9.5 10.95-13.19 13.04-20.63 26.33-20.02 35.75.34 5.25 1.01 6.66 3.96 8.32 2.93 1.63 4.7 1.72 10 .47 15.3-3.6 14.68-3.58 11.91-.52-1.35 1.5-4.93 3.6-7.96 4.67-12.19 4.33-17.3 3.6-21.82-3.11-3.7-5.49-3.89-12.43-.58-21.14 3.14-8.26 12-21.3 18.16-26.7 5.46-4.8 14.68-9.85 15.85-8.69zm224.64 3.54c.96-.39 2.11-.34 2.55.1.45.44-.34.76-1.75.7-1.55-.06-1.87-.38-.8-.8zm378.05.78c.12-.3.28-.16.45.49.34 1.3.32 3.1-.04 4-.37.9-.65-.16-.62-2.36.01-1.1.1-1.84.21-2.13zm-648.56.04c.93-.17 1.42.07 1.42.74 0 1.9-6.78 7.93-26.66 23.72-26.41 20.98-35.17 29.02-40.2 36.89-4.95 7.72-4.92 11.42.13 14.03 8.41 4.36 18.78 2.08 42.59-9.37 9.82-4.73 18.46-8.59 19.2-8.59 2.12 0-3.18 5.34-8.94 9-8.63 5.47-24.99 13.25-32.7 15.53-7.7 2.28-17.7 2.67-22.08.88-4.23-1.73-7.39-6.02-8.22-11.16-1.24-7.64 3.51-15.48 16.68-27.48 24.79-22.6 52.29-43.04 58.78-44.2zm233.17 4.51c.97-.39 2.12-.34 2.56.1.44.45-.35.76-1.75.7-1.55-.06-1.87-.37-.8-.8zM547 88.38c2.02-.3 5.32-.3 7.33 0 2.02.3.37.55-3.66.55-4.04 0-5.69-.25-3.67-.55zm12.67.07a5.15 5.15 0 0 1 3.33 0c.92.37.17.67-1.67.67-1.83 0-2.58-.3-1.66-.67zm-1 2.26c15.31.78 19.46 8.72 21.34 30.11 2.33 26.47 10.12 36.51 36.56 47.14 19.9 8 29.87 17.27 32.89 30.62 1.45 6.4-1.5 13.04-6.31 14.25-2.04.51-7.96.21-13.17-.66-11.55-1.94-26.81-.43-43.31 4.29-13 3.71-17.97 4.58-22.67 3.96-4.99-.66-22.67-6.1-22.66-6.99 0-1.02 28.08-9.18 37.18-10.81 9.7-1.74 27.7-1.62 40.77.27 12.65 1.83 17.18 1 20.28-3.74 2.17-3.3 2.15-3.7-.31-8.22-1.43-2.61-3.5-5.03-4.6-5.37-1.44-.45-1.26.26.67 2.58l2.67 3.2-2.95-2.5c-1.62-1.37-2.82-3.16-2.66-3.99.5-2.66-17.02-7.4-40.13-10.85-26.98-4.03-31.85-5.4-52.04-14.59-31.46-14.32-54.85-18.43-67.89-11.91l-5.66 2.83.01-6.83c.05-25.01 28.7-45.3 72.6-51.41 7.93-1.1 14.28-1.64 19.38-1.38zm-163.63.46c.14-.14.33.05.54.58.38.96.34 2.11-.1 2.55-.45.45-.77-.34-.7-1.75.02-.77.12-1.24.26-1.38zm148.44 8.04c-5.08-1.95-8.51 6.67-6.14 15.46a25.25 25.25 0 0 0 11.2 14.8c4.3 2.63 7.13 3.08 10.68 1.72 3.88-1.48 2.18-4.6-3.94-7.21a17.49 17.49 0 0 1-10.4-18.96c.61-3.87.3-5.16-1.4-5.81zm-147.07.26c.12-.3.29-.26.47.2.37.91.37 2.41 0 3.33-.37.92-.67.17-.67-1.67 0-.91.08-1.56.2-1.86zm292.17 2.6c1.33-.12 3.4.7 6.4 2.46 3.13 1.83 8.24 3.74 11.35 4.24 3.48.55 5.67 1.61 5.67 2.73 0 1.01-.75 1.88-1.67 1.94-.91.05-2.56.25-3.66.44-6.01 1.03-20-5-20-8.62 0-2.02.58-3.07 1.91-3.2zM560.7 105.6c-4.22.4-7.12 4.54-4.73 9 1.64 3.06 7.83 3.72 10.43 1.12 2.53-2.53 1.88-7.49-1.2-9.13a7.98 7.98 0 0 0-4.5-.99zm-1.95 2.39c.77 0 1.04.6.58 1.33-.45.74-1.08 1.34-1.4 1.34-.33 0-.6-.6-.6-1.34 0-.73.64-1.33 1.42-1.33zm7 .8c.11-.3.28-.26.47.2.37.92.37 2.42 0 3.33-.37.92-.68.17-.68-1.66 0-.92.08-1.57.2-1.87zm79.27.92c1.65-.31 4.05-.3 5.33.03 1.27.33-.08.6-3.02.58-2.93-.01-3.97-.29-2.31-.6zm2.5 2.74c2.13.04 4.56.32 7.36.82 8.77 1.57 9.5 1.96 11.25 6.15 4.05 9.71.86 19.1-8.7 25.54-8.04 5.42-19.28 3.05-23.41-4.94-2.82-5.44-2.57-15.78.5-20.8 2.93-4.82 6.6-6.89 13-6.77zm-19.4.52c2.5.65 2.52.86.45 4.02-1.2 1.84-2.47 6.71-2.8 10.84-2.09 25.1 28.55 35.35 43.59 14.59 5.9-8.16 7.28-14.62 4.72-22.12-2.56-7.52-2.6-6.98.55-6.98 3.79 0 6.7 6.6 6.7 15.18 0 12.37-5.84 22.9-15.23 27.44-12.58 6.1-31.14 2.14-40.61-8.64-8.1-9.23-10.14-18.19-6-26.38 3.3-6.5 5.7-8.72 8.63-7.95zm-69.79 1.16c.35-.09.93-.05 1.67.14 1.47.38 2.67.93 2.67 1.2 0 1.06-3.88.47-4.6-.69-.2-.33-.09-.55.26-.65zm-161.96 5.03c.14-.14.33.05.54.58.39.96.34 2.11-.1 2.55-.45.45-.76-.34-.7-1.75.03-.77.12-1.24.26-1.38zm254.8.83c-4.3 0-9.84 5.62-9.84 10 0 1.9 1.48 4.93 3.28 6.73 1.8 1.8 4.16 3.27 5.26 3.27 2.98 0 8.6-5.55 9.49-9.4 1.05-4.49-3.66-10.6-8.18-10.6Zm-21.78 2.67c.89 0 1.07 1.83.5 5-1.26 6.92-1.89 7.1-1.89.55 0-3.05.63-5.55 1.4-5.55zm-71.47 4c1.15 0 2.08.6 2.08 1.33 0 .73-.56 1.33-1.25 1.33-.7 0-1.63-.6-2.08-1.33-.46-.73.1-1.33 1.25-1.33zm25.15 2.13c.13-.3.3-.26.48.2.37.92.37 2.42 0 3.33-.37.92-.67.17-.67-1.66 0-.92.07-1.57.2-1.87zm46.26 5.87c.74 0 1.34.56 1.34 1.25 0 .7-.6 1.63-1.34 2.08-.73.45-1.33-.11-1.33-1.25 0-1.15.6-2.08 1.33-2.08zm-171.62 5.83c.14-.14.32.05.53.58.39.97.34 2.12-.1 2.56-.44.44-.76-.35-.7-1.75.03-.78.12-1.25.27-1.39zm210.09.83c.37 0-.74 1.5-2.47 3.34-1.72 1.83-3.43 3.33-3.8 3.33-.36 0 .75-1.5 2.47-3.33 1.72-1.84 3.43-3.34 3.8-3.34zm355.49.09c1.18-.53 3.93 1.07 6.9 4.25 16.31 17.44 21.38 42.73 10.82 54-3 3.2-6.95 3.92-8.42 1.54-.5-.8.94-3.15 3.2-5.21 2.25-2.06 4.5-5.38 5-7.38 1.88-7.48-4.54-25.53-13.62-38.29-2.47-3.48-4.5-6.93-4.5-7.67 0-.66.22-1.07.62-1.24zm-330.96 1.3c1.73-.09 1.1 7.9-.93 11.82-2.27 4.39-10.4 11.81-14.74 13.46-6.08 2.32-16.08 3.49-20.33 2.38-5.29-1.37-5.63-3-.66-3.18 6.91-.25 18.82-4.56 24.57-8.89 3.17-2.38 6.96-6.85 8.43-9.94 1.46-3.08 3.11-5.63 3.66-5.66zM52.37 144.5c.14-.14.33.05.54.58.39.97.34 2.12-.1 2.56-.45.44-.76-.35-.7-1.75.03-.78.12-1.25.26-1.39zm451.38 3.92c.96-.38 2.11-.34 2.55.1.45.45-.34.77-1.75.7-1.55-.06-1.86-.37-.8-.8zm141.33 2.67c.97-.39 2.12-.34 2.56.1.44.45-.35.76-1.75.7-1.55-.06-1.87-.37-.8-.8zm-144 2.67c.97-.39 2.12-.34 2.56.1.44.44-.35.76-1.75.7-1.55-.06-1.87-.38-.8-.8zm-185.63 1.32c1.29.48-.97 3.49-7.16 9.76-11.83 12.02-14.64 20.28-10.38 30.49 1.27 3.04 3.1 4.87 5.46 5.46 2.62.66 3.08 1.2 1.76 2.03-3.17 2.01-7.55 1.26-11.26-1.93-5.43-4.67-6.05-15.45-1.44-25.1 4.81-10.1 12.74-17.94 20.57-20.37 1.2-.38 2.03-.5 2.45-.34zm828.27 6.25c2.53 0 8.87 6.25 23.35 23 4.91 5.69 12.9 14.84 17.76 20.34 13.1 14.82 7.04 12.84-9.16-3-13.14-12.86-34.34-37.07-34.34-39.22 0-.62 1.08-1.12 2.39-1.12zm-56.66 9.34c3.2 0 24.33 24.29 28.88 33.22 6.37 12.47 6.55 22.6.51 28.63-5.04 5.04-14.66 4.86-23.92-.45-7.56-4.34-22.84-20.17-24.03-24.9-1.8-7.19.83-6.08 10.9 4.6 5.76 6.1 13.06 12.62 16.22 14.47 7.1 4.16 14.62 4.64 17.2 1.1 4.51-6.16 1.19-14.34-15.52-38.2-6.58-9.4-11.97-17.4-11.97-17.78 0-.38.78-.7 1.73-.7zm-270.65 4.8c.12-.3.29-.26.47.2.37.91.37 2.41 0 3.33-.37.92-.67.17-.67-1.67 0-.91.08-1.56.2-1.86zm-214 2.29c.97-.39 2.12-.34 2.56.1.45.44-.34.76-1.75.7-1.55-.06-1.87-.38-.8-.8zm-46.48.9c7.72 0 59.39 7.3 66.25 9.35 6.37 1.91 10.36 4.7 9.26 6.49-.54.86-10.8 1.08-29.14.6-32.65-.86-44.03.34-58.65 6.2-10.38 4.15-15.18 4.66-24.16 2.55-7-1.64-21.12-8.49-23.94-11.61-2.23-2.47-1.98-2.55 9.41-3.28 7.51-.48 17.66-2.46 28.3-5.52 9.13-2.63 19.33-4.77 22.67-4.77zm-30.85.43c.97-.39 2.12-.34 2.56.1.44.45-.35.76-1.75.7-1.55-.06-1.87-.37-.8-.8zm269.27.24c2.63 2.73 4.52 11.14 6.34 28.27 2.02 18.88 3.55 24 9.16 30.65 2.68 3.19 5.31 4.59 10.53 5.62 9.35 1.84 18.66 2.21 20.88.84 1.28-.79 1.51-.62.78.55-.57.93-3.04 2.52-5.5 3.54-9.93 4.15-32.82.7-34.36-5.17-.51-1.97-.1-2.41 1.78-1.92 2.08.54 1.88-.26-1.31-5.28-4.5-7.11-6.26-14.43-7.27-30.43a765.8 765.8 0 0 0-1.54-20c-.5-5.15-.32-7.52.51-6.67zm-553.13.74c.95-.32 1.7-.25 2.23.27.42.42-2.79 6.07-7.14 12.55-12.1 18.02-17.64 29.26-17.64 35.73 0 5.02.44 5.76 4.6 7.75 3.77 1.8 5.42 1.92 9 .67 5.38-1.86 15.07-7.48 25.75-14.92 10.24-7.14 12.65-8.1 12.65-5.03 0 5.4-19.32 20.01-34.36 25.98-6.76 2.69-10.25 2.77-15.64.4-9.22-4.07-11.28-11.82-6.71-25.18 5.09-14.9 20.66-35.97 27.26-38.22zm250.45 3.05a5.15 5.15 0 0 1 3.33 0c.92.37.17.67-1.67.67-1.83 0-2.58-.3-1.66-.67zm634.38 17.52c.6.28 1.43 1.03 2.5 2.33 10 12.23 15.91 20.48 17.63 24.59 1.09 2.6 1.78 4.92 1.54 5.16-1.63 1.63-15.06-14.32-20.14-23.94-2.93-5.53-3.32-8.97-1.53-8.14zm-1008.38 7.77c1.28-.33 3.38-.33 4.66 0 1.29.34.24.61-2.33.61-2.57 0-3.62-.27-2.33-.6zm85.98 5c.25.1.35.4.35.88 0 3.8-3.9 8.47-8.8 10.52-8.38 3.5-7.98 1.74 1.48-6.56 4.26-3.73 6.25-5.16 6.97-4.85zm571.63 6.45c1.26 1.27.7 16.73-1.35 32.14-1.13 8.43-2.12 20.77-2.2 27.42-.17 13.06 2.14 20.2 11.01 34.03 2.16 3.36 3.93 6.51 3.93 7 0 4.03-11.67-7.95-15.98-16.4-4.34-8.51-6.08-25.1-4.36-41.57 1.57-15.02 6.22-38.7 8.3-42.26.25-.44.47-.55.65-.36zM301.92 228c2.6 0 2.62-.52-.7 11.02-6.09 21.15-6.79 24.5-6.14 29.36 1.28 9.54 6.22 11.44 14.73 5.66 6.38-4.32 6.2-1.74-.32 4.78-6.54 6.55-11.36 6.88-16.82 1.18-7.18-7.5-5.98-23.01 3.37-43.64 2.3-5.08 4.61-8.36 5.88-8.36Zm369.92 0c3.74 0 4.83 4.84 4.74 21.2-.09 15-.48 17.8-3.73 26.13-2 5.13-5.82 12.48-8.47 16.33-2.65 3.85-5.3 7-5.86 7-.58 0 .72-3.77 2.88-8.39 5.87-12.53 9.2-29.62 9.24-47.27.01-8.25.55-15 1.2-15zm-100.09.42c.96-.38 2.11-.34 2.55.1.45.45-.34.77-1.75.7-1.55-.06-1.86-.37-.8-.8zm435.32 7.05c.13-.3.3-.26.48.2.37.91.37 2.41 0 3.33-.37.92-.67.17-.67-1.67 0-.91.07-1.56.2-1.86zM168.31 240c1.71 0-4.8 7.6-11.5 13.43-15.51 13.5-32.1 23.02-48.2 27.68-11.3 3.27-17.15 4-23.28 2.88l-4.66-.84 5.33-1.02c17.4-3.32 44.52-16.24 65.93-31.41 8.32-5.9 15.69-10.72 16.38-10.72Zm968.35.07c.64-.17 1.86.41 3.67 1.79 1.29.97 2.34 2.15 2.34 2.61 0 1.59 19.7 28.18 24.6 33.22a129.8 129.8 0 0 0 12.15 10.49c3.98 3.01 7.25 6 7.25 6.65 0 1.53.36 1.62-7.44-2.01-10.07-4.69-23.79-18.25-33.4-33.03-7.89-12.1-11.11-19.24-9.17-19.72zm-98.48 2.96c.25-.12.62-.1 1.11.07a12 12 0 0 1 2.62 1.38c4.07 2.67 7.42 13.12 7.42 23.15 0 8.19-3.39 15.98-8.8 20.24-1.96 1.54-4.82 2.76-6.38 2.71-3.82-.11-8.82-2.22-8.82-3.71 0-1.36 4.51-2.82 8.8-2.85 3.74-.03 7.2-4.09 8.54-10.03 1.34-5.96-.6-20.68-3.44-26.2-1.46-2.81-1.8-4.4-1.05-4.76zm44.04 2.99c.42.22 1.01.82 1.8 1.75 6.94 8.34 6.9 28.52-.07 32.26-2.83 1.51-7.95 1.74-7.95.35 0-.52 1.58-2.2 3.5-3.74 4.54-3.62 5.85-11.05 3.63-20.64-1.8-7.79-2.16-10.63-.91-9.98zm-337.35 1.17c1.65.61 2.82 10.01 2.5 21.48-.82 28.33-12.5 62.37-25.54 74.47-6.8 6.31-16.4 3.7-18.6-5.08-1.65-6.58 6.59-27.36 9.64-24.3.74.74-1.01 13.9-3 22.56-.64 2.77-.27 3.87 1.55 4.56 3.73 1.43 12.88-9.67 17.89-21.7 5.54-13.3 10.32-34.58 12.25-54.51.86-8.8 2.01-16.54 2.58-17.19.25-.29.5-.38.73-.3zm-690.45 1.23c.96-.38 2.11-.34 2.55.1.45.45-.34.77-1.75.7-1.55-.06-1.87-.37-.8-.8zm13.33 0c.96-.38 2.11-.34 2.55.1.45.45-.34.77-1.75.7-1.55-.06-1.86-.37-.8-.8zm136.07.3c.28.27-1.4 2.89-3.71 5.81-5.67 7.16-18.73 16.85-30.07 22.32-5.12 2.47-11.39 4.48-13.94 4.48-5.73 0-4.74-1.02 6.97-7.18 8.16-4.3 15.69-9.1 34.26-21.83 3.3-2.26 6.22-3.88 6.5-3.6zm50.5.78c.75-.16 1.53.2 2.77.99 1.39.88 1.03 2.2-1.66 6.17-2.03 2.98-3.43 6.9-3.43 9.6 0 5.8 4.56 15.9 8.02 17.75 1.45.78 2.65 2 2.65 2.7 0 .71-1.4 1.29-3.09 1.29-3.57 0-9.45-5.66-11.5-11.09-2.81-7.46-1.03-19.84 3.65-25.24 1.13-1.32 1.85-2 2.6-2.17zm923.01 1.33c.9.23 2.26 1.32 4.1 3.3 5.15 5.5 20.98 16.94 32.57 23.53 15.25 8.69 34.55 15.56 45.25 16.11 8.72.45 11.4 1.35 9.55 3.2-.54.55-5.29 1.15-10.56 1.34-16.7.61-42.22-8.82-59.57-22.02-10.4-7.9-22.67-20.65-22.67-23.54 0-1.5.44-2.15 1.33-1.92zm-466.48 10.5c.63 0 1.14 3.45 1.13 7.67-.05 21.5-12.07 46.9-25.39 53.7-6.41 3.28-8.15 3.29-12.11.09-4.79-3.88-4.29-12.92 1.38-25.08 7.19-15.39 13.21-19 8.13-4.86-7.68 21.36-7.97 24.48-2.28 24.48 8.25 0 21.34-23.75 26.27-47.66.94-4.59 2.24-8.34 2.87-8.34zm89.56.8c.12-.3.29-.25.47.2.37.92.37 2.42 0 3.34-.37.91-.67.16-.67-1.67 0-.92.08-1.56.2-1.87zM211.89 282.9c1.16-.4.82.88-1.47 4.02-20.66 28.34-27.94 40.2-31.8 51.76-6.5 19.53 1.85 29.28 18.12 21.15 3.14-1.57 12.05-8.18 19.8-14.69 13.5-11.33 14-11.62 11.84-6.82a41.63 41.63 0 0 1-5.66 8.83c-5.07 5.7-17.88 15.28-24.35 18.21-8.27 3.75-19.71 3.58-23.34-.35-3.98-4.3-6.2-12.98-5.14-20.06 1.98-13.22 18.84-40.55 34.5-55.94 3.7-3.62 6.34-5.71 7.5-6.11zm58.15 6.44c1.7 0 1.99 2.02 1.73 12.34-.24 9.54.21 13.3 1.98 16.64 4.95 9.31 18.39 11.13 32.58 4.41 5.56-2.63 8.34-3.38 8.34-2.25 0 2-6.04 7.87-10.4 10.12-4.05 2.08-19.92 3.01-24.78 1.45-4.7-1.51-9.73-6.07-12.44-11.28-1.9-3.63-1.83-16.04.12-26.76l.66-3.67c.1-.55 1.09-1 2.2-1zm796.13 4.92c5.82 2.23-2.88 23.44-12.6 30.75-6.04 4.53-12.24 5.76-12.24 2.42 0-1.05 1.18-2.28 2.62-2.74 4.61-1.46 13.11-12.6 16.8-22 2.5-6.34 4.15-8.92 5.42-8.43zm64.02 3.04c3.87-.22 19.74 22.67 26.38 39.25 6.69 16.73 5.86 31.49-2.2 39.56-7.4 7.38-19.5 4.37-37.7-9.4-5.14-3.9-10.75-8.64-12.49-10.55a520.66 520.66 0 0 0-7.82-8.36c-2.64-2.76-4.26-5.55-3.72-6.4 1.32-2.15 6.22 1.22 16.2 11.15 8.77 8.71 26.4 20.01 33.49 21.46 3.63.73 4.95.26 8.14-2.93 9.67-9.67 5.05-30.22-13.1-58.23-4.42-6.83-8.04-13.11-8.04-13.96 0-1.06.31-1.56.86-1.6zm-124.1 1.55c1.45-.72 4.71 1.97 7.74 6.88 6.5 10.5 6.96 23.04 1.12 30.26-4.51 5.58-18.87 4.36-20.04-1.7-.4-2.06.37-2.23 6.65-1.5 6.13.72 7.45.46 9.62-1.94 3.87-4.28 3.24-11.94-1.66-20.52-2.3-4.02-4.19-8.33-4.19-9.58 0-1.04.28-1.66.76-1.9zM340.88 300c2.63 0 2.2 3.42-1.63 12.99-4.23 10.57-3.94 14.19 1.17 14.77 4.86.56 10.59-5.37 17.26-17.9l4.91-9.2.04 6.08c.05 7.7-5.32 18.8-11.31 23.36-12.13 9.26-24.35 2.38-20.63-11.6 2.08-7.8 7.97-18.5 10.19-18.5Zm321.37 6.86c1.48.44-1.45 5.17-9.4 14-6.75 7.5-16.72 14.48-23.72 16.61-2.46.75-9.14 1.8-14.85 2.33-9.88.93-10.37.85-10-1.68.31-2.15 2.02-2.92 9.05-4.1 11.68-1.94 21.63-6.78 31.8-15.46 9.73-8.3 15.63-12.14 17.12-11.7zm93.72 5.79c2.04 1.26 1.69 5.1-2.06 22.68-3.8 17.84-7.6 45.67-6.48 47.49 1.14 1.85-.48 1.38-1.68-.49-2-3.07-.66-34.77 2.02-47.82 2.93-14.32 6.22-23.08 8.2-21.86zM156.51 322.7c.75-.28 1.24-.28 1.45.04.27.42.04 1.38-.77 2.93-3.13 6-23.52 24.55-36.52 33.25-7.34 4.9-17.94 10.75-23.56 13-10.3 4.11-17.11 5.2-17.11 2.75 0-.74.82-1.34 1.83-1.34 2.93 0 25.76-12.96 39.01-22.14a238.98 238.98 0 0 0 22.85-18.48c6.04-5.68 10.58-9.16 12.82-10zm1031.51 1.3c.6 0 4.93 4.65 9.64 10.33 13.71 16.55 35.15 37.18 46.13 44.38a132.84 132.84 0 0 0 20.84 10.77c5.89 2.27 10.88 4.28 11.09 4.48.21.2-.69.63-2 .95-7.48 1.82-28.4-6.72-43.03-17.56-20.81-15.43-51.14-53.35-42.67-53.35Zm-604.35.45a5.15 5.15 0 0 1 3.33 0c.92.37.17.67-1.67.67-1.83 0-2.58-.3-1.66-.67zm-210.88 1.42c.76-.3 1.42-.2 1.94.32.88.89-.7 5.6-4.7 14.06-4.01 8.46-6.03 14.5-6.03 18.03 0 9.33 7.7 12.81 14.12 6.39 3.1-3.1 5.88-4.33 5.88-2.6 0 1.71-3.93 8.12-6.29 10.25-4.44 4.02-10.13 4.34-14.23.8-7.23-6.23-7.01-19.04.6-35.2 3.22-6.81 6.43-11.17 8.7-12.05zm607.73 2.61c2.24.69 4.85 4.8 6.2 10.4 3.23 13.46-.64 28.41-8.61 33.27-2.67 1.63-6.45 2.47-10.78 2.4-3.66-.05-5.88-.4-4.93-.79 1.3-.52 1.14-1.16-.66-2.52-2.16-1.63-1.8-1.83 3.4-1.87 4.75-.03 6.59-.83 10.19-4.43 7.48-7.48 9.2-18.35 4.48-28.37-2.1-4.46-2.45-6.46-1.36-7.55.6-.61 1.32-.76 2.07-.54zm-549.45 6.99c.13-.3.3-.26.48.2.37.91.37 2.41 0 3.33-.37.92-.67.17-.67-1.67 0-.91.07-1.56.2-1.86zm736.6 4.57c1.95.09 5.23 3.43 14.33 14.63 18.65 22.94 22.44 27.46 28.16 33.57 3.21 3.43 5.84 6.77 5.84 7.42 0 .65 2.4 2.53 5.33 4.18 2.94 1.65 5.34 3.26 5.34 3.58 0 .8.15.88-8-3.47-9.51-5.06-33.46-29.89-44.1-45.7-7.6-11.31-9.06-14.3-6.9-14.2zm-533.5 2.63c1.76 0-1.3 7.59-5.81 14.38-6.02 9.05-25.83 29.23-30.43 30.98-4.44 1.68-10.32 1.69-9.28 0 .44-.72 6.46-5.86 13.37-11.41A148.42 148.42 0 0 0 624 354.59c5.17-6.56 9.75-11.92 10.18-11.92zm279.64 2.53c.12-.3.28-.16.45.5.34 1.29.31 3.09-.05 4-.37.9-.64-.17-.62-2.37.02-1.1.1-1.83.22-2.13zm-594.33.13c.33 0 .2 3.85-.28 8.56-.82 8-.65 8.78 2.57 12 3.65 3.65 8.6 4.41 13.1 2 1.48-.79 2.99-1.14 3.35-.78 1.49 1.49-2.44 6.04-6.39 7.42-6.44 2.24-8.67 1.82-13.67-2.57-3.17-2.78-4.88-5.65-5.47-9.18-1.45-8.57 2-17.45 6.79-17.45zM665 346.92c3.48-1 1.46 6.55-5.33 19.9-7.3 14.33-11.52 18.78-9.84 10.36 1.2-6 13.06-29.66 15.17-30.26zm-501.38 6.92c2.41 2.41-19.36 23.8-25.9 25.45-2.03.5-4.14 1.62-4.69 2.48-.56.88-1 .97-1.01.2-.01-.76.85-2.63 1.93-4.16 2.63-3.75 28.77-24.87 29.67-23.97zm870.85 2.24c.83-.13 2.17 1.27 3.73 4.25 1.44 2.74 2.31 7.6 2.37 13.21.09 8-.3 9.38-4.03 14a46.04 46.04 0 0 1-10 8.69c-6.36 3.85-14.96 5.61-19.18 3.91-2.16-.87-1.33-1.49 4.67-3.45 13.66-4.47 19.26-8.02 21.9-13.87 2.42-5.37 2.42-6.11-.09-21.82-.5-3.14-.2-4.8.63-4.92zm-796.59 2.12c.5-.07.9.05 1.2.34 1.04 1.05.64 2.47-1.46 5.12-1.6 2.02-6.92 9.67-11.82 17-27.34 40.97-48.73 69.64-64.64 86.65-14.1 15.08-13.01 9.4 1.97-10.23 8.53-11.17 35.48-49.25 53.69-75.84 9.43-13.77 17.6-22.62 21.06-23.04zm193.26.34c.12-.3.28-.16.45.49.34 1.3.32 3.1-.05 4-.36.9-.64-.16-.61-2.36 0-1.1.1-1.84.21-2.13zm-408.72 1.88c.96-.38 2.11-.34 2.55.1.45.45-.34.77-1.75.7-1.55-.06-1.87-.37-.8-.8zm246.5 3.85c.25-.04.39.1.4.44 0 .76-2.18 6.76-4.87 13.34-2.69 6.57-5.16 14.77-5.5 18.22-.55 5.65-.2 6.69 3.6 10.48 3.7 3.7 4.77 4.1 9.1 3.28 7.25-1.36 13.24-4.81 24.07-13.89 9.97-8.35 12.28-9.53 12.28-6.27 0 2.86-19.25 20.2-26.14 23.53-13.65 6.61-23.56 4.04-27.87-7.23-2.88-7.56-1.99-14.7 3.2-25.6 3.2-6.68 10.05-15.97 11.74-16.3zm795.34.95c.28-.84 3.19 1.1 6.46 4.33 15.21 14.97 19.42 39.72 8.1 47.62-7.87 5.5-16.2 4.05-23.56-4.1-5.26-5.81-5.01-9.19.42-5.63 9.47 6.2 12.47 7.48 15.7 6.67 12.13-3.05 11.3-18.28-2.09-38.83-3.05-4.69-5.31-9.21-5.03-10.06zm-151.77.17c.1-.42.26-.37.43.28.34 1.28.34 3.38 0 4.66-.34 1.29-.61.24-.61-2.33 0-1.28.07-2.19.18-2.61zm-482.58 6.9c.1-.65.24-.46.39.73.3 2.4.29 6-.01 8s-.55.05-.54-4.35c0-2.2.06-3.71.16-4.37zm895.76 4.12c1.28-.33 3.38-.33 4.66 0 1.29.34.24.61-2.33.61-2.57 0-3.62-.27-2.33-.6zm15.41.01c.97-.38 2.12-.34 2.56.1.44.45-.35.77-1.75.7-1.55-.06-1.87-.37-.8-.8zm4.63.08c.14-.14.32.05.53.58.39.97.34 2.12-.1 2.56-.44.44-.76-.35-.7-1.75.03-.78.12-1.25.27-1.39zm-962.4 10.37c.53-.33 1.01-.32 1.42.08.36.36-.02 3.84-.86 7.72-2.46 11.49.2 22.68 7.18 30.33 3.13 3.41 8.06 3.8 12.95 1 1.83-1.05 3.78-1.93 4.33-1.95 2.1-.1.88 3.7-2.27 7.09-6.38 6.88-18.07 3.86-23.96-6.19-5.43-9.26-6.7-17.96-4.02-27.51 1.56-5.57 3.62-9.6 5.22-10.57zm581.95 1.18c.93.13 2.44 1.58 4.09 4.28 3.16 5.2 3.57 16.72.77 22.07-2.68 5.13-8.65 10.45-14.41 12.86-5.03 2.1-13.23 2.78-14.78 1.22-1.52-1.51.47-3.15 3.83-3.15 5.78 0 15.28-5.44 18.81-10.79 2.83-4.28 3.25-6.15 2.7-12.13a87.73 87.73 0 0 0-1.62-10.74c-.67-2.57-.32-3.75.61-3.62zm-802.17 8.51c.3.04.5.23.62.58 1.16 3.46-16.13 30.68-32.17 50.67-12.16 15.14-30.36 31.81-40.85 37.4-10.84 5.78-14.4 5.29-5.34-.74 8.88-5.9 29.9-26.8 40.72-40.5a597.01 597.01 0 0 0 19.12-26.38c9.4-13.75 15.81-21.25 17.9-21.03zm-104.76 3.9a5.14 5.14 0 0 1 3.34 0c.91.36.16.66-1.67.66-1.83 0-2.58-.3-1.67-.67zm277.94 1.07c.58-.47 1.12-.34 1.76.26 1.12 1.04 1.27 2.54.48 4.63-1.7 4.47-1.44 14.11.42 15.98 2.43 2.43 6.97 1.92 10.96-1.22 1.97-1.55 3.9-2.5 4.3-2.1 1.6 1.6-1.35 6.6-5.3 9-13.92 8.49-22.98-5.88-14.69-23.27.84-1.77 1.48-2.82 2.07-3.28zm798.88 8.26c1.06-.04 4.03 3.83 11.01 13.9 11.7 16.9 22.2 29.94 37.09 46.08 6.64 7.2 12.56 13.96 13.15 15 1.53 2.72-1.76 2.34-5.3-.6-1.58-1.34-8.38-8.34-15.09-15.56-20.04-21.58-41.34-51.24-41.34-57.55 0-.8.13-1.25.48-1.27zm51.2 2.42a4.3 4.3 0 0 1 2.17.72c1.03.59 7.48 8.57 14.33 17.74 7.2 9.63 20.62 24.9 31.81 36.17 18.94 19.06 19.72 19.67 34.69 26.97 14.61 7.12 15.07 7.47 9.91 7.5-12.2.06-38.09-16.81-56.49-36.81-9.56-10.4-31.49-38.66-35.78-46.13-2.13-3.7-2.25-6.08-.64-6.16zm-937.47 2.67c1.16-.4 1.79.2 1.79 1.8 0 2.56-35.61 55.65-42.82 63.85-5.11 5.8-7.85 7.55-7.85 5 0-2.63 37.67-59.75 43.88-66.53 2.14-2.34 3.84-3.72 5-4.12zm1052.2 1.54c.97-.38 2.12-.34 2.56.1.44.45-.35.77-1.75.7-1.55-.06-1.87-.37-.8-.8zm-5.33 1.34c.96-.39 2.11-.34 2.55.1.45.44-.34.76-1.75.7-1.55-.06-1.86-.38-.8-.8zm-199.42 2.54c1.6.49 39.4 55.28 39.58 57.37.2 2.22-2.86.74-7.94-3.85-2.95-2.67-8.74-10.58-12.86-17.6a702.94 702.94 0 0 0-13.97-22.65c-6.41-9.82-8.02-14.27-4.8-13.27zm-618 4.15a5.14 5.14 0 0 1 3.34 0c.91.37.16.67-1.67.67-1.83 0-2.58-.3-1.67-.67zm537.13 10.81c.29.05.68.39 1.19.89 4.58 4.44 6.24 22.89 2.8 31.12-1.04 2.48-3.3 5.27-5 6.19-7.24 3.9-17.9 3.63-26.16-.65-5.3-2.74-8.37-6.53-7.03-8.7.92-1.48 1.93-1.26 5.33 1.17 5.65 4.02 18 5.2 23.72 2.24 5.26-2.72 6.26-7.06 5.05-22.02-.64-8.02-.75-10.4.1-10.24zm-732.56 7.4c2.08 0 1.08 3.92-6.39 24.93C266.07 497 264 504.72 264 514.26c0 6.94.44 8.55 2.65 9.73 3.6 1.93 8.32-.67 16.16-8.88 7.26-7.6 13.72-16.95 17.27-24.98 1.4-3.18 3.46-6.53 4.57-7.45 7.5-6.22-7.59 25.9-17.38 37.02-3.41 3.87-7.91 7.92-10 9-5.94 3.07-12.3 2.51-15.98-1.4-4.24-4.53-5.08-16.64-1.97-28.63 3.85-14.88 21.17-56 23.58-56zm52.08 2.07c.59-.12 1.2.2 1.87.88 1.43 1.43 1.27 3.26-.94 10.34a102.03 102.03 0 0 0-3.47 16.2c-1.38 13.18 1.52 18.52 10.06 18.52 5.93 0 13.76-4.66 27.01-16.07 5.08-4.36 10.46-7.93 11.98-7.93 2.24 0 1.26 1.62-5.3 8.78-9.71 10.6-17.59 16.74-25.22 19.69-12.33 4.75-20.96.98-24.17-10.58-2.09-7.5-1.86-10.4 1.9-24.47 2.88-10.72 4.5-15.01 6.28-15.36zm726 9.55c.52-1.12 2.23.18 4.82 4.59 6.88 11.75 14.4 29.42 16.23 38.15 1.7 8.14 1.66 9.41-.41 13.64-4.6 9.41-14.4 4.96-23.9-10.87-6.85-11.42-8.67-16.56-6.5-18.37 1.47-1.2 2.9.45 7.26 8.4 6.33 11.53 13.37 19.51 17.2 19.51 6.01 0 5.16-3.12-12.37-45.15-2.19-5.25-2.86-8.78-2.34-9.9zm54.87 23.8c1.5 1.14 3.46 7.31 8.63 25.25 3.38 11.74 8.25 28.54 10.83 37.34 2.57 8.8 4.68 16.15 4.68 16.33 0 .18-.58.33-1.3.33-5.43 0-28.43-74.8-24.27-78.95.5-.5.93-.67 1.43-.3zM227.51 484c1.26 0 1.64.98 1.17 3-.38 1.65-1.9 9-3.36 16.33-2.88 14.42-10.74 41.54-14.74 50.88-1.37 3.18-3.17 5.79-4.02 5.79-2.4 0-.42-9.95 7.54-37.66 9.88-34.43 11.25-38.34 13.41-38.34Zm792.88 12.95c.15-.3.34-.18.54.38.4 1.1 2.76 6.7 5.25 12.44 2.48 5.74 5.05 12.79 5.7 15.66.64 2.88.98 5.24.74 5.24-3.25 0-12.74-24.06-12.51-31.74a5.7 5.7 0 0 1 .28-1.98zm242.03 26.14c.96-.39 2.11-.34 2.55.1.45.45-.34.76-1.75.7-1.55-.06-1.87-.37-.8-.8zM170.97 524c4.52 0-14.48 56.74-29.92 89.33-8.6 18.15-17.58 32.5-25.99 41.49-6.68 7.14-12.1 9.3-7.13 2.85 7.42-9.65 16.16-23.25 20.59-32.04 8.04-15.96 18.78-41.43 23.47-55.63 9.05-27.4 16.72-46 18.98-46zm982.2 13.96c.53.36 1.34 1.28 2.47 2.87 1.63 2.28 6.3 10.89 10.4 19.13 4.1 8.24 7.25 16.27 7 17.84-.36 2.44-1 1.97-4.3-3.13-9.07-14.04-19.26-39.2-15.57-36.7zm-866.3 4.85c.74-.18 1.36.95 1.92 3.21 1.52 6.05-14 75.06-20.55 91.31-5.9 14.67-10.74 24.92-10.83 22.92-.04-.96 2.64-11.76 5.95-24 3.32-12.24 8.71-35.21 11.99-51.05 6.1-29.48 9.33-41.85 11.53-42.4zm897.12 1.45c1.6.15 3.7 3.29 8.75 12.08 13.83 24.16 37.3 55.5 50.75 67.75 2.85 2.6 6 5.74 7 6.98 2.96 3.65 1.06 2.69-9.3-4.74-11.19-8.03-25.02-23.52-38.48-43.1-11.8-17.2-22-36.47-20.24-38.23.51-.52.99-.8 1.52-.74zm-944.56 30.68c.17.36.23 1.59.36 3.06 1.77 20.64-17.9 104.27-34.86 148.17-12.44 32.22-33.58 67.29-48.42 80.36-9.15 8.05-9.88 6.66-1.52-2.86 20.73-23.64 40.66-62.85 53.68-105.67 5.34-17.55 15.57-57.84 21.83-86 6.98-31.38 8.43-38.13 8.93-37.06zm869.37 5.5c1.56-.56 5.2 10.06 9.9 28.9 6.77 27.03 30.83 92.79 42.53 116.2 13.44 26.9 28.97 47.54 47.15 62.67 9.46 7.88 6.94 8.47-4.25 1-13.19-8.8-31.25-30.07-44.12-51.92-13.3-22.6-33.96-77.88-46.57-124.62-5.64-20.9-7.14-31.35-4.64-32.24zM74.42 704.41c.96-.38 2.11-.34 2.55.1.45.45-.34.77-1.75.7-1.55-.06-1.87-.37-.8-.8zM224.4 788.8c.12-.3.29-.26.47.2.37.92.37 2.42 0 3.33-.37.92-.67.17-.67-1.66 0-.92.08-1.57.2-1.87zm-1.34 14.67c.13-.3.3-.26.48.2.37.91.37 2.41 0 3.33-.37.92-.67.17-.67-1.67 0-.91.07-1.56.2-1.86zm-1.33 13.33c.12-.3.3-.26.48.2.37.92.37 2.42 0 3.33-.37.92-.68.17-.68-1.66 0-.92.08-1.57.2-1.87zm1026.01 7.62c.96-.38 2.11-.34 2.55.1.45.45-.34.77-1.75.7-1.55-.06-1.86-.37-.8-.8zm-15.4 1.32c1.3-.34 3.1-.31 4 .05.91.37-.15.64-2.35.62-2.2-.03-2.94-.33-1.64-.67zm-96.23 111.82h.43l.44 1.83 6.15 4.9c7.99 6.36 22.4 13.3 32.86 15.8 11.03 2.65 25.86 2.01 35.33-1.52 10.26-3.82 18.37-11.52 17.76-16.84-.37-3.24-1.99-4.5-12.22-9.54-9.6-4.72-14.35-8.27-25.52-19.02-15.05-14.5-24-26.51-32.7-43.84-6.34-12.64-10.04-21.69-12.4-31.53.99 33.65-4.14 67.08-10.13 99.76zM101.08 851.09c.97-.39 2.12-.34 2.56.1.44.45-.35.76-1.75.7-1.55-.06-1.87-.37-.8-.8z" style="display:inline;fill:#161515"/></defs><g style="display:inline" transform="translate(-6.86 -21.56)"><ellipse cx="651.78" cy="137.26" rx="44.86" ry="38.66" style="display:inline;opacity:1;fill:#fff;fill-opacity:1"/><path d="M554.62 80.62c-38.96.1-71.88 17.92-84.5 39.45-7.63 13.02-12.4 22.12-8.2 32.63 5.18 12.94 12.06-1.53 27.7-1.53 9.4 0 52 13.93 58.9 18.97 2.2 1.62-4.97 4.33-18.48 6.87-8.38 1.58-18.68 3.92-26.3 4.8-24.7 2.85-18.88 13-18.02 13.67 7.73 6.04 16.69 10.95 27.95 15.94 4.8 2.13 30.26 15.63 52.67 15.63 3.5 0 14.63-.44 24.78-1.94 24.16-3.56 41.07-5.2 59.89-8.77 70.9-55.28 97.1-72.3 97.1-74.92 0-2.83-28.98-63.64-43.12-67.88-49.87-12.8-104.32 6.63-150.37 7.08zm76 32.71-1.66 4.5c-3.22 5.27-3.32 17.31-.42 22.91 4.3 8.32 15.13 13.98 23.63 12.28 4.8-.96 18.1-9.24 22.36-20.89 1.3-4.38.46-6.7-.82-10.98-2.25-7.51-1.76-8.3.56-8.74 2.74-.52 8.47 9.24 8.46 16.63-.02 6.5-5.56 18.78-10.22 23.06a36.46 36.46 0 0 1-8.41 5.5c-6.06 2.53-16.32 2.17-24.62-.38-12.25-3.77-24.4-21.85-21.93-31.96 1.47-6 6.91-12.4 10.19-12.42z" style="display:inline;fill:#e6b533"/><path d="m559.75 173-26.63 5.25s-27.75 5.25-47.37 10.5l2.63 4.63 9.25 8.62 10.37 5c.75.38 14.63 3.88 14.63 3.88h16.12l17.88-5.38 32.25-5.5 19.87.38 19.88.75s7.5-2 7.75-3 0-7.13 0-7.13-6.63-6.63-7.63-6.88S606.5 178 606.5 178z" style="display:inline;fill:#be2626"/><use xlink:href="#reuse-0" style="display:inline;fill:#272625;fill-opacity:1;stroke-width:1.16622"/><use xlink:href="#reuse-1" style="display:inline;fill:#272625"/><g style="display:inline"><use xlink:href="#reuse-0" style="display:inline;fill:#272625;fill-opacity:1;stroke-width:1.16622"/><use xlink:href="#reuse-1" style="display:inline;fill:#272625"/></g><use xlink:href="#reuse-2" style="display:inline;fill:#161515"/><circle cx="685.58" cy="842.03" r="461.87" style="display:inline;opacity:1;fill:#161515;fill-opacity:1;stroke-width:1.09171"/><g style="display:inline"><use xlink:href="#reuse-2" style="display:inline;fill:#161515"/><circle cx="685.58" cy="842.03" r="461.87" style="display:inline;opacity:1;fill:#161515;fill-opacity:1;stroke-width:1.09171"/></g><circle cx="685.58" cy="842.03" r="314.88" style="display:inline;opacity:1;fill:#59329a;fill-opacity:1;stroke-width:.99878"/><path d="M801.73 603.36h-18.57c-2.04 2.2-4.25 4.27-5.91 6.8-7.66 11.04-14.03 22.89-20.76 34.5l-3.53 6.17c-7.31-12.47-14.63-24.95-21.75-37.53-1.75-2.83-3.51-5.7-5.85-8.08-1.13-.93-2.7-.93-4.08-1.16-3.78-.42-7.57-.47-11.32-.57-14.64-.22-29.27-.1-43.91-.13h-10.7c-1.83 1.92-4.14 3.63-4.94 6.29-1.18 3.72-.07 7.7 1.41 11.16 1.68 3.82 4.02 7.3 6.06 10.92 8.42 14.4 16.56 28.96 24.8 43.47l7.62 13.49h-50.94c-9.83-17.21-19.58-34.47-29.48-51.64a1002.45 1002.45 0 0 0-16.02-26.94c-1.07-1.6-1.97-3.34-3.3-4.73-1.52-1.64-3.93-1.6-5.99-1.8-6.53-.33-13.08-.2-19.62-.21-4.82.05-9.67-.04-14.46.53-1.59.2-3.33.64-4.25 2.08-3.07 4.1-5.68 8.52-8.25 12.94-2.56 4.58-5.28 9.12-7.05 14.08a15.48 15.48 0 0 0-.46 9.72c.9 3.25 2.56 6.36 4.13 9.23 3.15 5.57 6.56 11 9.52 16.68 2.38 4.3 5.1 8.39 7.66 12.57.85 1.54 1.92 3.03 2.21 4.8-.37.62-.62 1.38-1.38 1.6-1.77.58-3.68.52-5.52.67-12.5.63-25.01.28-37.52.54-.75.03-1.78.05-2.52.1-2.52.17-5.16.13-7.52 1.13-1.88.9-2.9 2.82-4.1 4.4-6.54 9.43-11.76 19.65-17.52 29.55-1.9 3.44-4.1 6.7-5.78 10.27a59.38 59.38 0 0 1-4.72 7.63c-2.06 3.73-1.83 8.51.2 12.2 1.01 1.7 2.48 3.08 3.72 4.62l83.93 1.37c-6.22 10.98-12.4 21.99-18.82 32.85-2.35 4.05-4.46 8.24-6.6 12.4-32.38.46-64.78.9-97.17 1.35-1.97 2.28-4 4.53-5.62 7.09a154.2 154.2 0 0 0-5.17 8.27c-.52.93-1.2 2.07-1.72 3.12-1.71 3.44-3.55 6.82-5.18 10.3a44.1 44.1 0 0 0-2.17 6.54c2.56 5.63 5.2 11.3 7.97 16.76 2.56 4.93 5.1 9.92 8.43 14.38.89 1.15 1.9 2.4 3.42 2.66 3.98.97 8.1 1.11 12.18 1.4 10.43.59 21 .83 31.48 1.23l10.93.37a2333.03 2333.03 0 0 1-18.43 31.74c-2.46 4.36-5.06 8.75-6.29 13.65-.83 3.28-.27 6.76 1.03 9.84a66.2 66.2 0 0 0 3.7 7.47c7.82 12.99 15.14 26.28 23.08 39.2 1.5 2.54 3.02 5.3 5.6 6.9 2.36 1.34 5.2 1.15 7.8.97a7.12 7.12 0 0 0 5.1-2.81c2.64-3.14 4.71-6.71 7.03-10.09 1.8-2.65 3.2-5.55 4.82-8.31 1.27-2.32 2.68-4.58 3.77-6.99 4.43-8.38 9.44-16.43 14.11-24.67 3.3-5.8 6.27-11.8 9.58-17.61.42-.38.56-1.37 1.18-1.28.75.18 1.64.07 2.15.77 1.62 2.04 2.85 4.37 4.24 6.58 4.93 8.3 9.83 16.62 14.35 25.16 1.67 3.31 3.5 6.62 4.46 10.23.4 1.4.1 2.96-.84 4.1-9.17 15.76-18.17 31.62-27.22 47.46-4.64 8.2-9.38 16.34-13.54 24.79-1.2 2.64-2.59 5.31-2.91 8.24-.1 3.4 1.43 6.56 2.8 9.59a191.2 191.2 0 0 0 10.92 19.26c1.4 2.08 2.74 4.26 4.5 6.07 1.78 1.02 3.92 1.05 5.92 1.27 6.48.44 12.98.37 19.47.32 2.44-.04 4.98-.1 7.31-.23 2.9-.17 5.84-.24 8.7-.81 2.23-2.58 4-5.53 5.86-8.37 5.85-9.1 10.96-18.65 16.58-27.88 1.32-1.98 2.46-4.2 4.38-5.67a3.08 3.08 0 0 1 4.12.41 40.55 40.55 0 0 1 4.7 7.22c3.07 6.06 6.7 11.8 9.9 17.8 2.1 3.76 3.98 7.67 6.17 11.39 1.19 2.01 2.9 3.83 5.17 4.56 2.67.93 5.51 1.13 8.3 1.33l1.84.1c6.09.23 12.34.18 18.5.2h38.88c1.91-2.02 4.1-3.81 5.7-6.1 1.4-1.97 1.03-4.54.35-6.71-1.53-4.88-4.02-9.4-6.4-13.91-6.08-11.21-12.55-22.2-18.84-33.3-4.05-7.2-8.2-14.33-12.08-21.6a2.7 2.7 0 0 1 1.03-3.78c1.88-.94 4.07-.87 6.12-1.04 8.5-.34 17.02-.18 25.54-.23h15.7c6.81 12.04 13.77 24 20.37 36.14.99 1.88 1.8 3.85 2.87 5.7a803.17 803.17 0 0 0 17.48 29.92c2.67 4.3 5.25 8.67 8.18 12.8 1.16 1.37 3.13 1.45 4.78 1.7 5.9.5 11.83.36 17.75.4 5.4-.06 10.84.04 16.22-.6 1.6-.26 3.5-.45 4.49-1.9 3.19-4 5.8-8.4 8.4-12.78 1.89-3.3 3.8-6.67 5.52-9.98 1.82-3.6 3.68-7.54 3.2-11.7-.51-4.19-2.53-7.99-4.42-11.7-4.23-7.88-8.8-15.58-13.2-23.37l-7.18-12.55 55.67-1.4c1.94-2.34 3.9-4.68 5.46-7.31 2.13-3.31 3.8-6.88 5.81-10.26 3.05-5.44 6.3-10.77 9.34-16.21 2.93-5.76 6.33-11.27 9.41-16.91 1.71-3.4 3.43-7.03 3.29-10.91-.1-2.72-1.68-5.06-3.48-6.98l-1.82-2.12-83.68-1.37 26.47-45.95c20.42-.02 40.84.05 61.26-.04 8.28-.06 16.64-.16 24.88-.4 3.59-.16 7.19-.2 10.75-.67 1.7-2.06 3-4.42 4.41-6.69.55-.91 1.22-2.05 1.77-3a759.7 759.7 0 0 0 12.28-22.3c.35-.8.8-1.63.92-2.5a35.82 35.82 0 0 0-3.9-9c-4.4-7.63-8.43-15.5-13.57-22.66-.64-.8-1.2-1.74-2-2.34-4.15-.63-8.37-.66-12.55-.85-12.88-.42-25.77 0-38.65-.6-.93-.06-1.96-.1-2.6-.87-.58-.36-1.03-.76-.52-1.4.84-2.19 2.15-4.15 3.24-6.2 5-8.92 10.25-17.7 15.21-26.64 1.89-3.54 3.9-7.23 5.03-11.18.9-2.92.74-6.11-.43-8.94-1.82-4.55-4.58-8.64-7-12.88-4.7-7.9-9.12-15.97-13.9-23.83-2.55-4.17-4.95-8.45-7.63-12.54-1.56-2.31-3.44-4.81-6.33-5.43-2.1-.43-4.28-.5-6.4-.18-2.67.5-4.6 2.68-6.16 4.77-2.29 3.2-4.37 6.52-6.39 9.79a238.76 238.76 0 0 0-10.38 18.48c-3.03 5.46-6.47 10.69-9.33 16.25-4.36 7.96-9.17 15.66-13.82 23.45-8.53-14.7-17.01-29.43-25.44-44.2 14.52-25.35 29.15-50.65 43.54-76.09 1.21-2 2.34-4.33 2.38-6.78.13-4.2-1.6-8.18-3.3-11.93-.84-1.77-1.71-3.44-2.65-5.2-.33-.59-.8-1.46-1.2-2.15-1.9-3.4-3.77-6.83-5.8-10.1-1.8-2.86-3.85-5.96-7.16-7.2-3.67-1.29-7.63-1.17-11.47-1.27l-7.43-.01zm-68.52 150.8 49.38 81.93-48.1 90.77-98.88 3.26-49.59-87.23 48.48-87.91 98.12-1.81.6.99z" style="display:inline;fill:#ebe2ce;fill-opacity:1"/><path d="M568.85 601.36c-17.7 0-20.95.32-23.24 2.33-1.47 1.28-6.04 8.31-10.15 15.62-10.31 18.33-10.24 21.03 1.14 40.05 1.76 2.93 4.14 7.13 5.3 9.33 1.14 2.2 3.84 6.7 5.98 10 2.14 3.3 3.94 6.45 4 7 .05.55-11.52 1-25.72 1-23.62 0-26.1.22-29.14 2.61-1.83 1.44-7.63 10.29-12.9 19.67a942.7 942.7 0 0 1-10.86 19.05c-.72 1.1-2.02 3.5-2.9 5.34a47.38 47.38 0 0 1-4 6.5c-3.47 4.64-3.08 12.53.83 17.09l3.22 3.74 40.73.67 40.73.66-6.28 11.1a940.9 940.9 0 0 1-9.23 16c-1.63 2.7-4.03 7-5.35 9.57l-2.38 4.67-48.44.66-48.43.67-3.56 4.13c-1.95 2.28-6.12 8.73-9.25 14.34l-5.33 10.45s-1.77 3.6-2.9 8.6c2.49 5.45 13.94 31.12 19.41 34.7 2.35 1.54 9.16 2.24 28.4 2.9l25.3.88-5.59 9.74c-3.08 5.35-6.92 11.95-8.55 14.66-11.7 19.52-12.1 23.02-4.37 37.1 8.22 13.62 14.69 25.54 23.06 39.16 4.15 7.38 6.82 9.34 12.74 9.34 6.23 0 7.93-1.14 13.02-8.82l4.75-7.16h-.04l6.64-11.84h.01c.26-1.1 4.65-8.9 12.73-22.58 1.6-2.71 4.82-8.53 7.14-12.93 2.31-4.4 4.38-8.19 4.6-8.41.2-.22 5.57 8.66 11.92 19.75 8 13.96 11.3 20.94 10.73 22.73-.13.4-.3.71-.55 1l-8.43 14.54-17.75 31.06c-14.58 25.52-17.9 32.3-17.9 36.55-.01 3.92 2.01 8.81 8.12 19.68 4.47 7.96 9.4 15.36 10.96 16.45 2.19 1.53 7.19 1.98 21.96 1.98 10.52 0 20.23-.6 21.6-1.32 1.35-.72 7.98-10.91 14.74-22.63 12.09-20.99 12.31-21.27 14.5-18.35a48.37 48.37 0 0 1 3.85 6.3c.9 1.84 3.06 5.74 4.79 8.67 1.73 2.93 5.17 9.15 7.64 13.82 7.46 14.1 5.55 13.51 44.78 13.51h33.92l3.9-3.9c7-7 6.14-9.7-14.85-46.27-10.3-17.97-19.07-33.53-19.47-34.58-.62-1.62 2.84-1.9 22.4-1.9h23.15l10 17.56c5.5 9.66 10.24 18.2 10.52 19 1.72 4.67 26.22 45.82 28.43 47.76 2.29 1.99 5.52 2.33 22.23 2.33 15.47 0 20.17-.43 22.5-2.06 1.61-1.13 6.55-8.48 10.96-16.33 11.04-19.64 11.03-19.67-3.8-45.61L819 998.02l26.62-.66 26.62-.67 3.26-4c1.8-2.2 4.84-7.15 6.76-11l3.95-6.95 7-12.05 1.57-3c.86-1.65 3.88-7 6.71-11.9 6.15-10.63 6.67-16.52 1.94-22.03l-3.22-3.74-40.6-.66-40.58-.67 12.1-21 12.1-21h47.12c28.25 0 48.12-.52 49.58-1.3 2.47-1.33 17.34-29.3 18.71-31.82a18.2 18.2 0 0 0 1.8-4.42 42.66 42.66 0 0 0-2.89-7.63l-7.61-13.46c-4.2-7.4-8.7-14.03-10.04-14.75-1.33-.7-13.85-1.29-27.83-1.29-13.98 0-25.43-.24-25.43-.54 0-.3 5.4-9.86 12-21.24 14.75-25.43 14.93-26.74 5.67-42.37-3.48-5.88-7.4-12.6-8.71-14.93-1.3-2.34-3.7-6.47-5.33-9.17l-7.4-12.34c-5.03-8.43-7.36-10.07-14.27-10.07-3.7 0-5.78.96-8.57 3.94-3.03 3.24-13.94 21.18-17.89 29.39-.52 1.1-2.42 4.4-4.22 7.33-1.79 2.94-4.19 7.14-5.32 9.34-1.14 2.2-4.37 7.82-7.19 12.5l-5.12 8.5-5.3-9.17a5916.9 5916.9 0 0 1-11.6-20.13l-6.27-10.96 21.26-37.04a4193.33 4193.33 0 0 0 22.76-39.95c3.24-6.27 1.8-12.64-5.97-26.46-11.16-19.86-10.17-19.3-33.44-19.3h-19.44l-4.2 4.47c-2.32 2.45-8.92 12.68-14.68 22.74l-10.47 18.28-7.26-12.4a1581 1581 0 0 1-11.94-20.76c-2.57-4.59-5.95-9.24-7.51-10.33-2.35-1.64-8.89-2-37.28-2h-34.43l-3.27 3.28c-4.78 4.78-4.42 12.13 1.06 21.53l7 11.99c2.33 3.96 12.5 21.87 23.99 42.2l3.57 6.34h-46.35l-22.6-39.67c-12.42-21.81-23.92-41.01-25.54-42.66-2.8-2.86-3.95-3-23.53-3zM787 611.94l15.25.37 15.25.38 4.54 8c2.5 4.4 5.85 10.5 7.45 13.55l2.9 5.55-7.87 13.63c-4.33 7.5-9.22 15.8-10.87 18.45a87.87 87.87 0 0 0-3.9 6.82c-.86 1.91-11.66 20.87-16.96 29.77a586.48 586.48 0 0 0-5.7 9.9l-3.2 5.66 3.19 5.67a2911.75 2911.75 0 0 0 17.35 30.33c1.92 3.3 4.79 8.5 6.36 11.54l2.87 5.54-15.14 26.13c-8.33 14.37-15.51 26.13-15.96 26.13-.45 0-1.5-1.35-2.31-3-1.42-2.84-7.06-12.94-13.4-24l-5.73-10c-1.57-2.75-3.96-6.8-5.32-9a98.26 98.26 0 0 1-4.07-7.34 36.29 36.29 0 0 0-3.16-5.33c-1.42-1.83-6.48-10.76-12.84-22.67a213.76 213.76 0 0 0-4.93-8.66 446.3 446.3 0 0 1-5.3-9l-5.71-10a379.1 379.1 0 0 0-5.32-9 98.26 98.26 0 0 1-4.07-7.34 36.28 36.28 0 0 0-3.16-5.33c-.86-1.1-3.35-5.3-5.54-9.33-2.2-4.04-5.28-9.59-6.86-12.34a15183.85 15183.85 0 0 1-11.06-19.33c-1.57-2.75-4.66-8.3-6.85-12.33-2.2-4.04-4.7-8.24-5.55-9.34-.85-1.1-2.26-3.5-3.13-5.33-1.6-3.36-2.99-5.69-7.27-12.2-1.28-1.95-2.34-4.2-2.34-5 0-1.02 9.3-1.47 30.58-1.47h30.57l5.76 10.32c3.17 5.67 6.24 11.22 6.83 12.33a198.9 198.9 0 0 0 4 6.89 880.15 880.15 0 0 1 14.96 26.07c1.44 2.77 1.78 2.45 5.92-5.34 2.41-4.55 5.1-9.17 5.96-10.27.87-1.1 2.3-3.5 3.18-5.33a98.27 98.27 0 0 1 4.07-7.33 557.93 557.93 0 0 0 10.07-17.34c.82-1.46 2.6-4.33 3.97-6.37zm-218.41.08h16.3l3.88 6.96 5.87 10.57c1.1 2 4.36 7.72 7.24 12.72 2.87 5 6.32 11.04 7.66 13.42l5.1 9 5.34 9.33c6.8 11.9 8.53 14.94 10.63 18.67l2.26 4 29.89.37 29.88.38 9.94 16.96c5.46 9.32 12.41 21.16 15.44 26.29l5.52 9.33-123.87.06c-68.13.03-124.16-.4-124.51-.97-.35-.57.46-2.7 1.81-4.73 3.27-4.93 5.15-8.1 8.11-13.7a935.17 935.17 0 0 1 14.9-26.66l3.52-6 34.31-.35 34.32-.36-2.74-4.3c-3.66-5.86-6.13-10.36-9.41-16.32-3.2-5.87-6.17-10.97-6.6-11.33-.44-.37-1.54-2.17-2.46-4-.91-1.84-3.1-5.74-4.86-8.67-8.12-13.54-8.14-13.64-4.94-19.79 1.58-3.05 4.4-7.94 6.26-10.88 1.86-2.93 3.72-6.38 4.14-7.66.68-2.06 2.73-2.34 17.07-2.34zm301.18 92.1c.44.52 3.24 5.14 11.12 18.36a222.2 222.2 0 0 1 5 8.88c1.14 2.2 3.13 5.59 4.42 7.53 4.1 6.22 9.67 16.1 9.67 17.17 0 .57-6.15 11.63-13.67 24.57a2639.04 2639.04 0 0 0-16.55 28.8l-2.9 5.26 33.56.03 33.56.03 7 12.51c3.85 6.88 7 13.23 7 14.1 0 .87-3.15 7.2-7 14.08l-7 12.5-49.08.37-49.07.38-14.98 26-14.98 26-31.06.36-31.06.36 4.32-7.7a2477.4 2477.4 0 0 1 29.22-51.02c1.58-2.61 21.32-36.97 23.74-41.31 1.02-1.85 3.3-5.76 5.06-8.7 1.76-2.92 4.15-7.12 5.3-9.32 1.16-2.2 3.55-6.4 5.32-9.34a140.2 140.2 0 0 0 4.83-8.66 36.98 36.98 0 0 1 3.18-5.34c.85-1.1 3.35-5.3 5.54-9.33 2.2-4.03 5.29-9.43 6.86-12 1.58-2.57 3.8-6.47 4.96-8.67a207 207 0 0 1 5.31-9.33c1.78-2.93 4.16-7.13 5.3-9.33 1.13-2.2 3.5-6.4 5.25-9.34 1.75-2.93 4.1-7.13 5.2-9.33 2.43-4.8 5.96-9.36 6.63-8.57zM596.3 761.36c16.69 0 30.34.35 30.34.78 0 .71-6.91 13.06-12.14 21.68-1.18 1.94-3.5 5.94-5.14 8.87a9930.74 9930.74 0 0 1-34.8 60.67c-3.26 5.32-40.35 70.34-41.46 72.66a115.6 115.6 0 0 1-4.19 7.54c-1.61 2.69-6.83 11.68-11.6 19.99-4.77 8.3-9.4 16.31-10.28 17.79-.89 1.48-2.33 4.03-3.21 5.68-.88 1.65-1.96 3-2.39 2.99-.43-.01-4.99-7.25-10.12-16.1a3885.69 3885.69 0 0 0-11.85-20.32c-1.39-2.33-4-6.87-5.81-10.08l-3.3-5.85 2.94-5.49c1.61-3.01 4.23-7.7 5.81-10.42l13.8-23.67 10.9-18.72h-23.7c-13.05 0-28.29-.39-33.87-.86l-10.14-.86-6.72-11.65c-3.7-6.4-6.72-12.47-6.72-13.47.01-1.7 1.49-4.8 6.26-13.16 1.05-1.84 3.22-5.74 4.83-8.67l2.93-5.33 49.5-.35c45.62-.33 49.57-.54 50.36-2.67.46-1.27 2.33-4.72 4.14-7.65a170.9 170.9 0 0 0 5.35-9.33c1.13-2.2 3.84-6.9 6.03-10.45 2.2-3.55 5.35-8.95 7-12 6.95-12.78 3-11.55 37.25-11.55zm44.34.03h89.34l20.27 35.32 20.27 35.31 4.91 7.86c-2.59 6.14-4.93 11.76-8.52 18-1.25 2.12-9.85 17.12-19.1 33.33l-16.85 29.48-45.42.35-45.42.35-5.44-9.3a534.98 534.98 0 0 1-8.8-15.69 328.4 328.4 0 0 0-6.3-11.32c-2.6-4.38-12.22-21.25-20.5-35.93l-2.88-5.13h.02l-1.2-2.11 5.1-9.94 20.25-35.26zm-52.33 91.55 1.83 3.87c1 2.14 3.12 5.98 4.7 8.55 1.57 2.56 4.66 7.96 6.85 12 2.2 4.03 4.7 8.23 5.55 9.33.86 1.1 2.27 3.5 3.14 5.33a59.37 59.37 0 0 0 2.86 5.34c.71 1.1 5.82 10.1 11.35 20 5.54 9.9 10.63 18.9 11.31 20 1.75 2.8 37.64 65.08 40.08 69.54 1.1 2.02 5.39 9.54 9.53 16.73a2699.5 2699.5 0 0 1 10.52 18.4c1.64 2.93 4.08 7.13 5.4 9.33 6.86 11.38 10.41 18.47 9.77 19.5-.4.64-14.2 1.16-30.7 1.16h-30l-1.98-4.33c-1.1-2.38-3.42-6.73-5.17-9.67a241.14 241.14 0 0 1-5.29-9.33c-1.15-2.2-3.57-6.4-5.36-9.33a174.95 174.95 0 0 1-4.63-8c-4.12-8-9.3-15.98-10.27-15.84-1.1.16-2.75 2.81-10.2 16.5-2.2 4.04-4.7 8.24-5.55 9.34-.86 1.1-2.28 3.5-3.16 5.33-.88 1.83-3.08 5.73-4.9 8.67a200.55 200.55 0 0 0-6.22 11l-2.93 5.66h-15.8c-15.11 0-15.85-.13-17.07-3-.7-1.65-3.08-6-5.29-9.66-9.15-15.21-9.02-14.03-2.67-24.97 9.7-16.7 10.92-18.84 15.02-26.37 2.2-4.03 4.69-8.23 5.54-9.33a36.3 36.3 0 0 0 3.16-5.33c.88-1.84 2.88-5.44 4.45-8 1.57-2.57 4.65-7.97 6.85-12 2.2-4.04 4.8-8.28 5.8-9.44 1-1.16 1.81-2.75 1.81-3.54 0-.78-5.4-10.84-12-22.36-6.6-11.51-12-21.32-12.02-21.8-.02-.47-1.2-2.36-2.64-4.2-1.44-1.83-2.62-4-2.64-4.83-.03-1.27 22.73-41.45 28.9-51.04zM770.46 932c62.07.06 124.36.56 124.89 1.41.47.77.27 2.12-.45 3a68.5 68.5 0 0 0-4.11 6.61l-5.67 10c-5.54 9.72-9.04 16-12.2 21.96-7.03 13.21-2.9 12.05-40.73 11.51l-33.35-.47 2.57 4.34c4.03 6.8 7.3 12.5 10.88 19 3.58 6.48 5.72 10.23 14.19 24.8 3.02 5.2 5.5 9.93 5.5 10.5 0 .57-2.55 5.5-5.67 10.97-3.12 5.47-6.45 11.4-7.4 13.17-1.7 3.13-2.21 3.22-17.44 3.22h-15.69l-2.92-5.66a363.5 363.5 0 0 0-12.41-21.67c-1.37-2.2-3.4-5.8-4.5-8s-2.58-4.9-3.28-6c-.7-1.1-6.77-11.75-13.48-23.67l-12.21-21.66-30.17-.06-30.17-.05-14.66-25.49c-8.07-14.02-14.87-26-15.11-26.61-.34-.86 61.51-1.22 123.59-1.15z" style="display:inline;opacity:1;fill:#272625"/><path d="m257.13 897.51-1.37-17.42 51.85-17.66-.02-.25-52.9 4.14-.98-12.37 88.4-6.93 1.12 14.27L280 883.02l.02.25 64.53-5.06.97 12.38zm-2.9-68.4.65-13.92 88.57 4.08-.64 13.92zm47.2-43.15-45.24 8.07 2.39-14.5 29.77-4.59.04-.25-26.68-14.16 2.15-13 40.24 22.18 47.36-8.49-2.39 14.5-32.14 4.97-.04.25 28.8 15.28-2.14 13zm59.88-51.18q-3.22 9.74-10.47 13.09-7.24 3.34-17.34 0l-44.26-14.64q-10.1-3.34-13.92-10.34-3.82-7-.6-16.74 3.22-9.74 10.46-13.09 7.25-3.34 17.35 0l44.25 14.64q10.1 3.34 13.93 10.34 3.82 7 .6 16.74zm-12.03-3.97q2.27-6.86-6.03-9.6L297.31 706q-8.3-2.74-10.56 4.11-2.27 6.86 6.03 9.6l45.94 15.2q8.3 2.74 10.56-4.11zm31.97-43.83q-4.6 9.03-12.04 11.06-7.55 1.98-17.14-2.92l-4.51-2.3 5.98-11.73 5.42 2.76q7.67 3.92 10.95-2.52 1.62-3.15.62-5.66-1.06-2.67-5.23-4.8-4.97-2.53-9.84-2.17-4.99.3-13.4 3.68-10.69 4.22-17.66 4.5-7.08.22-13.96-3.29-9.36-4.78-12.02-12.1-2.77-7.4 1.83-16.42 4.55-8.91 12.04-10.78 7.44-2.03 17.03 2.86l3.27 1.67-5.98 11.74-4.07-2.08q-4.06-2.07-6.67-1.41-2.72.6-4.28 3.64-3.16 6.2 4.4 10.07 4.28 2.19 9.16 1.83 4.93-.47 13.34-3.86 10.74-4.33 17.77-4.44 7.02-.1 14.47 3.7 9.7 4.94 12.42 12.44 2.77 7.4-1.9 16.53zm-23.93-105.14-9.24 11.26-9.8-8.03 27.32-33.3 9.8 8.03-9.24 11.26 58.76 48.2-8.83 10.77zm24.66-47.08 15.35-13.8q8-7.2 15.07-6.74 6.98.37 13.92 8.1l3.64 4.04q9.23 10.27 4.9 19.1l.18.19q4.78-2.26 9.42-.13 4.74 2.05 9.99 7.89l10.41 11.58q2.54 2.83 4.34 4.45 1.71 1.52 4 2.54l-10.56 9.49q-2-1.1-3.46-2.34-1.46-1.24-4.76-4.92l-10.84-12.05q-4.07-4.53-7.18-4.96-3.03-.52-6.6 2.7l-3.58 3.22 25.4 28.26-10.36 9.31zm39.53 15.55q3.11-2.8 3.18-5.75.16-3.04-3.23-6.81l-4.57-5.09q-3.22-3.58-5.98-4-2.66-.5-5.4 1.96l-4.7 4.24 16.94 18.84zm21.9-65.53 15.86-10.24 60.26 66.62-11.7 7.57-11.69-13.41.14.2-13.3 8.6 7.3 15.95-10.86 7.02zm44.95 41.54-29-33.44-.22.14 18.7 40.1zm4.81-71.12 16.03-6.98 33.63 43.24.23-.1-21.2-48.66 11.38-4.96 35.42 81.29-13.12 5.71-41.19-52.65-.23.1 25.86 59.34-11.38 4.95zm106.53 56.25q-9.8 2.55-16.27-1.66-6.5-4.33-9.2-14.75l-1.28-4.9 12.75-3.32 1.53 5.89q2.17 8.33 9.16 6.51 3.43-.89 4.64-3.3 1.3-2.56.11-7.1-1.4-5.39-4.9-8.8-3.54-3.53-11.66-7.57-10.25-5.18-15.1-10.2-4.86-5.15-6.8-12.63-2.66-10.17 1.06-17.03 3.68-6.98 13.48-9.53 9.69-2.52 16.06 1.84 6.46 4.21 9.17 14.63l.93 3.56-12.75 3.32-1.15-4.42q-1.15-4.41-3.37-5.93-2.26-1.63-5.57-.77-6.75 1.75-4.6 9.97 1.2 4.65 4.7 8.06 3.64 3.38 11.75 7.42 10.38 5.15 15.13 10.33 4.75 5.17 6.85 13.27 2.74 10.54-1.06 17.55-3.68 6.98-13.61 9.56zm39.36-47.2-22.05-48.89 14.74-1.54 12.83 31.39.26-.03 6.06-33.36 13.48-1.41-11.46 52.4 3.93 37.54-13.86 1.44zm47.32-53.92 13.92.46-2.54 75.96 22.9.77-.42 12.66-36.83-1.24zm49 2.59 13.86 2.29-2.22 69.35.25.04 20.22-66.37 12.62 2.09-27.72 85.28-18.24-3.01zm74.21 15.72 17.96 5.82-13.6 88.8-13.25-4.3 3.02-17.53-.08.24-15.06-4.88-7.76 15.73-12.3-3.98zm-3.8 61.08 7.6-43.6-.25-.09-19.29 39.82zm58.17-41.19 15.53 8.01-12.28 53.39.22.11 24.33-47.17 11.04 5.7-40.65 78.8-12.72-6.56 14.81-65.2-.22-.11-29.68 57.52-11.03-5.69zm59.68 33.56 11.5 7.87-50.1 73.16-11.5-7.88zm39.34 29.3 14.2 12.45-47.61 76.19-10.48-9.2 9.7-14.9-.16.2-11.9-10.45-13.35 11.38-9.71-8.52zM935.33 566l24.23-37.04-.2-.17-33.46 28.94zm26.27 74.86q-5.96-8.2-4.41-15.74 1.66-7.63 10.36-13.97l4.1-2.98 7.75 10.65-4.92 3.58q-6.96 5.07-2.71 10.9 2.08 2.87 4.77 3.12 2.85.26 6.64-2.5 4.51-3.27 6.4-7.78 2-4.58 2.78-13.62 1.08-11.43 3.98-17.78 3-6.41 9.25-10.96 8.5-6.19 16.24-5.24 7.85.88 13.8 9.07 5.9 8.09 4.17 15.62-1.56 7.55-10.26 13.88l-2.97 2.16-7.75-10.65 3.68-2.68q3.7-2.68 4.29-5.3.7-2.71-1.32-5.48-4.1-5.63-10.96-.64-3.9 2.84-5.78 7.35-1.82 4.6-2.6 13.64-1 11.54-4.09 17.85-3.08 6.32-9.84 11.24-8.8 6.4-16.72 5.43-7.84-.87-13.88-9.17zm98-14.83 9.46 18.21q4.8 9.22 2.24 16.4-2.55 7.18-12.1 12.14l-7.76 4.03q-9.56 4.96-16.9 2.92-7.34-2.04-12.12-11.25l-3.04-5.85-32.04 16.64-6.42-12.36zm-25.94 36.6q1.57 3.04 4.02 3.63 2.5.7 6.55-1.4l9.33-4.85q4.04-2.1 4.91-4.55.93-2.34-.65-5.38l-3.03-5.84-24.17 12.55zm54.57 22.99 6.56 19.58q3.42 10.2.19 16.5-3.11 6.25-12.96 9.55l-5.17 1.73q-13.09 4.4-19.47-3.09l-.24.08q.17 5.3-3.63 8.7-3.76 3.53-11.2 6.03l-14.78 4.95q-3.6 1.2-5.8 2.21-2.08.97-3.92 2.65l-4.51-13.45q1.8-1.4 3.52-2.25 1.72-.84 6.4-2.41l15.38-5.15q5.76-1.94 7.4-4.62 1.68-2.57.15-7.13l-1.53-4.57-36.03 12.08-4.43-13.2zm-30 30.1q1.34 3.96 4.02 5.2 2.73 1.35 7.53-.26l6.49-2.17q4.56-1.53 6.04-3.9 1.52-2.25.35-5.73l-2.01-6-24.02 8.05zm48.51 32.25 2.82 13.64-86.83 17.93-2.82-13.64zm7.24 38.1 1.38 17.42-51.83 17.71.02.26 52.9-4.21.99 12.37-88.39 7.03-1.13-14.27 63.2-21.8-.02-.25-64.53 5.13-.98-12.37zm-10.28 81.12 1.12-14.52 12.63.97-3.3 42.94-12.63-.97 1.11-14.53-75.77-5.82 1.06-13.9z" aria-label="NixOS Transylvania Sprint" style="font-size:126.667px;font-family:&quot;Bebas Neue&quot;;-inkscape-font-specification:&quot;Bebas Neue&quot;;letter-spacing:3.4px;fill:#ebe2ce"/><path d="M568.29 1248.22q2.19-9.24 6.7-15.07 4.53-5.95 14.07-12.15 9.42-6.23 13.6-11.23 4.3-4.97 5.77-11.13 1.31-5.54-.04-8.08-1.2-2.63-4.65-3.44-7.03-1.67-9.04 6.83l-2.2 9.25-12.81-3.04 1.98-8.38q2.49-10.48 8.98-14.8 6.52-4.44 16.38-2.1 9.86 2.34 13.7 9.23 3.85 6.78 1.37 17.25-1.87 7.9-7.48 14.5-5.48 6.65-17.03 14.19-7.56 4.98-10.62 8.55-3.03 3.44-4.11 8l-.44 1.85 25.76 6.11-2.92 12.33-39.2-9.3zm83.42 25.68q-10.22-.8-15.2-7.04-4.97-6.23-4.14-16.84l3.64-46.47q.83-10.61 6.72-16 5.89-5.38 16.11-4.57 10.23.8 15.2 7.03 4.98 6.24 4.15 16.84l-3.64 46.48q-.84 10.6-6.72 15.99-5.89 5.38-16.12 4.58zm1-12.63q7.2.56 7.88-8.15l3.78-48.24q.68-8.71-6.52-9.28-7.2-.56-7.88 8.15L646.2 1252q-.68 8.71 6.51 9.28zm44.75 3.38q-.73-9.47 1.79-16.4 2.51-7.05 9.71-15.85 7.08-8.8 9.54-14.83 2.59-6.05 2.1-12.36-.43-5.68-2.5-7.69-1.93-2.13-5.47-1.86-7.2.55-6.53 9.26l.72 9.47-13.13 1-.66-8.58q-.82-10.74 4.05-16.82 4.86-6.22 14.96-7 10.1-.77 15.86 4.64 5.74 5.28 6.56 16.01.62 8.08-2.71 16.09-3.2 8-11.91 18.7-5.69 7.04-7.51 11.37-1.84 4.2-1.48 8.88l.14 1.9 26.4-2.03.96 12.63-40.16 3.07zm87.53-.99q-9.87 2.32-16.35-2-6.52-4.46-8.98-14.94l-1.6-6.78 12.83-3.02 1.83 7.77q1.97 8.38 9 6.73 7.02-1.65 5.05-10.04l-4.55-19.36q-2-8.5-9.03-6.85-7.03 1.65-5.03 10.16l.18.74-12.83 3.02-8.87-48.8 35.76-8.4 2.9 12.33-23.67 5.56 3.73 20.86.25-.06q2.34-7.19 10.23-9.05 7.4-1.74 12.41 2.42t7.27 13.78l4.58 19.48q2.47 10.48-1.38 17.37-3.87 6.76-13.73 9.08z" aria-label="2025" style="font-size:126.667px;font-family:&quot;Bebas Neue&quot;;-inkscape-font-specification:&quot;Bebas Neue&quot;;letter-spacing:16.11px;fill:#ebe2ce"/></g></svg>