<?xml version="1.0" encoding="UTF-8" standalone="no"?>
<!-- Created with Inkscape (http://www.inkscape.org/) -->

<svg
   width="100mm"
   height="100mm"
   viewBox="0 0 100 100"
   version="1.1"
   id="svg5"
   sodipodi:docname="aa-taarn-nix.svg"
   inkscape:version="1.1.2 (0a00cf5339, 2022-02-04)"
   inkscape:export-filename="/home/vdot0x23/Pictures/aa-taarn-nix.png"
   inkscape:export-xdpi="300"
   inkscape:export-ydpi="300"
   xmlns:inkscape="http://www.inkscape.org/namespaces/inkscape"
   xmlns:sodipodi="http://sodipodi.sourceforge.net/DTD/sodipodi-0.dtd"
   xmlns:xlink="http://www.w3.org/1999/xlink"
   xmlns="http://www.w3.org/2000/svg"
   xmlns:svg="http://www.w3.org/2000/svg">
  <sodipodi:namedview
     id="namedview7"
     pagecolor="#ffffff"
     bordercolor="#666666"
     borderopacity="1.0"
     inkscape:pageshadow="2"
     inkscape:pageopacity="0.0"
     inkscape:pagecheckerboard="0"
     inkscape:document-units="mm"
     showgrid="false"
     inkscape:zoom="1.4142136"
     inkscape:cx="223.7993"
     inkscape:cy="218.49599"
     inkscape:window-width="1920"
     inkscape:window-height="1011"
     inkscape:window-x="0"
     inkscape:window-y="0"
     inkscape:window-maximized="1"
     inkscape:current-layer="layer2" />
  <defs
     id="defs2">
    <linearGradient
       id="linearGradient5960"
       inkscape:collect="always">
      <stop
         id="stop5962"
         offset="0"
         style="stop-color:#637ddf;stop-opacity:1" />
      <stop
         style="stop-color:#649afa;stop-opacity:1"
         offset="0.23168644"
         id="stop5964" />
      <stop
         id="stop5966"
         offset="1"
         style="stop-color:#719efa;stop-opacity:1" />
    </linearGradient>
    <linearGradient
       y2="515.97058"
       x2="282.26105"
       y1="338.62445"
       x1="213.95642"
       gradientTransform="translate(983.36076,601.38885)"
       gradientUnits="userSpaceOnUse"
       id="linearGradient5855"
       xlink:href="#linearGradient5960"
       inkscape:collect="always" />
  </defs>
  <g
     inkscape:label="Layer 1"
     inkscape:groupmode="layer"
     id="layer1">
    <g
       id="layer7"
       inkscape:label="bg"
       style="display:none"
       transform="matrix(0.28222222,0,0,0.28222222,26.648862,40.535778)">
      <rect
         transform="translate(-132.5822,958.04022)"
         style="color:#000000;clip-rule:nonzero;display:inline;overflow:visible;visibility:visible;opacity:1;isolation:auto;mix-blend-mode:normal;color-interpolation:sRGB;color-interpolation-filters:linearRGB;solid-color:#000000;solid-opacity:1;fill:#ffffff;fill-opacity:1;fill-rule:evenodd;stroke:none;stroke-width:3;stroke-linecap:butt;stroke-linejoin:round;stroke-miterlimit:4;stroke-dasharray:none;stroke-dashoffset:0;stroke-opacity:1;marker:none;color-rendering:auto;image-rendering:auto;shape-rendering:auto;text-rendering:auto;enable-background:accumulate"
         id="rect5389"
         width="1543.4283"
         height="483.7439"
         x="132.5822"
         y="-957.77832" />
    </g>
    <g
       id="layer5"
       inkscape:label="guide"
       style="display:none;opacity:0.516"
       transform="matrix(0.28222222,0,0,0.28222222,-10.768781,310.91602)">
      <rect
         y="-957.77832"
         x="132.5822"
         height="483.7439"
         width="1543.4283"
         id="rect5350"
         style="color:#000000;clip-rule:nonzero;display:inline;overflow:visible;visibility:visible;opacity:1;isolation:auto;mix-blend-mode:normal;color-interpolation:sRGB;color-interpolation-filters:linearRGB;solid-color:#000000;solid-opacity:1;fill:#d4d4d4;fill-opacity:1;fill-rule:evenodd;stroke:none;stroke-width:3;stroke-linecap:butt;stroke-linejoin:round;stroke-miterlimit:4;stroke-dasharray:none;stroke-dashoffset:0;stroke-opacity:1;marker:none;color-rendering:auto;image-rendering:auto;shape-rendering:auto;text-rendering:auto;enable-background:accumulate" />
      <rect
         style="color:#000000;clip-rule:nonzero;display:inline;overflow:visible;visibility:visible;opacity:1;isolation:auto;mix-blend-mode:normal;color-interpolation:sRGB;color-interpolation-filters:linearRGB;solid-color:#000000;solid-opacity:1;fill:#9b9b9b;fill-opacity:1;fill-rule:evenodd;stroke:none;stroke-width:3;stroke-linecap:butt;stroke-linejoin:round;stroke-miterlimit:4;stroke-dasharray:none;stroke-dashoffset:0;stroke-opacity:1;marker:none;color-rendering:auto;image-rendering:auto;shape-rendering:auto;text-rendering:auto;enable-background:accumulate"
         id="rect5346"
         width="1496.443"
         height="435.68069"
         x="155.77646"
         y="-933.38721"
         inkscape:export-xdpi="17.971878"
         inkscape:export-ydpi="17.971878" />
      <rect
         y="-851.65918"
         x="159.02695"
         height="272.58423"
         width="1492.5731"
         id="rect5348"
         style="color:#000000;clip-rule:nonzero;display:inline;overflow:visible;visibility:visible;opacity:1;isolation:auto;mix-blend-mode:normal;color-interpolation:sRGB;color-interpolation-filters:linearRGB;solid-color:#000000;solid-opacity:1;fill:#848484;fill-opacity:1;fill-rule:evenodd;stroke:none;stroke-width:3;stroke-linecap:butt;stroke-linejoin:round;stroke-miterlimit:4;stroke-dasharray:none;stroke-dashoffset:0;stroke-opacity:1;marker:none;color-rendering:auto;image-rendering:auto;shape-rendering:auto;text-rendering:auto;enable-background:accumulate" />
    </g>
    <g
       id="layer6"
       inkscape:label="logo-guide"
       style="display:none"
       transform="matrix(0.28222222,0,0,0.28222222,-10.768781,310.91602)">
      <rect
         y="-958.02759"
         x="132.65129"
         height="484.30399"
         width="550.41602"
         id="rect5379"
         style="color:#000000;clip-rule:nonzero;display:inline;overflow:visible;visibility:visible;opacity:1;isolation:auto;mix-blend-mode:normal;color-interpolation:sRGB;color-interpolation-filters:linearRGB;solid-color:#000000;solid-opacity:1;fill:#5c201e;fill-opacity:1;fill-rule:evenodd;stroke:none;stroke-width:3;stroke-linecap:butt;stroke-linejoin:round;stroke-miterlimit:4;stroke-dasharray:none;stroke-dashoffset:0;stroke-opacity:1;marker:none;color-rendering:auto;image-rendering:auto;shape-rendering:auto;text-rendering:auto;enable-background:accumulate"
         inkscape:export-filename="/home/tim/dev/nix/homepage/logo/nix-wiki.png"
         inkscape:export-xdpi="22.07"
         inkscape:export-ydpi="22.07" />
      <rect
         style="color:#000000;clip-rule:nonzero;display:inline;overflow:visible;visibility:visible;opacity:1;isolation:auto;mix-blend-mode:normal;color-interpolation:sRGB;color-interpolation-filters:linearRGB;solid-color:#000000;solid-opacity:1;fill:#c24a46;fill-opacity:1;fill-rule:evenodd;stroke:none;stroke-width:3;stroke-linecap:butt;stroke-linejoin:round;stroke-miterlimit:4;stroke-dasharray:none;stroke-dashoffset:0;stroke-opacity:1;marker:none;color-rendering:auto;image-rendering:auto;shape-rendering:auto;text-rendering:auto;enable-background:accumulate"
         id="rect5372"
         width="501.94415"
         height="434.30405"
         x="156.12303"
         y="-933.02759"
         inkscape:export-filename="/home/tim/dev/nix/homepage/logo/nixos-logo-only-hires-print.png"
         inkscape:export-xdpi="212.2"
         inkscape:export-ydpi="212.2" />
      <rect
         style="color:#000000;clip-rule:nonzero;display:inline;overflow:visible;visibility:visible;opacity:1;isolation:auto;mix-blend-mode:normal;color-interpolation:sRGB;color-interpolation-filters:linearRGB;solid-color:#000000;solid-opacity:1;fill:#d98d8a;fill-opacity:1;fill-rule:evenodd;stroke:none;stroke-width:3;stroke-linecap:butt;stroke-linejoin:round;stroke-miterlimit:4;stroke-dasharray:none;stroke-dashoffset:0;stroke-opacity:1;marker:none;color-rendering:auto;image-rendering:auto;shape-rendering:auto;text-rendering:auto;enable-background:accumulate"
         id="rect5381"
         width="24.939611"
         height="24.939611"
         x="658.02826"
         y="-958.04022" />
    </g>
    <g
       id="layer2-6"
       inkscape:label="guides"
       style="display:none"
       transform="matrix(0.11949362,0,0,0.11949362,93.931244,93.196712)">
      <path
         inkscape:randomized="0"
         inkscape:rounded="0"
         inkscape:flatsided="true"
         sodipodi:arg2="1.5707963"
         sodipodi:arg1="1.0471976"
         sodipodi:r2="217.25499"
         sodipodi:r1="250.86446"
         sodipodi:cy="377.47382"
         sodipodi:cx="335.17407"
         sodipodi:sides="6"
         id="path6032"
         style="color:#000000;display:inline;overflow:visible;visibility:visible;opacity:0.236;fill:#4e4d52;fill-opacity:1;fill-rule:nonzero;stroke:none;stroke-width:3;stroke-linecap:butt;stroke-linejoin:round;stroke-miterlimit:4;stroke-dasharray:none;stroke-dashoffset:0;stroke-opacity:1;marker:none;enable-background:accumulate"
         sodipodi:type="star"
         d="M 460.60629,594.72881 209.74183,594.7288 84.309616,377.4738 209.74185,160.21882 l 250.86446,1e-5 125.43222,217.255 z" />
      <path
         transform="translate(0,-308.26772)"
         sodipodi:type="star"
         style="color:#000000;display:inline;overflow:visible;visibility:visible;opacity:1;fill:#4e4d52;fill-opacity:1;fill-rule:nonzero;stroke:none;stroke-width:3;stroke-linecap:butt;stroke-linejoin:round;stroke-miterlimit:4;stroke-dasharray:none;stroke-dashoffset:0;stroke-opacity:1;marker:none;enable-background:accumulate"
         id="path5875"
         sodipodi:sides="6"
         sodipodi:cx="335.17407"
         sodipodi:cy="685.74158"
         sodipodi:r1="100.83495"
         sodipodi:r2="87.32563"
         sodipodi:arg1="1.0471976"
         sodipodi:arg2="1.5707963"
         inkscape:flatsided="true"
         inkscape:rounded="0"
         inkscape:randomized="0"
         d="m 385.59154,773.06721 -100.83495,0 -50.41747,-87.32564 50.41748,-87.32563 100.83495,10e-6 50.41748,87.32563 z" />
      <path
         transform="translate(0,-308.26772)"
         sodipodi:nodetypes="ccccccccc"
         inkscape:connector-curvature="0"
         id="path5851"
         d="m 1216.5591,938.53395 123.0545,228.14035 -42.6807,-1.2616 -43.4823,-79.7725 -39.6506,80.3267 -32.6875,-19.7984 53.4737,-100.2848 -37.1157,-73.88955 z"
         style="fill:url(#linearGradient5855);fill-opacity:1;fill-rule:evenodd;stroke:none;stroke-width:3;stroke-linecap:butt;stroke-linejoin:round;stroke-miterlimit:4;stroke-dasharray:none;stroke-opacity:1" />
      <rect
         style="color:#000000;clip-rule:nonzero;display:inline;overflow:visible;visibility:visible;opacity:0.415;isolation:auto;mix-blend-mode:normal;color-interpolation:sRGB;color-interpolation-filters:linearRGB;solid-color:#000000;solid-opacity:1;fill:#c53a3a;fill-opacity:1;fill-rule:nonzero;stroke:none;stroke-width:3;stroke-linecap:butt;stroke-linejoin:round;stroke-miterlimit:4;stroke-dasharray:none;stroke-dashoffset:0;stroke-opacity:1;marker:none;color-rendering:auto;image-rendering:auto;shape-rendering:auto;text-rendering:auto;enable-background:accumulate"
         id="rect5884"
         width="48.834862"
         height="226.22897"
         x="-34.74221"
         y="446.17056"
         transform="rotate(-30)" />
      <path
         transform="translate(0,-308.26772)"
         sodipodi:type="star"
         style="color:#000000;clip-rule:nonzero;display:inline;overflow:visible;visibility:visible;opacity:0.509;isolation:auto;mix-blend-mode:normal;color-interpolation:sRGB;color-interpolation-filters:linearRGB;solid-color:#000000;solid-opacity:1;fill:#000000;fill-opacity:1;fill-rule:evenodd;stroke:none;stroke-width:3;stroke-linecap:butt;stroke-linejoin:round;stroke-miterlimit:4;stroke-dasharray:none;stroke-dashoffset:0;stroke-opacity:1;marker:none;color-rendering:auto;image-rendering:auto;shape-rendering:auto;text-rendering:auto;enable-background:accumulate"
         id="path3428"
         sodipodi:sides="6"
         sodipodi:cx="223.93674"
         sodipodi:cy="878.63831"
         sodipodi:r1="28.048939"
         sodipodi:r2="24.291094"
         sodipodi:arg1="0"
         sodipodi:arg2="0.52359878"
         inkscape:flatsided="true"
         inkscape:rounded="0"
         inkscape:randomized="0"
         d="m 251.98568,878.63831 -14.02447,24.29109 h -28.04894 l -14.02447,-24.29109 14.02447,-24.2911 h 28.04894 z" />
      <use
         x="0"
         y="0"
         xlink:href="#rect5884"
         id="use4252"
         transform="rotate(60,268.29786,489.4515)"
         width="100%"
         height="100%" />
      <rect
         style="color:#000000;clip-rule:nonzero;display:inline;overflow:visible;visibility:visible;opacity:1;isolation:auto;mix-blend-mode:normal;color-interpolation:sRGB;color-interpolation-filters:linearRGB;solid-color:#000000;solid-opacity:1;fill:#000000;fill-opacity:0.650794;fill-rule:evenodd;stroke:none;stroke-width:1px;stroke-linecap:butt;stroke-linejoin:miter;stroke-miterlimit:4;stroke-dasharray:none;stroke-dashoffset:0;stroke-opacity:1;marker:none;color-rendering:auto;image-rendering:auto;shape-rendering:auto;text-rendering:auto;enable-background:accumulate"
         id="rect4254"
         width="5.3947482"
         height="115.12564"
         x="545.71014"
         y="467.07007"
         transform="rotate(30,575.23539,-154.13386)" />
    </g>
  </g>
  <g
     inkscape:groupmode="layer"
     id="layer2"
     inkscape:label="Layer 2">
    <g
       id="g8861"
       transform="matrix(1.6330086,0,0,1.6330086,-168.79002,-313.68269)">
      <path
         style="color:#000000;clip-rule:nonzero;display:inline;overflow:visible;visibility:visible;isolation:auto;mix-blend-mode:normal;color-interpolation:sRGB;color-interpolation-filters:linearRGB;solid-color:#000000;solid-opacity:1;fill:#5277c3;fill-opacity:1;fill-rule:evenodd;stroke:none;stroke-width:0.358481;stroke-linecap:butt;stroke-linejoin:round;stroke-miterlimit:4;stroke-dasharray:none;stroke-dashoffset:0;stroke-opacity:1;color-rendering:auto;image-rendering:auto;shape-rendering:auto;text-rendering:auto;enable-background:accumulate"
         d="m 122.2948,223.34863 14.60174,25.29382 -6.71041,0.063 -3.89831,-6.79551 -3.92614,6.75919 -3.33415,-0.001 -1.70767,-2.95025 5.59355,-9.61806 -3.9707,-6.9098 z"
         id="path4861"
         inkscape:connector-curvature="0"
         sodipodi:nodetypes="cccccccccc" />
      <path
         style="color:#000000;clip-rule:nonzero;display:inline;overflow:visible;visibility:visible;isolation:auto;mix-blend-mode:normal;color-interpolation:sRGB;color-interpolation-filters:linearRGB;solid-color:#000000;solid-opacity:1;fill:#7ebae4;fill-opacity:1;fill-rule:evenodd;stroke:none;stroke-width:0.358481;stroke-linecap:butt;stroke-linejoin:round;stroke-miterlimit:4;stroke-dasharray:none;stroke-dashoffset:0;stroke-opacity:1;color-rendering:auto;image-rendering:auto;shape-rendering:auto;text-rendering:auto;enable-background:accumulate"
         d="m 127.56514,212.92983 -14.60422,25.29239 -3.40972,-5.7799 3.93593,-6.7738 -7.8167,-0.0205 -1.66591,-2.88814 1.70115,-2.954 11.12627,0.0351 3.9987,-6.89362 z"
         id="use4863"
         inkscape:connector-curvature="0"
         sodipodi:nodetypes="cccccccccc" />
      <path
         style="color:#000000;clip-rule:nonzero;display:inline;overflow:visible;visibility:visible;isolation:auto;mix-blend-mode:normal;color-interpolation:sRGB;color-interpolation-filters:linearRGB;solid-color:#000000;solid-opacity:1;fill:#7ebae4;fill-opacity:1;fill-rule:evenodd;stroke:none;stroke-width:0.358481;stroke-linecap:butt;stroke-linejoin:round;stroke-miterlimit:4;stroke-dasharray:none;stroke-dashoffset:0;stroke-opacity:1;color-rendering:auto;image-rendering:auto;shape-rendering:auto;text-rendering:auto;enable-background:accumulate"
         d="m 145.68443,222.06568 -14.60175,-25.29382 6.71042,-0.063 3.89831,6.79551 3.92613,-6.7592 3.33416,0.001 1.70767,2.95025 -5.59356,9.61806 3.97071,6.90979 z"
         id="use4867"
         inkscape:connector-curvature="0"
         sodipodi:nodetypes="cccccccccc" />
      <path
         sodipodi:nodetypes="cccccccccc"
         inkscape:connector-curvature="0"
         id="use4875"
         d="m 139.25486,212.2022 -29.20596,-0.001 3.30069,-5.84286 7.83423,0.0217 -3.89056,-6.77973 1.66825,-2.88679 3.40882,-0.004 5.53271,9.65319 7.96941,0.0162 z"
         style="color:#000000;clip-rule:nonzero;display:inline;overflow:visible;visibility:visible;isolation:auto;mix-blend-mode:normal;color-interpolation:sRGB;color-interpolation-filters:linearRGB;solid-color:#000000;solid-opacity:1;fill:#5277c3;fill-opacity:1;fill-rule:evenodd;stroke:none;stroke-width:0.358481;stroke-linecap:butt;stroke-linejoin:round;stroke-miterlimit:4;stroke-dasharray:none;stroke-dashoffset:0;stroke-opacity:1;color-rendering:auto;image-rendering:auto;shape-rendering:auto;text-rendering:auto;enable-background:accumulate" />
      <path
         sodipodi:nodetypes="cccccccccc"
         inkscape:connector-curvature="0"
         id="use4877"
         d="m 140.39428,232.47909 14.60422,-25.29239 3.40972,5.77991 -3.93593,6.7738 7.8167,0.0205 1.66591,2.88813 -1.70116,2.95402 -11.12626,-0.0351 -3.9987,6.89363 z"
         style="color:#000000;clip-rule:nonzero;display:inline;overflow:visible;visibility:visible;isolation:auto;mix-blend-mode:normal;color-interpolation:sRGB;color-interpolation-filters:linearRGB;solid-color:#000000;solid-opacity:1;fill:#5277c3;fill-opacity:1;fill-rule:evenodd;stroke:none;stroke-width:0.358481;stroke-linecap:butt;stroke-linejoin:round;stroke-miterlimit:4;stroke-dasharray:none;stroke-dashoffset:0;stroke-opacity:1;color-rendering:auto;image-rendering:auto;shape-rendering:auto;text-rendering:auto;enable-background:accumulate" />
      <path
         id="path423-3"
         style="fill:#323232;fill-opacity:1;stroke-width:0.256628"
         d="m 129.12058,197.89882 c -0.13441,0.0423 -0.21753,1.04349 -0.21753,2.65149 0,1.53924 -0.0741,3.83916 -0.16441,5.111 l -0.1639,2.31216 -2.59485,0.15037 c -2.73897,0.15841 -5.63871,0.89475 -6.52997,1.65805 -0.45712,0.39149 -0.53573,0.831 -0.63706,3.56022 -0.15016,4.04357 -0.0808,4.34884 1.13828,5.04484 0.54591,0.31167 0.99346,0.65889 0.99443,0.77139 0.003,0.28818 -3.55641,27.58674 -3.72912,28.60198 -0.0798,0.46912 -0.0324,0.83404 0.10877,0.83404 0.29757,0 0.43906,-0.45651 0.67415,-2.17833 l 0.17442,-1.27963 0.612,1.50418 c 0.33663,0.8274 0.54999,1.60573 0.47366,1.72923 -0.2314,0.37441 0.36849,0.25335 1.431,-0.2887 0.55334,-0.28229 1.13388,-0.51326 1.29016,-0.51326 0.16732,0 0.21722,0.21095 0.12129,0.51326 -0.17989,0.56678 0.11777,0.67768 0.57942,0.21602 0.22503,-0.22501 0.39471,-0.21612 0.69921,0.0366 0.22112,0.18355 0.46022,0.27508 0.5318,0.2035 0.0716,-0.0716 -0.15801,-0.31922 -0.51074,-0.55034 -0.74242,-0.48646 -0.64676,-0.99501 0.26615,-1.41096 0.86612,-0.39463 0.8193,-0.43453 1.01398,0.86362 0.26054,1.73742 0.7244,1.45338 0.50423,-0.30876 -0.16165,-1.2938 -0.13713,-1.42615 0.20851,-1.13929 0.21505,0.17848 0.60119,0.83661 0.8586,1.46258 0.25741,0.62598 0.56315,1.13878 0.67916,1.13929 0.11601,5.1e-4 0.7223,-0.29885 1.3473,-0.66513 l 1.13628,-0.66613 v 0.66613 c 0,0.36628 0.11547,0.66613 0.25663,0.66613 0.14114,0 0.25663,-0.23097 0.25663,-0.51325 0,-0.63431 0.0458,-0.6344 1.08465,-0.001 0.86516,0.52749 1.88347,0.69972 1.62047,0.27417 -0.16692,-0.27009 0.88688,-2.58282 1.17688,-2.58282 0.1029,0 0.12171,0.63516 0.0416,1.41146 -0.10018,0.97057 -0.0543,1.41145 0.14686,1.41145 0.16088,0 0.29428,-0.37532 0.29622,-0.83404 0.006,-1.34242 0.29508,-1.59947 1.24505,-1.10821 0.97694,0.50519 1.0013,0.72753 0.14034,1.29166 -0.36511,0.23922 -0.59921,0.49998 -0.51977,0.57941 0.0794,0.0794 0.32523,-0.006 0.54633,-0.18946 0.30451,-0.25271 0.4742,-0.2616 0.69922,-0.0366 0.49621,0.49622 0.77272,0.33395 0.60046,-0.35236 l -0.16289,-0.64909 1.28113,0.64909 c 1.27678,0.64699 1.9425,0.82285 1.73124,0.45712 -0.0611,-0.10586 0.15205,-0.88536 0.47366,-1.73224 0.62941,-1.65737 0.67256,-1.62532 0.99092,0.7373 0.13592,1.00862 0.30949,1.37615 0.54032,1.1453 0.10648,-0.10647 -3.19295,-26.62989 -3.57575,-28.74483 -0.10572,-0.58412 0.0163,-0.75852 0.82151,-1.17638 0.54086,-0.28068 1.01961,-0.75623 1.11874,-1.11071 0.0953,-0.34087 0.18492,-2.02622 0.19899,-3.74517 0.0287,-3.50998 -0.0285,-3.64397 -1.90817,-4.47545 -1.41005,-0.62373 -5.15156,-1.25256 -7.45173,-1.25256 -1.03178,0 -1.94709,-0.11572 -2.03448,-0.25713 -0.0874,-0.14142 -0.0793,-1.34821 0.0186,-2.68156 0.0738,-1.00559 0.12036,-1.59261 0.2035,-1.95729 v -2.42694 c -0.0578,-0.036 -0.0937,-0.0758 -0.0937,-0.11929 0,-0.0435 0.0359,-0.0918 0.0937,-0.12782 v -2.01392 l 0.004,-0.0501 c 0.0149,-0.0396 0.004,-0.0116 0.0149,-0.0396 0.0672,-0.17519 0.0117,-0.38674 -0.1233,-0.47015 -0.009,-0.006 -0.0186,-0.007 -0.0276,-0.005 z m -1.48664,11.43147 c 0.77517,0 0.78303,0.0137 0.70573,1.21898 -0.0716,1.11631 -0.13764,1.22579 -0.78392,1.30018 -0.68768,0.0791 -0.70573,0.048 -0.70573,-1.21898 0,-1.27875 0.0129,-1.30018 0.78392,-1.30018 z m 1.78236,0 c 0.75272,0 0.76989,0.0285 0.76989,1.28314 0,1.25463 -0.0171,1.28314 -0.76989,1.28314 -0.7528,0 -0.76988,-0.0285 -0.76988,-1.28314 0,-1.25462 0.0171,-1.28314 0.76988,-1.28314 z m 1.64703,0 c 0.87305,0 1.05051,0.26223 0.95885,1.41496 -0.081,1.01873 -0.16245,1.15132 -0.70723,1.15132 -0.56782,0 -0.61551,-0.0999 -0.61551,-1.28314 0,-0.9366 0.0982,-1.28314 0.36389,-1.28314 z m -5.36813,0.25663 c 0.58677,0 0.64157,0.0964 0.64157,1.12525 0,0.99611 -0.0735,1.13895 -0.64157,1.24755 -0.61315,0.11722 -0.64157,0.0671 -0.64157,-1.12525 0,-1.15968 0.0452,-1.24755 0.64157,-1.24755 z m 7.44221,0 c 0.59879,0 0.64157,0.0855 0.64157,1.28314 0,1.26827 -0.14948,1.44122 -0.96236,1.11322 -0.18867,-0.0761 -0.32078,-0.59596 -0.32078,-1.26259 0,-1.0379 0.0541,-1.13377 0.64157,-1.13377 z m -8.89176,0.14435 c 0.26043,-0.004 0.29472,0.24247 0.29472,1.16285 0,1.08802 -0.0697,1.25908 -0.51325,1.25908 -0.43518,0 -0.51326,-0.17095 -0.51326,-1.12476 0,-0.90906 0.0985,-1.15061 0.51326,-1.25908 0.0866,-0.0226 0.15843,-0.0371 0.21853,-0.0381 z m 10.68815,0.11228 c 0.5988,0 0.64157,0.0855 0.64157,1.28314 0,0.70572 -0.0866,1.26996 -0.19247,1.25356 -0.97741,-0.15118 -1.09067,-0.29652 -1.09067,-1.40042 0,-1.04067 0.0539,-1.13628 0.64157,-1.13628 z m -12.22842,0.14435 c 0.26006,-0.005 0.29522,0.23722 0.29522,1.13327 0,1.01336 -0.0901,1.25269 -0.51325,1.36334 -0.4605,0.12042 -0.51326,0.008 -0.51326,-1.09518 0,-1.01336 0.0901,-1.25268 0.51326,-1.36334 0.0863,-0.0226 0.15802,-0.0369 0.21803,-0.0381 z m 13.63988,0.11227 c 0.44478,0 0.51325,0.1711 0.51325,1.28314 0,0.70574 -0.0866,1.27425 -0.19247,1.26309 -0.64745,-0.0681 -0.83404,-0.38404 -0.83404,-1.41245 0,-0.96235 0.0775,-1.13378 0.51326,-1.13378 z m -15.10446,0.30074 c 0.18018,0.0101 0.22303,0.3236 0.17092,1.12876 -0.0468,0.72248 -0.21746,1.27049 -0.41552,1.33577 -0.25179,0.0831 -0.31618,-0.19455 -0.25663,-1.11473 0.0468,-0.72249 0.21745,-1.27049 0.41552,-1.33577 0.0315,-0.0104 0.06,-0.0155 0.0857,-0.014 z m 16.36504,0.0917 c 0.0427,-0.005 0.0927,0.006 0.15087,0.0281 0.26134,0.10029 0.38494,0.50975 0.38494,1.27512 0,0.83102 -0.10119,1.12726 -0.38494,1.12726 -0.29056,0 -0.38494,-0.31279 -0.38494,-1.27512 0,-0.83523 0.0491,-1.13575 0.23407,-1.15533 z m -17.42814,0.37743 c 0.14114,0 0.25663,0.51967 0.25663,1.15482 0,0.63516 -0.11549,1.15483 -0.25663,1.15483 -0.14115,0 -0.25663,-0.51967 -0.25663,-1.15483 0,-0.63515 0.11548,-1.15482 0.25663,-1.15482 z m 18.70476,0.11628 c 0.009,0.002 0.0192,0.006 0.0291,0.012 0.14114,0.0872 0.25662,0.67185 0.25662,1.29867 0,0.62683 -0.11548,1.13929 -0.25662,1.13929 -0.14116,0 -0.25663,-0.58412 -0.25663,-1.29818 0,-0.75016 0.0864,-1.18139 0.22755,-1.15181 z m 0.67465,0.79595 c 0.0155,10e-4 0.0332,0.06 0.0516,0.18194 h 5.1e-4 c 0.0586,0.3901 0.0569,0.96751 -0.004,1.28314 -0.0609,0.31564 -0.1092,-0.004 -0.10726,-0.70923 0.001,-0.48519 0.0251,-0.75894 0.0591,-0.75585 z m -17.31587,7.6848 0.612,1.71069 c 0.33661,0.94083 0.68851,1.9513 0.78192,2.24549 0.13319,0.41965 0.0599,0.53481 -0.34034,0.53481 -0.56242,0 -0.68376,-0.39077 -0.91473,-2.95122 z m 0.9393,0.18094 c 0.29493,-0.0144 1.41649,0.0757 2.71214,0.22155 l 2.69259,0.30274 -0.34034,1.44403 c -0.18713,0.79412 -0.65737,2.8582 -1.04505,4.58723 -0.38767,1.72903 -0.7714,3.14369 -0.85259,3.14369 -0.17858,0 -3.37474,-9.55288 -3.24093,-9.6867 0.006,-0.006 0.032,-0.0105 0.0742,-0.0125 z m 14.30952,0.0436 c 0.14091,-0.008 0.37996,0.97271 0.52077,2.40589 0.17787,1.8105 0.16711,1.86055 -0.39246,1.86055 -0.54317,0 -0.56587,-0.0747 -0.41301,-1.34729 0.089,-0.74102 0.1661,-1.75149 0.17192,-2.2455 0.005,-0.46235 0.0487,-0.67008 0.11278,-0.67365 z m -0.63857,0.0321 -0.15387,1.92471 c -0.0847,1.05858 -0.20581,2.01132 -0.26866,2.11718 -0.18881,0.31781 -0.8548,0.21686 -0.84607,-0.12831 0.004,-0.17643 0.29134,-1.12917 0.63806,-2.11718 z m -0.87113,0.006 c 0.0424,0.002 0.0677,0.006 0.0742,0.0115 0.0519,0.0473 -0.6532,2.3667 -1.56683,5.15461 l -1.66106,5.0689 -0.95785,-4.09401 c -0.52692,-2.25172 -1.04238,-4.44047 -1.1453,-4.8639 l -0.18696,-0.76989 2.71164,-0.29071 c 1.30511,-0.14009 2.43531,-0.2284 2.73218,-0.21653 z m -14.43933,0.0932 c 0.10569,-0.0304 0.2026,0.56927 0.3268,1.76132 l 0.24761,2.3738 h -0.59696 c -0.57791,0 -0.59114,-0.0487 -0.42153,-1.54778 0.19334,-1.70897 0.3243,-2.55286 0.44408,-2.58734 z m 8.44166,0.67065 0.47616,1.92471 c 0.26184,1.05858 0.48087,2.06906 0.48669,2.24549 0.006,0.17643 -0.22044,0.32079 -0.50273,0.32079 -0.4762,0 -0.51142,-0.1622 -0.48669,-2.2455 z m -0.7764,0.38494 c 0.11533,0 0.21001,0.92386 0.21001,2.05302 0,2.01879 -0.0107,2.05303 -0.64157,2.05303 -0.35286,0 -0.64314,-0.0866 -0.64508,-0.19247 -0.0103,-0.60145 0.90089,-3.91358 1.07664,-3.91358 z m -7.52892,3.59279 c 0.38195,0 0.55335,0.15878 0.55335,0.51326 0,0.28228 -0.04,0.51325 -0.0887,0.51325 -0.0487,0 -0.29738,-0.23097 -0.55285,-0.51325 -0.45081,-0.49813 -0.44855,-0.51326 0.0882,-0.51326 z m 1.61946,0 c 0.53679,0 0.53956,0.0151 0.0887,0.51326 -0.25547,0.28228 -0.50467,0.51325 -0.55336,0.51325 -0.0487,0 -0.0882,-0.23097 -0.0882,-0.51325 0,-0.35448 0.17091,-0.51326 0.55285,-0.51326 z m 12.65446,0 c 0.22288,0 0.39397,0.22289 0.39397,0.51326 0,0.28228 -0.0537,0.51325 -0.1193,0.51325 -0.0656,0 -0.24288,-0.23097 -0.39396,-0.51325 -0.21924,-0.40966 -0.19516,-0.51326 0.11929,-0.51326 z m 1.46007,0 c 0.53679,0 0.53956,0.0151 0.0887,0.51326 -0.25547,0.28228 -0.50466,0.51325 -0.55335,0.51325 -0.0487,0 -0.0882,-0.23097 -0.0882,-0.51325 0,-0.35448 0.17091,-0.51326 0.55285,-0.51326 z m -2.30714,0.17292 0.60097,0.74783 0.60147,0.74733 -0.68668,0.72778 c -0.37753,0.40029 -0.88677,0.83698 -1.13177,0.96987 -0.38909,0.21105 -0.41584,0.1633 -0.21102,-0.37541 0.12897,-0.33921 0.36785,-1.11156 0.5308,-1.7167 z m -14.21629,0.34535 c 0.1155,0.0127 0.43442,0.25347 0.76788,0.58693 l 0.6932,0.6927 -0.98391,0.96185 -0.9839,0.96136 0.17943,-1.53977 c 0.0987,-0.84688 0.23001,-1.59101 0.29122,-1.65405 0.008,-0.008 0.0196,-0.0108 0.0361,-0.009 z m 3.19933,0.003 c 0.0141,0.001 0.0254,0.006 0.0331,0.015 0.0495,0.0579 0.32981,0.82702 0.62303,1.70918 0.29322,0.88216 0.51168,1.60179 0.48569,1.59791 -0.18597,-0.0252 -2.22846,-2.10864 -2.22846,-2.27306 0,-0.24205 0.87559,-1.06592 1.08666,-1.04907 z m 14.13258,0.0105 c 0.017,2.6e-4 0.0304,0.005 0.0396,0.014 0.0734,0.0734 0.23112,0.84686 0.35035,1.7187 0.11926,0.87185 0.18738,1.58488 0.15188,1.58488 -0.0355,0 -0.47367,-0.4908 -0.97389,-1.09066 l -0.90922,-1.09067 0.62353,-0.62754 c 0.3002,-0.3022 0.59865,-0.51061 0.71775,-0.50875 z m -9.34837,0.49471 c 0.31307,0 0.54483,0.16368 0.54483,0.38495 0,0.21171 -0.10168,0.38494 -0.22555,0.38494 -0.12386,0 -0.36862,-0.17323 -0.54433,-0.38494 -0.26691,-0.3216 -0.23,-0.38495 0.22505,-0.38495 z m 1.47411,0 c 0.341,0 0.35888,0.0697 0.0972,0.38495 -0.17571,0.21171 -0.36327,0.38494 -0.41652,0.38494 -0.0532,0 -0.0967,-0.17323 -0.0967,-0.38494 0,-0.21172 0.18701,-0.38495 0.41602,-0.38495 z m 0.78993,0.37542 c 0.0138,-0.002 0.0235,4e-5 0.0291,0.006 0.0442,0.0438 0.23602,0.66858 0.42604,1.3889 0.19005,0.72033 0.31743,1.3097 0.2832,1.3097 -0.0343,0 -0.51481,-0.39063 -1.06762,-0.86862 l -1.00496,-0.86913 0.64157,-0.52027 c 0.30876,-0.2504 0.59606,-0.4336 0.6927,-0.44609 z m -3.1046,0.0772 c 0.12191,-0.01 0.28835,0.10239 0.59195,0.34885 l 0.61801,0.50173 -0.86111,0.88818 c -0.47351,0.48853 -0.7404,0.88817 -0.59345,0.88817 0.14696,0 0.47632,-0.23097 0.73179,-0.51326 0.64604,-0.71387 0.8982,-0.64182 0.8982,0.25663 0,0.72527 -0.0586,0.76989 -1.01197,0.76989 h -1.01248 l 0.0857,-1.25458 c 0.047,-0.69027 0.18472,-1.43163 0.30625,-1.64702 0.0844,-0.14961 0.15229,-0.23095 0.2471,-0.23859 z m -5.60171,0.78642 0.0998,1.04857 0.10024,1.04857 h -0.96937 c -0.53302,0 -0.96887,-0.0926 -0.96887,-0.20601 0,-0.11345 0.39111,-0.58525 0.86913,-1.04856 z m 14.36516,0.0491 c 0.10585,0.003 0.57436,0.46447 1.04104,1.02651 l 0.84808,1.0215 h -1.04055 -1.04105 v -1.02651 c 0,-0.56459 0.0866,-1.02441 0.19248,-1.0215 z m -13.72759,0.11026 c 0.10745,-0.004 0.5787,0.38937 1.09317,0.91625 l 0.99744,1.0215 h -0.9383 c -0.87191,0 -0.9511,-0.0643 -1.10971,-0.90973 -0.0939,-0.50059 -0.12054,-0.9606 -0.0591,-1.022 0.004,-0.004 0.009,-0.006 0.0165,-0.006 z m 12.82086,0.43407 c 0.23118,-0.026 0.24631,0.26123 0.0927,0.87313 v 5.2e-4 c -0.13295,0.5297 -0.31141,0.62944 -1.11573,0.62653 l -0.95734,-0.004 1.02651,-0.87214 c 0.4637,-0.39396 0.77403,-0.60379 0.95383,-0.62403 z m -5.95807,0.19447 0.8982,0.68518 c 0.494,0.3768 0.89819,0.72908 0.89819,0.78292 0,0.0538 -0.40419,0.0977 -0.89819,0.0977 -0.83021,0 -0.8982,-0.0592 -0.8982,-0.78292 z m 7.50185,1.82246 h 1.08566 l -0.94381,0.64157 c -0.51928,0.35286 -1.00808,0.64157 -1.08616,0.64157 -0.0781,0 -0.14184,-0.28871 -0.14184,-0.64157 0,-0.58328 0.0987,-0.64157 1.08615,-0.64157 z m -13.27598,5.2e-4 c 0.49401,0 0.8982,0.0357 0.8982,0.0797 0,0.044 -0.33333,0.32678 -0.74082,0.62804 -0.7881,0.58268 -1.05558,0.52233 -1.05558,-0.23758 0,-0.36662 0.19831,-0.47015 0.8982,-0.47015 z m 10.84253,0.008 c 0.6658,-0.007 0.83404,0.095 0.83404,0.50474 0,0.64727 -0.29329,0.64992 -1.0626,0.009 l -0.60548,-0.50474 z m -12.97675,0.0151 c 0.32688,-0.0105 0.58828,0.0134 0.63956,0.0647 0.0684,0.0684 0.0863,0.36184 0.0396,0.6521 -0.0847,0.5265 -0.0869,0.52638 -0.98291,-0.0421 l -0.89819,-0.5699 0.8586,-0.0822 c 0.11807,-0.0113 0.23438,-0.019 0.34334,-0.0226 z m 11.62945,0.22155 0.96236,0.6566 c 0.5293,0.36109 0.96235,0.74653 0.96235,0.8566 0,0.11007 -0.44892,0.45208 -0.99744,0.76036 -0.54851,0.30828 -1.05453,0.56087 -1.12475,0.56087 -0.30231,0 -0.37089,-1.46527 -0.0992,-2.11968 z m -6.39665,0.0115 h 1.08115 c 1.02994,0 1.08114,0.0363 1.08114,0.76988 0,0.94938 -0.15212,0.94809 -1.27361,-0.0105 z m 3.58878,0 c 0.5138,0 0.84693,0.10694 0.76187,0.2446 -0.0832,0.13456 -0.49407,0.48895 -0.91324,0.78742 l -0.76186,0.54233 v -0.78692 c 0,-0.73121 0.065,-0.78743 0.91323,-0.78743 z m -5.23982,0.007 c 0.29026,-0.0126 0.50857,1.31713 0.34134,2.07859 -0.19783,0.90072 -0.26875,0.90464 -1.49015,0.0747 l -0.97539,-0.66262 0.9799,-0.74181 c 0.53888,-0.40792 1.05371,-0.74496 1.1443,-0.74884 z m 1.45807,0.37843 c 0.16669,-0.004 0.45757,0.24637 1.09267,0.85058 l 1.13428,1.07864 -0.72026,0.63906 c -0.39602,0.35141 -0.80691,0.63907 -0.91324,0.63907 -0.32575,0 -0.98941,-2.4242 -0.80647,-2.94571 0.0578,-0.1647 0.11301,-0.25904 0.21302,-0.26164 z m -6.81117,0.0261 c 0.1083,0.003 0.29666,0.24198 0.70172,0.77791 l 0.74933,0.99193 -0.82602,0.6987 c -0.45425,0.38435 -0.91347,0.70185 -1.021,0.70573 -0.1806,0.006 -0.073,-1.33508 0.22355,-2.7813 0.0523,-0.25503 0.0882,-0.39531 0.17242,-0.39297 z m 11.79286,0.0647 c 0.12605,-0.005 0.18278,0.12078 0.26715,0.34886 0.12178,0.32919 0.0382,1.02589 -0.21302,1.78236 -0.22689,0.68308 -0.43812,1.24204 -0.46965,1.24204 -0.0315,0 -0.43401,-0.38884 -0.89419,-0.86362 l -0.83654,-0.86311 1.1067,-0.91925 c 0.60043,-0.49874 0.87748,-0.72089 1.03955,-0.72728 z m 6.81367,0.019 c 0.21714,-0.007 0.30163,0.43653 0.38544,1.36083 0.0804,0.88165 0.1188,1.62957 0.0862,1.66206 -0.0325,0.0325 -0.48249,-0.24181 -0.99994,-0.60999 l -0.94081,-0.66964 0.49321,-0.69269 c 0.48924,-0.68707 0.7843,-1.04437 0.97589,-1.05057 z m -17.68277,0.0481 c 0.11915,0.001 0.38846,0.15762 0.80046,0.47466 0.47635,0.36656 0.56712,0.56893 0.35236,0.78442 -0.21493,0.21571 -0.43372,0.0871 -0.85158,-0.49972 -0.3594,-0.50472 -0.45442,-0.76073 -0.30124,-0.75936 z m 16.8768,0.0396 c 0.0671,0.004 0.004,0.12633 -0.12681,0.37141 -0.35493,0.66317 -0.94295,1.13514 -1.15282,0.92526 -0.2999,-0.29988 -0.18391,-0.47718 0.62553,-0.95533 0.39001,-0.23037 0.58699,-0.34515 0.6541,-0.34134 z m -1.84151,1.31271 c 0.0586,5.2e-4 0.14405,0.0573 0.26766,0.15989 0.2952,0.245 0.31824,0.40626 0.0967,0.67315 -0.40992,0.49388 -0.48468,0.4438 -0.48468,-0.32229 0,-0.35722 0.0227,-0.5118 0.12029,-0.51075 z m -13.42084,0.19548 c 0.0523,0.002 0.0962,0.0165 0.12381,0.0441 0.0736,0.0737 0.0948,0.33417 0.0471,0.57892 -0.0782,0.40095 -0.11979,0.40534 -0.42003,0.0431 -0.23916,-0.28859 -0.25252,-0.45197 -0.0471,-0.57891 0.0984,-0.0608 0.20902,-0.091 0.29622,-0.0872 z m 0.93479,0.14035 c 0.15206,0.0179 0.41228,0.15898 0.82051,0.39095 0.59461,0.33789 1.00041,0.74807 0.96035,0.97038 -0.0402,0.22285 -0.40514,0.41762 -0.86662,0.46263 -0.71348,0.0697 -0.81435,-0.008 -0.96035,-0.73781 -0.1607,-0.80345 -0.20731,-1.11598 0.0461,-1.08615 z m 11.68108,0.0591 c 0.27662,-0.0161 0.24399,0.36311 0.01,1.23803 -0.11232,0.41913 -0.34602,0.57741 -0.85208,0.57741 -1.36498,0 -1.3692,-0.48358 -0.0125,-1.38138 0.41211,-0.27272 0.68912,-0.42437 0.8551,-0.43406 z m -13.58474,0.28169 0.58243,0.54734 c 0.32055,0.30114 0.52218,0.64624 0.44759,0.76687 -0.0746,0.12064 -0.73541,0.21484 -1.46809,0.20902 l -1.33176,-0.0105 0.88467,-0.75635 z m 4.58372,0.0336 c 0.0413,0.009 0.10971,0.10792 0.22154,0.30023 0.14981,0.25759 0.22334,0.51748 0.1634,0.57742 -0.18188,0.18188 -0.45231,-0.20739 -0.44359,-0.63957 0.003,-0.16686 0.0174,-0.24721 0.0587,-0.23808 z m 10.85756,0.1213 c 0.18328,-0.009 0.3989,0.12485 0.82552,0.42303 0.44918,0.31395 0.8181,0.65751 0.82101,0.76337 0.003,0.10585 -0.5729,0.19247 -1.27862,0.19247 -1.39366,0 -1.65583,-0.35366 -0.82152,-1.10871 0.18772,-0.16987 0.31107,-0.26315 0.45361,-0.27016 z m -7.2347,0.1654 c 0.072,0.006 0.19783,0.11691 0.41702,0.31527 0.28229,0.25548 0.51326,0.5619 0.51326,0.68117 0,0.11926 -0.23097,0.21703 -0.51326,0.21703 -0.38438,0 -0.51325,-0.17141 -0.51325,-0.68167 0,-0.37411 0.004,-0.53946 0.0962,-0.5318 z m -0.69119,0.01 c 0.10747,-0.0196 0.0872,0.12919 0.0391,0.46915 -0.0565,0.39908 -0.28265,0.63365 -0.66312,0.68768 -0.75808,0.10767 -0.72015,-0.22293 0.0937,-0.816 0.28597,-0.20839 0.44671,-0.32556 0.5303,-0.34083 z m 3.25447,0.009 c 0.0233,0.004 0.051,0.043 0.0817,0.11979 0.0741,0.18526 0.0652,0.40645 -0.02,0.49171 -0.0853,0.0853 -0.14598,-0.0663 -0.13483,-0.33683 0.008,-0.18684 0.0343,-0.28056 0.0732,-0.27467 z m -10.74329,1.45105 c 1.39719,0 1.41145,0.008 1.41145,0.76988 0,0.42344 -0.0866,0.76465 -0.19247,0.75786 -0.2961,-0.0184 -2.63043,-1.26473 -2.63043,-1.40444 0,-0.0679 0.63515,-0.1233 1.41145,-0.1233 z m 2.71314,0 c 0.59196,0 0.76799,0.10396 0.70572,0.41802 -0.0456,0.23014 -0.32876,0.58138 -0.62904,0.78041 -0.4789,0.31739 -0.56558,0.31109 -0.70572,-0.0541 -0.32917,-0.85779 -0.17161,-1.1443 0.62904,-1.1443 z m 3.83087,0 c 0.28229,0 0.51326,0.10118 0.51326,0.22505 0,0.33652 -0.66333,0.82231 -0.8576,0.62804 -0.35133,-0.35134 -0.14881,-0.85309 0.34434,-0.85309 z m 2.39787,0 c 0.37474,0 0.67959,0.0866 0.67765,0.19247 -0.002,0.10586 -0.0974,0.33951 -0.21151,0.51927 -0.15845,0.24967 -0.31817,0.20421 -0.67716,-0.19247 -0.4606,-0.50894 -0.45672,-0.51927 0.21102,-0.51927 z m 2.20589,0 c 0.14948,0 0.27217,0.11548 0.27217,0.25663 0,0.14114 -0.051,0.25663 -0.11328,0.25663 -0.0623,0 -0.18446,-0.11549 -0.27166,-0.25663 -0.0872,-0.14115 -0.0367,-0.25663 0.11277,-0.25663 z m 1.55531,0 c 0.56364,0 0.76878,0.12031 0.76587,0.4491 -0.008,0.87119 -0.3565,1.11786 -0.97137,0.68718 -0.82316,-0.57656 -0.72175,-1.13628 0.2055,-1.13628 z m 1.28314,0 h 1.58237 c 0.8704,0 1.53439,0.0374 1.47561,0.0832 -0.0588,0.0458 -0.77079,0.45077 -1.58237,0.90021 l -1.47561,0.81699 v -0.9002 z m -8.78399,0.29522 c 0.21536,-0.0246 0.31504,0.18231 0.42955,0.63857 0.13256,0.52814 0.0153,0.83887 -0.53331,1.41145 -0.75785,0.79104 -0.83861,0.82413 -1.29015,0.53681 -0.46506,-0.2959 -0.0964,-1.55463 0.62001,-2.11818 0.369,-0.29025 0.60639,-0.44949 0.7739,-0.46865 z m 5.18218,0.002 c 0.15468,0.0119 0.37206,0.15326 0.70723,0.41401 0.34926,0.27171 0.59772,0.78041 0.64157,1.31371 0.0938,1.13953 -0.29689,1.23947 -1.19192,0.30525 -0.56043,-0.58495 -0.68749,-0.90698 -0.55987,-1.41546 0.10897,-0.43418 0.20411,-0.63285 0.40299,-0.61751 z m -2.81389,0.10174 v 1.98185 c 0,1.08996 -0.0339,1.98185 -0.0752,1.98185 -0.0413,0 -0.29287,-0.64038 -0.55887,-1.42298 l -0.48368,-1.42298 0.55886,-0.55887 z m 0.51326,0 0.54333,0.54333 0.54383,0.54383 -0.52328,1.50218 -0.52328,1.50268 -0.0206,-2.04601 z m -9.90223,0.11429 c 0.33265,0 2.97327,1.40884 2.97327,1.58638 0,0.10811 -0.34093,0.37259 -0.75735,0.58793 -0.41643,0.21535 -0.80241,0.39196 -0.8576,0.39196 -0.0551,0 -0.41435,-0.5774 -0.79845,-1.28313 -0.3841,-0.70573 -0.63611,-1.28314 -0.55987,-1.28314 z m 19.01202,0.0541 c 0.009,10e-4 0.0155,0.004 0.0195,0.008 0.0643,0.0643 -0.18385,0.65408 -0.55085,1.3107 -0.36699,0.65662 -0.74375,1.19289 -0.83754,1.19192 -0.0938,-0.001 -0.4983,-0.21769 -0.8987,-0.48168 l -0.72778,-0.47967 1.44904,-0.82903 c 0.74712,-0.42746 1.41304,-0.7358 1.54628,-0.71976 z m -19.4927,0.0742 0.70022,1.25106 c 0.38527,0.68823 0.70071,1.33077 0.70071,1.42799 0,0.0972 -0.40419,0.36942 -0.8982,0.60498 l -0.89819,0.42855 0.0145,-0.83003 c 0.008,-0.45644 0.0974,-1.29146 0.19798,-1.85604 z m 20.03001,0.27668 c 0.0141,-0.003 0.0242,0.002 0.0291,0.017 0.0387,0.1205 0.16793,0.94129 0.2872,1.82346 0.11921,0.88215 0.14921,1.60343 0.0667,1.60292 -0.0825,-5.1e-4 -0.53125,-0.23354 -0.99744,-0.51777 l -0.84808,-0.51676 0.71074,-1.3052 c 0.3419,-0.62816 0.65333,-1.08106 0.75184,-1.1037 z m -14.67039,0.65059 c 0.10524,0.009 0.14732,0.0992 0.0992,0.24359 -0.0618,0.18525 -0.26384,0.38732 -0.4491,0.4491 -0.19244,0.0642 -0.28866,-0.0321 -0.22455,-0.22455 0.0618,-0.18525 0.26384,-0.38731 0.4491,-0.4491 0.0481,-0.016 0.0902,-0.022 0.12531,-0.019 z m 9.37894,0.0356 c 0.045,7.7e-4 0.10297,0.0155 0.17493,0.0431 0.21297,0.0817 0.43564,0.14887 0.49471,0.14887 0.059,0 0.10727,0.10301 0.10727,0.22905 0,0.49665 -0.72429,0.48773 -0.85459,-0.0105 -0.0752,-0.28761 -0.0573,-0.41264 0.0777,-0.4105 z m -2.80035,0.37392 0.63355,0.59496 c 0.34855,0.32743 0.63406,0.63465 0.63406,0.68267 0,0.048 -0.37533,0.31626 -0.83405,0.59595 -1.34021,0.81714 -1.39922,0.70529 -0.66362,-1.25908 z m -3.66998,0.0426 0.26114,0.72177 c 0.14357,0.39691 0.34297,0.92386 0.44309,1.17087 0.22056,0.54398 -1e-4,0.54426 -1.09167,0.001 -0.9968,-0.49609 -1.01083,-0.57965 -0.22305,-1.31973 z m 7.76049,0.24661 0.96236,0.57891 c 0.52929,0.31832 0.99895,0.60526 1.04405,0.63756 0.0451,0.0323 -0.0692,0.30092 -0.25412,0.59696 h -5.1e-4 c -0.23352,0.37391 -0.60057,0.53832 -1.20245,0.53832 -0.77325,0 -0.84984,-0.0621 -0.71174,-0.57741 0.0851,-0.31759 0.15645,-0.84679 0.15839,-1.17588 z m -12.06201,0.0591 0.004,0.56889 c 0.002,0.31283 0.0728,0.82872 0.15789,1.14631 0.13895,0.51853 0.0625,0.57741 -0.74633,0.57741 -0.83145,0 -1.21197,-0.32141 -1.21197,-1.0225 0,-0.11567 0.4042,-0.44884 0.8982,-0.74031 z m 0.76537,0.23007 c 0.0618,0.006 0.13843,0.0554 0.22706,0.15487 0.11745,0.13174 0.13681,0.5283 0.0436,0.88116 l -0.16941,0.64157 -0.18896,-0.7363 c -0.15065,-0.58635 -0.0977,-0.95922 0.0877,-0.9413 z m 10.625,0.10275 c 0.0893,-0.006 0.14776,0.0735 0.14034,0.21201 -0.01,0.18477 -0.11727,0.56728 -0.23858,0.84958 -0.19698,0.4583 -0.22248,0.4392 -0.23859,-0.17743 -0.01,-0.37982 0.0974,-0.76188 0.23859,-0.84908 0.0353,-0.0218 0.0685,-0.0332 0.0982,-0.0351 z m -9.46316,0.50924 c 0.0861,-0.008 0.17081,0.0315 0.23408,0.13383 0.0788,0.12745 -0.0289,0.37442 -0.23909,0.54884 -0.31073,0.25785 -0.38193,0.24252 -0.38193,-0.0837 0,-0.3294 0.19751,-0.58072 0.38694,-0.59897 z m 8.32287,0.16741 c 0.14947,0 0.27216,0.11549 0.27216,0.25663 0,0.14115 -0.051,0.25663 -0.11327,0.25663 -0.0622,0 -0.18447,-0.11548 -0.27167,-0.25663 -0.0872,-0.14114 -0.0367,-0.25663 0.11278,-0.25663 z m -7.57002,0.4095 c 0.16664,-0.0126 0.37413,0.0822 0.75184,0.27417 0.44158,0.22443 0.85094,0.45107 0.90972,0.50374 0.0588,0.0526 -0.50745,0.0957 -1.25858,0.0957 -1.34083,0 -1.3578,-0.009 -0.91023,-0.50373 0.21447,-0.23696 0.3406,-0.35724 0.50725,-0.36991 z m 6.95852,0 c 0.16665,0.0127 0.29278,0.13293 0.50724,0.36991 0.44758,0.495 0.4311,0.50373 -0.90972,0.50373 -1.50053,0 -1.50728,-0.011 -0.34936,-0.59947 0.37772,-0.19198 0.5852,-0.28683 0.75184,-0.27417 z m -12.04297,0.13233 c 0.21729,0 0.35342,0.11877 0.44459,0.35637 0.11721,0.30543 -0.0757,0.38221 -0.93478,0.37542 -1.06795,-0.009 -1.07396,-0.0136 -0.44108,-0.37542 0.41563,-0.2376 0.71399,-0.35637 0.93127,-0.35637 z m 17.02316,0.0516 c 0.15642,-10e-4 0.34994,0.0891 0.68417,0.27016 l 0.73681,0.39898 -1.14581,0.01 c -1.04858,0.009 -1.11086,-0.0244 -0.7363,-0.39898 0.18572,-0.18573 0.3047,-0.27878 0.46113,-0.28019 z m -15.65531,1.20245 h 0.64658 c 0.58355,0 0.64709,0.10044 0.64709,1.02651 0,0.56458 -0.0556,1.02651 -0.1233,1.02651 -0.0677,0 -0.35856,-0.46193 -0.64659,-1.02651 z m 13.48349,0 c 0.77349,0 0.7883,0.14062 0.13082,1.21898 -0.27969,0.45872 -0.56792,0.83404 -0.64056,0.83404 -0.0726,0 -0.13183,-0.46193 -0.13183,-1.02651 0,-0.92386 0.0642,-1.02651 0.64157,-1.02651 z m 2.38033,10e-4 1.21247,0.001 -0.80347,0.4897 c -1.29313,0.7885 -2.40438,1.32955 -2.40438,1.17036 0,-0.0812 0.17611,-0.48829 0.39145,-0.90472 0.3499,-0.67664 0.52048,-0.75712 1.60393,-0.75635 z m -17.50483,0.003 c 1.23392,-0.003 1.3216,0.042 1.72822,0.89469 0.23515,0.494 0.34317,0.89039 0.23959,0.88166 -0.10358,-0.009 -0.88085,-0.41206 -1.72772,-0.89519 l -1.53977,-0.87865 z m 5.21776,0.006 c 0.13584,-7.7e-4 0.29083,2.3e-4 0.46665,0.002 l 1.48463,0.0105 -0.8982,0.49171 c -1.15125,0.63029 -1.45908,0.63029 -1.79639,0 -0.2277,-0.42543 -0.20755,-0.49884 0.74331,-0.50374 z m 6.50642,0.002 c 1.48516,-0.0108 1.73461,0.14049 1.16736,0.70773 -0.40967,0.40967 -0.67954,0.37769 -1.74477,-0.2055 l -0.8982,-0.4917 z m -13.39928,0.31227 c 0.1965,-0.0163 3.34545,1.67316 3.65945,1.97082 0.11252,0.10664 -0.38273,0.43793 -1.10069,0.7363 l -1.3057,0.54283 -0.21602,-0.56739 c -0.11879,-0.31207 -0.40256,-1.01479 -0.63105,-1.56132 -0.22849,-0.54654 -0.41551,-1.04798 -0.41551,-1.11423 0,-0.004 0.003,-0.006 0.01,-0.007 z m 20.70516,0.0521 c 0.009,-0.001 0.0145,-7.7e-4 0.017,0.002 0.0405,0.0385 -0.16959,0.69118 -0.46714,1.45055 -0.29757,0.75936 -0.62142,1.46295 -0.71926,1.56383 -0.0978,0.10089 -0.74719,-0.0778 -1.44303,-0.39747 l -1.2651,-0.58143 1.91068,-1.05257 c 0.98511,-0.54283 1.83154,-0.96535 1.96681,-0.98441 z m -10.92624,0.14285 c 0.43193,-0.0121 0.40323,0.88191 -0.0732,2.29261 -0.28825,0.85357 -0.56349,1.5518 -0.6115,1.5518 -0.13365,0 -1.14831,-1.46734 -1.14831,-1.66056 0,-0.23603 1.63012,-2.17803 1.83298,-2.18385 z m -4.12659,0.009 c 0.11531,0.0133 0.24507,0.14109 0.34133,0.39195 0.0857,0.22327 0.15589,0.45419 0.15589,0.51326 0,0.059 -0.17323,0.10726 -0.38495,0.10726 -0.21385,0 -0.38494,-0.22811 -0.38494,-0.51325 0,-0.34418 0.1244,-0.51634 0.27267,-0.49922 z m 6.29089,0.0341 c 0.22971,0.016 1.59343,0.63313 1.84702,0.84607 0.0386,0.0324 -0.003,0.24876 -0.0917,0.48068 -0.089,0.23192 -0.2566,0.42153 -0.37242,0.42153 -0.24483,0 -1.54819,-1.60804 -1.41295,-1.74327 0.005,-0.005 0.0147,-0.006 0.0301,-0.005 z m 3.32313,0.0426 c 0.0971,-0.0143 0.1218,0.10705 0.1218,0.39146 0,0.31308 -0.16368,0.54433 -0.38494,0.54433 -0.21172,0 -0.38494,-0.10119 -0.38494,-0.22505 0,-0.12386 0.17322,-0.36912 0.38494,-0.54483 0.1206,-0.10009 0.2049,-0.15732 0.26314,-0.16591 z m -6.45329,0.0115 c 0.0531,-0.005 0.0899,-2.6e-4 0.10576,0.0155 0.0855,0.0855 -0.19425,0.505 -0.62152,0.93228 -0.69421,0.69421 -0.81237,0.73351 -1.11373,0.37041 -0.18548,-0.22349 -0.29196,-0.44654 -0.23657,-0.49572 0.32705,-0.29051 1.49425,-0.78785 1.86606,-0.82251 z m 2.27908,0.14285 c 0.19422,-0.0204 0.55002,0.27019 1.05558,0.88717 l 0.95484,1.16535 -0.57341,0.7759 c -0.31553,0.42679 -0.5995,0.7759 -0.63054,0.7759 -0.0311,0 -0.29532,-0.70736 -0.58744,-1.57235 -0.4418,-1.30825 -0.50289,-2.0022 -0.21903,-2.03197 z m 9.96889,0.17593 c 0.0991,-0.0105 0.24746,0.69294 0.34083,1.64051 0.0997,1.01075 0.14444,1.87062 0.0993,1.91068 -0.0452,0.04 -0.44488,-0.10168 -0.88818,-0.31477 l -0.80597,-0.38745 0.52829,-1.31422 c 0.29058,-0.72271 0.60844,-1.40827 0.70673,-1.52322 0.006,-0.007 0.0125,-0.0108 0.0191,-0.0115 z m -21.29059,0.29071 c 0.18766,0.028 0.47108,0.69069 0.99192,2.00942 0.1797,0.455 0.0711,0.60759 -0.69069,0.97087 l -0.90371,0.43106 0.18395,-1.61245 c 0.13901,-1.22019 0.23086,-1.82693 0.41853,-1.7989 z m 6.44827,0.55586 c 0.64157,0.008 1.28899,0.76954 0.90371,1.23452 -0.31159,0.37624 -0.40012,0.37707 -1.16535,0.008 -0.73629,-0.35511 -0.74109,-0.926 -0.01,-1.19643 0.0884,-0.0327 0.18001,-0.0472 0.27167,-0.0461 z m 8.19606,0.0316 c 0.1445,-0.003 0.32375,0.0463 0.56739,0.13984 0.55709,0.21375 0.50958,0.79695 -0.0907,1.11824 -0.97872,0.52377 -1.52104,0.13217 -1.04605,-0.75535 0.18422,-0.34423 0.32855,-0.49722 0.56939,-0.50273 z m -9.99696,0.71274 -0.18395,0.9809 c -0.10124,0.53964 -0.23819,1.06895 -0.30425,1.17588 -0.2345,0.37943 -2.15238,0.21174 -2.31115,-0.202 -0.18564,-0.48374 -0.25869,-0.41844 1.41947,-1.26158 z m 12.02692,0.21252 c 0.13227,-0.021 0.7059,0.19532 1.3889,0.5303 0.92022,0.45132 1.39341,0.83411 1.3453,1.08816 -0.0494,0.26094 -0.43253,0.41756 -1.14681,0.46965 -1.04499,0.0761 -1.07964,0.0531 -1.34379,-0.8982 -0.14912,-0.53698 -0.2714,-1.06152 -0.27216,-1.16585 -10e-5,-0.013 0.01,-0.0211 0.0286,-0.024 z m -8.90478,0.5298 c 0.16934,0.0147 0.38126,0.19064 0.59846,0.51776 0.42998,0.64759 0.4214,0.65328 -0.39246,0.26114 -0.32155,-0.15493 -0.54951,-0.38688 -0.50674,-0.51526 0.063,-0.18887 0.16903,-0.27504 0.30074,-0.26364 z m 5.83126,0.0802 c 0.13327,-0.0112 0.22055,0.0661 0.22055,0.23608 0,0.13618 -0.23097,0.3712 -0.51326,0.52228 -0.56526,0.30251 -0.68991,0.0228 -0.20551,-0.46163 0.18553,-0.18551 0.36496,-0.28554 0.49822,-0.29673 z m -3.19882,0.0561 c 0.0438,-0.01 0.0561,0.14786 0.0652,0.49471 0.01,0.37983 -0.0974,0.76238 -0.23859,0.84958 -0.30637,0.18935 -0.30637,-0.31355 0,-1.02651 0.0862,-0.20051 0.13932,-0.31006 0.17343,-0.31778 z m 5.67488,0.0426 c 0.0172,7.7e-4 0.0354,0.006 0.0541,0.018 0.14114,0.0872 0.25662,0.44089 0.25662,0.78543 0,0.34453 -0.11548,0.62603 -0.25662,0.62603 -0.14116,0 -0.25663,-0.35315 -0.25663,-0.78492 0,-0.40075 0.0817,-0.65036 0.20249,-0.64458 z m -4.99071,0.001 c 0.0352,-0.0102 0.0881,0.086 0.16892,0.27417 0.1213,0.28229 0.22869,0.65761 0.23858,0.83404 0.01,0.17643 -0.0974,0.32079 -0.23858,0.32079 -0.14115,0 -0.24848,-0.37532 -0.23859,-0.83404 0.008,-0.39316 0.0245,-0.58187 0.0697,-0.59496 z m -5.01427,0.0196 c 0.0493,-0.006 0.10866,0.006 0.17894,0.0331 0.21172,0.0812 0.38494,0.23709 0.38494,0.34585 0,0.10877 -0.17322,0.34105 -0.38494,0.51677 -0.32529,0.27 -0.38494,0.21661 -0.38494,-0.34535 0,-0.3642 0.0582,-0.53386 0.206,-0.55034 z m 9.0316,0.0225 c 0.10831,-0.002 0.17695,0.0788 0.21302,0.2436 h -5.1e-4 c 0.15229,0.6952 -0.0878,0.96067 -0.46163,0.51025 -0.30783,-0.3713 -0.30617,-0.46546 0.01,-0.66313 0.0951,-0.0594 0.1741,-0.0898 0.23908,-0.0907 z m -9.95486,0.21202 c 0.11877,-0.0139 0.204,0.19187 0.204,0.51777 0,0.36119 -0.11548,0.65711 -0.25662,0.65711 -0.14115,0 -0.25663,-0.22426 -0.25663,-0.49822 0,-0.27397 0.11548,-0.56941 0.25663,-0.65661 0.0182,-0.0112 0.0357,-0.0181 0.0526,-0.02 z m -3.86395,0.42354 c 0.14898,0.001 0.21854,0.12351 0.21854,0.3664 0,0.25083 -0.24588,0.38177 -0.70573,0.37692 -0.67598,-0.008 -0.68466,-0.0241 -0.20751,-0.38494 0.31737,-0.24025 0.54572,-0.35966 0.6947,-0.35838 z m 5.93502,0.0481 c 0.24636,-0.0145 0.54511,0.085 0.83254,0.30224 0.48021,0.36296 0.45374,0.3847 -0.47567,0.39245 -0.67547,0.006 -0.95047,-0.0925 -0.87714,-0.31276 0.0795,-0.23888 0.27392,-0.36741 0.52027,-0.38193 z m 6.83322,0.018 c 0.22523,-0.0137 0.39025,0.11317 0.47917,0.37993 0.0652,0.19556 -0.20487,0.30157 -0.75384,0.29672 -0.81134,-0.008 -0.82933,-0.0278 -0.35236,-0.38845 0.24041,-0.18177 0.45185,-0.27753 0.62703,-0.2882 z m 6.01572,0.0596 c 0.16137,-5.1e-4 0.36489,0.0782 0.57942,0.24059 0.46135,0.34918 0.45013,0.36866 -0.21854,0.37642 -0.38815,0.004 -0.70572,-0.10025 -0.70572,-0.23307 0,-0.25156 0.13736,-0.3832 0.34484,-0.38394 z m -10.00047,0.87013 c 0.23611,-0.0228 0.41702,0.37976 0.41702,1.16686 0,1.21912 -0.14097,1.35556 -0.8576,0.83153 -0.3752,-0.27435 -0.39786,-0.44916 -0.15187,-1.15482 0.19198,-0.55071 0.40881,-0.82585 0.59245,-0.84357 z m -9.38145,0.012 c 0.98237,0 1.09658,0.0725 1.45455,0.92927 0.21362,0.51125 0.38846,0.97317 0.38846,1.02651 0,0.29405 -1.921,-0.97387 -2.80186,-1.84952 -0.0588,-0.0585 0.37263,-0.10626 0.95885,-0.10626 z m 2.50162,0 c 0.74899,0 0.89237,0.0817 0.78893,0.4491 -0.0695,0.247 -0.20188,0.82442 -0.29422,1.28314 -0.0923,0.45872 -0.24517,0.83355 -0.33983,0.83303 -0.16867,-0.001 -1.07012,-2.00238 -1.07012,-2.37581 0,-0.10433 0.41173,-0.18946 0.91524,-0.18946 z m 1.77935,0 c 0.21172,0 0.38184,0.0866 0.37893,0.19247 -0.003,0.10586 -0.24365,0.48118 -0.53481,0.83404 l -0.5293,0.64157 0.14636,-0.64157 c 0.0807,-0.35286 0.14843,-0.72818 0.15037,-0.83404 0.002,-0.10586 0.17673,-0.19247 0.38845,-0.19247 z m 6.39064,0 c 0.50297,0 0.98319,1.43249 0.58343,1.74026 -0.85534,0.65846 -0.94331,0.6054 -0.94331,-0.5704 0,-0.83261 0.1038,-1.16986 0.35988,-1.16986 z m 2.46303,0 c 0.46809,0 0.73439,0.1065 0.64157,0.25663 -0.0872,0.14115 -0.37595,0.25662 -0.64157,0.25662 -0.26564,0 -0.55438,-0.11547 -0.64157,-0.25662 -0.0928,-0.15013 0.17346,-0.25663 0.64157,-0.25663 z m 2.40989,0 c 0.19642,0 0.43306,0.30213 0.52579,0.67164 0.22972,0.91528 0.0418,1.01425 -0.46314,0.2436 -0.51204,-0.78153 -0.52128,-0.91524 -0.0626,-0.91524 z m 0.99995,0 h 0.8611 c 0.99474,0 0.99794,0.0103 0.44159,1.46709 -0.2309,0.60459 -0.50422,1.09919 -0.60749,1.09919 -0.10326,0 -0.30204,-0.57742 -0.44158,-1.28314 z m 3.36122,0 c 0.56667,0 0.92052,0.0945 0.78642,0.21051 -0.13408,0.11603 -0.72229,0.57796 -1.30719,1.02651 -1.51318,1.16045 -1.63328,1.11867 -0.94231,-0.3303 0.38898,-0.81574 0.53638,-0.90672 1.46308,-0.90672 z m -13.00983,0.004 c 0.72563,0.003 0.8787,0.0685 0.59295,0.25312 -0.50188,0.32435 -1.211,0.32435 -1.41145,0 -0.0953,-0.15414 0.23134,-0.25506 0.8185,-0.25312 z m 1.2671,0.33883 c 0.0931,0.004 0.0959,0.1054 0.0541,0.32079 -0.10179,0.52504 -0.61101,0.76087 -0.84055,0.38945 -0.0875,-0.14152 0.0856,-0.3879 0.38444,-0.54784 0.20259,-0.10847 0.32957,-0.16517 0.40198,-0.1624 z m 5.8849,0.17092 c 0.0623,0 0.11328,0.11548 0.11328,0.25663 0,0.14114 -0.12269,0.25663 -0.27217,0.25663 -0.14945,0 -0.19997,-0.11549 -0.11277,-0.25663 0.0872,-0.14115 0.20939,-0.25663 0.27166,-0.25663 z m -1.94927,0.0291 c 0.0861,0.002 0.18978,0.0484 0.29272,0.15137 0.18433,0.18431 0.1888,0.32774 0.0135,0.43607 -0.14369,0.0888 -0.33859,0.0366 -0.43306,-0.11629 -0.16765,-0.27124 -0.0625,-0.47648 0.12681,-0.47115 z m -6.2929,0.0571 c 0.041,-0.004 0.0904,0.009 0.14335,0.0421 0.14115,0.0872 0.25663,0.20939 0.25663,0.27166 0,0.0622 -0.11548,0.11328 -0.25663,0.11328 -0.14114,0 -0.25662,-0.1227 -0.25662,-0.27217 0,-0.0934 0.045,-0.14811 0.11327,-0.15488 z m 15.01023,0.0722 c 0.12885,0.006 0.0326,0.44539 -0.2872,1.3072 -0.3032,0.81709 -0.61847,1.55985 -0.70072,1.65053 -0.1678,0.18508 -1.81744,-0.54966 -1.81744,-0.80947 0,-0.14779 1.85822,-1.59015 2.73669,-2.1242 0.0276,-0.0168 0.0503,-0.025 0.0687,-0.0241 z m -21.7422,0.003 c 0.008,5.1e-4 0.0171,0.004 0.0276,0.01 0.16689,0.0994 0.91952,0.64204 1.67209,1.20595 l 1.36835,1.02551 -0.85509,0.45562 c -0.81582,0.43491 -1.24004,0.57123 -1.24004,0.39797 0,-0.0438 -0.28119,-0.79652 -0.62453,-1.67259 -0.32182,-0.82133 -0.46875,-1.43134 -0.34835,-1.42248 z m 15.96657,0.17342 c 0.0901,-0.0132 0.2541,0.15544 0.39196,0.41302 0.19859,0.37113 0.20282,0.53531 0.013,0.53531 -0.31111,0 -0.6501,-0.71976 -0.43857,-0.93128 0.01,-0.01 0.0207,-0.0152 0.0336,-0.017 z m -10.25409,0.18395 c 0.0839,0.007 0.13633,0.0846 0.13633,0.2421 0,0.13618 -0.23653,0.37376 -0.52528,0.52829 -0.48486,0.2595 -0.49984,0.24055 -0.19498,-0.24761 0.21676,-0.34709 0.44415,-0.53384 0.58393,-0.52278 z m 8.38852,0.0837 c 0.3951,-0.0202 0.47594,0.44365 0.10326,1.16435 -0.22736,0.43965 -0.4566,0.79946 -0.50975,0.79946 -0.0531,0 -0.21065,-0.32696 -0.34986,-0.72628 -0.21291,-0.61076 -0.17148,-0.77707 0.26164,-1.04756 0.19639,-0.12265 0.36301,-0.18324 0.49471,-0.18997 z m -6.56957,0.0682 c 0.12617,0.003 0.2953,0.0531 0.50774,0.14986 0.66384,0.30248 0.72323,0.48251 0.47065,1.42499 -0.21562,0.80463 -0.44345,0.72304 -0.94982,-0.33883 -0.39763,-0.83381 -0.40709,-1.24551 -0.0286,-1.23602 z m 4.92104,0.92376 c 0.24056,-0.023 0.32234,0.21663 0.51476,0.84356 0.32108,1.0462 0.23385,1.07801 -0.92075,0.33883 l -0.86011,-0.55035 0.60348,-0.33432 c 0.31699,-0.17579 0.51828,-0.28393 0.66262,-0.29772 z m -3.06049,0.11828 c 0.11317,-0.0134 0.27501,0.056 0.54483,0.201 l 0.62353,0.33482 -0.816,0.42203 c -0.84828,0.43867 -0.98968,0.28379 -0.60548,-0.66262 0.0755,-0.18593 0.13995,-0.28181 0.25312,-0.29523 z"
         sodipodi:nodetypes="sscccssscssccsssssssssssssssccsssssssscssssssccssssssssssssccscccsssssssssssssssssssssssssssssssssssscsssssssssscsssscsssssssssssssssscssssccssscsssscsccscssssssscccsccccsscccsccssccsssccssccssscssssssssssssssssscssscsccssscsccccsssssscsssssscccsssssssssssssssscssscccsssscccscccsscccccccscssccssssccscssccssscsccssscsssscscccssssccsscssssccssccssccsscsscccsscsssssccccscsssssccssccccssssssssssssssscssscsssssscssscsssccsccccssscssssssssssssssssssscssssscsssssssssssssssssssssscssccscccssssssssssssscssccccccsccccsssssssscsccsscsscccsssscscccsssssssssssssccsssccccsccscsccsssccccscccsscscsssssssssssssscsssscsssscscsssccssccssscsssccsscsscccsscccccccsccssscscccssccsssssscscccscssscsssssssssssssssssssssscsscccsscscsscccsssccssscssscssssccssccssscssssssssssssssscssssssssssssssssssssssccssssssssssccsssssssssssssssssssssssssssssssscccccssssssssssssssscssscssssssssscscssssssssssssssssssssssssscsccsscssssssssssssssssssscsssscccsscccsscsssssssssssssssssssssssscccsscccss" />
      <path
         id="path423"
         style="fill:#c30000;fill-opacity:1;stroke-width:0.256628"
         d="m 129.2529,198.41308 v 2.06404 c 0.13182,-0.0788 0.38168,-0.13282 0.67015,-0.13282 1.08776,0 1.08402,-0.95278 -0.005,-1.36384 -0.40647,-0.15343 -0.67682,-0.38955 -0.66162,-0.56738 z m 1.99539,0.98139 c -0.22533,0.005 -0.29873,0.13089 -0.29873,0.43206 0,0.40561 0.18116,0.5263 0.83403,0.55636 0.77629,0.0358 0.78518,0.0459 0.12833,0.14536 -0.58321,0.0884 -0.70574,0.23609 -0.70574,0.85158 0,0.60325 0.0854,0.71261 0.4491,0.5744 1.13755,-0.43223 2.88707,-1.57154 2.88707,-1.88009 0,-0.11627 -0.54854,-0.28251 -1.21899,-0.3694 -0.67043,-0.0869 -1.47881,-0.21161 -1.79639,-0.27719 -0.11187,-0.0231 -0.20357,-0.0347 -0.27868,-0.0331 z m -1.99539,1.32976 1e-5,2.42692 c 0.11364,-0.47264 0.29636,-0.58508 0.70422,-0.72727 0.55066,-0.19196 0.7358,-0.42153 0.7358,-0.91172 0,-0.55661 -0.11557,-0.65461 -0.76988,-0.65461 -0.28854,0 -0.53836,-0.0545 -0.67015,-0.13332 z"
         sodipodi:nodetypes="ccsscccsssssssscccsssc" />
      <path
         style="color:#000000;clip-rule:nonzero;display:inline;overflow:visible;visibility:visible;isolation:auto;mix-blend-mode:normal;color-interpolation:sRGB;color-interpolation-filters:linearRGB;solid-color:#000000;solid-opacity:1;fill:#7ebae4;fill-opacity:1;fill-rule:evenodd;stroke:none;stroke-width:0.358481;stroke-linecap:butt;stroke-linejoin:round;stroke-miterlimit:4;stroke-dasharray:none;stroke-dashoffset:0;stroke-opacity:1;color-rendering:auto;image-rendering:auto;shape-rendering:auto;text-rendering:auto;enable-background:accumulate"
         d="m 128.68553,233.14819 29.20596,0.001 -3.30069,5.84286 -7.83424,-0.0217 3.89056,6.77972 -1.66825,2.88679 -3.40882,0.004 -5.53271,-9.65319 -7.9694,-0.0162 z"
         id="use4865"
         inkscape:connector-curvature="0"
         sodipodi:nodetypes="cccccccccc" />
      <path
         sodipodi:nodetypes="cccccccccc"
         inkscape:connector-curvature="0"
         id="path4873"
         d="m 122.2948,223.34863 14.60174,25.29382 -6.71041,0.063 -3.89831,-6.79551 -3.92614,6.75919 -3.33415,-0.001 -1.70767,-2.95025 5.59355,-9.61806 -3.9707,-6.9098 z"
         style="color:#000000;clip-rule:nonzero;display:inline;overflow:visible;visibility:visible;isolation:auto;mix-blend-mode:normal;color-interpolation:sRGB;color-interpolation-filters:linearRGB;solid-color:#000000;solid-opacity:1;fill:#5277c3;fill-opacity:1;fill-rule:evenodd;stroke:none;stroke-width:0.358481;stroke-linecap:butt;stroke-linejoin:round;stroke-miterlimit:4;stroke-dasharray:none;stroke-dashoffset:0;stroke-opacity:1;color-rendering:auto;image-rendering:auto;shape-rendering:auto;text-rendering:auto;enable-background:accumulate" />
    </g>
  </g>
</svg>
