<?xml version="1.0" encoding="UTF-8" standalone="no"?>
<!-- Created with Inkscape (http://www.inkscape.org/) -->

<svg
   width="141.60143mm"
   height="122.84469mm"
   viewBox="0 0 141.60143 122.84469"
   version="1.1"
   id="svg749"
   xml:space="preserve"
   inkscape:version="1.2.1 (9c6d41e410, 2022-07-14)"
   sodipodi:docname="nixug-dresden.svg"
   xmlns:inkscape="http://www.inkscape.org/namespaces/inkscape"
   xmlns:sodipodi="http://sodipodi.sourceforge.net/DTD/sodipodi-0.dtd"
   xmlns:xlink="http://www.w3.org/1999/xlink"
   xmlns="http://www.w3.org/2000/svg"
   xmlns:svg="http://www.w3.org/2000/svg"><sodipodi:namedview
     id="namedview751"
     pagecolor="#ffffff"
     bordercolor="#000000"
     borderopacity="0.25"
     inkscape:showpageshadow="2"
     inkscape:pageopacity="0.0"
     inkscape:pagecheckerboard="0"
     inkscape:deskcolor="#d1d1d1"
     inkscape:document-units="mm"
     showgrid="false"
     inkscape:zoom="1.0973349"
     inkscape:cx="236.9377"
     inkscape:cy="214.61087"
     inkscape:window-width="1920"
     inkscape:window-height="1012"
     inkscape:window-x="1280"
     inkscape:window-y="0"
     inkscape:window-maximized="1"
     inkscape:current-layer="layer4" /><defs
     id="defs746"><linearGradient
       inkscape:collect="always"
       id="linearGradient5562"><stop
         style="stop-color:#699ad7;stop-opacity:1"
         offset="0"
         id="stop5564" /><stop
         id="stop5566"
         offset="0.24345198"
         style="stop-color:#7eb1dd;stop-opacity:1" /><stop
         style="stop-color:#7ebae4;stop-opacity:1"
         offset="1"
         id="stop5568" /></linearGradient><linearGradient
       inkscape:collect="always"
       id="linearGradient5053"><stop
         style="stop-color:#415e9a;stop-opacity:1"
         offset="0"
         id="stop5055" /><stop
         id="stop5057"
         offset="0.23168644"
         style="stop-color:#4a6baf;stop-opacity:1" /><stop
         style="stop-color:#5277c3;stop-opacity:1"
         offset="1"
         id="stop5059" /></linearGradient><linearGradient
       id="linearGradient5960"
       inkscape:collect="always"><stop
         id="stop5962"
         offset="0"
         style="stop-color:#637ddf;stop-opacity:1" /><stop
         style="stop-color:#649afa;stop-opacity:1"
         offset="0.23168644"
         id="stop5964" /><stop
         id="stop5966"
         offset="1"
         style="stop-color:#719efa;stop-opacity:1" /></linearGradient><linearGradient
       y2="515.97058"
       x2="282.26105"
       y1="338.62445"
       x1="213.95642"
       gradientTransform="translate(983.36076,601.38885)"
       gradientUnits="userSpaceOnUse"
       id="linearGradient5855"
       xlink:href="#linearGradient5960"
       inkscape:collect="always" /><linearGradient
       inkscape:collect="always"
       xlink:href="#linearGradient5562"
       id="linearGradient4328"
       gradientUnits="userSpaceOnUse"
       gradientTransform="translate(70.650339,-1055.1511)"
       x1="200.59668"
       y1="351.41116"
       x2="290.08701"
       y2="506.18814" /><linearGradient
       inkscape:collect="always"
       xlink:href="#linearGradient5053"
       id="linearGradient4330"
       gradientUnits="userSpaceOnUse"
       gradientTransform="translate(864.69589,-1491.3405)"
       x1="-584.19934"
       y1="782.33563"
       x2="-496.29703"
       y2="937.71399" /></defs><g
     inkscape:groupmode="layer"
     id="layer4"
     inkscape:label="Layer 2" /><g
     inkscape:groupmode="layer"
     id="layer5"
     inkscape:label="Layer 3" /><g
     inkscape:label="Layer 1"
     inkscape:groupmode="layer"
     id="layer1"
     transform="translate(-47.52,-56.938489)"><path
       style="fill:#000000;fill-opacity:1;stroke-width:0.268846"
       d="m 97.02,127.54612 42.77373,-0.0136 -8.04421,13.91394 -26.71407,-0.0541 z"
       id="path1168"
       sodipodi:nodetypes="ccccc" /><path
       style="fill:#ffff00;stroke-width:0.264583"
       d="m 95.301622,124.43677 -3.484289,-6.00755 13.247417,-23.168314 26.60475,-0.01142 13.35422,23.143714 -2.88479,5.08407 z"
       id="path1171" /><path
       d="m 95.646649,123.02105 v -0.63049 l 0.02903,-0.0503 v -0.1028 l 0.03025,-0.0524 0.02955,0.0512 v 0.0994 l 0.03157,0.0547 v 0.10589 h 0.07162 v -0.7953 l -0.04534,-0.0453 v -0.21158 l 0.08405,-0.0485 v -0.19139 l 0.03995,-0.0692 0.037,0.0641 v 0.14679 l 0.06667,-0.0385 v -0.13908 l -0.04488,-0.0449 v -0.0288 l 0.03969,-0.0229 v -0.0526 l -0.0489,-0.0489 v -0.21936 l 0.02303,-0.0399 v -0.0621 l 0.01356,-0.0235 0.01417,0.0245 v 0.0575 l 0.02412,0.0418 0.06951,-0.0695 v -0.13852 l -0.02581,-0.0258 v -0.0856 l 0.07811,-0.13529 -0.04476,-0.0448 0.0053,-0.0196 0.05686,-0.0569 v -0.0986 l -0.03479,-0.0602 0.03425,-0.0593 -0.03402,-0.0589 0.0725,-0.0782 h 0.01619 l 0.0725,0.0782 -0.03401,0.0589 0.03425,0.0593 -0.03478,0.0602 v 0.0986 l 0.05686,0.0569 0.0053,0.0196 -0.04476,0.0448 0.07811,0.13529 v 0.0856 l -0.02581,0.0258 v 0.13852 l 0.06951,0.0695 0.02413,-0.0418 v -0.0575 l 0.01417,-0.0245 0.01356,0.0235 v 0.0621 l 0.02303,0.0399 v 0.21936 l -0.0489,0.0489 v 0.0526 l 0.03969,0.0229 v 0.0288 l -0.04488,0.0449 v 0.13908 l 0.06667,0.0385 v -0.14679 l 0.037,-0.0641 0.03995,0.0692 v 0.19139 l 0.08405,0.0485 v 0.21158 l -0.04534,0.0453 v 0.7953 h 0.07162 v -0.10589 l 0.03157,-0.0547 v -0.0994 l 0.02955,-0.0512 0.03025,0.0524 v 0.1028 l 0.02903,0.0503 v 0.63049 H 95.64674"
       stroke-width="0.0158439px"
       id="path887"
       style="stroke:#000000" /><path
       d="m 96.910927,122.70409 c 0,0 0.268252,-0.33626 0.324923,-0.90298 l -0.03472,-0.02 0.09329,-0.0933 -0.05951,-0.0595 v -0.0463 l -0.04489,-0.0777 0.06622,-0.0662 -0.02855,-0.0495 0.130521,-0.22608 v -0.25465 l -0.03658,-0.0633 v -0.0889 l 0.0571,-0.0153 v -0.70869 h -0.06307 l 0.08975,-0.15546 v -0.19985 h 0.0839 c 0,0 0.05477,-0.37135 0.204372,-0.5637 v -0.3283 l -0.04089,-0.0236 v -0.0916 l 0.135344,-0.13535 0.138178,0.13818 0.345708,-0.34571 v -0.0557 h 0.0255 v -0.0529 l 0.04384,-0.0117 v -0.0468 l 0.06157,-0.0165 0.01139,-0.0425 0.07364,-0.0197 0.06126,-0.10612 v -0.1665 l -0.05251,-0.0303 v -0.0434 l 0.05347,-0.0926 -0.08192,-0.0819 v -0.0559 l 0.03842,-0.0222 h 0.04774 v -0.0883 h -0.05289 v -0.0387 l 0.136408,-0.23626 v -1.00021 l -0.06005,-0.0601 0.06526,-0.11304 -0.07467,-0.0431 v -0.059 l -0.03063,-0.0531 v -0.0405 h 0.102884 l 0.04704,-0.0815 -0.05072,-0.0136 v -0.0545 l 0.164089,-0.0947 v -0.35943 c 0,0 0.09339,-0.26449 0.376575,-0.29387 v -0.02 h -0.07881 l -0.03807,-0.0381 v -0.0434 l 0.210383,-0.14694 v -0.28051 l 0.0597,-0.0345 v -0.0443 h -0.03966 v -0.0427 l 0.05307,-0.0306 c 0,0 -0.146572,-0.0816 -0.009,-0.18709 v -0.20304 c 0,0 -0.0531,-0.0366 -0.06479,-0.0648 -0.01474,-0.0356 -0.01474,-0.08 0,-0.11555 0.01259,-0.0304 0.03206,-0.0631 0.06979,-0.0698 0.0091,-0.002 0.0287,-10e-4 0.0287,-10e-4 h 0.04246 c 0,0 0.01959,-2.1e-4 0.0287,10e-4 0.03774,0.007 0.0572,0.0394 0.06979,0.0698 0.01474,0.0356 0.01474,0.08 0,0.11554 -0.01169,0.0282 -0.06479,0.0648 -0.06479,0.0648 v 0.20304 c 0.137584,0.10553 -0.009,0.18709 -0.009,0.18709 l 0.05307,0.0306 v 0.0427 h -0.03966 v 0.0443 l 0.0597,0.0345 v 0.28051 l 0.210383,0.14693 v 0.0434 l -0.03807,0.0381 h -0.07881 v 0.02 c 0.28319,0.0294 0.376575,0.29388 0.376575,0.29388 v 0.35943 l 0.16409,0.0947 v 0.0545 l -0.0507,0.0136 0.047,0.0815 h 0.10288 v 0.0405 l -0.0306,0.053 v 0.059 l -0.0747,0.0431 0.0653,0.11304 -0.06,0.06 v 1.00022 l 0.13641,0.23626 v 0.0387 h -0.0529 v 0.0883 h 0.0478 l 0.0384,0.0222 v 0.0559 l -0.0819,0.0819 0.0535,0.0926 v 0.0434 l -0.0525,0.0303 v 0.1665 l 0.0613,0.10611 0.0736,0.0197 0.0114,0.0425 0.0616,0.0165 v 0.0468 l 0.0439,0.0117 v 0.0529 h 0.0255 v 0.0557 l 0.34571,0.34571 0.13817,-0.13817 0.13535,0.13534 v 0.0916 l -0.0409,0.0236 v 0.3283 c 0.14961,0.19235 0.20437,0.5637 0.20437,0.5637 h 0.0839 v 0.19986 l 0.0897,0.15546 h -0.0631 v 0.70869 l 0.0571,0.0153 v 0.0889 l -0.0366,0.0634 v 0.25463 l 0.13052,0.22607 -0.0285,0.0495 0.0662,0.0662 -0.0449,0.0778 v 0.0463 l -0.0595,0.0595 0.0933,0.0933 -0.0347,0.02 c 0.0567,0.56672 0.32492,0.90298 0.32492,0.90298 z"
       stroke-width="0.0158439px"
       id="path889"
       style="stroke:#000000" /><path
       d="m 101.99336,123.02105 v -0.63049 l 0.029,-0.0503 v -0.1028 l 0.0302,-0.0524 0.0296,0.0512 v 0.0994 l 0.0316,0.0547 v 0.10589 h 0.0716 v -0.7953 l -0.0453,-0.0453 v -0.21158 l 0.0841,-0.0485 v -0.19139 l 0.04,-0.0692 0.037,0.0641 v 0.14679 l 0.0667,-0.0385 v -0.13908 l -0.0449,-0.0449 v -0.0288 l 0.0397,-0.0229 v -0.0526 l -0.0489,-0.0489 v -0.21936 l 0.023,-0.0399 v -0.0621 l 0.0136,-0.0235 0.0142,0.0245 v 0.0575 l 0.0241,0.0418 0.0695,-0.0695 v -0.13852 l -0.0258,-0.0258 v -0.0856 l 0.0781,-0.13529 -0.0448,-0.0448 0.005,-0.0196 0.0569,-0.0569 v -0.0986 l -0.0348,-0.0602 0.0343,-0.0593 -0.034,-0.0589 0.0725,-0.0782 h 0.0162 l 0.0725,0.0782 -0.034,0.0589 0.0343,0.0593 -0.0348,0.0602 v 0.0986 l 0.0569,0.0569 0.005,0.0196 -0.0448,0.0448 0.0781,0.13529 v 0.0856 l -0.0258,0.0258 v 0.13852 l 0.0695,0.0695 0.0241,-0.0418 v -0.0575 l 0.0142,-0.0245 0.0136,0.0235 v 0.0621 l 0.023,0.0399 v 0.21936 l -0.0489,0.0489 v 0.0526 l 0.0397,0.0229 v 0.0288 l -0.0449,0.0449 v 0.13908 l 0.0667,0.0385 v -0.14679 l 0.037,-0.0641 0.0399,0.0692 v 0.19139 l 0.0841,0.0485 v 0.21158 l -0.0453,0.0453 v 0.7953 h 0.0716 v -0.10589 l 0.0316,-0.0547 v -0.0994 l 0.0296,-0.0512 0.0302,0.0524 v 0.1028 l 0.029,0.0503 v 0.63049 h -1.16071"
       stroke-width="0.0158439px"
       id="path891"
       style="stroke:#000000" /><path
       d="m 105.80322,122.27833 v -0.15496 l -0.0325,-0.0563 -0.0284,-0.10594 0.0674,-0.0389 v -0.0554 l -0.20951,-0.14961 0.0114,-0.0426 h 0.20827 v -0.39505 l -0.0747,-0.0431 0.21824,-0.19868 v -0.8652 l -0.0453,-0.0605 v -0.18135 l -0.14007,-0.0809 0.0124,-0.0464 c 0,0 0.14905,0.0142 0.20248,-0.14346 v -0.15496 l -0.0275,-0.0476 v -0.0352 l 0.0645,-0.0645 -0.0153,-0.0265 -0.007,-0.0262 0.0666,-0.0385 -0.0311,-0.0539 v -0.0469 h 0.11548 l 0.0895,-0.0895 -0.0385,-0.0667 c 0,0 0.0826,-0.52236 0.44593,-0.66396 v -0.0792 l 0.11303,-0.11303 -0.0137,-0.0237 h -0.0357 l -0.0308,-0.0308 v -0.0346 l 0.0636,-0.0367 v -0.25234 l -0.0591,-0.1023 v -0.16028 l 0.032,-0.032 0.0168,-0.004 0.0235,0.0407 v 0.10538 l 0.006,0.0233 0.0299,-0.0299 v -0.0897 l 0.0315,-0.0182 h 0.0185 l 0.0271,0.0271 v 0.0818 l 0.0441,0.0441 v 0.0995 h 0.0479 v 0.1398 l -0.0296,0.12336 0.0658,0.041 v 0.0346 l -0.0308,0.0308 h -0.0357 l -0.0137,0.0237 0.11304,0.11303 v 0.0792 c 0.36334,0.1416 0.44593,0.66397 0.44593,0.66397 l -0.0385,0.0667 0.0895,0.0895 h 0.11548 v 0.0469 l -0.0311,0.0539 0.0666,0.0385 -0.007,0.0262 -0.0153,0.0265 0.0645,0.0645 v 0.0352 l -0.0275,0.0476 v 0.15495 c 0.0534,0.15762 0.20248,0.14347 0.20248,0.14347 l 0.0124,0.0464 -0.14008,0.0809 v 0.18135 l -0.0453,0.0605 v 0.8652 l 0.21824,0.19869 -0.0747,0.0431 v 0.39505 h 0.20827 l 0.0114,0.0426 -0.20951,0.14961 v 0.0554 l 0.0673,0.0389 -0.0284,0.10595 -0.0325,0.0563 v 0.15495 z"
       stroke-width="0.0198048px"
       id="path893"
       style="stroke:#000000" /><path
       d="m 137.82529,107.63756 -0.0157,0.009 c 0,0 -0.017,0.50447 -0.0472,0.58569 -0.0296,0.0814 -0.38047,0.15144 -0.38047,0.15144 v 0.0796 h 0.28637 l 0.0699,0.0403 v 0.0296 l -0.12075,0.0694 v 0.0444 h 0.12908 l 0.0259,0.0254 9.2e-4,0.08 c -0.0868,0.0321 -0.12597,0.18011 0.002,0.21096 -0.069,0.55519 0.0721,3.20082 -0.44643,3.47943 -0.10921,0.0587 -0.21066,0.19311 -0.2068,0.25677 0.0294,0.48355 0.28313,0.5075 0.28313,0.5075 -0.0267,0.34731 -0.52093,0.66018 -0.52093,0.66018 v 0.037 l 0.15359,0.15405 -0.11149,0.1115 0.0902,0.0902 v 0.068 l -0.0601,0.0601 0.075,0.0745 v 0.69349 l -0.11057,0.0638 0.12167,0.12168 v 0.22391 l -0.0981,0.0569 v 0.16794 c -0.99964,0.3907 -0.79743,1.56185 -0.88733,1.62476 l -0.0847,0.049 0.26323,0.26324 v 1.13622 l -0.23316,-0.062 -0.0264,-0.47559 0.0907,-0.0805 -0.0162,-0.21374 -0.17626,-0.0958 -0.11473,-0.68377 -0.0911,-0.33958 -0.28082,-0.28036 -0.0745,-0.27804 c -0.37898,-0.0638 -0.29904,-0.98285 -0.29904,-0.98285 h -0.0694 c 0,0 0.0349,0.35145 -0.0634,0.67637 -0.0982,0.32491 -0.29377,0.32291 -0.29377,0.32291 l -0.08,0.30025 -0.26832,0.26832 -0.0379,0.33264 -0.13601,0.71014 -0.18876,0.0833 v 0.21142 l 0.0527,0.0227 0.0342,0.55054 -0.22947,0.0615 v 0.66018 l -0.0749,-0.0199 -0.1832,-0.31783 h -0.12769 l -0.0962,0.35946 -0.78878,-0.45523 h -7.45806 v -0.55145 c 0,0 -0.21898,-0.1061 -0.21142,-0.61993 0.008,-0.51382 -0.16145,-0.27203 -0.16145,-0.40803 v -0.87576 l -0.0111,-0.0412 -0.0389,0.0102 c 0,0 0.008,0.82395 -0.0227,0.91462 -0.0302,0.0907 -0.17409,-0.0378 -0.14387,0.34004 0.0302,0.37782 -0.20402,0.71755 -0.20402,0.71755 v 0.70968 h -0.34651 l -0.18227,0.68099 h -0.89103 v -0.61761 l -0.0722,0.019 -0.30627,1.14271 v 1.34487 l -0.99744,1.84357 -3.9166,0.17487 V 123.787 l 0.056,-0.0971 -0.10687,-0.0615 v -0.12075 l -0.0444,-0.0777 v -0.4173 l 0.0509,-0.0884 -0.0625,-0.0365 v -0.11196 h -0.11149 v 0.11334 l -0.0745,0.043 0.0421,0.0731 v 0.41961 l -0.0324,0.056 v 0.14434 h -0.10686 l -1.48042,-1.40501 -1.21395,-0.0296 v -0.61947 l -0.19245,-0.19291 h -0.3442 l -0.15869,0.20031 -0.0111,0.59679 -3.06773,-0.0375 -2.81102,0.068 -11.055034,0.48345 0.0074,0.30627 -1.305553,0.043 -0.05829,0.21745 v 0.23408 c 0,0 -0.19623,0.0797 -0.101779,0.18551 0.09445,0.10579 0.139713,0.37381 0.139713,0.37381 l -0.156926,0.39804 1.870945,3.37075 21.321404,-0.0437 v -9.2e-4 l 21.07972,0.14542 2.64037,-4.59724 -0.34842,-1.32653 h -0.42432 l -0.0255,-0.0948 0.0573,0.0227 -0.37103,-0.2142 -0.35793,0.17408 0.0782,0.0208 v 0.0379 l -0.12861,0.12815 h -1.20284 v -1.80108 l 0.0893,-0.0893 0.11427,-0.19801 -0.0995,-0.0578 v -0.26185 h -0.29932 v -2.05172 l 0.24057,-0.24056 -0.12306,-0.1226 c -0.0107,-1.31975 -0.81979,-1.50958 -0.81979,-1.50958 v -0.15083 l -0.0953,-0.055 v -0.24982 l 0.12537,-0.12538 -0.10409,-0.0601 v -0.67174 l 0.0731,-0.0731 -0.0675,-0.0675 v -0.0814 l 0.0865,-0.0865 -0.10271,-0.10316 0.1573,-0.1573 -0.0162,-0.0597 c -0.42636,-0.1661 -0.47521,-0.60401 -0.47521,-0.60401 0.0359,0.0533 0.56827,-0.50327 -0.0213,-0.82302 -0.33994,-0.18438 -0.2578,-3.41341 -0.30858,-3.40497 0.0782,-0.0176 0.12361,-0.16097 0.002,-0.21142 v -0.0782 l 0.0204,-0.0352 h 0.15683 v -0.0379 l -0.14573,-0.068 v -0.0208 l 0.0569,-0.0564 h 0.34189 v -0.0944 c 0,0 -0.3082,-0.0379 -0.37242,-0.10964 -0.0642,-0.0718 -0.0574,-0.60188 -0.0574,-0.60188 z"
       stroke-width="0.0158439px"
       id="path895"
       style="fill:#000000;fill-opacity:1;stroke:none;stroke-width:0.016;stroke-dasharray:none"
       sodipodi:nodetypes="ccccccccccccccscccccccccccccccccccccccccccccccccccccccccccccccccccsccccsccccccccccccccccccccccccccccccccccccccccccscccccccccccccccccccccccccccccccccccccccccscccccccccccccc" /><path
       d="m 121.40403,124.9339 0.14427,-0.14426 v -0.0748 l -0.0937,-0.0251 v -0.26341 l 0.1204,-0.0323 V 124.266 l -0.26981,-0.26979 v -1.8674 l 0.0364,-0.13599 v -0.33421 l 0.19953,-0.19953 h -0.25463 v -0.35081 c 0,0 -0.28319,-0.15496 -0.10152,-0.3954 v -0.0508 h -0.16296 v -1.61632 l 0.0807,-0.13974 -0.0747,-0.12934 v -0.14768 l 0.23477,-0.23477 h -0.22474 v -0.3316 l 0.0601,-0.0601 v -0.0521 l -0.0653,-0.0377 v -0.44585 l 0.0961,-0.0961 h -0.29128 v -0.3741 l 0.0323,-0.056 -0.10037,-0.10038 v -1.3424 l 0.0699,-0.12102 -0.0459,-0.17144 0.15101,-0.15101 0.0114,-0.0426 h -0.17706 l -0.0481,-0.52381 0.10853,-0.0627 -0.20205,-0.0541 0.13099,-0.22689 c 0,0 -0.15318,-0.0961 -0.1683,-0.26987 0.041,0.002 0.0888,-0.0283 0.0888,-0.0737 0,-0.20085 -0.34522,-0.0311 -0.15302,0.13979 -0.0663,0.007 -0.13423,0.0514 -0.18512,0.0699 -0.0158,-0.0339 -0.0406,-0.0543 -0.0642,-0.0661 v -0.1908 l 0.0885,-0.0511 v -0.0566 l -0.075,-0.0433 0.10173,-0.091 c 0.18437,-0.78828 -0.35687,-0.4258 -0.3333,-1.66844 l 0.0285,-0.0285 v -0.0881 l 0.0677,-0.0391 v -0.0591 l -0.0363,-0.0363 -0.0437,-0.0117 -0.068,-0.25376 c 0,0 0.0674,-0.0465 0.0823,-0.0823 0.0173,-0.0417 0.014,-0.0925 0,-0.13541 -0.0214,-0.0658 -0.11115,-0.11115 -0.11115,-0.11115 V 110.544 l -0.0336,-0.0107 -0.0336,0.0107 v 0.45368 c 0,0 -0.0898,0.0454 -0.11115,0.11115 -0.014,0.0429 -0.0173,0.0937 0,0.13541 0.0148,0.0358 0.0823,0.0823 0.0823,0.0823 l -0.068,0.25376 -0.0437,0.0117 -0.0363,0.0363 v 0.0591 l 0.0677,0.0391 v 0.0881 l 0.0285,0.0285 c 0.0236,1.24257 -0.51768,0.88008 -0.3333,1.66844 l 0.10173,0.091 -0.075,0.0433 v 0.0566 l 0.0885,0.0511 v 0.1908 c -0.0236,0.0118 -0.0484,0.0323 -0.0642,0.0661 -0.0509,-0.0185 -0.1188,-0.0633 -0.18512,-0.0699 0.1922,-0.17085 -0.15302,-0.34063 -0.15302,-0.13979 0,0.0454 0.0478,0.0756 0.0888,0.0737 -0.0151,0.1738 -0.1683,0.26987 -0.1683,0.26987 l 0.131,0.22689 -0.20205,0.0541 0.10853,0.0627 -0.0481,0.52381 h -0.17706 l 0.0114,0.0426 0.151,0.15101 -0.0459,0.17144 0.0699,0.12102 v 1.3424 l -0.10038,0.10038 0.0323,0.056 v 0.3741 h -0.29129 l 0.0961,0.0961 v 0.44585 l -0.0653,0.0377 v 0.0521 l 0.0601,0.0601 v 0.3316 h -0.22474 l 0.23477,0.23477 v 0.14768 l -0.0747,0.12934 0.0807,0.13974 v 1.61632 H 118.723 v 0.0508 c 0.18166,0.24044 -0.10152,0.3954 -0.10152,0.3954 v 0.35081 h -0.25463 l 0.19953,0.19953 v 0.33421 l 0.0364,0.13599 v 1.8674 l -0.26981,0.26979 v 0.12803 l 0.1204,0.0323 v 0.26341 l -0.0937,0.0251 v 0.0748 l 0.14427,0.14426 z"
       stroke-width="0.0158439px"
       id="path897"
       style="stroke:#000000" /><g
       id="g1037"
       transform="matrix(0.28222222,0,0,0.28222222,47.52,56.976914)"><g
         id="layer7"
         inkscape:label="bg"
         style="display:none"
         transform="translate(-23.75651,-24.84972)"><rect
           transform="translate(-132.5822,958.04022)"
           style="color:#000000;clip-rule:nonzero;display:inline;overflow:visible;visibility:visible;opacity:1;isolation:auto;mix-blend-mode:normal;color-interpolation:sRGB;color-interpolation-filters:linearRGB;solid-color:#000000;solid-opacity:1;fill:#ffffff;fill-opacity:1;fill-rule:evenodd;stroke:none;stroke-width:3;stroke-linecap:butt;stroke-linejoin:round;stroke-miterlimit:4;stroke-dasharray:none;stroke-dashoffset:0;stroke-opacity:1;marker:none;color-rendering:auto;image-rendering:auto;shape-rendering:auto;text-rendering:auto;enable-background:accumulate"
           id="rect5389"
           width="1543.4283"
           height="483.7439"
           x="132.5822"
           y="-957.77832" /></g><g
         id="layer6"
         inkscape:label="logo-guide"
         style="display:none"
         transform="translate(-156.33871,933.1905)"><rect
           y="-958.02759"
           x="132.65129"
           height="484.30399"
           width="550.41602"
           id="rect5379"
           style="color:#000000;clip-rule:nonzero;display:inline;overflow:visible;visibility:visible;opacity:1;isolation:auto;mix-blend-mode:normal;color-interpolation:sRGB;color-interpolation-filters:linearRGB;solid-color:#000000;solid-opacity:1;fill:#5c201e;fill-opacity:1;fill-rule:evenodd;stroke:none;stroke-width:3;stroke-linecap:butt;stroke-linejoin:round;stroke-miterlimit:4;stroke-dasharray:none;stroke-dashoffset:0;stroke-opacity:1;marker:none;color-rendering:auto;image-rendering:auto;shape-rendering:auto;text-rendering:auto;enable-background:accumulate"
           inkscape:export-filename="/home/tim/dev/nix/homepage/logo/nix-wiki.png"
           inkscape:export-xdpi="22.07"
           inkscape:export-ydpi="22.07" /><rect
           style="color:#000000;clip-rule:nonzero;display:inline;overflow:visible;visibility:visible;opacity:1;isolation:auto;mix-blend-mode:normal;color-interpolation:sRGB;color-interpolation-filters:linearRGB;solid-color:#000000;solid-opacity:1;fill:#c24a46;fill-opacity:1;fill-rule:evenodd;stroke:none;stroke-width:3;stroke-linecap:butt;stroke-linejoin:round;stroke-miterlimit:4;stroke-dasharray:none;stroke-dashoffset:0;stroke-opacity:1;marker:none;color-rendering:auto;image-rendering:auto;shape-rendering:auto;text-rendering:auto;enable-background:accumulate"
           id="rect5372"
           width="501.94415"
           height="434.30405"
           x="156.12303"
           y="-933.02759"
           inkscape:export-filename="/home/tim/dev/nix/homepage/logo/nixos-logo-only-hires-print.png"
           inkscape:export-xdpi="212.2"
           inkscape:export-ydpi="212.2" /><rect
           style="color:#000000;clip-rule:nonzero;display:inline;overflow:visible;visibility:visible;opacity:1;isolation:auto;mix-blend-mode:normal;color-interpolation:sRGB;color-interpolation-filters:linearRGB;solid-color:#000000;solid-opacity:1;fill:#d98d8a;fill-opacity:1;fill-rule:evenodd;stroke:none;stroke-width:3;stroke-linecap:butt;stroke-linejoin:round;stroke-miterlimit:4;stroke-dasharray:none;stroke-dashoffset:0;stroke-opacity:1;marker:none;color-rendering:auto;image-rendering:auto;shape-rendering:auto;text-rendering:auto;enable-background:accumulate"
           id="rect5381"
           width="24.939611"
           height="24.939611"
           x="658.02826"
           y="-958.04022" /></g><g
         inkscape:label="print-logo"
         id="layer1-2"
         style="display:inline"
         transform="translate(-156.33871,933.1905)"><path
           style="color:#000000;clip-rule:nonzero;display:inline;overflow:visible;visibility:visible;opacity:1;isolation:auto;mix-blend-mode:normal;color-interpolation:sRGB;color-interpolation-filters:linearRGB;solid-color:#000000;solid-opacity:1;fill:#5277c3;fill-opacity:1;fill-rule:evenodd;stroke:none;stroke-width:3;stroke-linecap:butt;stroke-linejoin:round;stroke-miterlimit:4;stroke-dasharray:none;stroke-dashoffset:0;stroke-opacity:1;color-rendering:auto;image-rendering:auto;shape-rendering:auto;text-rendering:auto;enable-background:accumulate"
           d="m 309.40365,-710.2521 122.19683,211.6751 -56.15706,0.5268 -32.6236,-56.8692 -32.85645,56.5653 -27.90237,-0.011 -14.29086,-24.6896 46.81047,-80.4902 -33.22946,-57.8256 z"
           id="path4861"
           inkscape:connector-curvature="0"
           sodipodi:nodetypes="cccccccccc" /><path
           style="color:#000000;clip-rule:nonzero;display:inline;overflow:visible;visibility:visible;opacity:1;isolation:auto;mix-blend-mode:normal;color-interpolation:sRGB;color-interpolation-filters:linearRGB;solid-color:#000000;solid-opacity:1;fill:#7ebae4;fill-opacity:1;fill-rule:evenodd;stroke:none;stroke-width:3;stroke-linecap:butt;stroke-linejoin:round;stroke-miterlimit:4;stroke-dasharray:none;stroke-dashoffset:0;stroke-opacity:1;color-rendering:auto;image-rendering:auto;shape-rendering:auto;text-rendering:auto;enable-background:accumulate"
           d="m 353.50926,-797.4433 -122.21756,211.6631 -28.53477,-48.37 32.93839,-56.6875 -65.41521,-0.1719 -13.9414,-24.1698 14.23637,-24.721 93.11177,0.2939 33.46371,-57.6903 z"
           id="use4863"
           inkscape:connector-curvature="0"
           sodipodi:nodetypes="cccccccccc" /><path
           style="color:#000000;clip-rule:nonzero;display:inline;overflow:visible;visibility:visible;opacity:1;isolation:auto;mix-blend-mode:normal;color-interpolation:sRGB;color-interpolation-filters:linearRGB;solid-color:#000000;solid-opacity:1;fill:#7ebae4;fill-opacity:1;fill-rule:evenodd;stroke:none;stroke-width:3;stroke-linecap:butt;stroke-linejoin:round;stroke-miterlimit:4;stroke-dasharray:none;stroke-dashoffset:0;stroke-opacity:1;color-rendering:auto;image-rendering:auto;shape-rendering:auto;text-rendering:auto;enable-background:accumulate"
           d="m 362.88537,-628.243 244.41439,0.012 -27.62229,48.8968 -65.56199,-0.1817 32.55876,56.7371 -13.96098,24.1585 -28.52722,0.032 -46.3013,-80.7841 -66.69317,-0.1353 z"
           id="use4865"
           inkscape:connector-curvature="0"
           sodipodi:nodetypes="cccccccccc" /><path
           style="color:#000000;clip-rule:nonzero;display:inline;overflow:visible;visibility:visible;opacity:1;isolation:auto;mix-blend-mode:normal;color-interpolation:sRGB;color-interpolation-filters:linearRGB;solid-color:#000000;solid-opacity:1;fill:#7ebae4;fill-opacity:1;fill-rule:evenodd;stroke:none;stroke-width:3;stroke-linecap:butt;stroke-linejoin:round;stroke-miterlimit:4;stroke-dasharray:none;stroke-dashoffset:0;stroke-opacity:1;color-rendering:auto;image-rendering:auto;shape-rendering:auto;text-rendering:auto;enable-background:accumulate"
           d="m 505.14318,-720.9886 -122.19683,-211.6751 56.15706,-0.5268 32.6236,56.8692 32.85645,-56.5653 27.90237,0.011 14.29086,24.6896 -46.81047,80.4902 33.22946,57.8256 z"
           id="use4867"
           inkscape:connector-curvature="0"
           sodipodi:nodetypes="cccccccccc" /><path
           sodipodi:nodetypes="cccccccccc"
           inkscape:connector-curvature="0"
           id="path4873"
           d="m 309.40365,-710.2521 122.19683,211.6751 -56.15706,0.5268 -32.6236,-56.8692 -32.85645,56.5653 -27.90237,-0.011 -14.29086,-24.6896 46.81047,-80.4902 -33.22946,-57.8256 z"
           style="color:#000000;clip-rule:nonzero;display:inline;overflow:visible;visibility:visible;opacity:1;isolation:auto;mix-blend-mode:normal;color-interpolation:sRGB;color-interpolation-filters:linearRGB;solid-color:#000000;solid-opacity:1;fill:#5277c3;fill-opacity:1;fill-rule:evenodd;stroke:none;stroke-width:3;stroke-linecap:butt;stroke-linejoin:round;stroke-miterlimit:4;stroke-dasharray:none;stroke-dashoffset:0;stroke-opacity:1;color-rendering:auto;image-rendering:auto;shape-rendering:auto;text-rendering:auto;enable-background:accumulate" /><path
           sodipodi:nodetypes="cccccccccc"
           inkscape:connector-curvature="0"
           id="use4875"
           d="m 451.3364,-803.53264 -244.4144,-0.012 27.62229,-48.89685 65.56199,0.18175 -32.55875,-56.73717 13.96097,-24.15851 28.52722,-0.0315 46.3013,80.78414 66.69317,0.13524 z"
           style="color:#000000;clip-rule:nonzero;display:inline;overflow:visible;visibility:visible;opacity:1;isolation:auto;mix-blend-mode:normal;color-interpolation:sRGB;color-interpolation-filters:linearRGB;solid-color:#000000;solid-opacity:1;fill:#5277c3;fill-opacity:1;fill-rule:evenodd;stroke:none;stroke-width:3;stroke-linecap:butt;stroke-linejoin:round;stroke-miterlimit:4;stroke-dasharray:none;stroke-dashoffset:0;stroke-opacity:1;color-rendering:auto;image-rendering:auto;shape-rendering:auto;text-rendering:auto;enable-background:accumulate" /><path
           sodipodi:nodetypes="cccccccccc"
           inkscape:connector-curvature="0"
           id="use4877"
           d="m 460.87178,-633.8425 122.21757,-211.66304 28.53477,48.37003 -32.93839,56.68751 65.4152,0.1718 13.9414,24.1698 -14.23636,24.7211 -93.11177,-0.294 -33.46371,57.6904 z"
           style="color:#000000;clip-rule:nonzero;display:inline;overflow:visible;visibility:visible;opacity:1;isolation:auto;mix-blend-mode:normal;color-interpolation:sRGB;color-interpolation-filters:linearRGB;solid-color:#000000;solid-opacity:1;fill:#5277c3;fill-opacity:1;fill-rule:evenodd;stroke:none;stroke-width:3;stroke-linecap:butt;stroke-linejoin:round;stroke-miterlimit:4;stroke-dasharray:none;stroke-dashoffset:0;stroke-opacity:1;color-rendering:auto;image-rendering:auto;shape-rendering:auto;text-rendering:auto;enable-background:accumulate" /><g
           id="layer2"
           inkscape:label="guides"
           style="display:none"
           transform="translate(72.039038,-1799.4476)"><path
             d="M 460.60629,594.72881 209.74183,594.7288 84.309616,377.4738 209.74185,160.21882 l 250.86446,1e-5 125.43222,217.255 z"
             inkscape:randomized="0"
             inkscape:rounded="0"
             inkscape:flatsided="true"
             sodipodi:arg2="1.5707963"
             sodipodi:arg1="1.0471976"
             sodipodi:r2="217.25499"
             sodipodi:r1="250.86446"
             sodipodi:cy="377.47382"
             sodipodi:cx="335.17407"
             sodipodi:sides="6"
             id="path6032"
             style="color:#000000;display:inline;overflow:visible;visibility:visible;opacity:0.236;fill:#4e4d52;fill-opacity:1;fill-rule:nonzero;stroke:none;stroke-width:3;stroke-linecap:butt;stroke-linejoin:round;stroke-miterlimit:4;stroke-dasharray:none;stroke-dashoffset:0;stroke-opacity:1;marker:none;enable-background:accumulate"
             sodipodi:type="star" /><path
             transform="translate(0,-308.26772)"
             sodipodi:type="star"
             style="color:#000000;display:inline;overflow:visible;visibility:visible;opacity:1;fill:#4e4d52;fill-opacity:1;fill-rule:nonzero;stroke:none;stroke-width:3;stroke-linecap:butt;stroke-linejoin:round;stroke-miterlimit:4;stroke-dasharray:none;stroke-dashoffset:0;stroke-opacity:1;marker:none;enable-background:accumulate"
             id="path5875"
             sodipodi:sides="6"
             sodipodi:cx="335.17407"
             sodipodi:cy="685.74158"
             sodipodi:r1="100.83495"
             sodipodi:r2="87.32563"
             sodipodi:arg1="1.0471976"
             sodipodi:arg2="1.5707963"
             inkscape:flatsided="true"
             inkscape:rounded="0"
             inkscape:randomized="0"
             d="m 385.59154,773.06721 -100.83495,0 -50.41747,-87.32564 50.41748,-87.32563 100.83495,10e-6 50.41748,87.32563 z" /><path
             transform="translate(0,-308.26772)"
             sodipodi:nodetypes="ccccccccc"
             inkscape:connector-curvature="0"
             id="path5851"
             d="m 1216.5591,938.53395 123.0545,228.14035 -42.6807,-1.2616 -43.4823,-79.7725 -39.6506,80.3267 -32.6875,-19.7984 53.4737,-100.2848 -37.1157,-73.88955 z"
             style="fill:url(#linearGradient5855);fill-opacity:1;fill-rule:evenodd;stroke:none;stroke-width:3;stroke-linecap:butt;stroke-linejoin:round;stroke-miterlimit:4;stroke-dasharray:none;stroke-opacity:1" /><rect
             style="color:#000000;clip-rule:nonzero;display:inline;overflow:visible;visibility:visible;opacity:0.415;isolation:auto;mix-blend-mode:normal;color-interpolation:sRGB;color-interpolation-filters:linearRGB;solid-color:#000000;solid-opacity:1;fill:#c53a3a;fill-opacity:1;fill-rule:nonzero;stroke:none;stroke-width:3;stroke-linecap:butt;stroke-linejoin:round;stroke-miterlimit:4;stroke-dasharray:none;stroke-dashoffset:0;stroke-opacity:1;marker:none;color-rendering:auto;image-rendering:auto;shape-rendering:auto;text-rendering:auto;enable-background:accumulate"
             id="rect5884"
             width="48.834862"
             height="226.22897"
             x="-34.74221"
             y="446.17056"
             transform="rotate(-30)" /><path
             transform="translate(0,-308.26772)"
             sodipodi:type="star"
             style="color:#000000;clip-rule:nonzero;display:inline;overflow:visible;visibility:visible;opacity:0.509;isolation:auto;mix-blend-mode:normal;color-interpolation:sRGB;color-interpolation-filters:linearRGB;solid-color:#000000;solid-opacity:1;fill:#000000;fill-opacity:1;fill-rule:evenodd;stroke:none;stroke-width:3;stroke-linecap:butt;stroke-linejoin:round;stroke-miterlimit:4;stroke-dasharray:none;stroke-dashoffset:0;stroke-opacity:1;marker:none;color-rendering:auto;image-rendering:auto;shape-rendering:auto;text-rendering:auto;enable-background:accumulate"
             id="path3428"
             sodipodi:sides="6"
             sodipodi:cx="223.93674"
             sodipodi:cy="878.63831"
             sodipodi:r1="28.048939"
             sodipodi:r2="24.291094"
             sodipodi:arg1="0"
             sodipodi:arg2="0.52359878"
             inkscape:flatsided="true"
             inkscape:rounded="0"
             inkscape:randomized="0"
             d="m 251.98568,878.63831 -14.02447,24.29109 h -28.04894 l -14.02447,-24.29109 14.02447,-24.2911 h 28.04894 z" /><use
             x="0"
             y="0"
             xlink:href="#rect5884"
             id="use4252"
             transform="rotate(60,268.29786,489.4515)"
             width="100%"
             height="100%" /><rect
             style="color:#000000;clip-rule:nonzero;display:inline;overflow:visible;visibility:visible;opacity:1;isolation:auto;mix-blend-mode:normal;color-interpolation:sRGB;color-interpolation-filters:linearRGB;solid-color:#000000;solid-opacity:1;fill:#000000;fill-opacity:0.650794;fill-rule:evenodd;stroke:none;stroke-width:1px;stroke-linecap:butt;stroke-linejoin:miter;stroke-miterlimit:4;stroke-dasharray:none;stroke-dashoffset:0;stroke-opacity:1;marker:none;color-rendering:auto;image-rendering:auto;shape-rendering:auto;text-rendering:auto;enable-background:accumulate"
             id="rect4254"
             width="5.3947482"
             height="115.12564"
             x="545.71014"
             y="467.07007"
             transform="rotate(30,575.23539,-154.13386)" /></g></g><g
         id="layer3"
         inkscape:label="gradient-logo"
         style="display:inline;opacity:1"
         transform="translate(-156.33871,933.1905)"><path
           sodipodi:nodetypes="cccccccccc"
           inkscape:connector-curvature="0"
           id="path3336-6"
           d="m 309.54892,-710.38827 122.19683,211.67512 -56.15706,0.5268 -32.6236,-56.8692 -32.85645,56.5653 -27.90237,-0.011 -14.29086,-24.6896 46.81047,-80.4901 -33.22946,-57.8257 z"
           style="opacity:1;fill:url(#linearGradient4328);fill-opacity:1;fill-rule:evenodd;stroke:none;stroke-width:3;stroke-linecap:butt;stroke-linejoin:round;stroke-miterlimit:4;stroke-dasharray:none;stroke-opacity:1" /><use
           height="100%"
           width="100%"
           transform="rotate(60,407.11155,-715.78724)"
           id="use3439-6"
           inkscape:transform-center-y="151.59082"
           inkscape:transform-center-x="124.43045"
           xlink:href="#path3336-6"
           y="0"
           x="0" /><use
           height="100%"
           width="100%"
           transform="rotate(180,407.41868,-715.7565)"
           id="use3449-5"
           inkscape:transform-center-y="-139.94592"
           inkscape:transform-center-x="59.669705"
           xlink:href="#path3336-6"
           y="0"
           x="0" /><path
           style="color:#000000;clip-rule:nonzero;display:inline;overflow:visible;visibility:visible;opacity:1;isolation:auto;mix-blend-mode:normal;color-interpolation:sRGB;color-interpolation-filters:linearRGB;solid-color:#000000;solid-opacity:1;fill:url(#linearGradient4330);fill-opacity:1;fill-rule:evenodd;stroke:none;stroke-width:3;stroke-linecap:butt;stroke-linejoin:round;stroke-miterlimit:4;stroke-dasharray:none;stroke-dashoffset:0;stroke-opacity:1;color-rendering:auto;image-rendering:auto;shape-rendering:auto;text-rendering:auto;enable-background:accumulate"
           d="m 309.54892,-710.38827 122.19683,211.67512 -56.15706,0.5268 -32.6236,-56.8692 -32.85645,56.5653 -27.90237,-0.011 -14.29086,-24.6896 46.81047,-80.4901 -33.22946,-57.8256 z"
           id="path4260-0"
           inkscape:connector-curvature="0"
           sodipodi:nodetypes="cccccccccc" /><use
           height="100%"
           width="100%"
           transform="rotate(120,407.33916,-716.08356)"
           id="use4354-5"
           xlink:href="#path4260-0"
           y="0"
           x="0"
           style="display:inline" /><use
           height="100%"
           width="100%"
           transform="rotate(-120,407.28823,-715.86995)"
           id="use4362-2"
           xlink:href="#path4260-0"
           y="0"
           x="0"
           style="display:inline" /></g></g></g></svg>
