<?xml version="1.0" encoding="UTF-8" standalone="no"?>
<!-- Created with Inkscape (http://www.inkscape.org/) -->

<svg
   width="141.60143mm"
   height="122.84469mm"
   viewBox="0 0 141.60143 122.84469"
   version="1.1"
   id="svg749"
   xml:space="preserve"
   inkscape:version="1.2.1 (9c6d41e410, 2022-07-14)"
   sodipodi:docname="nixug-dresden.svg"
   xmlns:inkscape="http://www.inkscape.org/namespaces/inkscape"
   xmlns:sodipodi="http://sodipodi.sourceforge.net/DTD/sodipodi-0.dtd"
   xmlns:xlink="http://www.w3.org/1999/xlink"
   xmlns="http://www.w3.org/2000/svg"
   xmlns:svg="http://www.w3.org/2000/svg"><sodipodi:namedview
     id="namedview751"
     pagecolor="#ffffff"
     bordercolor="#000000"
     borderopacity="0.25"
     inkscape:showpageshadow="2"
     inkscape:pageopacity="0.0"
     inkscape:pagecheckerboard="0"
     inkscape:deskcolor="#d1d1d1"
     inkscape:document-units="mm"
     showgrid="false"
     inkscape:zoom="1.0973349"
     inkscape:cx="236.9377"
     inkscape:cy="214.61087"
     inkscape:window-width="1920"
     inkscape:window-height="1012"
     inkscape:window-x="1280"
     inkscape:window-y="0"
     inkscape:window-maximized="1"
     inkscape:current-layer="layer4" /><defs
     id="defs746"><linearGradient
       inkscape:collect="always"
       id="linearGradient5562"><stop
         style="stop-color:#699ad7;stop-opacity:1"
         offset="0"
         id="stop5564" /><stop
         id="stop5566"
         offset="0.24345198"
         style="stop-color:#7eb1dd;stop-opacity:1" /><stop
         style="stop-color:#7ebae4;stop-opacity:1"
         offset="1"
         id="stop5568" /></linearGradient><linearGradient
       inkscape:collect="always"
       id="linearGradient5053"><stop
         style="stop-color:#415e9a;stop-opacity:1"
         offset="0"
         id="stop5055" /><stop
         id="stop5057"
         offset="0.23168644"
         style="stop-color:#4a6baf;stop-opacity:1" /><stop
         style="stop-color:#5277c3;stop-opacity:1"
         offset="1"
         id="stop5059" /></linearGradient><linearGradient
       id="linearGradient5960"
       inkscape:collect="always"><stop
         id="stop5962"
         offset="0"
         style="stop-color:#637ddf;stop-opacity:1" /><stop
         style="stop-color:#649afa;stop-opacity:1"
         offset="0.23168644"
         id="stop5964" /><stop
         id="stop5966"
         offset="1"
         style="stop-color:#719efa;stop-opacity:1" /></linearGradient><linearGradient
       y2="515.97058"
       x2="282.26105"
       y1="338.62445"
       x1="213.95642"
       gradientTransform="translate(983.36076,601.38885)"
       gradientUnits="userSpaceOnUse"
       id="linearGradient5855"
       xlink:href="#linearGradient5960"
       inkscape:collect="always" /><linearGradient
       inkscape:collect="always"
       xlink:href="#linearGradient5562"
       id="linearGradient4328"
       gradientUnits="userSpaceOnUse"
       gradientTransform="translate(70.650339,-1055.1511)"
       x1="200.59668"
       y1="351.41116"
       x2="290.08701"
       y2="506.18814" /><linearGradient
       inkscape:collect="always"
       xlink:href="#linearGradient5053"
       id="linearGradient4330"
       gradientUnits="userSpaceOnUse"
       gradientTransform="translate(864.69589,-1491.3405)"
       x1="-584.19934"
       y1="782.33563"
       x2="-496.29703"
       y2="937.71399" /></defs><g
     inkscape:groupmode="layer"
     id="layer4"
     inkscape:label="Layer 2"><path
       style="fill:#000000;stroke-width:0.268846"
       d="m 47.591332,71.178977 46.004535,0.03212 -8.47135,14.805671 -28.954845,-0.01923 z"
       id="path1168" /><path
       style="fill:#ffff00;stroke-width:0.264583"
       d="m 46.109381,67.851276 -3.728976,-6.429439 14.177721,-24.795323 28.47309,-0.01222 14.292033,24.768998 -3.087378,5.441095 z"
       id="path1171" /></g><g
     inkscape:groupmode="layer"
     id="layer5"
     inkscape:label="Layer 3" /><g
     inkscape:label="Layer 1"
     inkscape:groupmode="layer"
     id="layer1"
     transform="translate(-47.52,-56.938489)"><g
       transform="matrix(0.01584383,0,0,0.01584383,113.28058,111.45908)"
       stroke="#000000"
       id="g899"><path
         d="m -1217,745.75 v -42.589 l 1.9607,-3.396 v -6.9439 l 2.0431,-3.5386 1.9959,3.4571 v 6.7169 l 2.1327,3.694 v 7.1525 h 4.8377 v -53.721 l -3.0625,-3.0625 v -14.292 l 5.6772,-3.2776 v -12.928 l 2.6986,-4.6742 2.4993,4.3289 v 9.9158 l 4.5032,-2.6 v -9.3948 l -3.0316,-3.0316 v -1.945 l 2.6812,-1.548 v -3.5561 l -3.303,-3.303 v -14.817 l 1.5554,-2.6939 v -4.1968 l 0.9159,-1.5864 0.9574,1.6584 v 3.8838 l 1.6296,2.8225 4.6954,-4.6954 v -9.3563 l -1.7432,-1.7432 v -5.7854 l 5.276,-9.1384 -3.0238,-3.0238 0.3554,-1.3265 3.8408,-3.8406 v -6.6604 l -2.3497,-4.0696 2.3138,-4.0076 -2.2978,-3.98 4.897,-5.2798 h 1.094 l 4.897,5.2798 -2.2977,3.98 2.3137,4.0076 -2.3496,4.0696 v 6.6604 l 3.8408,3.8406 0.3553,1.3265 -3.0237,3.0238 5.276,9.1384 v 5.7854 l -1.7433,1.7432 v 9.3563 l 4.6954,4.6954 1.6297,-2.8225 v -3.8838 l 0.9573,-1.6584 0.916,1.5864 v 4.1968 l 1.5554,2.6939 v 14.817 l -3.303,3.303 v 3.5561 l 2.6811,1.548 v 1.945 l -3.0315,3.0316 v 9.3948 l 4.5032,2.6 v -9.9158 l 2.4993,-4.3289 2.6985,4.6742 v 12.928 l 5.6773,3.2776 v 14.292 l -3.0625,3.0625 v 53.721 h 4.8377 v -7.1525 l 2.1327,-3.694 v -6.7169 l 1.9958,-3.4571 2.0432,3.5386 v 6.9439 l 1.9607,3.396 v 42.589 h -78.404"
         stroke-width="1px"
         id="path887" /><path
         d="m -1131.6,724.34 c 0,0 18.12,-22.714 21.948,-60.995 l -2.3452,-1.354 6.3016,-6.3016 -4.0201,-4.0201 v -3.1264 l -3.0322,-5.2519 4.4728,-4.4729 -1.9287,-3.3406 8.8165,-15.271 v -17.201 l -2.4708,-4.2795 v -6.0068 l 3.8568,-1.0334 v -47.871 h -4.2605 l 6.0628,-10.501 v -13.5 h 5.667 c 0,0 3.6995,-25.084 13.805,-38.077 v -22.176 l -2.7618,-1.5945 v -6.1894 l 9.1423,-9.1423 9.3337,9.3336 23.352,-23.352 v -3.7644 h 1.7227 v -3.5729 l 2.9616,-0.79362 v -3.1621 l 4.1591,-1.1144 0.7696,-2.872 4.9742,-1.3329 4.1383,-7.1678 v -11.247 l -3.5469,-2.0479 v -2.9286 l 3.6119,-6.2561 -5.5335,-5.5335 v -3.7781 l 2.5949,-1.4981 h 3.2249 v -5.9668 h -3.5729 v -2.6159 l 9.2141,-15.959 v -67.563 l -4.056,-4.056 4.4084,-7.6355 -5.0436,-2.9119 v -3.9839 l -2.0692,-3.584 v -2.7321 h 6.9496 l 3.1772,-5.5031 -3.4262,-0.91813 v -3.6845 l 11.084,-6.3995 v -24.279 c 0,0 6.3084,-17.866 25.437,-19.851 v -1.3535 h -5.3235 l -2.5716,-2.5715 v -2.9325 l 14.211,-9.9253 v -18.948 l 4.0325,-2.3282 v -2.9954 h -2.679 v -2.8874 l 3.5846,-2.0695 c 0,0 -9.9007,-5.5098 -0.607,-12.638 v -13.715 c 0,0 -3.5867,-2.4702 -4.3762,-4.3761 -0.9956,-2.4036 -0.9956,-5.4012 0,-7.8049 0.8505,-2.0532 2.1656,-4.2594 4.7145,-4.7145 0.6149,-0.10975 1.9384,-0.0958 1.9384,-0.0958 l 2.8679,-7e-5 c 0,0 1.3235,-0.014 1.9384,0.0958 2.549,0.45513 3.864,2.6613 4.7145,4.7145 0.9956,2.4035 0.9956,5.4013 0,7.8049 -0.7895,1.9059 -4.3761,4.3761 -4.3761,4.3761 v 13.715 c 9.2936,7.1282 -0.607,12.638 -0.607,12.638 l 3.5846,2.0695 v 2.8874 h -2.679 v 2.9954 l 4.0325,2.3281 v 18.948 l 14.211,9.9253 v 2.9325 l -2.5716,2.5716 h -5.3235 v 1.3534 c 19.129,1.9851 25.437,19.851 25.437,19.851 v 24.279 l 11.084,6.3995 v 3.6845 l -3.4263,0.918 3.1773,5.5031 h 6.9495 v 2.7323 l -2.0691,3.5839 v 3.984 l -5.0436,2.9119 4.4083,7.6355 -4.056,4.056 v 67.563 l 9.2142,15.959 v 2.6159 h -3.5729 v 5.9666 h 3.2249 l 2.5948,1.4981 v 3.7781 l -5.5335,5.5335 3.6119,6.2561 v 2.9288 l -3.5469,2.0479 v 11.247 l 4.1383,7.1676 4.9742,1.3329 0.7697,2.872 4.1591,1.1145 v 3.1621 l 2.9615,0.79362 v 3.5729 h 1.7227 v 3.7642 l 23.352,23.352 9.3336,-9.3336 9.1424,9.1423 v 6.1894 l -2.7619,1.5945 v 22.176 c 10.106,12.993 13.805,38.077 13.805,38.077 h 5.667 v 13.5 l 6.0627,10.501 h -4.2605 v 47.871 l 3.8568,1.0334 v 6.0066 l -2.4708,4.2796 v 17.2 l 8.8165,15.271 -1.9287,3.3406 4.4729,4.4728 -3.0323,5.252 v 3.1262 l -4.0201,4.0201 6.3016,6.3016 -2.3451,1.354 c 3.828,38.281 21.948,60.995 21.948,60.995 z"
         stroke-width="1px"
         id="path889" /><path
         d="m -788.29,745.75 v -42.589 l 1.9608,-3.3959 v -6.944 l 2.0431,-3.5386 1.9959,3.4571 v 6.717 l 2.1328,3.6939 v 7.1525 h 4.8376 v -53.721 l -3.0625,-3.0625 v -14.292 l 5.6773,-3.2776 v -12.928 l 2.6985,-4.6742 2.4994,4.3289 v 9.9158 l 4.5031,-2.6 v -9.3948 l -3.0315,-3.0316 v -1.945 l 2.6811,-1.548 v -3.5561 l -3.303,-3.303 v -14.817 l 1.5554,-2.6939 v -4.1968 l 0.916,-1.5864 0.95738,1.6584 v 3.8838 l 1.6296,2.8225 4.6954,-4.6954 v -9.3563 l -1.7432,-1.7432 v -5.7854 l 5.276,-9.1384 -3.0238,-3.0238 0.35538,-1.3265 3.8408,-3.8406 v -6.6604 l -2.3496,-4.0696 2.3138,-4.0076 -2.2978,-3.98 4.897,-5.2798 h 1.094 l 4.897,5.2798 -2.2978,3.98 2.3138,4.0076 -2.3496,4.0696 v 6.6604 l 3.8408,3.8406 0.35537,1.3265 -3.0238,3.0238 5.276,9.1384 v 5.7854 l -1.7432,1.7432 v 9.3563 l 4.6954,4.6954 1.6296,-2.8225 v -3.8838 l 0.95737,-1.6584 0.916,1.5864 v 4.1968 l 1.5554,2.6939 v 14.817 l -3.303,3.303 v 3.5561 l 2.6811,1.548 v 1.945 l -3.0315,3.0316 v 9.3948 l 4.5031,2.6 v -9.9158 l 2.4994,-4.3289 2.6985,4.6742 v 12.928 l 5.6772,3.2776 v 14.292 l -3.0625,3.0625 v 53.721 h 4.8378 v -7.1525 l 2.1326,-3.6939 v -6.717 l 1.9959,-3.4571 2.0431,3.5386 v 6.944 l 1.9608,3.3959 v 42.589 h -78.404"
         stroke-width="1px"
         id="path891" /><path
         d="m -530.94,695.58 v -10.467 l -2.1944,-3.8009 -1.9175,-7.1562 4.5488,-2.6263 v -3.7408 l -14.152,-10.106 0.77025,-2.8744 h 14.068 v -26.685 l -5.0436,-2.912 14.742,-13.421 v -58.443 l -3.0625,-4.0832 v -12.25 l -9.462,-5.4629 0.839,-3.1314 c 0,0 10.068,0.95625 13.677,-9.6909 v -10.467 l -1.8578,-3.2176 v -2.3766 l 4.3576,-4.3576 -1.034,-1.7909 -0.47362,-1.7675 4.4988,-2.5974 -2.1034,-3.643 v -3.1678 h 7.8009 l 6.0454,-6.0454 -2.6018,-4.5063 c 0,0 5.5792,-35.285 30.122,-44.85 v -5.348 l 7.6351,-7.6351 -0.92425,-1.6008 h -2.4146 l -2.0812,-2.0812 v -2.3366 l 4.2929,-2.4785 v -17.045 l -3.9894,-6.9101 v -10.827 l 2.1649,-2.165 1.1324,-0.30337 1.5885,2.7512 v 7.1181 l 0.4225,1.5769 2.0219,-2.0219 v -6.0628 l 2.1305,-1.23 h 1.2494 l 1.8274,1.8273 v 5.5278 l 2.9783,2.9782 v 6.7196 h 3.2335 v 9.4428 l -1.9995,8.3329 4.4486,2.7686 v 2.3366 l -2.0812,2.0812 h -2.4146 l -0.92425,1.6008 7.6351,7.6351 v 5.348 c 24.543,9.5644 30.122,44.85 30.122,44.85 l -2.6018,4.5063 6.0454,6.0454 h 7.8009 v 3.1678 l -2.1034,3.643 4.4988,2.5974 -0.47363,1.7675 -1.034,1.7909 4.3576,4.3576 v 2.3766 l -1.8578,3.2176 v 10.467 c 3.6092,10.647 13.677,9.6909 13.677,9.6909 l 0.839,3.1314 -9.462,5.4629 v 12.25 l -3.0625,4.0832 v 58.443 l 14.742,13.421 -5.0436,2.912 v 26.685 h 14.068 l 0.77025,2.8744 -14.152,10.106 v 3.7408 l 4.5488,2.6263 -1.9175,7.1562 -2.1944,3.8009 v 10.467 z"
         stroke-width="1.25px"
         id="path893" /><path
         d="m 1632.1,-293.38 -1.0626,0.59375 c 0,0 -1.1458,34.076 -3.1874,39.562 -2,5.5 -25.7,10.23 -25.7,10.23 v 5.375 h 19.344 l 4.7187,2.7188 v 2 l -8.1563,4.6875 v 3 h 8.7188 l 1.75,1.7188 0.062,5.4062 c -5.8669,2.1673 -8.5093,12.166 0.1563,14.25 -4.661,37.502 4.8677,216.21 -30.156,235.03 -7.3768,3.9632 -14.23,13.044 -13.969,17.344 1.9851,32.663 19.125,34.281 19.125,34.281 -1.8046,23.46 -35.188,44.594 -35.188,44.594 v 2.5 l 10.375,10.406 -7.5312,7.5312 6.0938,6.0938 v 4.5938 l -4.0626,4.0625 5.0626,5.0312 v 46.844 l -7.4688,4.3125 8.2188,8.2188 v 15.125 l -6.625,3.8438 v 11.344 c -67.524,26.391 -53.865,105.5 -59.938,109.75 l -5.7187,3.3125 17.781,17.781 v 76.75 l -15.75,-4.1875 -1.7813,-32.125 6.125,-5.4375 -1.0937,-14.438 -11.906,-6.4688 -7.75,-46.188 -6.1563,-22.938 -18.969,-18.938 -5.0313,-18.781 c -25.6,-4.31 -20.2,-66.39 -20.2,-66.39 h -4.6876 c 0,0 2.3542,23.74 -4.2812,45.688 -6.6354,21.947 -19.844,21.812 -19.844,21.812 l -5.4062,20.281 -18.125,18.125 -2.5625,22.469 -9.1875,47.969 -12.75,5.625 v 14.281 l 3.5625,1.5312 2.3125,37.188 -15.5,4.1562 v 44.594 l -5.0625,-1.3438 -12.375,-21.469 h -8.625 l -6.5,24.281 -53.281,-30.75 h -503.78 v -37.25 c 0,0 -14.792,-7.1667 -14.281,-41.875 0.5105,-34.708 -10.906,-18.375 -10.906,-27.562 v -59.156 l -0.75,-2.7812 -2.625,0.6875 c 0,0 0.51035,55.656 -1.5312,61.781 -2.04155,6.125 -11.76,-2.5521 -9.7188,22.969 2.0417,25.521 -13.781,48.469 -13.781,48.469 v 47.938 h -23.406 l -12.312,46 h -60.188 v -41.719 l -4.875,1.2812 -20.688,77.188 v 90.844 l -67.375,124.53 -264.56,11.812 v -9.125 l 3.7812,-6.5625 -7.2188,-4.1562 v -8.1562 l -3,-5.25 v -28.188 l 3.4375,-5.9688 -4.2188,-2.4688 v -7.5625 h -7.5312 v 7.6562 l -5.0312,2.9062 2.8438,4.9375 v 28.344 l -2.1875,3.7812 v 9.75 h -7.2188 l -100,-94.906 -82,-2 v -41.844 l -13,-13.031 h -23.25 l -10.719,13.531 -0.75,40.312 -207.22,-2.5312 -189.88,4.5938 -746.75,32.656 0.5,20.688 -88.188,2.9062 -3.9374,14.688 v 15.812 c 0,0 -13.255,5.3854 -6.875,12.531 6.3802,7.1459 9.4374,25.25 9.4374,25.25 l -16.594,35.742 v 215.88005 h 1572.6 v -0.062 h 1591 V 675.17635 h -39.688 l -1.7188,-6.4062 h 3.6876 l -25.063,-14.469 -25.25,14.562 5.2813,1.4062 v 2.5625 l -8.6875,8.6562 h -81.25 v -121.66 l 6.0312,-6.0312 7.7188,-13.375 -6.7188,-3.9062 v -17.688 h -20.219 v -138.59 l 16.25,-16.25 -8.3125,-8.2812 c -0.7219,-89.147 -55.375,-101.97 -55.375,-101.97 v -10.188 l -6.4375,-3.7188 v -16.875 l 8.4687,-8.4688 -7.0312,-4.0625 v -45.375 l 4.9375,-4.9375 -4.5625,-4.5625 v -5.5 l 5.8438,-5.8438 -6.9376,-6.9688 10.625,-10.625 -1.0937,-4.0312 c -28.8,-11.22 -32.1,-40.8 -32.1,-40.8 2.428,3.6003 38.386,-33.995 -1.4375,-55.594 -22.962,-12.454 -17.414,-230.57 -20.844,-230 5.2853,-1.1866 8.3495,-10.873 0.1562,-14.281 v -5.2812 l 1.375,-2.375 h 10.594 v -2.5625 l -9.8438,-4.5938 v -1.4062 l 3.8438,-3.8125 h 23.094 v -6.375 c 0,0 -20.818,-2.5573 -25.156,-7.4062 -4.3384,-4.849 -3.875,-40.656 -3.875,-40.656 z"
         stroke-width="1px"
         id="path895" /><path
         d="m 522.87,874.96 9.7448,-9.7448 v -5.0528 l -6.332,-1.6968 v -17.793 l 8.1329,-2.1792 v -8.6484 l -18.225,-18.224 v -126.14 l 2.4615,-9.186 V 653.72 l 13.478,-13.478 h -17.2 v -23.697 c 0,0 -19.129,-10.467 -6.8575,-26.708 v -3.4288 h -11.008 v -109.18 l 5.4499,-9.4394 -5.044,-8.7368 v -9.9756 l 15.858,-15.858 h -15.181 v -22.399 l 4.0603,-4.0604 v -3.519 l -4.4099,-2.546 v -30.117 l 6.4909,-6.4909 h -19.676 v -25.27 l 2.1824,-3.78 -6.7805,-6.7805 v -90.677 l 4.7197,-8.175 -3.1026,-11.58 10.2,-10.201 0.7704,-2.8751 h -11.96 l -3.2483,-35.383 7.331,-4.2326 -13.648,-3.6569 8.8482,-15.326 c 0,0 -10.347,-6.4894 -11.368,-18.229 2.7705,0.13163 5.9974,-1.9109 5.9974,-4.9766 0,-13.567 -23.319,-2.098 -10.336,9.4428 -4.4804,0.445 -9.0673,3.4712 -12.505,4.7214 -1.068,-2.2879 -2.745,-3.6694 -4.3385,-4.4661 v -12.888 l 5.9751,-3.4498 v -3.8238 l -5.0675,-2.9256 6.8718,-6.15 c 12.454,-53.247 -24.106,-28.762 -22.514,-112.7 l 1.9262,-1.9263 v -5.9489 l 4.5759,-2.6419 v -3.9935 l -2.455,-2.4551 -2.9507,-0.79061 -4.5929,-17.141 c 0,0 4.5552,-3.1373 5.5579,-5.5579 1.1667,-2.8168 0.9427,-6.2471 0,-9.1466 -1.4448,-4.443 -7.5083,-7.5082 -7.5083,-7.5082 v -30.645 l -2.2719,-0.72185 -2.272,0.72185 v 30.645 c 0,0 -6.0635,3.0652 -7.5082,7.5082 -0.9428,2.8994 -1.1667,6.3298 0,9.1466 1.0026,2.4206 5.5579,5.5579 5.5579,5.5579 l -4.5929,17.141 -2.9507,0.79061 -2.4551,2.4551 v 3.9935 l 4.5759,2.6419 v 5.9489 l 1.9262,1.9263 c 1.5915,83.933 -34.969,59.448 -22.514,112.7 l 6.8718,6.15 -5.0675,2.9256 v 3.8238 l 5.9751,3.4498 v 12.888 c -1.5935,0.79675 -3.2705,2.1782 -4.3385,4.4661 -3.438,-1.2501 -8.0249,-4.2764 -12.505,-4.7214 12.983,-11.541 -10.336,-23.009 -10.336,-9.4428 0,3.0658 3.2269,5.1083 5.9975,4.9766 -1.0208,11.74 -11.368,18.229 -11.368,18.229 l 8.8483,15.326 -13.648,3.6569 7.3311,4.2326 -3.2483,35.383 h -11.96 l 0.7703,2.8751 10.2,10.201 -3.1026,11.58 4.7198,8.175 v 90.677 l -6.7805,6.7805 2.1823,3.78 v 25.27 h -19.676 l 6.4909,6.4909 v 30.117 l -4.4099,2.546 v 3.519 l 4.0602,4.0604 v 22.399 h -15.181 l 15.858,15.858 v 9.9756 l -5.044,8.7368 5.4499,9.4394 v 109.18 h -11.008 v 3.4288 c 12.271,16.241 -6.8575,26.708 -6.8575,26.708 v 23.697 h -17.2 l 13.478,13.478 v 22.575 l 2.4614,9.186 v 126.14 l -18.225,18.224 v 8.6484 l 8.1329,2.1792 v 17.793 l -6.332,1.6968 v 5.0528 l 9.7448,9.7448 z"
         stroke-width="1px"
         id="path897" /></g><g
       id="g1037"
       transform="matrix(0.28222222,0,0,0.28222222,47.52,56.976914)"><g
         id="layer7"
         inkscape:label="bg"
         style="display:none"
         transform="translate(-23.75651,-24.84972)"><rect
           transform="translate(-132.5822,958.04022)"
           style="color:#000000;clip-rule:nonzero;display:inline;overflow:visible;visibility:visible;opacity:1;isolation:auto;mix-blend-mode:normal;color-interpolation:sRGB;color-interpolation-filters:linearRGB;solid-color:#000000;solid-opacity:1;fill:#ffffff;fill-opacity:1;fill-rule:evenodd;stroke:none;stroke-width:3;stroke-linecap:butt;stroke-linejoin:round;stroke-miterlimit:4;stroke-dasharray:none;stroke-dashoffset:0;stroke-opacity:1;marker:none;color-rendering:auto;image-rendering:auto;shape-rendering:auto;text-rendering:auto;enable-background:accumulate"
           id="rect5389"
           width="1543.4283"
           height="483.7439"
           x="132.5822"
           y="-957.77832" /></g><g
         id="layer6"
         inkscape:label="logo-guide"
         style="display:none"
         transform="translate(-156.33871,933.1905)"><rect
           y="-958.02759"
           x="132.65129"
           height="484.30399"
           width="550.41602"
           id="rect5379"
           style="color:#000000;clip-rule:nonzero;display:inline;overflow:visible;visibility:visible;opacity:1;isolation:auto;mix-blend-mode:normal;color-interpolation:sRGB;color-interpolation-filters:linearRGB;solid-color:#000000;solid-opacity:1;fill:#5c201e;fill-opacity:1;fill-rule:evenodd;stroke:none;stroke-width:3;stroke-linecap:butt;stroke-linejoin:round;stroke-miterlimit:4;stroke-dasharray:none;stroke-dashoffset:0;stroke-opacity:1;marker:none;color-rendering:auto;image-rendering:auto;shape-rendering:auto;text-rendering:auto;enable-background:accumulate"
           inkscape:export-filename="/home/tim/dev/nix/homepage/logo/nix-wiki.png"
           inkscape:export-xdpi="22.07"
           inkscape:export-ydpi="22.07" /><rect
           style="color:#000000;clip-rule:nonzero;display:inline;overflow:visible;visibility:visible;opacity:1;isolation:auto;mix-blend-mode:normal;color-interpolation:sRGB;color-interpolation-filters:linearRGB;solid-color:#000000;solid-opacity:1;fill:#c24a46;fill-opacity:1;fill-rule:evenodd;stroke:none;stroke-width:3;stroke-linecap:butt;stroke-linejoin:round;stroke-miterlimit:4;stroke-dasharray:none;stroke-dashoffset:0;stroke-opacity:1;marker:none;color-rendering:auto;image-rendering:auto;shape-rendering:auto;text-rendering:auto;enable-background:accumulate"
           id="rect5372"
           width="501.94415"
           height="434.30405"
           x="156.12303"
           y="-933.02759"
           inkscape:export-filename="/home/tim/dev/nix/homepage/logo/nixos-logo-only-hires-print.png"
           inkscape:export-xdpi="212.2"
           inkscape:export-ydpi="212.2" /><rect
           style="color:#000000;clip-rule:nonzero;display:inline;overflow:visible;visibility:visible;opacity:1;isolation:auto;mix-blend-mode:normal;color-interpolation:sRGB;color-interpolation-filters:linearRGB;solid-color:#000000;solid-opacity:1;fill:#d98d8a;fill-opacity:1;fill-rule:evenodd;stroke:none;stroke-width:3;stroke-linecap:butt;stroke-linejoin:round;stroke-miterlimit:4;stroke-dasharray:none;stroke-dashoffset:0;stroke-opacity:1;marker:none;color-rendering:auto;image-rendering:auto;shape-rendering:auto;text-rendering:auto;enable-background:accumulate"
           id="rect5381"
           width="24.939611"
           height="24.939611"
           x="658.02826"
           y="-958.04022" /></g><g
         inkscape:label="print-logo"
         id="layer1-2"
         style="display:inline"
         transform="translate(-156.33871,933.1905)"><path
           style="color:#000000;clip-rule:nonzero;display:inline;overflow:visible;visibility:visible;opacity:1;isolation:auto;mix-blend-mode:normal;color-interpolation:sRGB;color-interpolation-filters:linearRGB;solid-color:#000000;solid-opacity:1;fill:#5277c3;fill-opacity:1;fill-rule:evenodd;stroke:none;stroke-width:3;stroke-linecap:butt;stroke-linejoin:round;stroke-miterlimit:4;stroke-dasharray:none;stroke-dashoffset:0;stroke-opacity:1;color-rendering:auto;image-rendering:auto;shape-rendering:auto;text-rendering:auto;enable-background:accumulate"
           d="m 309.40365,-710.2521 122.19683,211.6751 -56.15706,0.5268 -32.6236,-56.8692 -32.85645,56.5653 -27.90237,-0.011 -14.29086,-24.6896 46.81047,-80.4902 -33.22946,-57.8256 z"
           id="path4861"
           inkscape:connector-curvature="0"
           sodipodi:nodetypes="cccccccccc" /><path
           style="color:#000000;clip-rule:nonzero;display:inline;overflow:visible;visibility:visible;opacity:1;isolation:auto;mix-blend-mode:normal;color-interpolation:sRGB;color-interpolation-filters:linearRGB;solid-color:#000000;solid-opacity:1;fill:#7ebae4;fill-opacity:1;fill-rule:evenodd;stroke:none;stroke-width:3;stroke-linecap:butt;stroke-linejoin:round;stroke-miterlimit:4;stroke-dasharray:none;stroke-dashoffset:0;stroke-opacity:1;color-rendering:auto;image-rendering:auto;shape-rendering:auto;text-rendering:auto;enable-background:accumulate"
           d="m 353.50926,-797.4433 -122.21756,211.6631 -28.53477,-48.37 32.93839,-56.6875 -65.41521,-0.1719 -13.9414,-24.1698 14.23637,-24.721 93.11177,0.2939 33.46371,-57.6903 z"
           id="use4863"
           inkscape:connector-curvature="0"
           sodipodi:nodetypes="cccccccccc" /><path
           style="color:#000000;clip-rule:nonzero;display:inline;overflow:visible;visibility:visible;opacity:1;isolation:auto;mix-blend-mode:normal;color-interpolation:sRGB;color-interpolation-filters:linearRGB;solid-color:#000000;solid-opacity:1;fill:#7ebae4;fill-opacity:1;fill-rule:evenodd;stroke:none;stroke-width:3;stroke-linecap:butt;stroke-linejoin:round;stroke-miterlimit:4;stroke-dasharray:none;stroke-dashoffset:0;stroke-opacity:1;color-rendering:auto;image-rendering:auto;shape-rendering:auto;text-rendering:auto;enable-background:accumulate"
           d="m 362.88537,-628.243 244.41439,0.012 -27.62229,48.8968 -65.56199,-0.1817 32.55876,56.7371 -13.96098,24.1585 -28.52722,0.032 -46.3013,-80.7841 -66.69317,-0.1353 z"
           id="use4865"
           inkscape:connector-curvature="0"
           sodipodi:nodetypes="cccccccccc" /><path
           style="color:#000000;clip-rule:nonzero;display:inline;overflow:visible;visibility:visible;opacity:1;isolation:auto;mix-blend-mode:normal;color-interpolation:sRGB;color-interpolation-filters:linearRGB;solid-color:#000000;solid-opacity:1;fill:#7ebae4;fill-opacity:1;fill-rule:evenodd;stroke:none;stroke-width:3;stroke-linecap:butt;stroke-linejoin:round;stroke-miterlimit:4;stroke-dasharray:none;stroke-dashoffset:0;stroke-opacity:1;color-rendering:auto;image-rendering:auto;shape-rendering:auto;text-rendering:auto;enable-background:accumulate"
           d="m 505.14318,-720.9886 -122.19683,-211.6751 56.15706,-0.5268 32.6236,56.8692 32.85645,-56.5653 27.90237,0.011 14.29086,24.6896 -46.81047,80.4902 33.22946,57.8256 z"
           id="use4867"
           inkscape:connector-curvature="0"
           sodipodi:nodetypes="cccccccccc" /><path
           sodipodi:nodetypes="cccccccccc"
           inkscape:connector-curvature="0"
           id="path4873"
           d="m 309.40365,-710.2521 122.19683,211.6751 -56.15706,0.5268 -32.6236,-56.8692 -32.85645,56.5653 -27.90237,-0.011 -14.29086,-24.6896 46.81047,-80.4902 -33.22946,-57.8256 z"
           style="color:#000000;clip-rule:nonzero;display:inline;overflow:visible;visibility:visible;opacity:1;isolation:auto;mix-blend-mode:normal;color-interpolation:sRGB;color-interpolation-filters:linearRGB;solid-color:#000000;solid-opacity:1;fill:#5277c3;fill-opacity:1;fill-rule:evenodd;stroke:none;stroke-width:3;stroke-linecap:butt;stroke-linejoin:round;stroke-miterlimit:4;stroke-dasharray:none;stroke-dashoffset:0;stroke-opacity:1;color-rendering:auto;image-rendering:auto;shape-rendering:auto;text-rendering:auto;enable-background:accumulate" /><path
           sodipodi:nodetypes="cccccccccc"
           inkscape:connector-curvature="0"
           id="use4875"
           d="m 451.3364,-803.53264 -244.4144,-0.012 27.62229,-48.89685 65.56199,0.18175 -32.55875,-56.73717 13.96097,-24.15851 28.52722,-0.0315 46.3013,80.78414 66.69317,0.13524 z"
           style="color:#000000;clip-rule:nonzero;display:inline;overflow:visible;visibility:visible;opacity:1;isolation:auto;mix-blend-mode:normal;color-interpolation:sRGB;color-interpolation-filters:linearRGB;solid-color:#000000;solid-opacity:1;fill:#5277c3;fill-opacity:1;fill-rule:evenodd;stroke:none;stroke-width:3;stroke-linecap:butt;stroke-linejoin:round;stroke-miterlimit:4;stroke-dasharray:none;stroke-dashoffset:0;stroke-opacity:1;color-rendering:auto;image-rendering:auto;shape-rendering:auto;text-rendering:auto;enable-background:accumulate" /><path
           sodipodi:nodetypes="cccccccccc"
           inkscape:connector-curvature="0"
           id="use4877"
           d="m 460.87178,-633.8425 122.21757,-211.66304 28.53477,48.37003 -32.93839,56.68751 65.4152,0.1718 13.9414,24.1698 -14.23636,24.7211 -93.11177,-0.294 -33.46371,57.6904 z"
           style="color:#000000;clip-rule:nonzero;display:inline;overflow:visible;visibility:visible;opacity:1;isolation:auto;mix-blend-mode:normal;color-interpolation:sRGB;color-interpolation-filters:linearRGB;solid-color:#000000;solid-opacity:1;fill:#5277c3;fill-opacity:1;fill-rule:evenodd;stroke:none;stroke-width:3;stroke-linecap:butt;stroke-linejoin:round;stroke-miterlimit:4;stroke-dasharray:none;stroke-dashoffset:0;stroke-opacity:1;color-rendering:auto;image-rendering:auto;shape-rendering:auto;text-rendering:auto;enable-background:accumulate" /><g
           id="layer2"
           inkscape:label="guides"
           style="display:none"
           transform="translate(72.039038,-1799.4476)"><path
             d="M 460.60629,594.72881 209.74183,594.7288 84.309616,377.4738 209.74185,160.21882 l 250.86446,1e-5 125.43222,217.255 z"
             inkscape:randomized="0"
             inkscape:rounded="0"
             inkscape:flatsided="true"
             sodipodi:arg2="1.5707963"
             sodipodi:arg1="1.0471976"
             sodipodi:r2="217.25499"
             sodipodi:r1="250.86446"
             sodipodi:cy="377.47382"
             sodipodi:cx="335.17407"
             sodipodi:sides="6"
             id="path6032"
             style="color:#000000;display:inline;overflow:visible;visibility:visible;opacity:0.236;fill:#4e4d52;fill-opacity:1;fill-rule:nonzero;stroke:none;stroke-width:3;stroke-linecap:butt;stroke-linejoin:round;stroke-miterlimit:4;stroke-dasharray:none;stroke-dashoffset:0;stroke-opacity:1;marker:none;enable-background:accumulate"
             sodipodi:type="star" /><path
             transform="translate(0,-308.26772)"
             sodipodi:type="star"
             style="color:#000000;display:inline;overflow:visible;visibility:visible;opacity:1;fill:#4e4d52;fill-opacity:1;fill-rule:nonzero;stroke:none;stroke-width:3;stroke-linecap:butt;stroke-linejoin:round;stroke-miterlimit:4;stroke-dasharray:none;stroke-dashoffset:0;stroke-opacity:1;marker:none;enable-background:accumulate"
             id="path5875"
             sodipodi:sides="6"
             sodipodi:cx="335.17407"
             sodipodi:cy="685.74158"
             sodipodi:r1="100.83495"
             sodipodi:r2="87.32563"
             sodipodi:arg1="1.0471976"
             sodipodi:arg2="1.5707963"
             inkscape:flatsided="true"
             inkscape:rounded="0"
             inkscape:randomized="0"
             d="m 385.59154,773.06721 -100.83495,0 -50.41747,-87.32564 50.41748,-87.32563 100.83495,10e-6 50.41748,87.32563 z" /><path
             transform="translate(0,-308.26772)"
             sodipodi:nodetypes="ccccccccc"
             inkscape:connector-curvature="0"
             id="path5851"
             d="m 1216.5591,938.53395 123.0545,228.14035 -42.6807,-1.2616 -43.4823,-79.7725 -39.6506,80.3267 -32.6875,-19.7984 53.4737,-100.2848 -37.1157,-73.88955 z"
             style="fill:url(#linearGradient5855);fill-opacity:1;fill-rule:evenodd;stroke:none;stroke-width:3;stroke-linecap:butt;stroke-linejoin:round;stroke-miterlimit:4;stroke-dasharray:none;stroke-opacity:1" /><rect
             style="color:#000000;clip-rule:nonzero;display:inline;overflow:visible;visibility:visible;opacity:0.415;isolation:auto;mix-blend-mode:normal;color-interpolation:sRGB;color-interpolation-filters:linearRGB;solid-color:#000000;solid-opacity:1;fill:#c53a3a;fill-opacity:1;fill-rule:nonzero;stroke:none;stroke-width:3;stroke-linecap:butt;stroke-linejoin:round;stroke-miterlimit:4;stroke-dasharray:none;stroke-dashoffset:0;stroke-opacity:1;marker:none;color-rendering:auto;image-rendering:auto;shape-rendering:auto;text-rendering:auto;enable-background:accumulate"
             id="rect5884"
             width="48.834862"
             height="226.22897"
             x="-34.74221"
             y="446.17056"
             transform="rotate(-30)" /><path
             transform="translate(0,-308.26772)"
             sodipodi:type="star"
             style="color:#000000;clip-rule:nonzero;display:inline;overflow:visible;visibility:visible;opacity:0.509;isolation:auto;mix-blend-mode:normal;color-interpolation:sRGB;color-interpolation-filters:linearRGB;solid-color:#000000;solid-opacity:1;fill:#000000;fill-opacity:1;fill-rule:evenodd;stroke:none;stroke-width:3;stroke-linecap:butt;stroke-linejoin:round;stroke-miterlimit:4;stroke-dasharray:none;stroke-dashoffset:0;stroke-opacity:1;marker:none;color-rendering:auto;image-rendering:auto;shape-rendering:auto;text-rendering:auto;enable-background:accumulate"
             id="path3428"
             sodipodi:sides="6"
             sodipodi:cx="223.93674"
             sodipodi:cy="878.63831"
             sodipodi:r1="28.048939"
             sodipodi:r2="24.291094"
             sodipodi:arg1="0"
             sodipodi:arg2="0.52359878"
             inkscape:flatsided="true"
             inkscape:rounded="0"
             inkscape:randomized="0"
             d="m 251.98568,878.63831 -14.02447,24.29109 h -28.04894 l -14.02447,-24.29109 14.02447,-24.2911 h 28.04894 z" /><use
             x="0"
             y="0"
             xlink:href="#rect5884"
             id="use4252"
             transform="rotate(60,268.29786,489.4515)"
             width="100%"
             height="100%" /><rect
             style="color:#000000;clip-rule:nonzero;display:inline;overflow:visible;visibility:visible;opacity:1;isolation:auto;mix-blend-mode:normal;color-interpolation:sRGB;color-interpolation-filters:linearRGB;solid-color:#000000;solid-opacity:1;fill:#000000;fill-opacity:0.650794;fill-rule:evenodd;stroke:none;stroke-width:1px;stroke-linecap:butt;stroke-linejoin:miter;stroke-miterlimit:4;stroke-dasharray:none;stroke-dashoffset:0;stroke-opacity:1;marker:none;color-rendering:auto;image-rendering:auto;shape-rendering:auto;text-rendering:auto;enable-background:accumulate"
             id="rect4254"
             width="5.3947482"
             height="115.12564"
             x="545.71014"
             y="467.07007"
             transform="rotate(30,575.23539,-154.13386)" /></g></g><g
         id="layer3"
         inkscape:label="gradient-logo"
         style="display:inline;opacity:1"
         transform="translate(-156.33871,933.1905)"><path
           sodipodi:nodetypes="cccccccccc"
           inkscape:connector-curvature="0"
           id="path3336-6"
           d="m 309.54892,-710.38827 122.19683,211.67512 -56.15706,0.5268 -32.6236,-56.8692 -32.85645,56.5653 -27.90237,-0.011 -14.29086,-24.6896 46.81047,-80.4901 -33.22946,-57.8257 z"
           style="opacity:1;fill:url(#linearGradient4328);fill-opacity:1;fill-rule:evenodd;stroke:none;stroke-width:3;stroke-linecap:butt;stroke-linejoin:round;stroke-miterlimit:4;stroke-dasharray:none;stroke-opacity:1" /><use
           height="100%"
           width="100%"
           transform="rotate(60,407.11155,-715.78724)"
           id="use3439-6"
           inkscape:transform-center-y="151.59082"
           inkscape:transform-center-x="124.43045"
           xlink:href="#path3336-6"
           y="0"
           x="0" /><use
           height="100%"
           width="100%"
           transform="rotate(180,407.41868,-715.7565)"
           id="use3449-5"
           inkscape:transform-center-y="-139.94592"
           inkscape:transform-center-x="59.669705"
           xlink:href="#path3336-6"
           y="0"
           x="0" /><path
           style="color:#000000;clip-rule:nonzero;display:inline;overflow:visible;visibility:visible;opacity:1;isolation:auto;mix-blend-mode:normal;color-interpolation:sRGB;color-interpolation-filters:linearRGB;solid-color:#000000;solid-opacity:1;fill:url(#linearGradient4330);fill-opacity:1;fill-rule:evenodd;stroke:none;stroke-width:3;stroke-linecap:butt;stroke-linejoin:round;stroke-miterlimit:4;stroke-dasharray:none;stroke-dashoffset:0;stroke-opacity:1;color-rendering:auto;image-rendering:auto;shape-rendering:auto;text-rendering:auto;enable-background:accumulate"
           d="m 309.54892,-710.38827 122.19683,211.67512 -56.15706,0.5268 -32.6236,-56.8692 -32.85645,56.5653 -27.90237,-0.011 -14.29086,-24.6896 46.81047,-80.4901 -33.22946,-57.8256 z"
           id="path4260-0"
           inkscape:connector-curvature="0"
           sodipodi:nodetypes="cccccccccc" /><use
           height="100%"
           width="100%"
           transform="rotate(120,407.33916,-716.08356)"
           id="use4354-5"
           xlink:href="#path4260-0"
           y="0"
           x="0"
           style="display:inline" /><use
           height="100%"
           width="100%"
           transform="rotate(-120,407.28823,-715.86995)"
           id="use4362-2"
           xlink:href="#path4260-0"
           y="0"
           x="0"
           style="display:inline" /></g></g></g></svg>
