<?xml version="1.0" encoding="UTF-8"?>
<svg enable-background="new" version="1.1" viewBox="0 0 535.19 598.85" xml:space="preserve" xmlns="http://www.w3.org/2000/svg" xmlns:xlink="http://www.w3.org/1999/xlink"><defs><linearGradient id="linearGradient5855" x1="213.96" x2="282.26" y1="338.62" y2="515.97" gradientTransform="translate(983.36 601.39)" gradientUnits="userSpaceOnUse"><stop stop-color="#637ddf" offset="0"/><stop stop-color="#649afa" offset=".23169"/><stop stop-color="#719efa" offset="1"/></linearGradient><linearGradient id="linearGradient4328" x1="200.6" x2="290.09" y1="351.41" y2="506.19" gradientTransform="translate(70.65 -1055.2)" gradientUnits="userSpaceOnUse"><stop stop-color="#699ad7" offset="0"/><stop stop-color="#7eb1dd" offset=".24345"/><stop stop-color="#7ebae4" offset="1"/></linearGradient><linearGradient id="linearGradient4330" x1="-584.2" x2="-496.3" y1="782.34" y2="937.71" gradientTransform="translate(864.7 -1491.3)" gradientUnits="userSpaceOnUse"><stop stop-color="#415e9a" offset="0"/><stop stop-color="#4a6baf" offset=".23169"/><stop stop-color="#5277c3" offset="1"/></linearGradient></defs><g transform="translate(124.91 -17.179)"><g transform="matrix(1.0667 0 0 1.0667 -124.91 151.88)"><g transform="translate(-23.757 -24.85)" display="none"><rect transform="translate(-132.58 958.04)" x="132.58" y="-957.78" width="1543.4" height="483.74" color="#000000" color-rendering="auto" display="inline" enable-background="accumulate" fill="#fff" fill-rule="evenodd" image-rendering="auto" shape-rendering="auto" solid-color="#000000" style="isolation:auto;mix-blend-mode:normal"/></g><g transform="translate(-156.34 933.19)" display="none" fill-rule="evenodd" shape-rendering="auto"><rect x="132.65" y="-958.03" width="550.42" height="484.3" color="#000000" color-rendering="auto" display="inline" enable-background="accumulate" fill="#5c201e" image-rendering="auto" solid-color="#000000" style="isolation:auto;mix-blend-mode:normal"/><rect x="156.12" y="-933.03" width="501.94" height="434.3" color="#000000" color-rendering="auto" display="inline" enable-background="accumulate" fill="#c24a46" image-rendering="auto" solid-color="#000000" style="isolation:auto;mix-blend-mode:normal"/><rect x="658.03" y="-958.04" width="24.94" height="24.94" color="#000000" color-rendering="auto" display="inline" enable-background="accumulate" fill="#d98d8a" image-rendering="auto" solid-color="#000000" style="isolation:auto;mix-blend-mode:normal"/></g><g transform="translate(-156.34 933.19)"><g fill-rule="evenodd" shape-rendering="auto"><path d="m309.4-710.25 122.2 211.68-56.157 0.5268-32.624-56.869-32.856 56.565-27.902-0.011-14.291-24.69 46.81-80.49-33.229-57.826z" color="#000000" color-rendering="auto" enable-background="accumulate" fill="#5277c3" image-rendering="auto" solid-color="#000000" style="isolation:auto;mix-blend-mode:normal"/><g fill="#7ebae4"><path d="m353.51-797.44-122.22 211.66-28.535-48.37 32.938-56.688-65.415-0.1719-13.941-24.17 14.236-24.721 93.112 0.2939 33.464-57.69z" color="#000000" color-rendering="auto" enable-background="accumulate" image-rendering="auto" solid-color="#000000" style="isolation:auto;mix-blend-mode:normal"/><path d="m362.89-628.24 244.41 0.012-27.622 48.897-65.562-0.1817 32.559 56.737-13.961 24.158-28.527 0.032-46.301-80.784-66.693-0.1353z" color="#000000" color-rendering="auto" enable-background="accumulate" image-rendering="auto" solid-color="#000000" style="isolation:auto;mix-blend-mode:normal"/><path d="m505.14-720.99-122.2-211.68 56.157-0.5268 32.624 56.869 32.856-56.565 27.902 0.011 14.291 24.69-46.81 80.49 33.229 57.826z" color="#000000" color-rendering="auto" enable-background="accumulate" image-rendering="auto" solid-color="#000000" style="isolation:auto;mix-blend-mode:normal"/></g><g fill="#5277c3"><path d="m309.4-710.25 122.2 211.68-56.157 0.5268-32.624-56.869-32.856 56.565-27.902-0.011-14.291-24.69 46.81-80.49-33.229-57.826z" color="#000000" color-rendering="auto" enable-background="accumulate" image-rendering="auto" solid-color="#000000" style="isolation:auto;mix-blend-mode:normal"/><path d="m451.34-803.53-244.41-0.012 27.622-48.897 65.562 0.18175-32.559-56.737 13.961-24.159 28.527-0.0315 46.301 80.784 66.693 0.13524z" color="#000000" color-rendering="auto" enable-background="accumulate" image-rendering="auto" solid-color="#000000" style="isolation:auto;mix-blend-mode:normal"/><path d="m460.87-633.84 122.22-211.66 28.535 48.37-32.938 56.688 65.415 0.1718 13.941 24.17-14.236 24.721-93.112-0.294-33.464 57.69z" color="#000000" color-rendering="auto" enable-background="accumulate" image-rendering="auto" solid-color="#000000" style="isolation:auto;mix-blend-mode:normal"/></g></g><g transform="translate(72.039 -1799.4)" display="none"><g><path d="m460.61 594.73-250.86-1e-5 -125.43-217.26 125.43-217.25 250.86 1e-5 125.43 217.26z" color="#000000" display="inline" enable-background="accumulate" fill="#4e4d52" opacity=".236"/><path transform="translate(0 -308.27)" d="m385.59 773.07h-100.83l-50.417-87.326 50.417-87.326 100.83 1e-5 50.417 87.326z" color="#000000" display="inline" enable-background="accumulate" fill="#4e4d52"/><path transform="translate(0 -308.27)" d="m1216.6 938.53 123.05 228.14-42.681-1.2616-43.482-79.772-39.651 80.327-32.688-19.798 53.474-100.28-37.116-73.89z" fill="url(#linearGradient5855)" fill-rule="evenodd"/><rect id="rect5884" transform="rotate(-30)" x="-34.742" y="446.17" width="48.835" height="226.23" color="#000000" color-rendering="auto" display="inline" enable-background="accumulate" fill="#c53a3a" image-rendering="auto" opacity=".415" shape-rendering="auto" solid-color="#000000" style="isolation:auto;mix-blend-mode:normal"/><path transform="translate(0 -308.27)" d="m251.99 878.64-14.024 24.291h-28.049l-14.024-24.291 14.024-24.291h28.049z" color="#000000" color-rendering="auto" display="inline" enable-background="accumulate" fill-rule="evenodd" image-rendering="auto" opacity=".509" shape-rendering="auto" solid-color="#000000" style="isolation:auto;mix-blend-mode:normal"/></g><use transform="rotate(60 268.3 489.45)" width="100%" height="100%" xlink:href="#rect5884"/><rect transform="rotate(30 575.24 -154.13)" x="545.71" y="467.07" width="5.3947" height="115.13" color="#000000" color-rendering="auto" display="inline" enable-background="accumulate" fill-opacity=".65079" fill-rule="evenodd" image-rendering="auto" shape-rendering="auto" solid-color="#000000" style="isolation:auto;mix-blend-mode:normal"/></g></g><g transform="translate(-156.34 933.19)"><path id="path3336-6" d="m309.55-710.39 122.2 211.68-56.157 0.5268-32.624-56.869-32.856 56.565-27.902-0.011-14.291-24.69 46.81-80.49-33.229-57.826z" fill="url(#linearGradient4328)" fill-rule="evenodd"/><use transform="rotate(60 407.11 -715.79)" width="100%" height="100%" xlink:href="#path3336-6"/><use transform="rotate(-60 407.31 -715.7)" width="100%" height="100%" xlink:href="#path3336-6"/><use transform="rotate(180 407.42 -715.76)" width="100%" height="100%" xlink:href="#path3336-6"/><path id="path4260-0" d="m309.55-710.39 122.2 211.68-56.157 0.5268-32.624-56.869-32.856 56.565-27.902-0.011-14.291-24.69 46.81-80.49-33.229-57.826z" color="#000000" color-rendering="auto" enable-background="accumulate" fill="url(#linearGradient4330)" fill-rule="evenodd" image-rendering="auto" shape-rendering="auto" solid-color="#000000" style="isolation:auto;mix-blend-mode:normal"/><use transform="rotate(120 407.34 -716.08)" width="100%" height="100%" xlink:href="#path4260-0"/><use transform="rotate(240 407.29 -715.87)" width="100%" height="100%" xlink:href="#path4260-0"/></g></g><g transform="matrix(1.1818 .20838 -.20838 1.1818 -33.412 -60.011)"><path d="m289.89 103.25c24.964-0.49799 36.648 21.817 21.996 42.533-12.792 20.096-40.632 20.426-62.609 23.368-29.886 1.7318-61.552 3.2713-89.664-7.9737-16.69-7.2779-37.156-38.718-16.444-47.034 21.897-8.7918 20.774-4.8439 23.765-20.643 3.9954-21.103 13.825-43.125 32.084-57.095 18.08-9.5916 20.26 28.014 32.685 4.3336 15.253-21.438 39.382-6.6106 44.059 14.896 3.5293 16.23 9.9257 31.622 14.129 47.615z" fill="#006c34" fill-rule="evenodd" stroke="#000" stroke-miterlimit="10" stroke-width="6.576"/><path d="m139.46 117.15c33.629 45.494 159.89 33.565 178.35 2.8452" fill="none" stroke="#000" stroke-miterlimit="10" stroke-width="6.5763"/><path d="m159.55 106.9c37.367 10.263 79.315 17.188 116.77 3.5888 9.4778-3.2377 16.342-14.762 16.755 4.3447 0.24653 11.416 8.5353 19.303 1.6972 22.659-40.45 15.937-101.92 15.019-136.25-1.8088-5.1564-6.8669 0.7629-20.138 1.0262-28.784z" fill-rule="evenodd"/><g transform="translate(-145.69 -239.15)" fill-rule="evenodd" stroke="#000" stroke-miterlimit="10" stroke-width="6.5763"><path d="m517.03 288.79c-28.761 23.079-56.398 48.641-72.681 81.315-18.781-0.49478-11.036-18.056-11.642-30.611 0.69491-27.136-0.96154-54.299-4.5603-81.224 32.141-3.0752 68.01 6.113 88.883 30.52z" fill="#fff"/><path d="m430.46 278.98c24.116 4.7845 47.039 11.626 68.353 23.445-19.279 17.39-32.807 34.22-32.807 34.22-12.894-11.148-32.505-13.914-32.505-13.914s-2.3064-33.345-3.0404-43.751z"/></g></g></g></svg>
