<?xml version="1.0" standalone="no"?>
<!DOCTYPE svg PUBLIC "-//W3C//DTD SVG 20010904//EN"
 "http://www.w3.org/TR/2001/REC-SVG-20010904/DTD/svg10.dtd">
<svg version="1.0" xmlns="http://www.w3.org/2000/svg"
 width="686.000000pt" height="686.000000pt" viewBox="0 0 686.000000 686.000000"
 preserveAspectRatio="xMidYMid meet">
<metadata>
Created by potrace 1.14, written by Peter Selinger 2001-2017
</metadata>
<g transform="translate(0.000000,686.000000) scale(0.100000,-0.100000)"
fill="#000000" stroke="none">
<path d="M3314 6841 c-134 -45 -228 -143 -264 -274 -19 -68 -10 -63 -135 -80
-163 -23 -451 -103 -634 -176 -375 -151 -721 -372 -1004 -644 l-66 -64 55 -56
c31 -32 58 -57 60 -57 3 0 28 23 57 51 29 28 72 67 95 87 24 21 53 47 65 58
12 12 58 48 102 80 44 32 82 61 85 65 9 10 195 127 265 166 215 120 452 216
675 273 163 42 289 67 339 66 41 -1 44 -3 59 -41 43 -112 160 -213 274 -239
99 -23 189 -13 277 31 132 66 222 211 224 358 2 165 -101 324 -249 384 -77 32
-206 37 -280 12z m169 -145 c36 -6 87 -29 87 -38 0 -5 6 -8 13 -8 6 0 25 -16
41 -36 105 -132 69 -307 -79 -387 -56 -30 -164 -30 -221 0 -48 26 -100 82
-122 132 -20 48 -19 146 3 195 30 71 106 130 182 142 21 3 40 7 41 9 2 2 9 2
15 0 7 -3 25 -7 40 -9z"/>
<path d="M4185 6383 c-9 -32 -18 -66 -21 -75 -6 -21 -9 -20 206 -88 91 -29
170 -56 175 -60 6 -4 29 -14 52 -23 106 -41 374 -181 381 -199 2 -4 8 -8 13
-8 16 0 202 -128 244 -167 8 -7 18 -13 23 -13 6 0 12 -3 14 -7 2 -5 35 -35 73
-67 99 -83 278 -268 369 -379 42 -52 76 -97 76 -100 0 -4 -15 -27 -34 -52
-118 -154 -106 -388 26 -524 89 -91 186 -131 304 -126 44 1 86 5 94 7 139 42
241 134 290 263 57 151 4 352 -118 442 -20 15 -42 33 -49 39 -6 6 -24 16 -40
21 -62 24 -69 26 -83 30 -38 9 -144 10 -173 2 -69 -21 -70 -21 -114 39 -72 96
-93 121 -238 267 -257 261 -495 436 -810 595 -135 69 -174 87 -240 111 -11 4
-58 21 -105 38 -83 31 -233 78 -277 87 -19 4 -24 -3 -38 -53z m2016 -1265 c57
-34 83 -63 106 -118 39 -92 23 -184 -46 -262 -119 -135 -360 -81 -412 93 -34
115 25 244 135 295 68 31 155 28 217 -8z"/>
<path d="M2231 5403 c-17 -30 -31 -59 -31 -64 0 -5 -4 -9 -10 -9 -5 0 -10 -5
-10 -10 0 -6 -11 -27 -24 -48 l-23 -37 40 -70 c22 -39 51 -90 65 -115 14 -25
36 -62 49 -82 12 -21 23 -40 23 -42 0 -2 27 -51 60 -108 33 -56 60 -105 60
-108 0 -3 -136 -5 -302 -5 l-301 0 -69 -120 c-75 -129 -133 -233 -155 -277 -8
-15 -18 -30 -24 -33 -5 -4 -9 -10 -9 -16 0 -5 283 -10 723 -11 l722 -3 -46
-26 c-50 -28 -13 -26 -464 -28 l-101 -1 -28 -52 c-15 -29 -53 -96 -84 -150
-31 -53 -88 -150 -126 -215 l-69 -120 -433 2 -434 1 -42 -70 c-23 -39 -50 -88
-60 -108 -10 -20 -22 -39 -27 -42 -5 -3 20 -54 55 -114 35 -59 64 -110 64
-114 0 -5 137 -8 305 -8 168 0 305 -3 305 -6 0 -7 -32 -66 -40 -74 -3 -3 -10
-14 -16 -25 -6 -11 -63 -111 -128 -223 l-117 -203 88 -147 c108 -181 111 -187
147 -250 26 -47 30 -50 42 -34 7 9 14 23 14 30 0 6 5 12 10 12 6 0 10 4 10 9
0 5 20 44 45 85 25 42 45 80 45 84 0 5 5 13 12 20 12 12 64 101 90 152 7 14
15 27 18 30 3 3 14 23 25 45 11 22 23 42 26 45 3 3 34 55 68 115 35 61 71 124
81 140 33 57 213 370 232 405 32 57 39 59 37 10 -1 -35 -17 -71 -66 -158 -35
-62 -75 -134 -90 -160 -14 -26 -29 -51 -33 -57 -30 -40 -70 -128 -61 -138 8
-10 40 -66 148 -255 13 -23 53 -92 88 -153 56 -96 63 -114 53 -132 -36 -71
-274 -473 -283 -479 -5 -4 -6 -8 -1 -8 5 0 4 -6 -2 -12 -5 -7 -39 -63 -74
-123 l-64 -110 66 -115 67 -115 126 -1 c69 0 130 2 135 5 5 3 21 27 35 53 14
25 37 64 51 87 14 22 26 43 26 47 0 3 8 18 19 32 10 15 32 52 49 82 62 113
118 204 128 207 5 2 17 -14 27 -34 10 -21 75 -137 145 -258 l128 -220 247 0
c136 0 254 2 262 5 11 4 -1 32 -51 120 -37 63 -74 126 -82 140 -9 14 -17 27
-17 30 0 3 -8 16 -16 30 -46 72 -89 149 -89 159 0 6 -3 11 -7 11 -5 0 -13 10
-19 23 -16 35 -58 111 -64 117 -5 5 -176 299 -238 410 -14 25 -36 62 -49 82
-12 21 -23 41 -23 45 0 5 -9 19 -20 33 -29 37 -24 43 18 21 32 -17 53 -47 157
-227 66 -114 122 -212 124 -218 2 -6 9 -14 15 -18 6 -4 148 -8 316 -8 l306 0
73 -127 c41 -71 106 -184 146 -253 40 -69 84 -145 97 -170 32 -57 111 -194
114 -199 3 -3 226 -5 260 -2 11 1 134 204 134 222 0 4 -12 30 -27 56 -52 94
-215 378 -231 403 -9 14 -17 28 -17 32 0 3 -3 10 -7 14 -27 26 1 29 295 26
l303 -3 17 33 c9 18 32 60 51 93 19 33 49 87 67 120 17 33 40 72 50 87 11 14
19 30 19 35 0 4 9 19 20 33 46 58 85 55 -695 55 -393 0 -715 1 -715 2 0 0 19
12 43 26 46 27 17 25 438 27 l125 0 22 43 c27 53 66 121 98 169 13 21 24 40
24 43 0 3 11 24 26 46 25 40 33 53 94 164 19 33 38 63 42 66 4 3 200 5 436 4
284 -1 430 3 437 10 6 5 19 27 30 47 11 20 37 66 58 103 45 76 47 66 -41 210
l-48 80 -47 0 c-26 0 -47 2 -47 5 0 7 -78 3 -97 -4 -7 -3 -13 -2 -13 2 0 8
-85 6 -100 -3 -5 -3 -10 -3 -10 2 0 4 -19 7 -42 5 -24 -1 -50 -3 -58 -2 -8 0
-54 0 -102 1 -49 0 -88 2 -88 4 0 6 50 97 60 110 5 6 23 37 40 70 18 33 39 67
46 76 8 8 14 18 14 21 0 3 31 59 70 125 l69 120 -17 34 c-10 19 -30 53 -45 76
-15 24 -27 44 -27 46 0 10 -169 282 -176 284 -8 3 -85 -126 -92 -154 -2 -7 -8
-13 -13 -13 -5 0 -9 -4 -9 -10 0 -8 -72 -138 -100 -180 -6 -8 -13 -22 -17 -30
-4 -8 -32 -58 -63 -110 -31 -52 -67 -115 -81 -140 -13 -25 -26 -47 -29 -50 -9
-9 -41 -65 -58 -102 -9 -21 -20 -38 -24 -38 -5 0 -8 -4 -8 -10 0 -8 -56 -107
-90 -160 -6 -8 -13 -22 -17 -30 -4 -8 -17 -32 -31 -53 -13 -22 -35 -60 -49
-85 -37 -69 -43 -71 -43 -21 0 29 9 58 25 84 13 22 30 51 37 65 7 14 29 52 49
85 19 33 51 87 69 120 18 33 44 79 56 101 l23 42 -47 81 c-64 112 -56 97 -166
289 -92 161 -97 174 -82 191 9 10 16 20 16 23 0 3 37 68 81 144 115 196 121
206 139 239 9 17 23 41 32 55 56 90 139 237 144 257 4 15 0 31 -11 43 -10 11
-14 20 -10 20 4 0 1 8 -7 18 -8 9 -32 47 -52 85 -21 37 -41 68 -44 68 -4 1
-62 2 -130 3 -137 2 -130 5 -177 -79 -47 -83 -67 -119 -130 -226 -33 -56 -69
-118 -80 -138 -11 -20 -27 -46 -35 -58 l-14 -22 -19 31 c-10 18 -26 45 -36 62
-9 17 -52 93 -96 169 -44 76 -86 150 -94 165 -8 15 -24 43 -37 63 l-23 37
-256 -3 c-140 -1 -257 -4 -259 -6 -2 -2 28 -58 67 -124 39 -66 87 -149 107
-185 20 -36 46 -81 57 -100 11 -19 55 -94 96 -166 42 -72 85 -146 96 -165 12
-19 24 -40 28 -48 4 -8 42 -75 85 -149 43 -74 78 -136 78 -138 0 -2 15 -27 34
-56 18 -29 41 -69 51 -88 17 -34 17 -35 -1 -20 -11 9 -30 22 -44 28 -17 9 -67
86 -156 240 l-132 227 -303 1 c-167 1 -309 2 -314 3 -6 0 -21 22 -35 49 -14
26 -46 82 -71 124 -26 42 -45 78 -43 81 3 2 -2 10 -11 17 -8 7 -15 19 -15 26
0 8 -4 14 -8 14 -4 0 -13 12 -19 28 -12 28 -54 103 -63 112 -5 5 -30 50 -76
135 -15 28 -29 52 -33 55 -3 3 -15 23 -26 45 -11 22 -24 45 -30 51 -6 6 -62
11 -141 11 l-131 1 -32 -55z m1252 -1246 c34 -15 107 -80 107 -96 0 -5 3 -11
8 -13 20 -9 116 -243 106 -259 -4 -8 -530 -6 -537 1 -8 8 37 132 73 204 51
100 132 174 193 176 10 0 32 -6 50 -13z m-377 -88 c-28 -52 -60 -142 -101
-276 -3 -8 -39 -11 -124 -10 -67 0 -121 3 -121 4 0 2 16 29 36 60 43 67 142
169 204 209 25 16 47 31 50 34 7 7 84 47 87 45 2 -1 -13 -30 -31 -66z m716 19
c86 -52 191 -151 247 -234 23 -34 41 -63 41 -66 0 -2 -56 -4 -125 -5 -110 -1
-125 1 -126 15 -2 47 -44 168 -90 260 -20 39 -32 72 -28 72 5 0 41 -19 81 -42z
m-847 -665 l-1 -206 -133 -1 c-73 -1 -135 2 -138 6 -5 9 -11 33 -21 88 -9 44
-8 204 1 251 13 73 5 69 156 69 l136 0 0 -207z m765 170 c9 -93 2 -372 -10
-374 -3 -1 -135 -2 -293 -2 -232 -2 -291 1 -300 12 -12 15 -17 354 -5 384 7
16 31 17 306 17 l298 0 4 -37z m436 15 c14 -41 15 -52 18 -157 3 -103 -13
-218 -32 -230 -8 -5 -228 -7 -266 -2 -4 1 -5 23 -2 50 7 60 8 227 1 304 l-5
57 139 0 c136 0 140 -1 147 -22z m-1166 -554 c0 -27 62 -195 94 -256 19 -38
33 -68 30 -68 -14 0 -125 66 -172 102 -74 57 -199 208 -188 227 8 12 236 7
236 -5z m683 -15 c-3 -46 -63 -184 -105 -240 -106 -143 -212 -139 -315 11 -30
44 -97 190 -87 190 2 0 0 9 -6 21 -23 43 -16 44 256 43 l259 0 -2 -25z m407
23 c0 -2 -11 -22 -25 -45 -31 -54 -126 -155 -189 -202 -43 -32 -137 -85 -150
-85 -3 0 15 38 39 85 24 47 42 85 40 85 -2 0 3 16 11 35 8 19 14 37 14 40 -1
10 13 60 20 75 7 12 31 15 124 15 64 0 116 -1 116 -3z"/>
<path d="M687 5331 c-167 -54 -270 -187 -276 -357 -4 -114 36 -220 114 -296
l45 -45 -20 -48 c-33 -77 -120 -348 -126 -390 -1 -11 -3 -20 -4 -20 -1 0 -3
-7 -5 -15 -2 -8 -6 -26 -9 -40 -3 -14 -7 -35 -10 -46 -2 -12 -7 -37 -10 -55
-7 -39 -14 -83 -21 -119 -3 -14 -7 -47 -10 -75 -3 -27 -8 -66 -11 -85 -8 -45
-14 -552 -7 -564 3 -5 7 -27 9 -50 8 -94 23 -205 39 -281 4 -16 8 -39 9 -50 2
-11 16 -71 31 -133 23 -91 31 -111 44 -108 9 3 39 10 66 17 28 6 53 15 57 18
4 3 -4 51 -19 106 -14 55 -26 111 -28 125 -1 14 -5 34 -8 45 -3 11 -9 40 -12
65 -3 25 -8 52 -10 60 -3 14 -11 93 -21 210 -5 57 -4 370 0 430 7 87 17 175
21 200 3 14 7 41 9 60 17 140 76 368 144 556 l36 100 96 0 c78 -1 107 3 160
24 73 27 86 36 152 102 136 136 150 348 33 507 -27 37 -84 91 -120 114 -84 54
-235 71 -338 38z m267 -164 c68 -38 119 -135 119 -227 0 -172 -202 -287 -361
-206 -62 31 -94 70 -122 142 -26 70 -23 119 9 186 48 97 153 153 258 136 32
-5 75 -19 97 -31z"/>
<path d="M6385 4205 c-5 -1 -30 -8 -55 -16 -25 -7 -46 -14 -48 -15 -1 -1 6
-41 17 -90 23 -105 48 -253 58 -344 9 -86 10 -541 0 -605 -4 -27 -9 -70 -12
-95 -3 -25 -7 -56 -10 -70 -2 -14 -7 -37 -10 -52 -8 -46 -16 -81 -26 -128 -6
-25 -12 -54 -15 -64 -13 -68 -119 -380 -144 -426 -8 -14 -23 -17 -87 -15 -139
3 -244 -36 -325 -123 -81 -86 -118 -181 -113 -289 5 -110 19 -155 76 -232 81
-112 183 -161 329 -159 123 2 204 37 288 127 75 80 113 183 106 294 -8 152
-17 180 -79 253 l-44 51 40 103 c22 56 42 111 44 121 2 11 7 24 10 29 6 10 51
161 60 205 3 11 7 29 10 40 2 11 9 38 14 60 5 22 13 60 16 85 4 24 8 47 10 50
2 3 7 33 10 65 4 33 9 68 11 78 26 139 26 638 -1 777 -2 14 -6 41 -9 60 -15
106 -18 123 -30 175 -4 17 -12 50 -18 75 -5 25 -12 53 -15 63 -4 15 -29 21
-58 12z m-241 -2100 c123 -59 178 -222 113 -336 -53 -90 -135 -140 -233 -140
-221 0 -324 272 -163 429 70 69 195 89 283 47z"/>
<path d="M678 2331 c-122 -40 -203 -108 -251 -210 -100 -212 16 -475 247 -558
59 -21 151 -24 224 -7 l64 14 21 -27 c71 -91 165 -197 273 -307 81 -82 217
-198 329 -282 267 -199 544 -344 860 -449 118 -40 131 -42 143 -28 6 9 12 24
12 32 0 9 7 34 14 56 l14 40 -128 41 c-71 23 -143 48 -162 56 -18 9 -44 19
-58 23 -115 35 -502 256 -625 358 -11 9 -47 37 -80 64 -152 120 -379 351 -464
469 l-24 33 28 33 c16 18 39 57 51 86 97 216 -10 467 -236 556 -68 27 -183 30
-252 7z m182 -156 c0 11 87 -37 117 -65 50 -47 67 -86 69 -162 3 -82 -15 -132
-68 -193 -136 -154 -418 -39 -424 174 -4 123 87 231 209 247 23 4 44 8 46 9 1
2 14 0 27 -5 13 -5 24 -8 24 -5z"/>
<path d="M5494 1328 c-11 -13 -53 -52 -93 -88 -108 -96 -117 -104 -141 -120
-12 -8 -32 -23 -43 -34 -33 -28 -277 -188 -322 -211 -22 -11 -42 -22 -45 -25
-3 -3 -41 -23 -85 -44 -44 -21 -87 -42 -95 -47 -8 -5 -22 -12 -30 -15 -8 -3
-24 -10 -35 -14 -87 -38 -273 -106 -312 -115 -10 -2 -49 -13 -88 -24 -79 -22
-244 -57 -320 -67 -27 -3 -53 -8 -57 -11 -5 -2 -8 1 -8 7 0 28 -57 124 -103
171 -93 97 -251 146 -379 118 -175 -38 -313 -195 -322 -366 -9 -166 88 -330
239 -404 110 -54 242 -49 361 14 29 15 124 101 124 112 0 3 11 23 25 45 14 22
22 40 19 40 -4 0 -2 6 4 13 6 7 14 28 17 47 8 45 11 47 65 55 25 3 61 9 80 11
19 3 63 12 98 20 34 7 77 16 95 19 35 6 33 6 217 64 125 39 194 64 279 103 79
35 285 138 316 158 17 11 37 23 45 27 26 12 125 78 128 86 2 4 8 7 14 7 6 0
60 38 122 84 117 88 123 93 226 186 103 92 120 109 120 117 0 10 -82 103 -91
103 -3 0 -14 -10 -25 -22z m-1935 -704 c25 -15 49 -33 54 -40 4 -7 14 -20 23
-28 23 -24 51 -116 49 -164 -8 -152 -150 -258 -305 -228 -141 28 -230 194
-178 334 22 58 93 130 149 149 55 19 154 8 208 -23z"/>
</g>
</svg>
